<svg viewBox="0 0 209 44" fill="none" xmlns="http://www.w3.org/2000/svg">
<path d="M13.4114 27.296C13.2429 27.1271 12.9733 27.1271 12.8104 27.296L3.17203 36.9537C3.00353 37.1225 3.00353 37.3927 3.17203 37.5559C3.25628 37.6403 3.363 37.6797 3.47534 37.6797C3.58767 37.6797 3.69439 37.6403 3.77864 37.5559L13.417 27.8982C13.5855 27.7293 13.5855 27.4592 13.417 27.296H13.4114Z" fill="#506084"/>
<path d="M15.22 29.7104L5.58164 39.3681C5.41314 39.537 5.41314 39.8071 5.58164 39.9703C5.66589 40.0547 5.77261 40.0941 5.88494 40.0941C5.99728 40.0941 6.104 40.0547 6.18825 39.9703L15.8266 30.3126C15.9951 30.1438 15.9951 29.8736 15.8266 29.7104C15.6581 29.5472 15.3885 29.5416 15.2256 29.7104H15.22Z" fill="#506084"/>
<path d="M30.4639 25.6639L25.465 20.6549L36.2323 9.86595H38.4622C38.5745 9.86595 38.6812 9.82093 38.7655 9.74213L42.3771 6.12331C42.4557 6.04451 42.5006 5.93195 42.5006 5.81939C42.5006 5.70683 42.4557 5.5999 42.3771 5.51548L37.5579 0.686621C37.3894 0.51778 37.1198 0.51778 36.9569 0.686621L33.3453 4.30545C33.2667 4.38424 33.2218 4.4968 33.2218 4.60936V6.84369L22.4544 17.6326L17.4555 12.6237C18.6126 9.37068 17.8037 5.72934 15.3548 3.28115C13.0744 0.996163 9.72683 0.118189 6.62076 0.990535C6.47472 1.02993 6.36239 1.14812 6.32307 1.29445C6.28375 1.44078 6.32307 1.59836 6.43541 1.7053L9.80546 5.08212L8.68773 9.26938L4.50886 10.3894L1.1388 7.01254C1.03208 6.9056 0.874811 6.86058 0.728775 6.89997C0.582739 6.93937 0.464787 7.05193 0.42547 7.19826C-0.445129 10.3162 0.431087 13.6705 2.71149 15.9499C5.1604 18.3981 8.78883 19.2085 12.0353 18.0547L17.0342 23.0637L15.3829 24.7183C14.692 24.33 13.9226 24.1105 13.1137 24.1105C11.8612 24.1105 10.6873 24.6002 9.79985 25.4838L1.36909 33.9314C-0.456362 35.7606 -0.456362 38.7434 1.36909 40.5725L2.57669 41.7769C3.46414 42.6662 4.63804 43.1502 5.89058 43.1502C7.14312 43.1502 8.31702 42.6605 9.20447 41.7769L17.6352 33.3292C18.5227 32.4456 19.0057 31.2638 19.0057 30.0087C19.0057 29.1983 18.7811 28.4272 18.3991 27.735L20.0504 26.0803L25.0494 31.0893C23.8923 34.3423 24.7011 37.9836 27.15 40.4318C28.8463 42.1315 31.1323 43.0489 33.4801 43.0489C34.2833 43.0489 35.0921 42.9419 35.8897 42.7168C36.0358 42.6774 36.1481 42.5592 36.1874 42.4129C36.2267 42.2666 36.1874 42.109 36.0751 42.002L32.705 38.6252L33.8228 34.438L38.0016 33.318L41.3717 36.6948C41.4784 36.8017 41.6357 36.8468 41.7817 36.8074C41.9277 36.768 42.0457 36.6554 42.085 36.5091C42.9556 33.3912 42.0794 30.0368 39.799 27.7575C37.3501 25.3037 33.7216 24.4988 30.4752 25.6582L30.4639 25.6639ZM12.4397 17.2556C12.3218 17.1374 12.142 17.098 11.9848 17.1599C8.98542 18.3361 5.58166 17.627 3.30687 15.3477C1.42525 13.4623 0.59959 10.7608 1.0714 8.16066L4.07075 11.166C4.17747 11.273 4.33474 11.318 4.48077 11.2786L9.13707 10.0292C9.28311 9.98977 9.40106 9.87721 9.44038 9.72525L10.6873 5.06523C10.7266 4.91891 10.6873 4.76132 10.575 4.65439L7.57561 1.64902C10.1762 1.17063 12.8666 1.99795 14.7482 3.88897C17.023 6.16833 17.7307 9.57892 16.5624 12.573C16.4557 12.8319 16.4669 12.8488 21.8478 18.2461L17.6296 22.4728L12.4341 17.2668L12.4397 17.2556ZM33.9463 7.32771C34.025 7.24891 34.0699 7.13635 34.0699 7.02379V4.78946L37.2602 1.59836L41.4784 5.82502L38.2881 9.02175H36.0582C35.9459 9.02175 35.8392 9.06677 35.7549 9.14556L17.9329 27.0033L16.1243 25.1911L33.9463 7.33333V7.32771ZM17.0286 32.727L8.59786 41.1747C7.8733 41.9007 6.91283 42.3003 5.88496 42.3003C4.8571 42.3003 3.89663 41.9007 3.17207 41.1747L1.96446 39.9703C0.470404 38.4733 0.470404 36.0363 1.96446 34.5393L10.3952 26.0916C11.1198 25.3656 12.0803 24.966 13.1081 24.966C14.136 24.966 15.0965 25.3656 15.821 26.0916L17.023 27.296C17.7476 28.022 18.1464 28.9844 18.1464 30.0143C18.1464 31.0386 17.7476 32.001 17.023 32.727H17.0286ZM41.4222 35.5579L38.4229 32.5526C38.3162 32.4456 38.1589 32.4062 38.0129 32.44L33.3566 33.6894C33.2105 33.7288 33.0926 33.847 33.0532 33.9934L31.8063 38.659C31.767 38.8053 31.8063 38.9629 31.9187 39.0698L34.918 42.0752C32.3175 42.548 29.627 41.7263 27.7398 39.8353C25.465 37.5559 24.7573 34.1453 25.9312 31.1399C25.993 30.9824 25.9537 30.8023 25.8357 30.6841L20.6402 25.4781L24.8584 21.2515L30.0539 26.4574C30.1719 26.5756 30.3516 26.615 30.5089 26.5531C33.5082 25.3768 36.912 26.086 39.1868 28.3653C41.0684 30.2507 41.894 32.9522 41.4222 35.5523V35.5579Z" fill="#506084"/>
<path d="M73.1232 9.60143V1.12561H81.5876V26.5306H73.1232V18.0885H56.739V23.7053H59.5587V20.88H62.3783V26.5362H53.9138V15.2295H75.9765V23.7109H78.7624V3.95088H75.9765V12.4323H59.553V3.95088H56.7334V12.4323H53.9138V1.12561H62.3783V9.60706H73.1232V9.60143ZM100.471 0C108.065 0 114.249 6.19647 114.249 13.845C114.249 21.4935 108.065 27.6505 100.471 27.6505C92.8773 27.6505 86.6539 21.4878 86.6539 13.845C86.6539 6.2021 92.838 0 100.471 0ZM100.471 24.8647C106.549 24.8647 111.469 19.9345 111.469 13.845C111.469 7.75544 106.549 2.79151 100.471 2.79151C94.3938 2.79151 89.4399 7.75544 89.4399 13.845C89.4399 19.9345 94.3601 24.8647 100.471 24.8647ZM100.471 5.58301C104.993 5.58301 108.683 9.3144 108.683 13.845C108.683 18.3755 104.993 22.0732 100.471 22.0732C95.9497 22.0732 92.2258 18.3755 92.2258 13.845C92.2258 9.3144 95.9497 5.58301 100.471 5.58301ZM100.471 19.2817C103.471 19.2817 105.897 16.856 105.897 13.845C105.897 10.834 103.476 8.37452 100.471 8.37452C97.4662 8.37452 95.0117 10.8002 95.0117 13.845C95.0117 16.8897 97.4325 19.2817 100.471 19.2817ZM140.547 15.2576C126.19 15.2576 125.971 15.2238 125.792 15.2238H125.719C122.101 14.9312 119.315 11.8526 119.315 8.19442C119.315 4.28294 122.461 1.12561 126.37 1.12561H141.563C144.602 1.12561 147.062 3.59069 147.062 6.66922V9.60706H126.409C125.578 9.57329 125.033 8.95421 125.033 8.19442C125.033 7.43464 125.612 6.81555 126.37 6.78179H144.237V6.70862C144.237 5.14965 143.041 3.95651 141.49 3.95651H126.37C124.056 3.95651 122.141 5.8419 122.141 8.19442C122.141 10.3668 123.77 12.1059 125.831 12.3986C140.26 12.3986 140.406 12.4323 140.659 12.4323C144.276 12.725 147.062 15.8373 147.062 19.4618C147.062 23.3732 143.917 26.5306 140.047 26.5306H124.82C121.781 26.5306 119.321 24.0655 119.321 21.0207V18.0491H140.047C141.822 18.156 141.822 20.7675 140.047 20.8744H122.141V20.9476C122.141 22.5065 123.337 23.6997 124.887 23.6997H140.041C142.322 23.6997 144.271 21.8874 144.271 19.4618C144.271 17.2893 142.642 15.5503 140.547 15.2576ZM152.117 9.60143V1.12561H179.785V9.60706H172.984V6.78179H176.96V3.95651H154.931V6.78179H164.553L164.519 23.7053H167.339V6.77616H170.158V26.5306H161.694V9.60706H152.112L152.117 9.60143ZM193.316 18.0491L194.945 15.2238L199.865 23.7053H203.123C202.399 22.5459 195.529 10.7664 194.951 9.60706L187.862 21.9268L185.223 26.5306H175.455C176 25.6245 179.651 19.2479 183.161 13.119C185.223 9.52827 187.503 5.50985 190.07 1.12561H193.328L186.599 12.7982L180.342 23.7053H183.599C188.048 15.8429 190.834 11.1998 194.956 3.95088C195.209 4.38424 207.942 26.4912 208.015 26.5306H198.248L193.328 18.0491H193.316Z" fill="#3990D7"/>
<path d="M88.749 39.4075C88.6422 39.4075 88.5411 39.43 88.4344 39.4638C88.2098 39.5426 88.0019 39.6946 87.8671 39.8972C87.7436 40.0829 87.693 40.2968 87.6818 40.5106C87.6705 40.6795 87.6818 40.8483 87.766 41.0003C87.8503 41.1635 87.9907 41.2985 88.1143 41.4336C88.2266 41.5518 88.3333 41.6644 88.4569 41.7713C88.5692 41.8782 88.6928 41.957 88.8051 42.0696C88.968 42.2328 89.0242 42.5986 88.9119 42.7956C88.7714 43.0151 88.4457 43.0489 88.2322 42.9813C88.1199 42.9419 88.0244 42.8575 87.9289 42.7956C87.8728 42.7562 87.8053 42.7393 87.766 42.8069C87.7436 42.8406 87.7323 42.88 87.7211 42.9138C87.6818 43.0545 87.6312 43.1783 87.6256 43.3303C87.6256 43.5047 87.9458 43.5498 88.0693 43.5779C88.6142 43.7073 89.2657 43.606 89.5465 43.0657C89.6027 42.9532 89.642 42.8406 89.6645 42.7168C89.6645 42.6718 89.6757 42.6324 89.6757 42.5874C89.6982 42.2328 89.5522 41.9345 89.3387 41.6644C89.1084 41.3773 88.8108 41.1747 88.5411 40.9271C88.3726 40.7695 88.3165 40.5275 88.3614 40.308C88.412 40.0716 88.6816 40.0097 88.8894 40.0716C88.9512 40.0885 89.0017 40.1167 89.0579 40.1504C89.0916 40.1673 89.1253 40.1898 89.1702 40.1898C89.2489 40.1898 89.2601 40.1335 89.2769 40.0716C89.3163 39.9309 89.3837 39.824 89.4117 39.6889C89.4398 39.537 89.3163 39.5088 89.1983 39.4751C89.0523 39.4357 88.9175 39.4075 88.7658 39.4131L88.749 39.4075ZM91.3832 42.5874C91.3832 42.396 91.3551 41.867 91.3608 41.7544C91.3608 41.7375 91.372 41.715 91.3776 41.715C91.3888 41.715 91.4113 41.7263 91.4169 41.7319C91.5967 41.9627 92.4223 43.5779 92.5234 43.5835C92.5515 43.5835 92.5796 43.5835 92.6077 43.5835C92.793 43.5723 92.9615 43.5835 93.1525 43.5835C93.3435 43.5835 93.2199 43.3978 93.1862 43.3471C93.1357 43.274 92.4785 42.0921 92.4392 42.0246C92.3268 41.8388 92.237 41.6306 92.1246 41.4505C92.1134 41.428 92.1022 41.3942 92.1078 41.3717C92.119 41.3042 92.1359 41.2423 92.164 41.186C92.2988 40.9271 92.4336 40.6569 92.5964 40.4093C92.7762 40.1279 92.8717 39.9478 93.0177 39.6946C93.0514 39.6326 93.0739 39.5651 93.0963 39.4976C93.0963 39.4694 93.0795 39.4413 93.0458 39.4413C92.9391 39.4413 92.5571 39.4413 92.4392 39.4413C92.383 39.4413 92.3268 39.4525 92.2988 39.5032C92.2257 39.6439 91.4843 41.0003 91.4113 41.1241C91.4113 41.1353 91.3888 41.141 91.372 41.141C91.372 41.141 91.3608 41.1241 91.3608 41.1128C91.3608 40.8033 91.4113 39.7902 91.4001 39.582C91.4001 39.4582 91.372 39.4469 91.2484 39.4413C91.1136 39.4413 90.9339 39.4413 90.7991 39.4413C90.6755 39.4413 90.6643 39.5088 90.6474 39.5989C90.6474 39.6158 90.6474 40.1392 90.6474 40.3699C90.6474 40.7076 90.6194 42.8237 90.6587 43.4991C90.6587 43.5666 90.6755 43.606 90.7317 43.606C90.8833 43.5948 91.1024 43.606 91.254 43.606C91.3608 43.606 91.3776 43.5948 91.3776 43.4203C91.3776 43.1839 91.4001 42.9644 91.4001 42.6718C91.4001 42.6493 91.4001 42.6268 91.4001 42.6042L91.3832 42.5874ZM94.978 42.1596C94.9611 41.5293 94.9667 40.8596 94.978 40.2292C94.978 40.0379 94.9667 39.824 94.9667 39.6326C94.9667 39.4244 94.8825 39.4357 94.7758 39.43C94.6129 39.43 94.5455 39.43 94.3826 39.43C94.2759 39.43 94.2309 39.4525 94.2309 39.5595C94.2309 40.1054 94.2141 41.6362 94.2197 41.8613C94.2253 42.0865 94.2478 43.0939 94.2365 43.3134C94.2365 43.3922 94.2365 43.471 94.2365 43.5441C94.2365 43.5723 94.259 43.6004 94.3039 43.6004C94.4893 43.5892 94.6578 43.5892 94.8432 43.5835C94.9106 43.5835 94.9667 43.561 94.9948 43.4878C94.9948 43.4485 94.9836 42.4354 94.9836 42.1709L94.978 42.1596ZM95.9553 39.976C95.9553 40.3193 95.9834 42.8294 95.9777 43.0151C95.9777 43.1896 95.9777 43.3584 95.9777 43.5329C95.9777 43.561 95.9946 43.5892 96.0227 43.5892C96.4102 43.606 96.7922 43.5723 97.1797 43.5779C97.3089 43.5779 97.4325 43.5779 97.5561 43.5779C97.6796 43.5779 97.6909 43.5216 97.6852 43.4203C97.6852 43.2627 97.6852 43.1277 97.6852 42.9757C97.6852 42.8969 97.6347 42.8688 97.5673 42.8688C97.3426 42.8688 97.1123 42.8688 96.8877 42.8688C96.8483 42.8688 96.809 42.8688 96.7697 42.8688C96.7023 42.8688 96.6855 42.8463 96.6798 42.7731V42.6887C96.663 42.2272 96.6967 41.7544 96.6967 41.2929C96.6967 40.9046 96.6967 40.5556 96.6967 40.2123C96.6967 40.0604 96.6967 39.914 96.6967 39.7677C96.6967 39.6777 96.6967 39.582 96.6742 39.4976C96.663 39.4638 96.6461 39.4188 96.6068 39.4188H96.0845C95.9946 39.4188 95.9665 39.4807 95.9609 39.5707V39.9647L95.9553 39.976ZM98.6513 39.976C98.6513 40.3193 98.6794 42.8294 98.6738 43.0151C98.6738 43.1896 98.6738 43.3584 98.6738 43.5329C98.6738 43.561 98.6906 43.5892 98.7187 43.5892C99.1063 43.606 99.4882 43.5723 99.8758 43.5779C100.005 43.5779 100.129 43.5779 100.252 43.5779C100.376 43.5779 100.387 43.5216 100.381 43.4203C100.381 43.2627 100.381 43.1277 100.381 42.9757C100.381 42.8969 100.331 42.8688 100.263 42.8688C100.039 42.8688 99.8084 42.8688 99.5837 42.8688C99.5444 42.8688 99.5051 42.8688 99.4657 42.8688C99.3983 42.8688 99.3815 42.8463 99.3759 42.7731V42.6887C99.359 42.2272 99.3927 41.7544 99.3927 41.2929C99.3927 40.9046 99.3927 40.5556 99.3927 40.2123C99.3927 40.0604 99.3927 39.914 99.3927 39.7677C99.3927 39.6777 99.3927 39.582 99.3703 39.4976C99.359 39.4638 99.3422 39.4188 99.3029 39.4188H98.7805C98.6906 39.4188 98.6625 39.4807 98.6569 39.5707V39.9647L98.6513 39.976ZM101.353 42.4523C101.353 42.593 101.353 42.7337 101.353 42.88C101.353 43.0601 101.37 43.2346 101.381 43.4147C101.381 43.4766 101.398 43.4935 101.454 43.5047C101.572 43.5329 101.679 43.5385 101.797 43.5385C102.094 43.5272 102.392 43.5498 102.695 43.5385C102.819 43.5385 102.875 43.5385 102.993 43.5216C103.105 43.4991 103.145 43.4372 103.145 43.274C103.133 43.1671 103.145 43.122 103.145 42.9982C103.145 42.8125 103.016 42.7562 102.909 42.7618C102.83 42.7618 102.459 42.7618 102.313 42.7618C102.066 42.7618 102.106 42.8012 102.106 42.5423C102.106 42.3341 102.106 42.0583 102.106 41.8445C102.106 41.7263 102.117 41.6869 102.229 41.6869H102.92C103.032 41.7038 103.105 41.625 103.105 41.5068C103.105 41.3886 103.117 41.383 103.117 41.2704L103.1 41.1016C103.089 41.0059 103.055 40.9721 102.959 40.9721C102.898 40.9721 102.836 40.9721 102.774 40.9834C102.538 41.0003 102.426 40.9665 102.195 40.9834C102.117 40.9834 102.106 40.9721 102.1 40.899C102.078 40.6851 102.1 40.4431 102.122 40.2292C102.122 40.1392 102.151 40.1223 102.235 40.1167H103.016C103.122 40.0998 103.156 40.1054 103.15 39.9985C103.139 39.8353 103.15 39.672 103.139 39.5088C103.128 39.4188 103.1 39.4019 102.999 39.4019C102.83 39.4019 102.796 39.4019 102.628 39.4188C102.459 39.4188 101.797 39.4188 101.639 39.4188C101.409 39.4188 101.392 39.4019 101.387 39.6833C101.375 39.9028 101.387 40.1335 101.387 40.3587C101.387 40.747 101.364 42.1371 101.375 42.4467L101.353 42.4523ZM106.425 42.5705C106.459 42.4973 106.487 42.4242 106.515 42.3566C106.577 42.1765 106.588 41.9964 106.605 41.8107C106.638 41.4224 106.627 41.0284 106.526 40.6513C106.402 40.1673 106.094 39.7283 105.627 39.5201C105.42 39.4244 105.178 39.4132 104.953 39.4188C104.717 39.4188 104.47 39.4075 104.234 39.43C104.167 39.43 104.133 39.4694 104.122 39.5313C104.111 39.5989 104.1 39.6664 104.1 39.7227C104.111 40.0604 104.1 41.0622 104.111 41.231C104.111 41.383 104.1 41.5631 104.1 41.715C104.1 42.0865 104.1 42.4635 104.1 42.835C104.1 42.9926 104.1 43.1389 104.1 43.2965C104.1 43.4653 104.038 43.5329 104.493 43.5329C104.897 43.5329 105.318 43.4991 105.7 43.3528C106.054 43.2233 106.273 42.8969 106.431 42.5649L106.425 42.5705ZM104.819 41.9964V41.3323C104.819 40.9102 104.83 40.6401 104.819 40.2855V40.218C104.819 40.0998 104.841 40.0941 104.965 40.0941C105.127 40.0941 105.24 40.1279 105.38 40.1842C105.521 40.2405 105.594 40.3643 105.667 40.4768C105.807 40.702 105.858 40.9552 105.869 41.2141C105.869 41.3661 105.88 41.5124 105.88 41.6644C105.88 42.3735 105.464 42.8688 105.099 42.8688C104.858 42.8688 104.819 42.8857 104.819 42.7224C104.819 42.5592 104.83 42.3904 104.83 42.2215C104.83 42.1484 104.83 42.0696 104.83 41.9964H104.819ZM111.036 41.9514C111.036 42.199 111.036 42.6943 111.025 42.6943V43.4485C111.025 43.4822 111.025 43.5385 111.036 43.5723C111.053 43.6117 111.104 43.6004 111.137 43.5948C111.3 43.5779 111.458 43.5948 111.62 43.5948C111.8 43.5948 111.744 43.319 111.738 43.2064C111.716 42.9644 111.738 41.1072 111.738 40.4375C111.738 40.1392 111.727 39.5201 111.71 39.4976C111.682 39.4469 111.609 39.4357 111.553 39.43C111.429 39.4075 111.368 39.4413 111.188 39.4413C111.008 39.4413 110.997 39.4976 110.997 39.6889V39.8578C110.997 39.9928 111.014 40.9215 111.014 41.0734C111.014 41.1466 111.014 41.1522 110.935 41.1522C110.75 41.1522 110.497 41.1691 110.312 41.1522C110.042 41.1297 110.104 41.1522 110.087 40.9046V40.8708C110.087 40.5162 110.132 39.5932 110.115 39.5426C110.087 39.4582 110.053 39.4413 109.98 39.4469C109.812 39.4582 109.643 39.43 109.475 39.4469C109.419 39.4469 109.402 39.4694 109.385 39.5257C109.385 39.5539 109.374 39.582 109.374 39.6101C109.374 39.7846 109.385 40.0154 109.391 40.1842L109.374 43.471C109.374 43.6173 109.503 43.6004 109.784 43.6004C110.042 43.6004 110.11 43.6623 110.11 43.3528C110.11 43.1051 110.093 42.79 110.098 42.5367C110.098 42.3454 110.098 42.154 110.098 41.9627C110.098 41.8895 110.121 41.867 110.188 41.867C110.43 41.867 110.699 41.867 110.941 41.867C111.019 41.867 111.036 41.8782 111.036 41.9683V41.9514ZM113.216 43.5441C113.216 43.5441 113.283 43.5441 113.334 43.5441C113.446 43.5441 113.48 43.1445 113.491 43.0601C113.491 42.9926 113.513 42.987 113.569 42.9757C113.845 42.9419 113.985 42.9644 114.26 42.9757C114.322 42.9757 114.356 43.0038 114.373 43.0545L114.412 43.1839C114.446 43.2796 114.474 43.3922 114.507 43.4878C114.53 43.5554 114.536 43.5498 114.603 43.5498C114.693 43.5498 115.013 43.5498 115.108 43.5498C115.238 43.5498 115.148 43.2909 115.131 43.2458C115.08 43.0883 115.069 42.9307 115.019 42.7731C114.996 42.7056 114.367 39.7058 114.339 39.5426C114.3 39.4413 114.339 39.4357 114.243 39.4357C114.058 39.4357 113.856 39.4469 113.665 39.4357C113.586 39.4357 113.592 39.4582 113.581 39.5426C113.569 39.6214 113.373 40.4994 113.294 40.8652C113.193 41.3267 113.109 41.7713 112.997 42.2215C112.957 42.3848 112.693 43.5385 112.727 43.5441C112.744 43.5554 112.772 43.5441 112.794 43.5441C112.935 43.5441 113.058 43.5441 113.232 43.5441H113.216ZM113.94 42.2891H113.822C113.665 42.2891 113.659 42.2891 113.699 42.1259C113.727 42.002 113.878 41.3436 113.906 41.186C113.906 41.1747 113.923 41.1635 113.929 41.1635C113.94 41.1635 113.951 41.1747 113.957 41.1804C113.979 41.2479 114.002 41.4111 114.024 41.4786C114.075 41.6869 114.109 41.867 114.159 42.0921C114.21 42.2891 114.187 42.2891 114.086 42.2891C114.036 42.2891 113.985 42.2891 113.935 42.2891H113.94ZM118.484 39.5595C118.501 39.6383 118.484 43.3303 118.484 43.4259C118.484 43.5948 118.422 43.5892 118.31 43.5892C118.141 43.5892 117.911 43.6173 117.861 43.561C117.816 43.5216 116.996 41.5406 116.883 41.2929C116.872 41.2704 116.844 41.2141 116.822 41.2254C116.793 41.2366 116.805 41.276 116.805 41.2985C116.805 41.4899 116.833 43.1671 116.833 43.4316C116.833 43.5666 116.833 43.5892 116.715 43.5892H116.44C116.367 43.5892 116.277 43.5892 116.209 43.5892C116.153 43.5892 116.125 43.5723 116.119 43.516V43.077C116.131 42.6099 116.119 39.8521 116.119 39.6439C116.119 39.4638 116.17 39.4357 116.344 39.4357C116.468 39.4357 116.586 39.4357 116.709 39.4357C116.749 39.4357 116.771 39.4357 116.793 39.4919C116.945 39.8409 117.58 41.4449 117.681 41.6362C117.698 41.6756 117.76 41.8276 117.793 41.8445C117.793 41.8445 117.81 41.7094 117.81 41.6756C117.81 41.5912 117.765 39.6439 117.765 39.6101C117.765 39.5538 117.748 39.5032 117.776 39.4638C117.793 39.4413 117.866 39.4357 117.894 39.43C118.052 39.4188 118.231 39.43 118.389 39.43C118.467 39.43 118.462 39.4863 118.478 39.5595H118.484ZM121.787 42.5705C121.82 42.4973 121.849 42.4242 121.877 42.3566C121.938 42.1765 121.95 41.9964 121.966 41.8107C122 41.4224 121.989 41.0284 121.888 40.6513C121.764 40.1673 121.455 39.7283 120.989 39.5201C120.781 39.4244 120.54 39.4132 120.315 39.4188C120.079 39.4188 119.832 39.4075 119.596 39.43C119.529 39.43 119.495 39.4694 119.484 39.5313C119.473 39.5989 119.461 39.6664 119.461 39.7227C119.473 40.0604 119.461 41.0622 119.473 41.231C119.473 41.383 119.461 41.5631 119.461 41.715C119.461 42.0865 119.461 42.4635 119.461 42.835C119.461 42.9926 119.461 43.1389 119.461 43.2965C119.461 43.4653 119.4 43.5329 119.855 43.5329C120.259 43.5329 120.68 43.4991 121.062 43.3528C121.416 43.2233 121.635 42.8969 121.792 42.5649L121.787 42.5705ZM120.18 41.9964V41.3323C120.18 40.9102 120.192 40.6401 120.18 40.2855V40.218C120.18 40.0998 120.203 40.0941 120.326 40.0941C120.489 40.0941 120.602 40.1279 120.742 40.1842C120.882 40.2405 120.955 40.3643 121.029 40.4768C121.169 40.702 121.219 40.9552 121.231 41.2141C121.231 41.3661 121.242 41.5124 121.242 41.6644C121.242 42.3735 120.826 42.8688 120.461 42.8688C120.22 42.8688 120.18 42.8857 120.18 42.7224C120.18 42.5592 120.192 42.3904 120.192 42.2215C120.192 42.1484 120.192 42.0696 120.192 41.9964H120.18ZM124.073 39.4075C123.966 39.4075 123.865 39.43 123.758 39.4638C123.534 39.5426 123.326 39.6946 123.191 39.8972C123.067 40.0829 123.017 40.2968 123.006 40.5106C122.994 40.6795 123.006 40.8483 123.09 41.0003C123.174 41.1635 123.315 41.2985 123.438 41.4336C123.55 41.5518 123.657 41.6644 123.781 41.7713C123.893 41.8782 124.017 41.957 124.129 42.0696C124.292 42.2328 124.348 42.5986 124.236 42.7956C124.095 43.0151 123.769 43.0489 123.556 42.9813C123.444 42.9419 123.348 42.8575 123.253 42.7956C123.197 42.7562 123.129 42.7393 123.09 42.8069C123.067 42.8406 123.056 42.88 123.045 42.9138C123.006 43.0545 122.955 43.1783 122.949 43.3303C122.949 43.5047 123.27 43.5498 123.393 43.5779C123.938 43.7073 124.59 43.606 124.87 43.0657C124.927 42.9532 124.966 42.8406 124.988 42.7168C124.988 42.6718 125 42.6324 125 42.5874C125.022 42.2328 124.876 41.9345 124.663 41.6644C124.432 41.3773 124.135 41.1747 123.865 40.9271C123.696 40.7695 123.64 40.5275 123.685 40.308C123.736 40.0716 124.005 40.0097 124.213 40.0716C124.275 40.0885 124.326 40.1167 124.382 40.1504C124.415 40.1673 124.449 40.1898 124.494 40.1898C124.573 40.1898 124.584 40.1335 124.601 40.0716C124.64 39.9309 124.707 39.824 124.736 39.6889C124.764 39.537 124.64 39.5088 124.522 39.4751C124.376 39.4357 124.241 39.4075 124.09 39.4131L124.073 39.4075ZM126.162 43.3809L126.28 43.1445C126.297 43.1051 126.314 43.0601 126.331 43.0207C126.342 42.9982 126.353 42.925 126.381 42.9307C126.393 42.9307 126.404 42.9307 126.409 42.9419C126.527 43.0038 126.634 43.0714 126.741 43.1389C126.758 43.1502 126.774 43.1614 126.786 43.1727C126.825 43.229 126.763 43.3078 126.73 43.3471C126.701 43.3978 126.662 43.4372 126.623 43.4766C126.612 43.4935 126.583 43.516 126.567 43.5329C126.409 43.6848 126.252 43.8255 126.072 43.955C126.044 43.9719 126.016 43.9944 125.982 44C125.949 44.0113 125.904 44 125.881 43.9719C125.865 43.9381 125.87 43.8931 125.881 43.8593C125.921 43.7524 125.988 43.6679 126.044 43.5723C126.056 43.561 126.061 43.5498 126.072 43.5329L126.162 43.3809ZM130.195 42.987C130.195 43.1614 130.195 43.3303 130.206 43.5047C130.206 43.5835 130.206 43.5948 130.291 43.5948H130.79C130.897 43.5948 130.875 43.4147 130.869 43.3246L130.886 40.218C130.886 40.1335 130.914 40.1054 131.026 40.1054H131.515C131.633 40.1054 131.605 39.9084 131.605 39.7677C131.605 39.6439 131.65 39.4357 131.515 39.4357C131.42 39.4357 130.521 39.4357 130.15 39.4357C129.965 39.4357 129.819 39.4357 129.633 39.4357C129.493 39.4357 129.499 39.5482 129.499 39.7902C129.499 39.9478 129.499 40.0998 129.628 40.0998C129.706 40.0998 130.021 40.0998 130.111 40.0998C130.167 40.0998 130.206 40.1167 130.218 40.1786C130.218 40.1954 130.218 40.2123 130.218 40.2292C130.218 40.6288 130.189 42.4861 130.201 42.987H130.195ZM133.251 43.1727C133.251 43.0264 133.251 42.1202 133.251 42.0471C133.251 42.0302 133.267 41.9964 133.29 41.9964C133.312 41.9964 133.324 42.0077 133.329 42.0246C133.548 42.4579 133.745 42.8913 133.941 43.3134C133.97 43.3753 134.031 43.5498 134.048 43.5666C134.071 43.6004 134.11 43.5892 134.144 43.5892H134.75C134.823 43.5892 134.84 43.5498 134.823 43.4878C134.778 43.319 134.464 42.7337 134.391 42.5874C134.34 42.4748 134.009 41.8332 133.998 41.7826C133.986 41.76 134.071 41.7206 134.082 41.7038C134.346 41.4674 134.587 41.2198 134.632 40.8483C134.688 40.4825 134.604 40.0829 134.368 39.7902C134.183 39.5764 133.947 39.4469 133.666 39.43C133.492 39.4188 133.329 39.43 133.155 39.43C133.003 39.43 132.902 39.43 132.711 39.43C132.622 39.43 132.565 39.4807 132.56 39.5764V39.6439C132.548 40.0716 132.56 40.4994 132.56 40.9215C132.56 41.5631 132.548 43.2627 132.548 43.5047C132.548 43.5779 132.56 43.5948 132.627 43.5948C132.666 43.5948 132.711 43.5948 132.751 43.5948C132.908 43.5948 132.998 43.5948 133.161 43.5948C133.284 43.5948 133.239 43.3978 133.239 43.1783L133.251 43.1727ZM133.251 41.0115V40.4543C133.262 40.3699 133.234 40.2067 133.312 40.1448C133.419 40.066 133.633 40.1448 133.728 40.2123C134.003 40.3981 133.981 40.8652 133.835 41.1297C133.762 41.2535 133.644 41.3211 133.503 41.3605C133.419 41.383 133.267 41.4111 133.262 41.276C133.262 41.186 133.262 41.0171 133.262 41.0171L133.251 41.0115ZM135.801 40.3418C135.801 40.899 135.801 41.4674 135.817 42.0189C135.817 42.3566 135.817 42.7393 135.98 43.0489C136.183 43.4485 136.637 43.6229 137.076 43.6004C137.373 43.5779 137.649 43.4991 137.868 43.2796C138.233 42.8857 138.16 42.2722 138.165 41.7657C138.176 41.0397 138.193 40.3643 138.193 39.6326C138.193 39.5088 138.154 39.4469 138.03 39.4413C137.879 39.4413 137.733 39.4413 137.581 39.4525C137.519 39.4525 137.469 39.5088 137.469 39.5764C137.469 40.111 137.486 40.6457 137.48 41.186C137.48 41.6475 137.536 42.154 137.362 42.593C137.295 42.7562 137.149 42.8744 136.969 42.8744C136.525 42.8631 136.542 42.3341 136.525 42.0246C136.491 41.3492 136.542 40.6569 136.559 39.9816C136.559 39.8521 136.559 39.7283 136.559 39.5989C136.559 39.5313 136.576 39.4469 136.486 39.4413H136.385C136.244 39.4525 136.11 39.4413 135.969 39.4413C135.834 39.4525 135.789 39.4919 135.789 39.627C135.789 39.8634 135.789 40.111 135.789 40.3474L135.801 40.3418ZM140.283 39.4075C140.176 39.4075 140.075 39.43 139.968 39.4638C139.744 39.5426 139.536 39.6946 139.401 39.8972C139.277 40.0829 139.227 40.2968 139.216 40.5106C139.204 40.6795 139.216 40.8483 139.3 41.0003C139.384 41.1635 139.525 41.2985 139.648 41.4336C139.76 41.5518 139.867 41.6644 139.991 41.7713C140.103 41.8782 140.227 41.957 140.339 42.0696C140.502 42.2328 140.558 42.5986 140.446 42.7956C140.305 43.0151 139.979 43.0489 139.766 42.9813C139.654 42.9419 139.558 42.8575 139.463 42.7956C139.407 42.7562 139.339 42.7393 139.3 42.8069C139.277 42.8406 139.266 42.88 139.255 42.9138C139.216 43.0545 139.165 43.1783 139.159 43.3303C139.159 43.5047 139.48 43.5498 139.603 43.5779C140.148 43.7073 140.8 43.606 141.08 43.0657C141.137 42.9532 141.176 42.8406 141.198 42.7168C141.198 42.6718 141.21 42.6324 141.21 42.5874C141.232 42.2328 141.086 41.9345 140.873 41.6644C140.642 41.3773 140.345 41.1747 140.075 40.9271C139.906 40.7695 139.85 40.5275 139.895 40.308C139.946 40.0716 140.215 40.0097 140.423 40.0716C140.485 40.0885 140.536 40.1167 140.592 40.1504C140.625 40.1673 140.659 40.1898 140.704 40.1898C140.783 40.1898 140.794 40.1335 140.811 40.0716C140.85 39.9309 140.917 39.824 140.946 39.6889C140.974 39.537 140.85 39.5088 140.732 39.4751C140.586 39.4357 140.451 39.4075 140.3 39.4131L140.283 39.4075ZM142.866 42.987C142.866 43.1614 142.866 43.3303 142.878 43.5047C142.878 43.5835 142.878 43.5948 142.962 43.5948H143.462C143.569 43.5948 143.546 43.4147 143.54 43.3246L143.557 40.218C143.557 40.1335 143.585 40.1054 143.698 40.1054H144.186C144.304 40.1054 144.276 39.9084 144.276 39.7677C144.276 39.6439 144.321 39.4357 144.186 39.4357C144.091 39.4357 143.192 39.4357 142.822 39.4357C142.636 39.4357 142.49 39.4357 142.305 39.4357C142.164 39.4357 142.17 39.5482 142.17 39.7902C142.17 39.9478 142.17 40.0998 142.299 40.0998C142.378 40.0998 142.692 40.0998 142.782 40.0998C142.838 40.0998 142.878 40.1167 142.889 40.1786C142.889 40.1954 142.889 40.2123 142.889 40.2292C142.889 40.6288 142.861 42.4861 142.872 42.987H142.866ZM145.242 42.4523C145.242 42.593 145.242 42.7337 145.242 42.88C145.242 43.0601 145.259 43.2346 145.27 43.4147C145.27 43.4766 145.287 43.4935 145.343 43.5047C145.461 43.5329 145.568 43.5385 145.686 43.5385C145.984 43.5272 146.281 43.5498 146.585 43.5385C146.708 43.5385 146.765 43.5385 146.882 43.5216C146.995 43.4991 147.034 43.4372 147.034 43.274C147.023 43.1671 147.034 43.122 147.034 42.9982C147.034 42.8125 146.905 42.7562 146.798 42.7618C146.72 42.7618 146.349 42.7618 146.203 42.7618C145.956 42.7618 145.995 42.8012 145.995 42.5423C145.995 42.3341 145.995 42.0583 145.995 41.8445C145.995 41.7263 146.006 41.6869 146.119 41.6869H146.809C146.922 41.7038 146.995 41.625 146.995 41.5068C146.995 41.3886 147.006 41.383 147.006 41.2704L146.989 41.1016C146.978 41.0059 146.944 40.9721 146.849 40.9721C146.787 40.9721 146.725 40.9721 146.663 40.9834C146.428 41.0003 146.315 40.9665 146.085 40.9834C146.006 40.9834 145.995 40.9721 145.989 40.899C145.967 40.6851 145.989 40.4431 146.012 40.2292C146.012 40.1392 146.04 40.1223 146.124 40.1167H146.905C147.012 40.0998 147.045 40.1054 147.04 39.9985C147.029 39.8353 147.04 39.672 147.028 39.5088C147.017 39.4188 146.989 39.4019 146.888 39.4019C146.72 39.4019 146.686 39.4019 146.517 39.4188C146.349 39.4188 145.686 39.4188 145.529 39.4188C145.299 39.4188 145.282 39.4019 145.276 39.6833C145.265 39.9028 145.276 40.1335 145.276 40.3587C145.276 40.747 145.254 42.1371 145.265 42.4467L145.242 42.4523ZM150.314 42.5705C150.348 42.4973 150.376 42.4242 150.404 42.3566C150.466 42.1765 150.477 41.9964 150.494 41.8107C150.528 41.4224 150.517 41.0284 150.415 40.6513C150.292 40.1673 149.983 39.7283 149.517 39.5201C149.309 39.4244 149.067 39.4132 148.843 39.4188C148.607 39.4188 148.36 39.4075 148.124 39.43C148.056 39.43 148.023 39.4694 148.011 39.5313C148 39.5989 147.989 39.6664 147.989 39.7227C148 40.0604 147.989 41.0622 148 41.231C148 41.383 147.989 41.5631 147.989 41.715C147.989 42.0865 147.989 42.4635 147.989 42.835C147.989 42.9926 147.989 43.1389 147.989 43.2965C147.989 43.4653 147.927 43.5329 148.382 43.5329C148.787 43.5329 149.208 43.4991 149.59 43.3528C149.944 43.2233 150.163 42.8969 150.32 42.5649L150.314 42.5705ZM148.702 41.9964V41.3323C148.702 40.9102 148.714 40.6401 148.702 40.2855V40.218C148.702 40.0998 148.725 40.0941 148.848 40.0941C149.011 40.0941 149.124 40.1279 149.264 40.1842C149.404 40.2405 149.477 40.3643 149.55 40.4768C149.691 40.702 149.741 40.9552 149.753 41.2141C149.753 41.3661 149.764 41.5124 149.764 41.6644C149.764 42.3735 149.348 42.8688 148.983 42.8688C148.742 42.8688 148.702 42.8857 148.702 42.7224C148.702 42.5592 148.714 42.3904 148.714 42.2215C148.714 42.1484 148.714 42.0696 148.714 41.9964H148.702ZM154.392 39.4075C154.285 39.4075 154.184 39.43 154.078 39.4638C153.853 39.5426 153.645 39.6946 153.51 39.8972C153.387 40.0829 153.336 40.2968 153.325 40.5106C153.314 40.6795 153.325 40.8483 153.409 41.0003C153.493 41.1635 153.634 41.2985 153.757 41.4336C153.87 41.5518 153.976 41.6644 154.1 41.7713C154.212 41.8782 154.336 41.957 154.448 42.0696C154.611 42.2328 154.667 42.5986 154.555 42.7956C154.415 43.0151 154.089 43.0489 153.875 42.9813C153.763 42.9419 153.668 42.8575 153.572 42.7956C153.516 42.7562 153.448 42.7393 153.409 42.8069C153.387 42.8406 153.375 42.88 153.364 42.9138C153.325 43.0545 153.274 43.1783 153.269 43.3303C153.269 43.5047 153.589 43.5498 153.712 43.5779C154.257 43.7073 154.909 43.606 155.19 43.0657C155.246 42.9532 155.285 42.8406 155.308 42.7168C155.308 42.6718 155.319 42.6324 155.319 42.5874C155.341 42.2328 155.195 41.9345 154.982 41.6644C154.752 41.3773 154.454 41.1747 154.184 40.9271C154.016 40.7695 153.96 40.5275 154.005 40.308C154.055 40.0716 154.325 40.0097 154.533 40.0716C154.594 40.0885 154.645 40.1167 154.701 40.1504C154.735 40.1673 154.768 40.1898 154.813 40.1898C154.892 40.1898 154.903 40.1335 154.92 40.0716C154.959 39.9309 155.027 39.824 155.055 39.6889C155.083 39.537 154.959 39.5088 154.841 39.4751C154.695 39.4357 154.561 39.4075 154.409 39.4131L154.392 39.4075ZM156.279 42.4523C156.279 42.593 156.279 42.7337 156.279 42.88C156.279 43.0601 156.296 43.2346 156.307 43.4147C156.307 43.4766 156.324 43.4935 156.38 43.5047C156.498 43.5329 156.605 43.5385 156.723 43.5385C157.021 43.5272 157.318 43.5498 157.622 43.5385C157.745 43.5385 157.801 43.5385 157.919 43.5216C158.032 43.4991 158.071 43.4372 158.071 43.274C158.06 43.1671 158.071 43.122 158.071 42.9982C158.071 42.8125 157.942 42.7562 157.835 42.7618C157.757 42.7618 157.386 42.7618 157.24 42.7618C156.993 42.7618 157.032 42.8012 157.032 42.5423C157.032 42.3341 157.032 42.0583 157.032 41.8445C157.032 41.7263 157.043 41.6869 157.156 41.6869H157.846C157.959 41.7038 158.032 41.625 158.032 41.5068C158.032 41.3886 158.043 41.383 158.043 41.2704L158.026 41.1016C158.015 41.0059 157.981 40.9721 157.886 40.9721C157.824 40.9721 157.762 40.9721 157.7 40.9834C157.464 41.0003 157.352 40.9665 157.122 40.9834C157.043 40.9834 157.032 40.9721 157.026 40.899C157.004 40.6851 157.026 40.4431 157.049 40.2292C157.049 40.1392 157.077 40.1223 157.161 40.1167H157.942C158.049 40.0998 158.082 40.1054 158.077 39.9985C158.065 39.8353 158.077 39.672 158.065 39.5088C158.054 39.4188 158.026 39.4019 157.925 39.4019C157.757 39.4019 157.723 39.4019 157.554 39.4188C157.386 39.4188 156.723 39.4188 156.566 39.4188C156.335 39.4188 156.319 39.4019 156.313 39.6833C156.302 39.9028 156.313 40.1335 156.313 40.3587C156.313 40.747 156.291 42.1371 156.302 42.4467L156.279 42.4523ZM159.711 43.1727C159.711 43.0264 159.711 42.1202 159.711 42.0471C159.711 42.0302 159.728 41.9964 159.75 41.9964C159.773 41.9964 159.784 42.0077 159.79 42.0246C160.009 42.4579 160.205 42.8913 160.402 43.3134C160.43 43.3753 160.492 43.5498 160.509 43.5666C160.531 43.6004 160.571 43.5892 160.604 43.5892H161.211C161.284 43.5892 161.301 43.5498 161.284 43.4878C161.239 43.319 160.924 42.7337 160.851 42.5874C160.801 42.4748 160.469 41.8332 160.458 41.7826C160.447 41.76 160.531 41.7206 160.542 41.7038C160.806 41.4674 161.048 41.2198 161.093 40.8483C161.149 40.4825 161.065 40.0829 160.829 39.7902C160.644 39.5764 160.408 39.4469 160.127 39.43C159.953 39.4188 159.79 39.43 159.616 39.43C159.464 39.43 159.363 39.43 159.172 39.43C159.082 39.43 159.026 39.4807 159.02 39.5764V39.6439C159.009 40.0716 159.02 40.4994 159.02 40.9215C159.02 41.5631 159.009 43.2627 159.009 43.5047C159.009 43.5779 159.02 43.5948 159.088 43.5948C159.127 43.5948 159.172 43.5948 159.211 43.5948C159.369 43.5948 159.458 43.5948 159.621 43.5948C159.745 43.5948 159.7 43.3978 159.7 43.1783L159.711 43.1727ZM159.711 41.0115V40.4543C159.722 40.3699 159.694 40.2067 159.773 40.1448C159.88 40.066 160.093 40.1448 160.189 40.2123C160.464 40.3981 160.441 40.8652 160.295 41.1297C160.222 41.2535 160.104 41.3211 159.964 41.3605C159.88 41.383 159.728 41.4111 159.722 41.276C159.722 41.186 159.722 41.0171 159.722 41.0171L159.711 41.0115ZM163.469 43.5948C163.553 43.5948 163.856 43.5948 163.918 43.5948C163.957 43.5835 163.98 43.4822 163.991 43.4485C164.025 43.3415 164.047 43.2346 164.075 43.1277C164.137 42.8519 164.749 40.5219 164.968 39.6495C164.98 39.6101 164.991 39.5651 164.98 39.5257C164.963 39.4413 164.912 39.43 164.845 39.43C164.716 39.43 164.592 39.43 164.463 39.43C164.317 39.43 164.266 39.4469 164.221 39.6101C164.008 40.353 163.862 41.2423 163.665 41.9964L163.632 42.0865H163.609C163.598 42.0583 163.581 42.0358 163.575 42.0077C163.379 41.2141 163.048 39.6439 162.997 39.4976C162.963 39.4075 162.879 39.4357 162.806 39.4357C162.649 39.4357 162.508 39.4357 162.357 39.4357C162.3 39.4357 162.261 39.4638 162.267 39.5201C162.267 39.5651 162.329 39.8071 162.34 39.8746L162.402 40.1054C162.441 40.2855 162.497 40.505 162.536 40.6738C162.744 41.5574 162.974 42.4354 163.222 43.3078C163.244 43.3865 163.261 43.516 163.317 43.561C163.362 43.6004 163.435 43.5835 163.486 43.5892L163.469 43.5948ZM166.71 42.1596C166.693 41.5293 166.698 40.8596 166.71 40.2292C166.71 40.0379 166.698 39.824 166.698 39.6326C166.698 39.4244 166.614 39.4357 166.507 39.43C166.345 39.43 166.277 39.43 166.114 39.43C166.008 39.43 165.963 39.4525 165.963 39.5595C165.963 40.1054 165.946 41.6362 165.951 41.8613C165.957 42.0865 165.979 43.0939 165.968 43.3134C165.968 43.3922 165.968 43.471 165.968 43.5441C165.968 43.5723 165.991 43.6004 166.036 43.6004C166.221 43.5892 166.389 43.5892 166.575 43.5835C166.642 43.5835 166.698 43.561 166.726 43.4878C166.726 43.4485 166.715 42.4354 166.715 42.1709L166.71 42.1596ZM169.866 40.0885C169.866 39.9028 169.866 39.7565 169.866 39.5764C169.866 39.3738 169.496 39.3906 169.361 39.3963C168.771 39.4357 168.204 39.8127 167.934 40.3249C167.855 40.4769 167.799 40.6288 167.76 40.792C167.664 41.1691 167.659 41.5687 167.704 41.9514C167.743 42.3116 167.839 42.6718 168.058 42.9588C168.44 43.4653 169.142 43.6398 169.743 43.5441C169.771 43.5441 169.799 43.5329 169.821 43.516C169.838 43.5047 169.855 43.4822 169.855 43.4597L169.872 43.1445C169.872 43.0432 169.872 43.0489 169.872 42.9532C169.872 42.8181 169.597 42.9194 169.423 42.9194C169.248 42.9194 169.08 42.9194 168.928 42.835C168.664 42.683 168.513 42.3848 168.428 42.1034C168.333 41.7994 168.31 41.473 168.367 41.1635C168.434 40.7583 168.625 40.2911 169.052 40.1561C169.293 40.0716 169.557 40.0998 169.799 40.1279C169.833 40.1279 169.855 40.111 169.855 40.0829L169.866 40.0885ZM170.849 42.4523C170.849 42.593 170.849 42.7337 170.849 42.88C170.849 43.0601 170.866 43.2346 170.877 43.4147C170.877 43.4766 170.894 43.4935 170.95 43.5047C171.068 43.5329 171.175 43.5385 171.293 43.5385C171.591 43.5272 171.888 43.5498 172.192 43.5385C172.315 43.5385 172.371 43.5385 172.489 43.5216C172.602 43.4991 172.641 43.4372 172.641 43.274C172.63 43.1671 172.641 43.122 172.641 42.9982C172.641 42.8125 172.512 42.7562 172.405 42.7618C172.326 42.7618 171.956 42.7618 171.81 42.7618C171.563 42.7618 171.602 42.8012 171.602 42.5423C171.602 42.3341 171.602 42.0583 171.602 41.8445C171.602 41.7263 171.613 41.6869 171.725 41.6869H172.416C172.529 41.7038 172.602 41.625 172.602 41.5068C172.602 41.3886 172.613 41.383 172.613 41.2704L172.596 41.1016C172.585 41.0059 172.551 40.9721 172.456 40.9721C172.394 40.9721 172.332 40.9721 172.27 40.9834C172.034 41.0003 171.922 40.9665 171.692 40.9834C171.613 40.9834 171.602 40.9721 171.596 40.899C171.574 40.6851 171.596 40.4431 171.619 40.2292C171.619 40.1392 171.647 40.1223 171.731 40.1167H172.512C172.618 40.0998 172.652 40.1054 172.647 39.9985C172.635 39.8353 172.647 39.672 172.635 39.5088C172.624 39.4188 172.596 39.4019 172.495 39.4019C172.326 39.4019 172.293 39.4019 172.124 39.4188C171.956 39.4188 171.293 39.4188 171.136 39.4188C170.905 39.4188 170.889 39.4019 170.883 39.6833C170.872 39.9028 170.883 40.1335 170.883 40.3587C170.883 40.747 170.86 42.1371 170.872 42.4467L170.849 42.4523Z" fill="#506084"/>
</svg>
