<svg viewBox="0 0 276 58" fill="none" xmlns="http://www.w3.org/2000/svg">
<g clip-path="url(#clip0_262_635)">
<path d="M17.7978 35.9811C17.5742 35.7585 17.2164 35.7585 17.0003 35.9811L4.21094 48.7117C3.98735 48.9343 3.98735 49.2904 4.21094 49.5055C4.32273 49.6168 4.46434 49.6687 4.6134 49.6687C4.76246 49.6687 4.90407 49.6168 5.01586 49.5055L17.8052 36.7749C18.0288 36.5523 18.0288 36.1962 17.8052 35.9811H17.7978Z" fill="white"/>
<path d="M20.1977 39.1637L7.40829 51.8943C7.1847 52.1169 7.1847 52.473 7.40829 52.6882C7.52009 52.7994 7.6617 52.8514 7.81076 52.8514C7.95982 52.8514 8.10142 52.7994 8.21322 52.6882L21.0026 39.9575C21.2262 39.735 21.2262 39.3789 21.0026 39.1637C20.779 38.9486 20.4213 38.9412 20.2051 39.1637H20.1977Z" fill="white"/>
<path d="M40.4251 33.8296L33.792 27.2269L48.0794 13.0051H51.0382C51.1873 13.0051 51.3289 12.9458 51.4407 12.8419L56.233 8.07164C56.3373 7.96777 56.3969 7.8194 56.3969 7.67102C56.3969 7.52265 56.3373 7.38169 56.233 7.27041L49.8383 0.905097C49.6147 0.682534 49.257 0.682534 49.0408 0.905097L44.2485 5.67537C44.1442 5.77923 44.0846 5.92761 44.0846 6.07598V9.02124L29.7971 23.243L23.164 16.6403C24.6993 12.3523 23.6261 7.55232 20.3765 4.32515C17.3506 1.31313 12.9086 0.1558 8.7871 1.30571C8.59332 1.35764 8.44426 1.51344 8.39209 1.70632C8.33992 1.89921 8.39209 2.10694 8.54115 2.2479L13.013 6.69916L11.5298 12.2187L5.98477 13.6951L1.51296 9.2438C1.37135 9.10285 1.16267 9.0435 0.96889 9.09543C0.775112 9.14736 0.618598 9.29573 0.566427 9.48862C-0.58879 13.5986 0.57388 18.0202 3.5998 21.0248C6.84932 24.252 11.664 25.3203 15.9718 23.7994L22.605 30.4022L20.4138 32.5833C19.4971 32.0714 18.476 31.782 17.4028 31.782C15.7408 31.782 14.1831 32.4275 13.0055 33.5922L1.81853 44.7278C-0.603696 47.1389 -0.603696 51.0709 1.81853 53.482L3.42093 55.0696C4.59851 56.2418 6.15619 56.8798 7.81821 56.8798C9.48023 56.8798 11.0379 56.2343 12.2155 55.0696L23.4025 43.934C24.58 42.7693 25.221 41.2113 25.221 39.5569C25.221 38.4886 24.9229 37.4723 24.4161 36.5597L26.6073 34.3786L33.2404 40.9813C31.7051 45.2694 32.7784 50.0693 36.0279 53.2965C38.2787 55.537 41.3121 56.7462 44.4274 56.7462C45.4932 56.7462 46.5664 56.6053 47.6248 56.3085C47.8185 56.2566 47.9676 56.1008 48.0198 55.9079C48.0719 55.715 48.0198 55.5073 47.8707 55.3663L43.3989 50.9151L44.882 45.3955L50.4271 43.9192L54.8989 48.3704C55.0405 48.5114 55.2492 48.5707 55.443 48.5188C55.6367 48.4669 55.7933 48.3185 55.8454 48.1256C57.0006 44.0156 55.838 39.594 52.812 36.5894C49.5625 33.3548 44.7479 32.2939 40.4401 33.8222L40.4251 33.8296ZM16.5084 22.746C16.3519 22.5902 16.1134 22.5382 15.9047 22.6199C11.9248 24.1704 7.40829 23.2356 4.38982 20.231C1.89306 17.7457 0.797471 14.1847 1.42352 10.7572L5.40343 14.7189C5.54504 14.8598 5.75373 14.9192 5.9475 14.8672L12.1261 13.2203C12.3198 13.1683 12.4763 13.02 12.5285 12.8197L14.1831 6.67691C14.2353 6.48402 14.1831 6.27629 14.034 6.13534L10.0541 2.17371C13.5049 1.54311 17.0749 2.63367 19.5716 5.12638C22.5901 8.13099 23.5292 12.6268 21.9789 16.5736C21.8373 16.9148 21.8522 16.9371 28.9922 24.0517L23.395 29.6232L16.501 22.7608L16.5084 22.746ZM45.046 9.65926C45.1504 9.55539 45.21 9.40702 45.21 9.25864V6.31339L49.4433 2.10694L55.0405 7.67844L50.8072 11.8923H47.8483C47.6993 11.8923 47.5577 11.9517 47.4459 12.0555L23.7975 35.5953L21.3976 33.2065L45.046 9.66667V9.65926ZM22.5975 43.1402L11.4106 54.2758C10.4491 55.2328 9.17466 55.7595 7.81076 55.7595C6.44685 55.7595 5.17239 55.2328 4.21095 54.2758L2.60855 52.6882C0.626051 50.7148 0.626051 47.5024 2.60855 45.529L13.7955 34.3935C14.757 33.4364 16.0314 32.9097 17.3953 32.9097C18.7592 32.9097 20.0337 33.4364 20.9951 34.3935L22.5901 35.9811C23.5515 36.9381 24.0807 38.2067 24.0807 39.5643C24.0807 40.9146 23.5515 42.1832 22.5901 43.1402H22.5975ZM54.966 46.8718L50.9861 42.9102C50.8445 42.7693 50.6358 42.7173 50.442 42.7618L44.2634 44.4088C44.0697 44.4607 43.9132 44.6165 43.861 44.8094L42.2064 50.9596C42.1542 51.1525 42.2064 51.3602 42.3555 51.5012L46.3354 55.4628C42.8846 56.086 39.3146 55.0028 36.8104 52.5101C33.792 49.5055 32.8529 45.0097 34.4106 41.0481C34.4925 40.8404 34.4404 40.603 34.2839 40.4472L27.3898 33.5848L32.987 28.0133L39.8811 34.8757C40.0376 35.0315 40.2761 35.0834 40.4848 35.0018C44.4647 33.4513 48.9812 34.386 51.9997 37.3906C54.4964 39.8759 55.592 43.4369 54.966 46.8644V46.8718Z" fill="white"/>
<path d="M97.0308 12.6564V1.48376H108.263V34.9721H97.0308V23.8439H75.2904V31.2479H79.0318V27.5237H82.7732V34.9795H71.5415V20.0752H100.817V31.2553H104.514V5.20798H100.817V16.3881H79.0243V5.20798H75.2829V16.3881H71.5415V1.48376H82.7732V12.6639H97.0308V12.6564ZM133.32 0C143.396 0 151.602 8.16807 151.602 18.2502C151.602 28.3323 143.396 36.4485 133.32 36.4485C123.243 36.4485 114.985 28.3249 114.985 18.2502C114.985 8.17549 123.191 0 133.32 0ZM133.32 32.7762C141.384 32.7762 147.913 26.2773 147.913 18.2502C147.913 10.2231 141.384 3.67971 133.32 3.67971C125.255 3.67971 118.682 10.2231 118.682 18.2502C118.682 26.2773 125.211 32.7762 133.32 32.7762ZM133.32 7.35943C139.319 7.35943 144.216 12.2781 144.216 18.2502C144.216 24.2223 139.319 29.0964 133.32 29.0964C127.32 29.0964 122.379 24.2223 122.379 18.2502C122.379 12.2781 127.32 7.35943 133.32 7.35943ZM133.32 25.4167C137.299 25.4167 140.519 22.2192 140.519 18.2502C140.519 14.2811 137.307 11.0391 133.32 11.0391C129.332 11.0391 126.075 14.2366 126.075 18.2502C126.075 22.2638 129.287 25.4167 133.32 25.4167ZM186.497 20.1123C167.447 20.1123 167.156 20.0678 166.918 20.0678H166.821C162.021 19.682 158.324 15.6239 158.324 10.8017C158.324 5.64569 162.498 1.48376 167.685 1.48376H187.846C191.878 1.48376 195.142 4.73318 195.142 8.79125V12.6639H167.738C166.635 12.6193 165.912 11.8033 165.912 10.8017C165.912 9.8002 166.679 8.98414 167.685 8.93963H191.393V8.84318C191.393 6.78818 189.806 5.2154 187.749 5.2154H167.685C164.615 5.2154 162.073 7.70069 162.073 10.8017C162.073 13.6654 164.235 15.9578 166.97 16.3436C186.117 16.3436 186.31 16.3881 186.646 16.3881C191.446 16.7739 195.142 20.8764 195.142 25.6541C195.142 30.8102 190.969 34.9721 185.833 34.9721H165.628C161.596 34.9721 158.332 31.7227 158.332 27.7091V23.792H185.833C188.189 23.933 188.189 27.3753 185.833 27.5162H162.073V27.6127C162.073 29.6677 163.661 31.2405 165.718 31.2405H185.826C188.852 31.2405 191.438 28.8516 191.438 25.6541C191.438 22.7905 189.277 20.4981 186.497 20.1123ZM201.85 12.6564V1.48376H238.564V12.6639H229.538V8.93963H234.815V5.2154H205.584V8.93963H218.351L218.306 31.2479H222.048V8.93221H225.789V34.9721H214.557V12.6639H201.843L201.85 12.6564ZM256.518 23.792L258.679 20.0678L265.208 31.2479H269.531C268.569 29.7196 259.454 14.1921 258.687 12.6639L249.281 28.9036L245.778 34.9721H232.817C233.54 33.7777 238.385 25.3722 243.043 17.2932C245.778 12.56 248.804 7.26298 252.21 1.48376H256.533L247.604 16.8703L239.301 31.2479H243.624C249.527 20.8839 253.224 14.7634 258.694 5.20798C259.03 5.77923 275.926 34.9202 276.022 34.9721H263.062L256.533 23.792H256.518Z" fill="white"/>
<path d="M117.765 51.9463C117.623 51.9463 117.489 51.9759 117.348 52.0205C117.05 52.1243 116.774 52.3246 116.595 52.5917C116.431 52.8365 116.364 53.1184 116.349 53.4004C116.334 53.6229 116.349 53.8455 116.461 54.0458C116.573 54.2609 116.759 54.439 116.923 54.617C117.072 54.7728 117.214 54.9212 117.378 55.0622C117.527 55.2031 117.691 55.307 117.84 55.4554C118.056 55.6705 118.13 56.1527 117.981 56.4124C117.795 56.7017 117.363 56.7462 117.079 56.6572C116.93 56.6053 116.804 56.494 116.677 56.4124C116.602 56.3604 116.513 56.3382 116.461 56.4272C116.431 56.4717 116.416 56.5237 116.401 56.5682C116.349 56.7536 116.282 56.9168 116.274 57.1172C116.274 57.3471 116.699 57.4065 116.863 57.4436C117.586 57.6142 118.451 57.4807 118.823 56.7685C118.898 56.6201 118.95 56.4717 118.98 56.3085C118.98 56.2492 118.995 56.1972 118.995 56.1379C119.025 55.6705 118.831 55.2773 118.548 54.9212C118.242 54.5428 117.847 54.2758 117.489 53.9493C117.266 53.7416 117.191 53.4226 117.251 53.1333C117.318 52.8217 117.676 52.7401 117.951 52.8217C118.033 52.8439 118.1 52.881 118.175 52.9255C118.22 52.9478 118.264 52.9775 118.324 52.9775C118.428 52.9775 118.443 52.9033 118.466 52.8217C118.518 52.6362 118.607 52.4953 118.645 52.3172C118.682 52.1169 118.518 52.0798 118.361 52.0353C118.168 51.9834 117.989 51.9463 117.787 51.9537L117.765 51.9463ZM121.261 56.1379C121.261 55.8856 121.223 55.1883 121.231 55.0399C121.231 55.0176 121.246 54.988 121.253 54.988C121.268 54.988 121.298 55.0028 121.305 55.0102C121.544 55.3144 122.639 57.4436 122.774 57.451C122.811 57.451 122.848 57.451 122.885 57.451C123.131 57.4362 123.355 57.451 123.608 57.451C123.862 57.451 123.698 57.2062 123.653 57.1394C123.586 57.043 122.714 55.485 122.662 55.396C122.513 55.1512 122.393 54.8767 122.244 54.6393C122.229 54.6096 122.215 54.5651 122.222 54.5354C122.237 54.4464 122.259 54.3648 122.297 54.2906C122.475 53.9493 122.654 53.5932 122.87 53.2668C123.109 52.8959 123.236 52.6585 123.429 52.3246C123.474 52.243 123.504 52.154 123.534 52.065C123.534 52.0279 123.511 51.9908 123.467 51.9908C123.325 51.9908 122.818 51.9908 122.662 51.9908C122.587 51.9908 122.513 52.0056 122.475 52.0724C122.378 52.2579 121.395 54.0458 121.298 54.209C121.298 54.2238 121.268 54.2313 121.246 54.2313C121.246 54.2313 121.231 54.209 121.231 54.1942C121.231 53.7861 121.298 52.4507 121.283 52.1763C121.283 52.013 121.246 51.9982 121.082 51.9908C120.903 51.9908 120.664 51.9908 120.485 51.9908C120.321 51.9908 120.307 52.0798 120.284 52.1985C120.284 52.2208 120.284 52.9107 120.284 53.2149C120.284 53.66 120.247 56.4495 120.299 57.3397C120.299 57.4287 120.321 57.4807 120.396 57.4807C120.597 57.4658 120.888 57.4807 121.089 57.4807C121.231 57.4807 121.253 57.4658 121.253 57.2359C121.253 56.9243 121.283 56.6349 121.283 56.2492C121.283 56.2195 121.283 56.1898 121.283 56.1601L121.261 56.1379ZM126.03 55.5741C126.008 54.7432 126.016 53.8603 126.03 53.0294C126.03 52.7772 126.016 52.4953 126.016 52.243C126.016 51.9685 125.904 51.9834 125.762 51.9759C125.546 51.9759 125.457 51.9759 125.24 51.9759C125.099 51.9759 125.039 52.0056 125.039 52.1466C125.039 52.8662 125.017 54.8841 125.024 55.1809C125.032 55.4776 125.062 56.8056 125.047 57.0949C125.047 57.1988 125.047 57.3026 125.047 57.3991C125.047 57.4362 125.076 57.4733 125.136 57.4733C125.382 57.4584 125.606 57.4584 125.852 57.451C125.941 57.451 126.016 57.4213 126.053 57.3249C126.053 57.273 126.038 55.9376 126.038 55.5889L126.03 55.5741ZM127.327 52.6956C127.327 53.1481 127.365 56.4569 127.357 56.7017C127.357 56.9317 127.357 57.1543 127.357 57.3842C127.357 57.4213 127.379 57.4584 127.417 57.4584C127.931 57.4807 128.438 57.4362 128.952 57.4436C129.123 57.4436 129.287 57.4436 129.451 57.4436C129.615 57.4436 129.63 57.3694 129.623 57.2359C129.623 57.0281 129.623 56.8501 129.623 56.6498C129.623 56.5459 129.556 56.5088 129.466 56.5088C129.168 56.5088 128.863 56.5088 128.564 56.5088C128.512 56.5088 128.46 56.5088 128.408 56.5088C128.319 56.5088 128.296 56.4791 128.289 56.3827V56.2714C128.266 55.6631 128.311 55.0399 128.311 54.4316C128.311 53.9197 128.311 53.4597 128.311 53.0072C128.311 52.8068 128.311 52.614 128.311 52.4211C128.311 52.3024 128.311 52.1763 128.281 52.065C128.266 52.0205 128.244 51.9611 128.192 51.9611H127.499C127.379 51.9611 127.342 52.0427 127.335 52.1614V52.6807L127.327 52.6956ZM130.905 52.6956C130.905 53.1481 130.942 56.4569 130.935 56.7017C130.935 56.9317 130.935 57.1543 130.935 57.3842C130.935 57.4213 130.957 57.4584 130.994 57.4584C131.508 57.4807 132.015 57.4362 132.53 57.4436C132.701 57.4436 132.865 57.4436 133.029 57.4436C133.193 57.4436 133.208 57.3694 133.2 57.2359C133.2 57.0281 133.2 56.8501 133.2 56.6498C133.2 56.5459 133.133 56.5088 133.044 56.5088C132.746 56.5088 132.44 56.5088 132.142 56.5088C132.09 56.5088 132.038 56.5088 131.985 56.5088C131.896 56.5088 131.874 56.4791 131.866 56.3827V56.2714C131.844 55.6631 131.889 55.0399 131.889 54.4316C131.889 53.9197 131.889 53.4597 131.889 53.0072C131.889 52.8068 131.889 52.614 131.889 52.4211C131.889 52.3024 131.889 52.1763 131.859 52.065C131.844 52.0205 131.821 51.9611 131.769 51.9611H131.076C130.957 51.9611 130.92 52.0427 130.912 52.1614V52.6807L130.905 52.6956ZM134.49 55.9598C134.49 56.1453 134.49 56.3308 134.49 56.5237C134.49 56.7611 134.512 56.991 134.527 57.2284C134.527 57.31 134.549 57.3323 134.624 57.3471C134.78 57.3842 134.922 57.3917 135.078 57.3917C135.473 57.3768 135.868 57.4065 136.271 57.3917C136.435 57.3917 136.509 57.3917 136.666 57.3694C136.815 57.3397 136.867 57.2581 136.867 57.043C136.852 56.902 136.867 56.8427 136.867 56.6795C136.867 56.4346 136.696 56.3604 136.554 56.3679C136.45 56.3679 135.958 56.3679 135.764 56.3679C135.436 56.3679 135.488 56.4198 135.488 56.0785C135.488 55.804 135.488 55.4405 135.488 55.1586C135.488 55.0028 135.503 54.9509 135.652 54.9509H136.569C136.718 54.9731 136.815 54.8693 136.815 54.7135C136.815 54.5577 136.83 54.5503 136.83 54.4019L136.808 54.1793C136.793 54.0532 136.748 54.0087 136.621 54.0087C136.539 54.0087 136.457 54.0087 136.375 54.0235C136.062 54.0458 135.913 54.0013 135.608 54.0235C135.503 54.0235 135.488 54.0087 135.481 53.9122C135.451 53.6303 135.481 53.3113 135.511 53.0294C135.511 52.9107 135.548 52.8885 135.66 52.881H136.696C136.837 52.8588 136.882 52.8662 136.875 52.7252C136.86 52.5101 136.875 52.295 136.86 52.0798C136.845 51.9611 136.808 51.9389 136.673 51.9389C136.45 51.9389 136.405 51.9389 136.181 51.9611C135.958 51.9611 135.078 51.9611 134.87 51.9611C134.564 51.9611 134.542 51.9389 134.534 52.3098C134.519 52.5991 134.534 52.9033 134.534 53.2C134.534 53.7119 134.505 55.5444 134.519 55.9524L134.49 55.9598ZM141.22 56.1156C141.264 56.0192 141.302 55.9227 141.339 55.8337C141.421 55.5963 141.436 55.3589 141.458 55.1141C141.503 54.6022 141.488 54.0829 141.354 53.5858C141.19 52.9478 140.78 52.3691 140.161 52.0946C139.886 51.9685 139.565 51.9537 139.267 51.9611C138.954 51.9611 138.626 51.9463 138.313 51.9759C138.224 51.9759 138.179 52.0279 138.164 52.1095C138.149 52.1985 138.134 52.2875 138.134 52.3617C138.149 52.8069 138.134 54.1274 138.149 54.35C138.149 54.5503 138.134 54.7877 138.134 54.988C138.134 55.4776 138.134 55.9747 138.134 56.4643C138.134 56.672 138.134 56.8649 138.134 57.0726C138.134 57.2952 138.052 57.3842 138.656 57.3842C139.192 57.3842 139.751 57.3397 140.258 57.1468C140.728 56.9762 141.018 56.5459 141.227 56.1082L141.22 56.1156ZM139.088 55.3589V54.4835C139.088 53.9271 139.103 53.571 139.088 53.1036V53.0146C139.088 52.8588 139.118 52.8514 139.282 52.8514C139.498 52.8514 139.647 52.8959 139.833 52.9701C140.02 53.0443 140.117 53.2075 140.214 53.3558C140.4 53.6526 140.467 53.9864 140.482 54.3277C140.482 54.528 140.497 54.7209 140.497 54.9212C140.497 55.856 139.945 56.5088 139.461 56.5088C139.14 56.5088 139.088 56.5311 139.088 56.3159C139.088 56.1008 139.103 55.8782 139.103 55.6557C139.103 55.5592 139.103 55.4554 139.103 55.3589H139.088ZM147.339 55.2996C147.339 55.626 147.339 56.2788 147.324 56.2788V57.273C147.324 57.3175 147.324 57.3917 147.339 57.4362C147.361 57.4881 147.428 57.4733 147.473 57.4658C147.689 57.4436 147.898 57.4658 148.114 57.4658C148.352 57.4658 148.278 57.1023 148.27 56.9539C148.24 56.6349 148.27 54.1867 148.27 53.3039C148.27 52.9107 148.255 52.0946 148.233 52.065C148.196 51.9982 148.099 51.9834 148.024 51.9759C147.86 51.9463 147.778 51.9908 147.54 51.9908C147.301 51.9908 147.286 52.065 147.286 52.3172V52.5398C147.286 52.7178 147.309 53.9419 147.309 54.1422C147.309 54.2387 147.309 54.2461 147.204 54.2461C146.959 54.2461 146.623 54.2683 146.377 54.2461C146.019 54.2164 146.101 54.2461 146.079 53.9197V53.8752C146.079 53.4078 146.139 52.1911 146.116 52.1243C146.079 52.013 146.034 51.9908 145.937 51.9982C145.714 52.013 145.49 51.9759 145.267 51.9982C145.192 51.9982 145.17 52.0279 145.147 52.1021C145.147 52.1392 145.133 52.1763 145.133 52.2133C145.133 52.4433 145.147 52.7475 145.155 52.9701L145.133 57.3026C145.133 57.4955 145.304 57.4733 145.677 57.4733C146.019 57.4733 146.109 57.5549 146.109 57.1468C146.109 56.8204 146.087 56.405 146.094 56.0711C146.094 55.8189 146.094 55.5666 146.094 55.3144C146.094 55.2179 146.124 55.1883 146.213 55.1883C146.534 55.1883 146.891 55.1883 147.212 55.1883C147.316 55.1883 147.339 55.2031 147.339 55.3218V55.2996ZM150.23 57.3991C150.23 57.3991 150.32 57.3991 150.387 57.3991C150.536 57.3991 150.581 56.8723 150.596 56.7611C150.596 56.672 150.625 56.6646 150.7 56.6498C151.065 56.6053 151.251 56.6349 151.617 56.6498C151.699 56.6498 151.743 56.6869 151.766 56.7536L151.818 56.9243C151.863 57.0504 151.9 57.1988 151.945 57.3249C151.974 57.4139 151.982 57.4065 152.071 57.4065C152.191 57.4065 152.615 57.4065 152.742 57.4065C152.913 57.4065 152.794 57.0652 152.772 57.0059C152.705 56.7981 152.69 56.5904 152.623 56.3827C152.593 56.2937 151.758 52.3395 151.721 52.1243C151.669 51.9908 151.721 51.9834 151.594 51.9834C151.348 51.9834 151.08 51.9982 150.827 51.9834C150.722 51.9834 150.73 52.013 150.715 52.1243C150.7 52.2282 150.439 53.3855 150.335 53.8677C150.201 54.4761 150.089 55.0622 149.94 55.6557C149.888 55.8708 149.537 57.3917 149.582 57.3991C149.604 57.4139 149.642 57.3991 149.671 57.3991C149.858 57.3991 150.022 57.3991 150.253 57.3991H150.23ZM151.192 55.7447H151.035C150.827 55.7447 150.819 55.7447 150.871 55.5295C150.909 55.3663 151.11 54.4983 151.147 54.2906C151.147 54.2758 151.169 54.2609 151.177 54.2609C151.192 54.2609 151.207 54.2758 151.214 54.2832C151.244 54.3722 151.274 54.5874 151.304 54.6764C151.371 54.9509 151.415 55.1883 151.483 55.485C151.55 55.7447 151.52 55.7447 151.386 55.7447C151.319 55.7447 151.251 55.7447 151.184 55.7447H151.192ZM157.221 52.1466C157.244 52.2504 157.221 57.1172 157.221 57.2433C157.221 57.4658 157.139 57.4584 156.99 57.4584C156.767 57.4584 156.461 57.4955 156.394 57.4213C156.334 57.3694 155.246 54.758 155.097 54.4316C155.082 54.4019 155.045 54.3277 155.015 54.3425C154.978 54.3574 154.993 54.4093 154.993 54.439C154.993 54.6912 155.03 56.902 155.03 57.2507C155.03 57.4287 155.03 57.4584 154.874 57.4584H154.508C154.412 57.4584 154.292 57.4584 154.203 57.4584C154.128 57.4584 154.091 57.4362 154.084 57.362V56.7833C154.099 56.1676 154.084 52.5324 154.084 52.2579C154.084 52.0205 154.151 51.9834 154.382 51.9834C154.546 51.9834 154.702 51.9834 154.866 51.9834C154.918 51.9834 154.948 51.9834 154.978 52.0576C155.179 52.5175 156.021 54.6319 156.156 54.8841C156.178 54.936 156.26 55.1363 156.305 55.1586C156.305 55.1586 156.327 54.9806 156.327 54.936C156.327 54.8248 156.267 52.2579 156.267 52.2133C156.267 52.1392 156.245 52.0724 156.282 52.0205C156.305 51.9908 156.401 51.9834 156.439 51.9759C156.647 51.9611 156.886 51.9759 157.095 51.9759C157.199 51.9759 157.192 52.0501 157.214 52.1466H157.221ZM161.604 56.1156C161.648 56.0192 161.686 55.9227 161.723 55.8337C161.805 55.5963 161.82 55.3589 161.842 55.1141C161.887 54.6022 161.872 54.0829 161.738 53.5858C161.574 52.9478 161.164 52.3691 160.545 52.0946C160.27 51.9685 159.949 51.9537 159.651 51.9611C159.338 51.9611 159.01 51.9463 158.697 51.9759C158.608 51.9759 158.563 52.0279 158.548 52.1095C158.533 52.1985 158.518 52.2875 158.518 52.3617C158.533 52.8069 158.518 54.1274 158.533 54.35C158.533 54.5503 158.518 54.7877 158.518 54.988C158.518 55.4776 158.518 55.9747 158.518 56.4643C158.518 56.672 158.518 56.8649 158.518 57.0726C158.518 57.2952 158.436 57.3842 159.04 57.3842C159.576 57.3842 160.135 57.3397 160.642 57.1468C161.112 56.9762 161.402 56.5459 161.611 56.1082L161.604 56.1156ZM159.472 55.3589V54.4835C159.472 53.9271 159.487 53.571 159.472 53.1036V53.0146C159.472 52.8588 159.502 52.8514 159.666 52.8514C159.882 52.8514 160.031 52.8959 160.217 52.9701C160.404 53.0443 160.501 53.2075 160.598 53.3558C160.784 53.6526 160.851 53.9864 160.866 54.3277C160.866 54.528 160.881 54.7209 160.881 54.9212C160.881 55.856 160.329 56.5088 159.845 56.5088C159.524 56.5088 159.472 56.5311 159.472 56.3159C159.472 56.1008 159.487 55.8782 159.487 55.6557C159.487 55.5592 159.487 55.4554 159.487 55.3589H159.472ZM164.637 51.9463C164.495 51.9463 164.361 51.9759 164.22 52.0205C163.922 52.1243 163.646 52.3246 163.467 52.5917C163.303 52.8365 163.236 53.1184 163.221 53.4004C163.206 53.6229 163.221 53.8455 163.333 54.0458C163.445 54.2609 163.631 54.439 163.795 54.617C163.944 54.7728 164.086 54.9212 164.25 55.0622C164.399 55.2031 164.563 55.307 164.712 55.4554C164.928 55.6705 165.002 56.1527 164.853 56.4124C164.667 56.7017 164.235 56.7462 163.951 56.6572C163.802 56.6053 163.676 56.494 163.549 56.4124C163.474 56.3604 163.385 56.3382 163.333 56.4272C163.303 56.4717 163.288 56.5237 163.273 56.5682C163.221 56.7536 163.154 56.9168 163.146 57.1172C163.146 57.3471 163.571 57.4065 163.735 57.4436C164.458 57.6142 165.323 57.4807 165.695 56.7685C165.77 56.6201 165.822 56.4717 165.852 56.3085C165.852 56.2492 165.867 56.1972 165.867 56.1379C165.897 55.6705 165.703 55.2773 165.42 54.9212C165.114 54.5428 164.719 54.2758 164.361 53.9493C164.138 53.7416 164.063 53.4226 164.123 53.1333C164.19 52.8217 164.548 52.7401 164.823 52.8217C164.905 52.8439 164.972 52.881 165.047 52.9255C165.092 52.9478 165.136 52.9775 165.196 52.9775C165.3 52.9775 165.315 52.9033 165.338 52.8217C165.39 52.6362 165.479 52.4953 165.517 52.3172C165.554 52.1169 165.39 52.0798 165.233 52.0353C165.04 51.9834 164.861 51.9463 164.659 51.9537L164.637 51.9463ZM167.41 57.1839L167.566 56.8723C167.588 56.8204 167.611 56.7611 167.633 56.7091C167.648 56.6795 167.663 56.583 167.7 56.5904C167.715 56.5904 167.73 56.5904 167.738 56.6053C167.894 56.6869 168.036 56.7759 168.177 56.8649C168.2 56.8798 168.222 56.8946 168.237 56.9094C168.289 56.9836 168.207 57.0875 168.162 57.1394C168.125 57.2062 168.073 57.2581 168.021 57.31C168.006 57.3323 167.969 57.362 167.946 57.3842C167.738 57.5845 167.529 57.77 167.29 57.9406C167.253 57.9629 167.216 57.9926 167.171 58C167.126 58.0148 167.067 58 167.037 57.9629C167.015 57.9184 167.022 57.859 167.037 57.8145C167.089 57.6736 167.179 57.5623 167.253 57.4362C167.268 57.4213 167.275 57.4065 167.29 57.3842L167.41 57.1839ZM172.761 56.6646C172.761 56.8946 172.761 57.1172 172.776 57.3471C172.776 57.451 172.776 57.4658 172.888 57.4658H173.551C173.692 57.4658 173.663 57.2284 173.655 57.1097L173.678 53.0146C173.678 52.9033 173.715 52.8662 173.864 52.8662H174.512C174.669 52.8662 174.632 52.6065 174.632 52.4211C174.632 52.2579 174.691 51.9834 174.512 51.9834C174.386 51.9834 173.193 51.9834 172.701 51.9834C172.455 51.9834 172.262 51.9834 172.016 51.9834C171.829 51.9834 171.837 52.1317 171.837 52.4507C171.837 52.6585 171.837 52.8588 172.008 52.8588C172.112 52.8588 172.53 52.8588 172.649 52.8588C172.724 52.8588 172.776 52.881 172.791 52.9626C172.791 52.9849 172.791 53.0072 172.791 53.0294C172.791 53.5561 172.753 56.0043 172.768 56.6646H172.761ZM176.815 56.9094C176.815 56.7165 176.815 55.5221 176.815 55.4257C176.815 55.4034 176.838 55.3589 176.867 55.3589C176.897 55.3589 176.912 55.3737 176.92 55.396C177.21 55.9672 177.471 56.5385 177.732 57.0949C177.769 57.1765 177.851 57.4065 177.874 57.4287C177.903 57.4733 177.956 57.4584 178 57.4584H178.805C178.902 57.4584 178.925 57.4065 178.902 57.3249C178.843 57.1023 178.425 56.3308 178.328 56.1379C178.261 55.9895 177.821 55.1438 177.807 55.077C177.792 55.0473 177.903 54.9954 177.918 54.9731C178.269 54.6615 178.589 54.3351 178.649 53.8455C178.723 53.3633 178.611 52.8365 178.298 52.4507C178.053 52.1688 177.739 51.9982 177.367 51.9759C177.136 51.9611 176.92 51.9759 176.689 51.9759C176.487 51.9759 176.353 51.9759 176.1 51.9759C175.981 51.9759 175.906 52.0427 175.899 52.1688V52.2579C175.884 52.8217 175.899 53.3855 175.899 53.9419C175.899 54.7877 175.884 57.0281 175.884 57.3471C175.884 57.4436 175.899 57.4658 175.988 57.4658C176.04 57.4658 176.1 57.4658 176.152 57.4658C176.361 57.4658 176.48 57.4658 176.696 57.4658C176.86 57.4658 176.8 57.2062 176.8 56.9169L176.815 56.9094ZM176.815 54.0606V53.3262C176.83 53.2149 176.793 52.9997 176.897 52.9181C177.039 52.8143 177.322 52.9181 177.449 53.0072C177.814 53.252 177.784 53.8677 177.59 54.2164C177.494 54.3796 177.337 54.4687 177.151 54.5206C177.039 54.5503 176.838 54.5874 176.83 54.4093C176.83 54.2906 176.83 54.068 176.83 54.068L176.815 54.0606ZM180.199 53.1778C180.199 53.9122 180.199 54.6615 180.221 55.3886C180.221 55.8337 180.221 56.3382 180.437 56.7462C180.706 57.273 181.309 57.5029 181.891 57.4733C182.286 57.4436 182.651 57.3397 182.942 57.0504C183.426 56.5311 183.329 55.7224 183.337 55.0547C183.352 54.0977 183.374 53.2075 183.374 52.243C183.374 52.0798 183.322 51.9982 183.158 51.9908C182.957 51.9908 182.763 51.9908 182.562 52.0056C182.48 52.0056 182.413 52.0798 182.413 52.1688C182.413 52.8736 182.435 53.5784 182.427 54.2906C182.427 54.8989 182.502 55.5666 182.271 56.1453C182.181 56.3604 181.988 56.5162 181.749 56.5162C181.16 56.5014 181.183 55.804 181.16 55.396C181.116 54.5057 181.183 53.5932 181.205 52.703C181.205 52.5324 181.205 52.3691 181.205 52.1985C181.205 52.1095 181.227 51.9982 181.108 51.9908H180.974C180.788 52.0056 180.609 51.9908 180.423 51.9908C180.244 52.0056 180.184 52.0576 180.184 52.2356C180.184 52.5472 180.184 52.8736 180.184 53.1852L180.199 53.1778ZM186.146 51.9463C186.005 51.9463 185.871 51.9759 185.729 52.0205C185.431 52.1243 185.155 52.3246 184.976 52.5917C184.812 52.8365 184.745 53.1184 184.73 53.4004C184.715 53.6229 184.73 53.8455 184.842 54.0458C184.954 54.2609 185.14 54.439 185.304 54.617C185.453 54.7728 185.595 54.9212 185.759 55.0622C185.908 55.2031 186.072 55.307 186.221 55.4554C186.437 55.6705 186.512 56.1527 186.363 56.4124C186.176 56.7017 185.744 56.7462 185.461 56.6572C185.312 56.6053 185.185 56.494 185.058 56.4124C184.984 56.3604 184.894 56.3382 184.842 56.4272C184.812 56.4717 184.797 56.5237 184.783 56.5682C184.73 56.7536 184.663 56.9168 184.656 57.1172C184.656 57.3471 185.081 57.4065 185.245 57.4436C185.968 57.6142 186.832 57.4807 187.205 56.7685C187.279 56.6201 187.332 56.4717 187.361 56.3085C187.361 56.2492 187.376 56.1972 187.376 56.1379C187.406 55.6705 187.212 55.2773 186.929 54.9212C186.623 54.5428 186.228 54.2758 185.871 53.9493C185.647 53.7416 185.573 53.4226 185.632 53.1333C185.699 52.8217 186.057 52.7401 186.333 52.8217C186.415 52.8439 186.482 52.881 186.556 52.9255C186.601 52.9478 186.646 52.9775 186.705 52.9775C186.81 52.9775 186.825 52.9033 186.847 52.8217C186.899 52.6362 186.989 52.4953 187.026 52.3172C187.063 52.1169 186.899 52.0798 186.743 52.0353C186.549 51.9834 186.37 51.9463 186.169 51.9537L186.146 51.9463ZM189.575 56.6646C189.575 56.8946 189.575 57.1172 189.59 57.3471C189.59 57.451 189.59 57.4658 189.702 57.4658H190.365C190.506 57.4658 190.477 57.2284 190.469 57.1097L190.492 53.0146C190.492 52.9033 190.529 52.8662 190.678 52.8662H191.326C191.483 52.8662 191.446 52.6065 191.446 52.4211C191.446 52.2579 191.505 51.9834 191.326 51.9834C191.2 51.9834 190.007 51.9834 189.515 51.9834C189.269 51.9834 189.076 51.9834 188.83 51.9834C188.643 51.9834 188.651 52.1317 188.651 52.4507C188.651 52.6585 188.651 52.8588 188.822 52.8588C188.926 52.8588 189.344 52.8588 189.463 52.8588C189.538 52.8588 189.59 52.881 189.605 52.9626C189.605 52.9849 189.605 53.0072 189.605 53.0294C189.605 53.5561 189.567 56.0043 189.582 56.6646H189.575ZM192.727 55.9598C192.727 56.1453 192.727 56.3308 192.727 56.5237C192.727 56.7611 192.75 56.991 192.765 57.2284C192.765 57.31 192.787 57.3323 192.862 57.3471C193.018 57.3842 193.16 57.3917 193.316 57.3917C193.711 57.3768 194.106 57.4065 194.509 57.3917C194.673 57.3917 194.747 57.3917 194.904 57.3694C195.053 57.3397 195.105 57.2581 195.105 57.043C195.09 56.902 195.105 56.8427 195.105 56.6795C195.105 56.4346 194.934 56.3604 194.792 56.3679C194.688 56.3679 194.196 56.3679 194.002 56.3679C193.674 56.3679 193.726 56.4198 193.726 56.0785C193.726 55.804 193.726 55.4405 193.726 55.1586C193.726 55.0028 193.741 54.9509 193.89 54.9509H194.807C194.956 54.9731 195.053 54.8693 195.053 54.7135C195.053 54.5577 195.068 54.5503 195.068 54.4019L195.045 54.1793C195.03 54.0532 194.986 54.0087 194.859 54.0087C194.777 54.0087 194.695 54.0087 194.613 54.0235C194.3 54.0458 194.151 54.0013 193.845 54.0235C193.741 54.0235 193.726 54.0087 193.719 53.9122C193.689 53.6303 193.719 53.3113 193.749 53.0294C193.749 52.9107 193.786 52.8885 193.898 52.881H194.934C195.075 52.8588 195.12 52.8662 195.112 52.7252C195.098 52.5101 195.112 52.295 195.098 52.0798C195.083 51.9611 195.045 51.9389 194.911 51.9389C194.688 51.9389 194.643 51.9389 194.419 51.9611C194.196 51.9611 193.316 51.9611 193.108 51.9611C192.802 51.9611 192.78 51.9389 192.772 52.3098C192.757 52.5991 192.772 52.9033 192.772 53.2C192.772 53.7119 192.742 55.5444 192.757 55.9524L192.727 55.9598ZM199.458 56.1156C199.502 56.0192 199.54 55.9227 199.577 55.8337C199.659 55.5963 199.674 55.3589 199.696 55.1141C199.741 54.6022 199.726 54.0829 199.592 53.5858C199.428 52.9478 199.018 52.3691 198.399 52.0946C198.123 51.9685 197.803 51.9537 197.505 51.9611C197.192 51.9611 196.864 51.9463 196.551 51.9759C196.461 51.9759 196.417 52.0279 196.402 52.1095C196.387 52.1985 196.372 52.2875 196.372 52.3617C196.387 52.8069 196.372 54.1274 196.387 54.35C196.387 54.5503 196.372 54.7877 196.372 54.988C196.372 55.4776 196.372 55.9747 196.372 56.4643C196.372 56.672 196.372 56.8649 196.372 57.0726C196.372 57.2952 196.29 57.3842 196.894 57.3842C197.43 57.3842 197.989 57.3397 198.496 57.1468C198.966 56.9762 199.256 56.5459 199.465 56.1082L199.458 56.1156ZM197.319 55.3589V54.4835C197.319 53.9271 197.333 53.571 197.319 53.1036V53.0146C197.319 52.8588 197.348 52.8514 197.512 52.8514C197.728 52.8514 197.878 52.8959 198.064 52.9701C198.25 53.0443 198.347 53.2075 198.444 53.3558C198.63 53.6526 198.697 53.9864 198.712 54.3277C198.712 54.528 198.727 54.7209 198.727 54.9212C198.727 55.856 198.176 56.5088 197.691 56.5088C197.371 56.5088 197.319 56.5311 197.319 56.3159C197.319 56.1008 197.333 55.8782 197.333 55.6557C197.333 55.5592 197.333 55.4554 197.333 55.3589H197.319ZM204.868 51.9463C204.727 51.9463 204.593 51.9759 204.451 52.0205C204.153 52.1243 203.877 52.3246 203.698 52.5917C203.534 52.8365 203.467 53.1184 203.452 53.4004C203.437 53.6229 203.452 53.8455 203.564 54.0458C203.676 54.2609 203.862 54.439 204.026 54.617C204.175 54.7728 204.317 54.9212 204.481 55.0622C204.63 55.2031 204.794 55.307 204.943 55.4554C205.159 55.6705 205.234 56.1527 205.085 56.4124C204.898 56.7017 204.466 56.7462 204.183 56.6572C204.034 56.6053 203.907 56.494 203.78 56.4124C203.706 56.3604 203.616 56.3382 203.564 56.4272C203.534 56.4717 203.519 56.5237 203.505 56.5682C203.452 56.7536 203.385 56.9168 203.378 57.1172C203.378 57.3471 203.803 57.4065 203.967 57.4436C204.69 57.6142 205.554 57.4807 205.927 56.7685C206.001 56.6201 206.053 56.4717 206.083 56.3085C206.083 56.2492 206.098 56.1972 206.098 56.1379C206.128 55.6705 205.934 55.2773 205.651 54.9212C205.345 54.5428 204.95 54.2758 204.593 53.9493C204.369 53.7416 204.295 53.4226 204.354 53.1333C204.421 52.8217 204.779 52.7401 205.055 52.8217C205.137 52.8439 205.204 52.881 205.278 52.9255C205.323 52.9478 205.368 52.9775 205.427 52.9775C205.532 52.9775 205.547 52.9033 205.569 52.8217C205.621 52.6362 205.711 52.4953 205.748 52.3172C205.785 52.1169 205.621 52.0798 205.465 52.0353C205.271 51.9834 205.092 51.9463 204.891 51.9537L204.868 51.9463ZM207.373 55.9598C207.373 56.1453 207.373 56.3308 207.373 56.5237C207.373 56.7611 207.395 56.991 207.41 57.2284C207.41 57.31 207.432 57.3323 207.507 57.3471C207.663 57.3842 207.805 57.3917 207.961 57.3917C208.356 57.3768 208.751 57.4065 209.154 57.3917C209.318 57.3917 209.392 57.3917 209.549 57.3694C209.698 57.3397 209.75 57.2581 209.75 57.043C209.735 56.902 209.75 56.8427 209.75 56.6795C209.75 56.4346 209.579 56.3604 209.437 56.3679C209.333 56.3679 208.841 56.3679 208.647 56.3679C208.319 56.3679 208.371 56.4198 208.371 56.0785C208.371 55.804 208.371 55.4405 208.371 55.1586C208.371 55.0028 208.386 54.9509 208.535 54.9509H209.452C209.601 54.9731 209.698 54.8693 209.698 54.7135C209.698 54.5577 209.713 54.5503 209.713 54.4019L209.691 54.1793C209.676 54.0532 209.631 54.0087 209.504 54.0087C209.422 54.0087 209.34 54.0087 209.258 54.0235C208.945 54.0458 208.796 54.0013 208.491 54.0235C208.386 54.0235 208.371 54.0087 208.364 53.9122C208.334 53.6303 208.364 53.3113 208.394 53.0294C208.394 52.9107 208.431 52.8885 208.543 52.881H209.579C209.72 52.8588 209.765 52.8662 209.758 52.7252C209.743 52.5101 209.758 52.295 209.743 52.0798C209.728 51.9611 209.691 51.9389 209.556 51.9389C209.333 51.9389 209.288 51.9389 209.064 51.9611C208.841 51.9611 207.961 51.9611 207.753 51.9611C207.447 51.9611 207.425 51.9389 207.417 52.3098C207.402 52.5991 207.417 52.9033 207.417 53.2C207.417 53.7119 207.388 55.5444 207.402 55.9524L207.373 55.9598ZM211.926 56.9094C211.926 56.7165 211.926 55.5221 211.926 55.4257C211.926 55.4034 211.949 55.3589 211.979 55.3589C212.008 55.3589 212.023 55.3737 212.031 55.396C212.321 55.9672 212.582 56.5385 212.843 57.0949C212.88 57.1765 212.962 57.4065 212.985 57.4287C213.015 57.4733 213.067 57.4584 213.111 57.4584H213.916C214.013 57.4584 214.036 57.4065 214.013 57.3249C213.954 57.1023 213.536 56.3308 213.439 56.1379C213.372 55.9895 212.933 55.1438 212.918 55.077C212.903 55.0473 213.015 54.9954 213.029 54.9731C213.38 54.6615 213.7 54.3351 213.76 53.8455C213.834 53.3633 213.723 52.8365 213.41 52.4507C213.164 52.1688 212.851 51.9982 212.478 51.9759C212.247 51.9611 212.031 51.9759 211.8 51.9759C211.599 51.9759 211.464 51.9759 211.211 51.9759C211.092 51.9759 211.017 52.0427 211.01 52.1688V52.2579C210.995 52.8217 211.01 53.3855 211.01 53.9419C211.01 54.7877 210.995 57.0281 210.995 57.3471C210.995 57.4436 211.01 57.4658 211.099 57.4658C211.151 57.4658 211.211 57.4658 211.263 57.4658C211.472 57.4658 211.591 57.4658 211.807 57.4658C211.971 57.4658 211.912 57.2062 211.912 56.9169L211.926 56.9094ZM211.926 54.0606V53.3262C211.941 53.2149 211.904 52.9997 212.008 52.9181C212.15 52.8143 212.433 52.9181 212.56 53.0072C212.925 53.252 212.895 53.8677 212.702 54.2164C212.605 54.3796 212.448 54.4687 212.262 54.5206C212.15 54.5503 211.949 54.5874 211.941 54.4093C211.941 54.2906 211.941 54.068 211.941 54.068L211.926 54.0606ZM216.913 57.4658C217.024 57.4658 217.427 57.4658 217.509 57.4658C217.561 57.451 217.591 57.3175 217.606 57.273C217.65 57.132 217.68 56.991 217.717 56.8501C217.799 56.4866 218.612 53.4152 218.902 52.2653C218.917 52.2133 218.932 52.154 218.917 52.1021C218.895 51.9908 218.828 51.9759 218.738 51.9759C218.567 51.9759 218.403 51.9759 218.232 51.9759C218.038 51.9759 217.971 51.9982 217.911 52.2133C217.628 53.1926 217.434 54.3648 217.173 55.3589L217.129 55.4776H217.099C217.084 55.4405 217.062 55.4108 217.054 55.3737C216.793 54.3277 216.354 52.2579 216.286 52.065C216.242 51.9463 216.13 51.9834 216.033 51.9834C215.824 51.9834 215.638 51.9834 215.437 51.9834C215.362 51.9834 215.31 52.0205 215.318 52.0946C215.318 52.154 215.4 52.473 215.414 52.562L215.496 52.8662C215.549 53.1036 215.623 53.3929 215.675 53.6155C215.951 54.7802 216.257 55.9376 216.585 57.0875C216.614 57.1913 216.637 57.362 216.711 57.4213C216.771 57.4733 216.868 57.451 216.935 57.4584L216.913 57.4658ZM221.213 55.5741C221.191 54.7432 221.198 53.8603 221.213 53.0294C221.213 52.7772 221.198 52.4953 221.198 52.243C221.198 51.9685 221.086 51.9834 220.945 51.9759C220.728 51.9759 220.639 51.9759 220.423 51.9759C220.281 51.9759 220.222 52.0056 220.222 52.1466C220.222 52.8662 220.199 54.8841 220.207 55.1809C220.214 55.4776 220.244 56.8056 220.229 57.0949C220.229 57.1988 220.229 57.3026 220.229 57.3991C220.229 57.4362 220.259 57.4733 220.319 57.4733C220.564 57.4584 220.788 57.4584 221.034 57.451C221.123 57.451 221.198 57.4213 221.235 57.3249C221.235 57.273 221.22 55.9376 221.22 55.5889L221.213 55.5741ZM225.401 52.8439C225.401 52.5991 225.401 52.4062 225.401 52.1688C225.401 51.9018 224.91 51.924 224.731 51.9314C223.948 51.9834 223.195 52.4804 222.838 53.1555C222.733 53.3558 222.659 53.5561 222.607 53.7713C222.48 54.2684 222.472 54.7951 222.532 55.2996C222.584 55.7744 222.711 56.2492 223.002 56.6275C223.508 57.2952 224.44 57.5252 225.238 57.3991C225.275 57.3991 225.312 57.3842 225.342 57.362C225.364 57.3471 225.387 57.3175 225.387 57.2878L225.409 56.8723C225.409 56.7388 225.409 56.7462 225.409 56.6201C225.409 56.442 225.044 56.5756 224.813 56.5756C224.582 56.5756 224.358 56.5756 224.157 56.4643C223.807 56.264 223.605 55.8708 223.494 55.4999C223.367 55.0992 223.337 54.669 223.412 54.2609C223.501 53.7268 223.754 53.111 224.321 52.933C224.641 52.8217 224.992 52.8588 225.312 52.8959C225.357 52.8959 225.387 52.8736 225.387 52.8365L225.401 52.8439ZM226.706 55.9598C226.706 56.1453 226.706 56.3308 226.706 56.5237C226.706 56.7611 226.728 56.991 226.743 57.2284C226.743 57.31 226.765 57.3323 226.84 57.3471C226.996 57.3842 227.138 57.3917 227.295 57.3917C227.69 57.3768 228.085 57.4065 228.487 57.3917C228.651 57.3917 228.726 57.3917 228.882 57.3694C229.031 57.3397 229.083 57.2581 229.083 57.043C229.068 56.902 229.083 56.8427 229.083 56.6795C229.083 56.4346 228.912 56.3604 228.77 56.3679C228.666 56.3679 228.174 56.3679 227.98 56.3679C227.652 56.3679 227.704 56.4198 227.704 56.0785C227.704 55.804 227.704 55.4405 227.704 55.1586C227.704 55.0028 227.719 54.9509 227.868 54.9509H228.785C228.934 54.9731 229.031 54.8693 229.031 54.7135C229.031 54.5577 229.046 54.5503 229.046 54.4019L229.024 54.1793C229.009 54.0532 228.964 54.0087 228.837 54.0087C228.755 54.0087 228.673 54.0087 228.591 54.0235C228.278 54.0458 228.129 54.0013 227.824 54.0235C227.719 54.0235 227.704 54.0087 227.697 53.9122C227.667 53.6303 227.697 53.3113 227.727 53.0294C227.727 52.9107 227.764 52.8885 227.876 52.881H228.912C229.053 52.8588 229.098 52.8662 229.091 52.7252C229.076 52.5101 229.091 52.295 229.076 52.0798C229.061 51.9611 229.024 51.9389 228.889 51.9389C228.666 51.9389 228.621 51.9389 228.398 51.9611C228.174 51.9611 227.295 51.9611 227.086 51.9611C226.78 51.9611 226.758 51.9389 226.75 52.3098C226.736 52.5991 226.75 52.9033 226.75 53.2C226.75 53.7119 226.721 55.5444 226.736 55.9524L226.706 55.9598Z" fill="white"/>
</g>
<defs>
<clipPath id="clip0_262_635">
<rect width="276" height="58" fill="white"/>
</clipPath>
</defs>
</svg>
