<?xml version="1.0" encoding="UTF-8" standalone="no"?>
<!-- Created with Inkscape (http://www.inkscape.org/) -->

<svg
   width="169mm"
   height="169mm"
   viewBox="0 0 169 169"
   version="1.1"
   id="svg1"
   inkscape:version="1.3 (0e150ed6c4, 2023-07-21)"
   sodipodi:docname="select.svg"
   xmlns:inkscape="http://www.inkscape.org/namespaces/inkscape"
   xmlns:sodipodi="http://sodipodi.sourceforge.net/DTD/sodipodi-0.dtd"
   xmlns="http://www.w3.org/2000/svg"
   xmlns:svg="http://www.w3.org/2000/svg">
   <sodipodi:namedview
      id="namedview1"
      pagecolor="#c7c7c7"
      bordercolor="#000000"
      borderopacity="0"
      inkscape:showpageshadow="2"
      inkscape:pageopacity="0.0"
      inkscape:pagecheckerboard="0"
      inkscape:deskcolor="#686868"
      inkscape:document-units="mm"
      inkscape:zoom="0.76477183"
      inkscape:cx="297.47435"
      inkscape:cy="447.846"
      inkscape:window-width="1080"
      inkscape:window-height="1849"
      inkscape:window-x="1912"
      inkscape:window-y="-8"
      inkscape:window-maximized="1"
      inkscape:current-layer="layer1" />
   <defs
      id="defs1">
      <inkscape:perspective
         sodipodi:type="inkscape:persp3d"
         inkscape:vp_x="-31.136741 : 50.252698 : 1"
         inkscape:vp_y="0 : 999.99992 : 0"
         inkscape:vp_z="148.86328 : 50.252698 : 1"
         inkscape:persp3d-origin="58.863257 : 0.7528492 : 1"
         id="perspective36" />
      <inkscape:perspective
         sodipodi:type="inkscape:persp3d"
         inkscape:vp_x="0 : 20.499915 : 1"
         inkscape:vp_y="0 : 999.99992 : 0"
         inkscape:vp_z="210.00003 : 20.499915 : 1"
         inkscape:persp3d-origin="105.00001 : -28.999998 : 1"
         id="perspective12" />
      <linearGradient
         id="swatch4"
         inkscape:swatch="solid">
         <stop
            style="stop-color:#000000;stop-opacity:0;"
            offset="0"
            id="stop4" />
      </linearGradient>
      <linearGradient
         id="swatch3"
         inkscape:swatch="solid">
         <stop
            style="stop-color:#000000;stop-opacity:1;"
            offset="0"
            id="stop3" />
      </linearGradient>
   </defs>
   <g
      inkscape:label="Layer 1"
      inkscape:groupmode="layer"
      id="layer1">
      <rect
         style="fill:#000000;fill-opacity:0;fill-rule:evenodd;stroke-width:1.05833;stroke-dasharray:none"
         id="rect3"
         width="68.500824"
         height="70.576599"
         x="17.64415"
         y="40.823723"
         ry="11.416804" />
      <g
         sodipodi:type="inkscape:box3d"
         id="g12"
         style="fill:#000000;fill-opacity:0;fill-rule:evenodd;stroke-width:4;stroke-dasharray:none"
         inkscape:perspectiveID="#perspective12"
         inkscape:corner0="4.3245616 : 0.58967113 : 0 : 1"
         inkscape:corner7="0.89687504 : 0.15137345 : 0.25 : 1">
         <path
            sodipodi:type="inkscape:box3dside"
            id="path17"
            style="fill:#e9e9ff;fill-rule:evenodd;stroke:none;stroke-linejoin:round"
            inkscape:box3dsidetype="11"
            d="M 28.253347,51.600773 73.362454,-103.10803 v 204.15611 l -45.109107,29.17729 z"
            points="73.362454,-103.10803 73.362454,101.04808 28.253347,130.22537 28.253347,51.600773 " />
         <path
            sodipodi:type="inkscape:box3dside"
            id="path12"
            style="fill:#353564;fill-rule:evenodd;stroke:none;stroke-linejoin:round"
            inkscape:box3dsidetype="6"
            d="m 19.719936,47.051135 v 82.316195 l 8.533411,0.85804 V 51.600773 Z"
            points="19.719936,129.36733 28.253347,130.22537 28.253347,51.600773 19.719936,47.051135 " />
         <path
            sodipodi:type="inkscape:box3dside"
            id="path13"
            style="fill:#4d4d9f;fill-rule:evenodd;stroke:none;stroke-linejoin:round"
            inkscape:box3dsidetype="5"
            d="M 19.719936,47.051135 55.354206,-136.2689 73.362454,-103.10803 28.253347,51.600773 Z"
            points="55.354206,-136.2689 73.362454,-103.10803 28.253347,51.600773 19.719936,47.051135 " />
         <path
            sodipodi:type="inkscape:box3dside"
            id="path16"
            style="fill:#afafde;fill-rule:evenodd;stroke:none;stroke-linejoin:round"
            inkscape:box3dsidetype="13"
            d="m 19.719936,129.36733 35.63427,-34.573223 18.008248,6.253973 -45.109107,29.17729 z"
            points="55.354206,94.794107 73.362454,101.04808 28.253347,130.22537 19.719936,129.36733 " />
         <path
            sodipodi:type="inkscape:box3dside"
            id="path15"
            style="fill:#d7d7ff;fill-rule:evenodd;stroke:none;stroke-linejoin:round"
            inkscape:box3dsidetype="14"
            d="M 55.354206,-136.2689 V 94.794107 l 18.008248,6.253973 v -204.15611 z"
            points="55.354206,94.794107 73.362454,101.04808 73.362454,-103.10803 55.354206,-136.2689 " />
         <path
            sodipodi:type="inkscape:box3dside"
            id="path14"
            style="fill:#8686bf;fill-rule:evenodd;stroke:none;stroke-linejoin:round"
            inkscape:box3dsidetype="3"
            d="M 19.719936,47.051135 55.354206,-136.2689 V 94.794107 l -35.63427,34.573223 z"
            points="55.354206,-136.2689 55.354206,94.794107 19.719936,129.36733 19.719936,47.051135 " />
      </g>
      <g
         sodipodi:type="inkscape:box3d"
         id="g17"
         style="fill:#000000;fill-opacity:0;fill-rule:evenodd;stroke-width:4;stroke-dasharray:none"
         inkscape:perspectiveID="#perspective36"
         inkscape:corner0="1.487705 : 0.14437502 : 0 : 1"
         inkscape:corner7="0.53282832 : 0.1350038 : 0.25 : 1">
         <path
            sodipodi:type="inkscape:box3dside"
            id="path23"
            style="fill:#e9e9ff;fill-rule:evenodd;stroke:none;stroke-linejoin:round"
            inkscape:box3dsidetype="11"
            d="M 18.174636,84.092302 44.58564,65.531205 v 5.256378 l -26.411004,16.72774 z"
            points="44.58564,65.531205 44.58564,70.787583 18.174636,87.515323 18.174636,84.092302 " />
         <path
            sodipodi:type="inkscape:box3dside"
            id="path18"
            style="fill:#353564;fill-rule:evenodd;stroke:none;stroke-linejoin:round"
            inkscape:box3dsidetype="6"
            d="m 5.0411813,80.609675 v 3.767014 l 13.1334547,3.138634 v -3.423021 z"
            points="5.0411813,84.376689 18.174636,87.515323 18.174636,84.092302 5.0411813,80.609675 " />
         <path
            sodipodi:type="inkscape:box3dside"
            id="path19"
            style="fill:#4d4d9f;fill-rule:evenodd;stroke:none;stroke-linejoin:round"
            inkscape:box3dsidetype="5"
            d="M 5.0411813,80.609675 27.578249,56.851809 44.58564,65.531205 18.174636,84.092302 Z"
            points="27.578249,56.851809 44.58564,65.531205 18.174636,84.092302 5.0411813,80.609675 " />
         <path
            sodipodi:type="inkscape:box3dside"
            id="path22"
            style="fill:#afafde;fill-rule:evenodd;stroke:none;stroke-linejoin:round"
            inkscape:box3dsidetype="13"
            d="M 5.0411813,84.376689 27.578249,62.965488 44.58564,70.787583 18.174636,87.515323 Z"
            points="27.578249,62.965488 44.58564,70.787583 18.174636,87.515323 5.0411813,84.376689 " />
         <path
            sodipodi:type="inkscape:box3dside"
            id="path21"
            style="fill:#d7d7ff;fill-rule:evenodd;stroke:none;stroke-linejoin:round"
            inkscape:box3dsidetype="14"
            d="m 27.578249,56.851809 v 6.113679 l 17.007391,7.822095 v -5.256378 z"
            points="27.578249,62.965488 44.58564,70.787583 44.58564,65.531205 27.578249,56.851809 " />
         <path
            sodipodi:type="inkscape:box3dside"
            id="path20"
            style="fill:#8686bf;fill-rule:evenodd;stroke:none;stroke-linejoin:round"
            inkscape:box3dsidetype="3"
            d="M 5.0411813,80.609675 27.578249,56.851809 v 6.113679 L 5.0411813,84.376689 Z"
            points="27.578249,56.851809 27.578249,62.965488 5.0411813,84.376689 5.0411813,80.609675 " />
      </g>
      <g
         sodipodi:type="inkscape:box3d"
         id="g23"
         style="fill:#000000;fill-opacity:0;fill-rule:evenodd;stroke-width:4;stroke-dasharray:none"
         inkscape:perspectiveID="#perspective36"
         inkscape:corner0="0.99671058 : 0.12012337 : 0 : 1"
         inkscape:corner7="0.26458336 : 0.080228132 : 0.25 : 1">
         <path
            sodipodi:type="inkscape:box3dside"
            id="path29"
            style="fill:#e9e9ff;fill-rule:evenodd;stroke:none;stroke-linejoin:round"
            inkscape:box3dsidetype="11"
            d="M 28.951107,87.313117 57.996686,72.118297 V 98.45903 l -29.045579,6.61126 z"
            points="57.996686,72.118297 57.996686,98.45903 28.951107,105.07029 28.951107,87.313117 " />
         <path
            sodipodi:type="inkscape:box3dside"
            id="path24"
            style="fill:#353564;fill-rule:evenodd;stroke:none;stroke-linejoin:round"
            inkscape:box3dsidetype="6"
            d="m 13.937392,83.377371 v 19.980479 l 15.013715,1.71244 V 87.313117 Z"
            points="13.937392,103.35785 28.951107,105.07029 28.951107,87.313117 13.937392,83.377371 " />
         <path
            sodipodi:type="inkscape:box3dside"
            id="path25"
            style="fill:#4d4d9f;fill-rule:evenodd;stroke:none;stroke-linejoin:round"
            inkscape:box3dsidetype="5"
            d="M 13.937392,83.377371 40.032944,62.900043 57.996686,72.118297 28.951107,87.313117 Z"
            points="40.032944,62.900043 57.996686,72.118297 28.951107,87.313117 13.937392,83.377371 " />
         <path
            sodipodi:type="inkscape:box3dside"
            id="path28"
            style="fill:#afafde;fill-rule:evenodd;stroke:none;stroke-linejoin:round"
            inkscape:box3dsidetype="13"
            d="m 13.937392,103.35785 26.095552,-8.909681 17.963742,4.010861 -29.045579,6.61126 z"
            points="40.032944,94.448169 57.996686,98.45903 28.951107,105.07029 13.937392,103.35785 " />
         <path
            sodipodi:type="inkscape:box3dside"
            id="path27"
            style="fill:#d7d7ff;fill-rule:evenodd;stroke:none;stroke-linejoin:round"
            inkscape:box3dsidetype="14"
            d="M 40.032944,62.900043 V 94.448169 L 57.996686,98.45903 V 72.118297 Z"
            points="40.032944,94.448169 57.996686,98.45903 57.996686,72.118297 40.032944,62.900043 " />
         <path
            sodipodi:type="inkscape:box3dside"
            id="path26"
            style="fill:#8686bf;fill-rule:evenodd;stroke:none;stroke-linejoin:round"
            inkscape:box3dsidetype="3"
            d="M 13.937392,83.377371 40.032944,62.900043 v 31.548126 l -26.095552,8.909681 z"
            points="40.032944,62.900043 40.032944,94.448169 13.937392,103.35785 13.937392,83.377371 " />
      </g>
      <g
         sodipodi:type="inkscape:box3d"
         id="g29"
         style="fill:#000000;fill-opacity:0;fill-rule:evenodd;stroke-width:4;stroke-dasharray:none"
         inkscape:perspectiveID="#perspective36"
         inkscape:corner0="0.36098658 : 0.10173251 : 0 : 1"
         inkscape:corner7="0.01166669 : 0.094341936 : 0.25 : 1">
         <path
            sodipodi:type="inkscape:box3dside"
            id="path35"
            style="fill:#e9e9ff;fill-rule:evenodd;stroke:none;stroke-linejoin:round"
            inkscape:box3dsidetype="11"
            d="m 52.662843,86.324526 23.201739,-8.976951 v 5.857787 l -23.201739,7.706772 z"
            points="75.864582,77.347575 75.864582,83.205362 52.662843,90.912134 52.662843,86.324526 " />
         <path
            sodipodi:type="inkscape:box3dside"
            id="path30"
            style="fill:#353564;fill-rule:evenodd;stroke:none;stroke-linejoin:round"
            inkscape:box3dsidetype="6"
            d="m 34.991758,80.368778 v 5.430306 l 17.671085,5.11305 v -4.587608 z"
            points="34.991758,85.799084 52.662843,90.912134 52.662843,86.324526 34.991758,80.368778 " />
         <path
            sodipodi:type="inkscape:box3dside"
            id="path31"
            style="fill:#4d4d9f;fill-rule:evenodd;stroke:none;stroke-linejoin:round"
            inkscape:box3dsidetype="5"
            d="M 34.991758,80.368778 57.825365,67.117001 75.864582,77.347575 52.662843,86.324526 Z"
            points="57.825365,67.117001 75.864582,77.347575 52.662843,86.324526 34.991758,80.368778 " />
         <path
            sodipodi:type="inkscape:box3dside"
            id="path34"
            style="fill:#afafde;fill-rule:evenodd;stroke:none;stroke-linejoin:round"
            inkscape:box3dsidetype="13"
            d="M 34.991758,85.799084 57.825365,74.422345 75.864582,83.205362 52.662843,90.912134 Z"
            points="57.825365,74.422345 75.864582,83.205362 52.662843,90.912134 34.991758,85.799084 " />
         <path
            sodipodi:type="inkscape:box3dside"
            id="path33"
            style="fill:#d7d7ff;fill-rule:evenodd;stroke:none;stroke-linejoin:round"
            inkscape:box3dsidetype="14"
            d="m 57.825365,67.117001 v 7.305344 l 18.039217,8.783017 v -5.857787 z"
            points="57.825365,74.422345 75.864582,83.205362 75.864582,77.347575 57.825365,67.117001 " />
         <path
            sodipodi:type="inkscape:box3dside"
            id="path32"
            style="fill:#8686bf;fill-rule:evenodd;stroke:none;stroke-linejoin:round"
            inkscape:box3dsidetype="3"
            d="M 34.991758,80.368778 57.825365,67.117001 v 7.305344 L 34.991758,85.799084 Z"
            points="57.825365,67.117001 57.825365,74.422345 34.991758,85.799084 34.991758,80.368778 " />
      </g>
      <rect
         style="fill:#fbfbfb;fill-opacity:0;fill-rule:evenodd;stroke:#ffffff;stroke-width:12.7;stroke-linejoin:miter;stroke-dasharray:none;stroke-opacity:1"
         id="rect35"
         width="60.889618"
         height="63.311363"
         x="6.9192748"
         y="6.9192743"
         ry="11.416804" />
      <rect
         style="fill:#000000;fill-opacity:0;fill-rule:evenodd;stroke:#ffffff;stroke-width:12.7;stroke-dasharray:none;stroke-opacity:1"
         id="rect35-7"
         width="60.889618"
         height="63.311363"
         x="91.367287"
         y="6.5310063"
         ry="11.416804" />
      <rect
         style="fill:#000000;fill-opacity:0;fill-rule:evenodd;stroke:#ffffff;stroke-width:12.7;stroke-dasharray:none;stroke-opacity:1"
         id="rect35-2"
         width="60.889618"
         height="63.311363"
         x="7.0150175"
         y="92.751923"
         ry="11.416804" />
      <rect
         style="fill:#e800ca;fill-opacity:1;fill-rule:evenodd;stroke:#ffffff;stroke-width:12.7;stroke-dasharray:none;stroke-opacity:1"
         id="rect35-7-9"
         width="60.889618"
         height="63.311363"
         x="91.46302"
         y="92.363655"
         ry="11.416804" />
   </g>
</svg>