<svg width="47" height="56" viewBox="0 0 47 56" fill="none" xmlns="http://www.w3.org/2000/svg">
<g clip-path="url(#clip0_41_1014)">
<path d="M46.3054 42.2604C46.7563 40.9005 46.6974 39.5386 46.3135 38.1768C47.2336 39.4762 47.2295 40.8945 46.3054 42.2604Z" fill="#0F0E0D"/>
<path d="M46.3237 38.1889C44.9547 37.7054 43.9005 36.952 43.8762 35.3342C44.193 36.7082 45.5742 37.1816 46.3237 38.1889Z" fill="#0F0E0D"/>
<path d="M42.233 55.8892C42.5194 55.2385 43.1287 55.3775 43.6568 55.317C43.2384 55.6454 42.7509 55.8025 42.233 55.8892Z" fill="#0F0E0D"/>
<path d="M45.4726 43.0945C45.5254 42.5888 45.7793 42.2806 46.3155 42.2504C46.1307 42.6271 45.8565 42.9132 45.4726 43.0945Z" fill="#0F0E0D"/>
<path d="M43.6811 34.9816C43.2465 34.9776 43.2465 34.6754 43.2546 34.3672C43.4821 34.5143 43.5897 34.7419 43.6811 34.9816Z" fill="#0F0E0D"/>
<path d="M42.8951 33.9663C42.5803 33.9804 42.4402 33.8253 42.4564 33.519C42.6026 33.6681 42.7489 33.8172 42.8951 33.9663Z" fill="#0F0E0D"/>
<path d="M42.0319 44.0453C42.2228 43.6263 42.4625 43.2234 42.5904 42.7862C42.7672 42.1858 43.0393 41.8051 43.738 41.7749C44.0447 41.7608 44.3433 41.5291 44.6439 41.3961C44.6805 41.7164 44.4306 42.0005 44.2377 42.0166C43.0515 42.1153 42.7793 43.0481 42.3751 43.8821C42.3325 43.9708 42.1497 43.9909 42.0319 44.0433V44.0453Z" fill="#0F0E0D"/>
<path d="M43.4638 52.7908C43.474 51.858 43.4862 50.9273 43.4963 49.9945C43.6101 50.2564 43.7258 50.5203 43.8396 50.7822C43.8233 51.4712 43.9757 52.1924 43.4638 52.7908Z" fill="#F0BE9C"/>
<path d="M44.2499 38.6341C43.4212 38.6039 42.5925 38.5737 42.6534 37.4072C42.9581 38.1083 43.8375 38.072 44.2499 38.6341Z" fill="#0F0E0D"/>
<path d="M43.8396 50.7822C43.7258 50.5203 43.6101 50.2564 43.4963 49.9945C43.348 49.5553 43.1977 49.1141 43.0495 48.6749C43.998 49.1242 43.8436 49.9824 43.8396 50.7822Z" fill="#0F0E0D"/>
<path d="M42.6209 37.2601C42.3345 36.7122 42.0461 36.1642 41.7597 35.6162C42.6372 35.86 42.5966 36.5772 42.6209 37.2601Z" fill="#0F0E0D"/>
<path d="M42.235 47.448C41.9628 47.454 41.6907 47.4601 41.4205 47.4641C41.4408 47.1418 41.6419 46.9726 41.9385 46.9927C42.1802 47.0088 42.2025 47.2506 42.235 47.448Z" fill="#0F0E0D"/>
<path d="M43.0454 48.6648C42.8382 48.3385 42.6331 48.0141 42.4259 47.6877C43.1145 47.7119 43.0251 48.2216 43.0454 48.6648Z" fill="#0F0E0D"/>
<path d="M45.0786 40.6245C45.0725 40.3545 45.0664 40.0866 45.0583 39.8167C45.2289 40.0826 45.7651 40.3384 45.0786 40.6245Z" fill="#0F0E0D"/>
<path d="M44.6317 41.4082C44.7698 41.1846 44.91 40.961 45.0481 40.7394C45.0603 41.0557 45.1232 41.4022 44.6317 41.4082Z" fill="#0F0E0D"/>
<path d="M44.4672 38.7973C44.39 38.7389 44.3128 38.6804 44.2357 38.62C44.3128 38.6784 44.39 38.7368 44.4672 38.7973Z" fill="#0F0E0D"/>
<path d="M45.0562 39.7401C45.0075 39.6354 44.9608 39.5306 44.912 39.4279C44.9608 39.5326 45.0075 39.6374 45.0562 39.7401Z" fill="#0F0E0D"/>
<path d="M2.0433 54.9263C2.36016 54.878 2.64045 54.9848 2.91262 55.1318C3.76366 55.5911 4.67766 55.7241 5.63838 55.7241C17.2157 55.714 28.7911 55.7161 40.3684 55.7241C40.7868 55.7241 41.2519 55.5609 41.6236 55.9155C39.9723 55.9377 38.321 55.9779 36.6698 55.9779C26.2095 55.988 15.7513 55.99 5.29106 55.9981C4.08457 55.9981 2.96137 55.7725 2.0433 54.9263Z" fill="#0F0E0D"/>
<path d="M6.84082 26.4598C7.82591 26.8769 9.18676 26.6512 9.46908 28.2307C9.57876 28.8512 9.77781 29.5704 10.3993 30.0418C10.6593 30.2392 10.3161 30.3259 10.1373 30.3803C10.0886 30.338 10.0155 30.3037 9.99514 30.2513C9.36753 28.6396 8.62617 27.1226 6.84082 26.4598Z" fill="#0F0E0D"/>
<path d="M41.0387 32.3607C40.2791 32.4131 39.751 31.845 39.0888 31.6395C38.3901 31.4239 37.6975 31.16 36.946 31.1681C36.6637 31.1721 36.3976 31.1499 36.3488 30.7893C38.0692 30.8518 39.6453 31.3373 41.0367 32.3607H41.0387Z" fill="#0F0E0D"/>
<path d="M6.10756 21.5039C6.23349 21.52 6.41426 21.52 6.36755 21.6993C6.05272 22.8799 6.0121 24.0544 6.34927 25.237C6.35739 25.2672 6.20912 25.3397 6.13397 25.3941C5.50229 24.1007 5.55916 22.8053 6.10959 21.5039H6.10756Z" fill="#0F0E0D"/>
<path d="M0.221401 47.6616C0.580908 49.0074 0.584971 50.3531 0.21937 51.7009C-0.097484 50.3551 -0.0467061 49.0094 0.221401 47.6616Z" fill="#0F0E0D"/>
<path d="M14.2097 3.32007C14.1366 4.53488 13.6653 5.69932 13.8075 6.94837C13.8725 7.50843 13.3627 7.39763 13.0113 7.42181C13.3749 7.19214 13.6044 7.01687 13.5252 6.43666C13.379 5.36086 13.5841 4.27499 14.2076 3.32208L14.2097 3.32007Z" fill="#0F0E0D"/>
<path d="M23.3375 1.59355C22.1635 1.44044 21.3511 0.346511 20.106 0.372701C19.8664 0.37673 19.7465 0.231679 19.714 0.00402832C21.1297 0.0684957 22.3138 0.650717 23.3375 1.59355Z" fill="#0F0E0D"/>
<path d="M12.0019 35.8217C11.7845 36.5228 11.1285 36.1602 10.6999 36.2972C9.84889 36.5691 9.03645 37.0486 8.09198 36.9841C9.31471 36.3294 10.6065 35.9043 12.0019 35.8197V35.8217Z" fill="#0F0E0D"/>
<path d="M12.6396 30.5233C12.6396 30.5233 12.6396 30.5311 12.6396 30.535C12.6435 30.535 12.6474 30.535 12.6533 30.535L12.6416 30.5233H12.6396Z" fill="#0F0E0D"/>
<path d="M46.3155 38.1849C44.9506 37.7014 43.9026 36.9479 43.8762 35.3342C43.8762 35.1831 43.864 35.0361 43.6812 34.9817C43.2465 34.9776 43.2465 34.6755 43.2546 34.3672C43.1348 34.2343 43.017 34.0993 42.8972 33.9663C42.5823 33.9804 42.4422 33.8253 42.4584 33.5191C42.2371 33.2169 41.9811 32.953 41.648 32.7717C41.3454 32.7757 41.0346 32.7918 41.0306 32.3607C40.275 32.407 39.751 31.8429 39.0909 31.6394C38.3922 31.4239 37.6995 31.16 36.948 31.168C36.6657 31.1721 36.3996 31.1499 36.3509 30.7893C36.2148 30.7812 36.0807 30.7711 35.9447 30.7631C35.8126 30.9021 35.6217 30.9585 35.5912 30.7369C35.5405 30.3904 35.3333 29.9532 35.8776 29.7638C36.3224 28.1743 37.1979 27.6203 38.3312 28.2307C38.9081 28.541 39.5093 28.7586 39.883 28.0434C40.2181 27.3987 40.013 26.8225 39.2899 26.5123C39.1904 26.4619 39.0929 26.4136 38.9934 26.3632C38.9385 26.337 38.8796 26.3249 38.8187 26.3289C38.7415 26.2725 38.6643 26.2161 38.5871 26.1597H36.552C36.4524 26.6896 36.0361 26.5082 35.7111 26.5304C35.2216 26.893 34.7118 27.2375 34.4965 27.85C34.4416 27.9507 34.3868 28.0494 34.332 28.1501C34.1106 28.3657 34.1004 28.6538 34.0578 28.9298C34.4152 29.1776 34.269 29.2904 33.942 29.3589C33.9034 29.5483 33.8648 29.7356 33.8242 29.925C34.1837 30.3199 34.3787 30.6966 33.6962 30.9666C31.3929 31.5689 29.439 32.7394 28.2488 34.8104C27.6801 35.7996 27.1235 35.9729 26.1405 35.6183C25.7769 35.4873 25.3991 35.5035 25.4072 34.9958C25.4133 34.5223 24.9807 34.061 25.6652 33.6037C27.7146 32.2358 29.0754 30.3199 29.8127 27.9809C29.9082 27.6807 29.9833 27.4793 30.3347 27.3463C33.2169 26.2504 34.1288 22.6926 32.1079 20.261C31.6915 19.7613 31.6834 19.3483 31.7829 18.8124C32.5852 14.5113 29.7823 9.08593 25.7464 7.32315C25.1533 7.06327 25.2143 6.8336 25.261 6.40248C25.4641 4.47248 24.8101 2.8749 23.3396 1.59966C22.1656 1.44655 21.3531 0.352615 20.1081 0.378805C19.8684 0.382834 19.7485 0.237782 19.7161 0.0101318C19.5129 0.0101318 19.3078 0.0101318 19.1047 0.0101318C18.6314 0.896558 17.8271 0.501696 17.1264 0.509754C16.0621 0.922748 15.1826 1.55735 14.6383 2.5848C14.6383 2.86886 14.6687 3.17306 14.2524 3.20328C14.1995 3.23149 14.1874 3.27379 14.2138 3.32617C14.1406 4.54098 13.6694 5.70542 13.8116 6.95448C13.8766 7.51252 13.3688 7.40374 13.0195 7.4259C12.9809 7.86508 12.664 7.83285 12.3533 7.81069C12.075 7.87918 11.8191 7.97588 11.7622 8.30426C11.8049 8.33448 11.8475 8.3647 11.8922 8.39492C11.8394 8.36873 11.7845 8.34254 11.7277 8.31837C11.2443 8.31031 11.0493 8.70517 10.767 8.97513C10.6613 9.56541 10.4745 10.0751 9.7189 10.0247C9.66609 10.0852 9.61329 10.1476 9.56048 10.2081C9.59094 10.6593 9.50767 11.024 8.94302 11.03C8.85162 11.5176 9.04863 12.1864 8.18947 12.1864V12.2791C8.24025 13.0728 7.97824 13.7417 7.37093 14.2675C7.35062 14.3984 7.33031 14.5274 7.31 14.6583C7.45218 15.44 7.60045 16.2237 6.95862 16.8825C6.95862 17.4868 6.95862 18.0912 6.96065 18.6976C7.56186 18.9575 7.42577 19.3221 7.10892 19.715C6.78597 20.3194 6.16445 20.7586 6.10758 21.508C6.23351 21.5221 6.41428 21.5241 6.36756 21.7034C6.05274 22.884 6.01212 24.0585 6.34928 25.2411C6.35741 25.2713 6.20914 25.3438 6.13399 25.3982C6.10961 25.4627 6.12383 25.5191 6.17867 25.5614C6.78597 25.5694 6.93424 25.9059 6.81238 26.4337L6.84284 26.4619C7.82793 26.8789 9.18878 26.6533 9.47111 28.2327C9.58079 28.8532 9.77984 29.5725 10.4014 30.0439C10.6613 30.2413 10.3181 30.3279 10.1393 30.3823C10.2023 30.6301 10.3059 30.8497 10.5415 30.9847C10.9883 30.9726 10.9904 31.2788 10.9843 31.5911C11.0432 31.6556 11.1021 31.72 11.161 31.7845C11.6586 31.7281 11.8516 31.9557 11.7805 32.4332C11.9186 32.683 12.1176 32.8663 12.3736 32.9933C12.4467 33.0597 12.5218 33.1262 12.595 33.1927C12.6823 33.4949 13.2734 33.4828 13.0966 33.93C12.859 34.5324 12.9585 35.2194 12.6092 35.7895C12.4061 35.8016 12.205 35.8117 12.0019 35.8238C11.7845 36.5249 11.1285 36.1622 10.6999 36.2992C9.84889 36.5712 9.03645 37.0507 8.09198 36.9862C8.03511 36.964 7.98433 36.9781 7.94371 37.0225C7.7995 37.5845 7.36078 37.5986 6.90378 37.5825C6.81847 38.2091 6.33913 38.1909 5.87197 38.197C3.2173 39.7966 1.54976 42.1315 0.678409 45.0587C0.983077 45.7578 0.838867 46.3582 0.268124 46.8618C0.251875 47.1297 0.235626 47.3957 0.219377 47.6636C0.578885 49.0094 0.582947 50.3551 0.217346 51.7029C0.229533 51.8359 0.243751 51.9668 0.255937 52.0998C0.830743 52.5752 0.930268 53.2542 1.03995 53.927C1.15978 54.062 1.27962 54.197 1.39946 54.332C1.69397 54.3179 1.84833 54.4468 1.83411 54.749C1.90317 54.8094 1.97223 54.8719 2.04129 54.9323C2.35814 54.886 2.63844 54.9907 2.90857 55.1378C3.75961 55.5971 4.67361 55.7301 5.63433 55.7301C17.2117 55.72 28.787 55.722 40.3644 55.7301C40.7828 55.7301 41.2479 55.5669 41.6196 55.9215C41.8227 55.9114 42.0279 55.9034 42.231 55.8933C42.5173 55.2426 43.1267 55.3816 43.6548 55.3211C45.2919 54.6362 46.1226 52.6014 45.8281 50.9091C45.5214 49.1403 44.8308 47.5508 43.6954 46.1507C43.537 45.9552 43.1673 45.8162 43.4618 45.4234C44.0793 44.6034 44.3311 43.4793 45.4686 43.0985C45.5214 42.5949 45.7732 42.2866 46.3054 42.2544C46.7522 40.9006 46.6933 39.5448 46.3115 38.1869L46.3155 38.1849ZM15.536 5.62081C15.6416 3.83184 17.6138 1.99452 19.4094 2.02474C21.3795 2.05697 23.1669 3.68477 23.2177 5.47576C23.2319 5.94315 23.2157 6.2131 22.5738 6.05999C20.4208 5.54425 18.2496 5.44957 16.0966 6.0882C15.5909 6.23728 15.5096 6.05999 15.534 5.62282L15.536 5.62081ZM9.3533 15.2123C9.96264 12.1965 11.8678 10.2262 14.5245 8.83008C15.4588 8.33851 16.5292 8.41708 17.4778 8.02625C18.7838 7.7019 20.0898 7.67168 21.3978 8.01416C24.676 8.18742 28.2488 11.1005 29.2501 14.3924C29.6502 15.7059 29.8594 17.0295 29.6868 18.619C29.0998 17.7487 28.3808 17.4042 27.6536 17.0658C25.8256 16.2156 24.5623 14.8477 23.8514 12.9781C23.6605 12.4805 23.5325 11.9024 22.8521 11.86C22.1412 11.8157 22.0437 12.408 21.8 12.8875C20.4696 15.5105 18.1866 16.683 15.3431 16.8623C13.7141 16.9651 12.1542 17.3438 10.5801 17.7125C10.0825 17.8293 9.99514 18.335 9.59501 18.5082C9.37361 18.8064 9.10754 19.159 9.03645 18.4518C8.92677 17.3579 8.90849 16.2599 9.35127 15.2144L9.3533 15.2123ZM12.207 29.9572C12.1562 29.8867 12.1055 29.8142 12.0547 29.7437C11.8638 29.6833 11.817 29.5302 11.8008 29.3569C11.3682 29.3146 11.3864 29.0225 11.4332 28.7142C10.6898 28.6034 11.098 28.0293 11.0127 27.6546C10.9924 27.5498 10.9701 27.445 10.9498 27.3403C10.3587 26.9212 10.3993 26.3048 10.4257 25.6923C10.0073 25.7628 9.58079 25.9079 9.17253 25.8696C8.87802 25.8414 8.37837 25.8575 8.39868 25.3055C8.32353 25.235 8.24634 25.1645 8.17119 25.092C8.17119 25.0376 8.15901 24.9852 8.13463 24.9368L8.14479 24.9469C8.07167 24.8744 8.00058 24.7999 7.92746 24.7273C7.05205 23.9215 7.19829 22.197 8.1976 21.5362L8.17322 21.5543C8.24431 21.4758 8.3154 21.3952 8.38649 21.3166C8.44742 21.2582 8.50836 21.1977 8.57132 21.1393C8.62007 20.5148 9.02629 20.8633 9.28628 20.8996C9.66813 20.952 10.0439 21.0567 10.4217 21.1413C10.4684 21.0648 10.5151 20.9862 10.5618 20.9097C10.576 20.7888 10.5882 20.6679 10.6024 20.545C10.5923 20.3617 10.6207 20.1945 10.8116 20.1058C10.8787 20.0555 10.9457 20.0051 11.0148 19.9547C11.096 19.8762 11.1772 19.7956 11.2605 19.717C11.3093 19.6485 11.358 19.58 11.4068 19.5135C11.5103 19.3161 11.6911 19.304 11.8841 19.3181C11.9288 19.3503 11.9714 19.3463 12.008 19.304C13.0357 18.7621 14.1 18.4921 15.2537 18.8789C15.3918 18.8729 15.5279 18.8668 15.666 18.8588C16.1677 18.2262 16.8461 18.4458 17.4879 18.4901C17.626 18.476 17.7642 18.4619 17.9023 18.4478C17.9734 18.3954 18.0444 18.3451 18.1155 18.2927C18.1826 18.2907 18.2455 18.2766 18.3085 18.2524C18.4121 18.1094 18.5644 18.0872 18.7249 18.0912C18.7899 18.0872 18.8528 18.0751 18.9138 18.0509C19.0153 17.5312 19.4236 17.7205 19.7384 17.6964C19.9923 17.1846 20.366 16.8623 20.9794 16.9288C21.0139 16.7314 21.1663 16.6891 21.3409 16.6749C21.412 16.6145 21.4831 16.5541 21.5522 16.4936C21.6273 16.4231 21.7025 16.3526 21.7776 16.2821C21.8406 16.2237 21.9036 16.1653 21.9665 16.1088C21.9564 15.8288 22.0843 15.6797 22.3728 15.6777C22.4256 15.6092 22.4804 15.5427 22.5332 15.4742C22.9272 15.1439 22.9719 15.573 23.0897 15.7482C24.0748 17.227 25.3138 18.4176 27.0037 19.0562C27.743 19.3362 27.9928 19.9628 28.135 20.5793C28.3056 21.3166 28.789 21.4596 29.3131 21.2683C30.5297 20.825 30.7531 21.649 30.9867 22.4528C31.1045 22.8598 31.0923 23.305 31.139 23.7321C31.4376 24.4332 31.2183 24.8986 30.4911 25.1323L30.4769 25.1403C30.4038 25.1967 30.3307 25.2531 30.2575 25.3075C30.2494 25.5835 30.1011 25.7165 29.8269 25.7266C29.1262 25.7528 28.5514 26.0509 28.0639 26.5324C28.0335 26.6573 28.003 26.7802 27.9725 26.9051C28.2833 27.4309 28.1939 27.85 27.6374 28.1441L27.5968 28.1763L27.613 28.2247C27.6171 28.5289 27.7126 28.8794 27.2434 28.9479C27.1966 28.9681 27.1824 29.0023 27.2027 29.0487C27.217 29.367 27.282 29.7175 26.7884 29.7256C26.7295 29.8001 26.6706 29.8767 26.6097 29.9512L26.6137 29.9472C26.5568 30.0137 26.502 30.0822 26.4451 30.1486L26.3944 30.1728V30.2292C26.3151 30.334 26.238 30.4387 26.1587 30.5455L26.1852 30.5072C26.11 30.5858 26.0369 30.6624 25.9617 30.7409L25.9881 30.7147C25.913 30.7913 25.8378 30.8699 25.7647 30.9464C25.7058 31.0028 25.6449 31.0613 25.586 31.1177C25.5088 31.1942 25.4296 31.2708 25.3524 31.3453C25.2935 31.3977 25.2346 31.4481 25.1757 31.5004C25.133 31.6878 24.9868 31.7442 24.8202 31.7724L24.7979 31.7865C24.7674 32.0504 24.6212 32.1713 24.3571 32.1391C24.3531 32.6145 24.0098 32.5641 23.6889 32.546H23.6199L23.5711 32.5903C23.5244 33.0174 23.2075 32.9671 22.913 32.955C22.8521 32.9409 22.7993 32.955 22.7546 32.9993C22.6551 33.0497 22.5555 33.1 22.4581 33.1504L22.3971 33.1403L22.3545 33.1867C22.2956 33.4989 22.196 33.6823 21.9239 33.3216C21.7959 33.3539 21.67 33.3841 21.542 33.4163C21.5177 33.7165 21.2881 33.8031 21.0505 33.8293C19.8481 33.9643 18.6152 34.3612 17.5103 33.4868C17.3193 33.4445 17.1264 33.4022 16.9355 33.3599C16.7689 33.366 16.578 33.3196 16.4419 33.3881C15.4995 33.8595 15.2659 33.2431 15.075 32.546C15.0018 32.4977 14.9287 32.4473 14.8556 32.399C14.7276 32.3204 14.6017 32.2398 14.4737 32.1612C14.1427 32.1773 13.84 32.1592 13.8543 31.71L13.4541 31.3594L13.2327 31.1418L13.249 31.158C13.1799 31.0895 13.1129 31.021 13.0438 30.9504C12.7554 30.9545 12.6214 30.8155 12.6437 30.5334C12.2151 30.5576 12.2131 30.2554 12.2111 29.9552L12.207 29.9572ZM24.152 39.1358C24.0972 39.2285 24.0444 39.3211 23.9895 39.4138C23.9408 39.434 23.9266 39.4682 23.9489 39.5166C23.9651 39.8369 24.0301 40.1854 23.5386 40.2035C23.4756 40.2761 23.4127 40.3466 23.3497 40.4191C23.2949 40.4372 23.24 40.4554 23.1852 40.4695C23.1608 40.5662 23.1283 40.6548 23.0105 40.6568C23.0105 40.8341 22.911 40.9489 22.7627 41.0356H22.7648C22.6327 41.1726 22.5007 41.3136 22.3687 41.4546C22.2326 41.5856 22.0945 41.7145 21.9584 41.8454C21.8183 41.9703 21.6781 42.0932 21.538 42.2181L21.5136 42.2343C21.3958 42.3108 21.278 42.3874 21.1602 42.4639C19.7689 43.445 18.9199 43.4914 17.5895 42.5707C16.4358 41.7709 15.5807 40.7092 15.0282 39.4178C14.4839 39.1398 14.4453 38.7107 14.6586 38.205C14.6586 37.9411 14.6586 37.6752 14.6565 37.4113C14.3234 37.0064 14.3255 36.6014 14.6565 36.1945C14.6403 36.0595 14.622 35.9225 14.6058 35.7875C14.5834 35.7452 14.557 35.7029 14.5428 35.6566C14.5408 35.6465 14.5834 35.6223 14.6058 35.6062C14.6281 35.5438 14.6444 35.4773 14.6525 35.4108C14.6647 35.1066 14.5367 34.748 14.9673 34.6029C15.0465 34.6029 15.1257 34.6049 15.2049 34.607C15.2862 34.6593 15.3674 34.7117 15.4487 34.7661C15.7107 34.8628 15.9727 34.9595 16.2347 35.0562C16.4988 34.6956 16.6084 34.8588 16.6694 35.1831C16.9558 35.4249 17.3132 35.4128 17.6565 35.4571C18.0241 34.9313 18.4568 35.3987 18.8427 35.4148C19.6145 35.447 20.3904 35.2355 21.1561 35.441C21.2841 35.4209 21.4141 35.3987 21.542 35.3786C21.9482 34.7097 22.6185 34.8286 23.2441 34.8185H23.2908C23.4614 34.8225 23.6767 34.8306 23.7113 35.0119C23.9083 36.0474 24.3531 37.0305 24.3571 38.1043C24.3389 38.1547 24.3531 38.1909 24.4018 38.2171C24.5521 38.2473 24.737 38.2594 24.7065 38.473C24.676 38.6805 24.5135 38.757 24.3186 38.7711C24.28 38.8517 24.2414 38.9343 24.2008 39.0149C24.152 39.0451 24.1358 39.0874 24.152 39.1418V39.1358ZM25.0904 54.3058C20.0898 54.3058 15.0892 54.3058 10.0865 54.3038C10.0581 54.3038 10.0094 54.2856 10.0033 54.2675C9.98904 54.2131 9.9931 54.1547 9.98904 54.0963C9.97279 54.0338 9.96264 53.9693 9.95857 53.9049C9.95248 52.3798 9.95045 50.8548 9.93623 49.3297C9.93217 48.7757 9.84483 48.2337 9.18472 48.0887C8.56117 47.9497 8.16713 48.268 7.94777 48.8321C7.95183 50.2967 7.96402 51.7633 7.95589 53.228C7.95589 53.4697 8.08995 53.7739 7.76091 53.9351C6.78191 53.9411 5.80291 53.9855 4.82595 53.9472C3.30464 53.8888 2.24034 52.821 2.20581 51.3161C2.14081 48.4654 2.05551 45.6188 3.63774 43.032C5.55309 39.8993 8.56726 38.5193 11.9856 37.7477C12.8692 37.5483 12.8671 38.193 12.9626 38.7409C13.4501 41.515 14.9815 43.5014 17.5489 44.6921C19.2205 45.4677 20.7763 45.0628 22.2509 44.1522C23.1141 43.6183 23.8697 42.9494 24.5217 42.1718C24.8873 41.7346 25.1208 41.5795 25.59 42.1577C26.4147 43.1731 27.6943 43.7593 28.2142 45.1091C28.4255 45.6551 28.393 45.8988 28.0335 46.2937C26.7214 47.7361 25.8135 49.3921 25.4722 51.3302C25.3179 52.2066 25.458 53.0628 25.588 53.923C25.5494 54.2131 25.3605 54.3058 25.0904 54.3058ZM43.8396 50.7822C43.8234 51.4712 43.9757 52.1925 43.4638 52.7908C43.0962 53.5584 42.3914 53.7941 41.6277 53.9351C41.6054 53.9774 41.581 54.0197 41.5566 54.062C41.7272 54.3521 41.4835 54.3038 41.3413 54.3038C36.9521 54.3078 32.5608 54.3058 28.1716 54.3038C27.9644 54.3038 27.7654 54.2836 27.6272 54.1023H27.6232C27.2393 54.0781 27.0606 53.778 27.0646 53.4959C27.0768 52.0051 27.1479 50.5163 28.0335 49.2169C28.0761 49.1544 28.196 49.1444 28.2874 49.1161C28.267 48.7032 28.3503 48.3566 28.8479 48.272C28.85 47.9779 28.8317 47.6697 29.2704 47.6898C29.3334 47.6193 29.3963 47.5508 29.4593 47.4803L29.4695 47.4702C29.5304 47.4058 29.5893 47.3413 29.6502 47.2768L29.6685 47.2506C29.766 46.6281 30.154 47.0552 30.4078 47.0633C30.9501 47.0794 30.8587 47.4984 30.8709 47.8429C30.8872 47.8933 30.9217 47.9074 30.9705 47.8852C31.068 47.9457 31.1654 48.0061 31.2629 48.0665L31.2833 48.0806C31.4518 48.0806 31.5981 48.1189 31.6671 48.2922C32.0571 48.3566 32.4775 48.3546 32.833 48.5017C35.317 49.5271 37.6975 49.1403 40.0455 48.0545C40.2811 47.9457 40.5573 47.9275 40.8153 47.8671C40.8295 47.4601 41.1281 47.4642 41.4185 47.4622H41.4226C41.4429 47.1378 41.644 46.9686 41.9405 46.9887C42.1822 47.0048 42.2046 47.2466 42.2371 47.444L42.2472 47.4622C42.3041 47.5327 42.363 47.6012 42.4199 47.6717L42.428 47.6838C43.1165 47.7079 43.0272 48.2176 43.0475 48.6608L43.0515 48.6709C44.0001 49.1202 43.8457 49.9784 43.8416 50.7782L43.8396 50.7822ZM45.0786 40.6246C45.0298 40.6528 45.0217 40.6911 45.0501 40.7394C45.0623 41.0537 45.1233 41.3962 44.646 41.4083C44.6764 41.7246 44.4286 42.0006 44.2397 42.0167C43.0536 42.1154 42.7814 43.0482 42.3772 43.8822C42.3345 43.9708 42.1517 43.991 42.0339 44.0434C41.9608 44.1642 41.8857 44.2851 41.8126 44.406C41.843 45.0144 41.5262 45.3327 40.9453 45.4334C38.3373 47.5649 35.5039 48.0887 32.4532 46.479C30.9887 45.7054 29.9001 44.5168 29.3943 42.9132C29.1648 42.1859 28.9048 41.6238 28.0111 41.6198C27.7532 41.6198 27.5115 41.4365 27.418 41.1484C27.2373 41.0194 27.1885 40.8301 27.1723 40.6266L27.2129 40.6447C26.9265 40.1632 26.9265 39.6838 27.2129 39.2023L27.1763 39.2204C27.1946 39.0471 27.221 38.8779 27.4059 38.7933C27.613 38.5072 27.9319 38.6362 28.2021 38.5898C28.7728 38.3582 29.0551 37.927 29.2521 37.3508C29.9529 35.304 31.3279 33.8918 33.3915 33.1363C33.9521 32.9308 34.271 32.9086 34.5594 33.5493C34.9778 34.478 35.7212 35.1811 36.556 35.7714C37.1065 36.1602 37.6995 36.2831 38.1809 35.717C38.6745 35.1368 38.2825 34.6674 37.8417 34.2564C37.3888 33.8313 36.9298 33.4123 36.2595 32.7938C38.7293 32.9912 40.3908 34.0328 41.7597 35.6203C42.6372 35.8641 42.5966 36.5813 42.6209 37.2642C42.5966 37.3206 42.6067 37.369 42.6534 37.4113C42.9561 38.1083 43.8274 38.0761 44.2438 38.6301L44.4692 38.8014C44.6175 39.0109 44.7658 39.2204 44.9141 39.4299C44.9628 39.5347 45.0095 39.6394 45.0583 39.7422V39.8187C45.2309 40.0847 45.7671 40.3405 45.0806 40.6266L45.0786 40.6246Z" fill="#0F0E0D"/>
<path d="M13.0275 30.9404C13.0275 30.9404 13.0353 30.9482 13.0392 30.9521L13.0255 30.9404H13.0275Z" fill="#0F0E0D"/>
<path d="M30.2372 25.3216C30.2372 25.3216 30.2453 25.3156 30.2494 25.3115C30.2494 25.3115 30.2494 25.3095 30.2494 25.3075L30.2372 25.3196V25.3216Z" fill="#0F0E0D"/>
<path d="M26.7722 29.7316C26.7722 29.7316 26.7782 29.7316 26.7823 29.7316C26.7864 29.7276 26.7904 29.7216 26.7925 29.7175L26.7722 29.7316Z" fill="#0F0E0D"/>
<path d="M24.3369 32.1451C24.3369 32.1451 24.345 32.1451 24.349 32.1451C24.349 32.139 24.349 32.135 24.349 32.131L24.3369 32.1451Z" fill="#0F0E0D"/>
<path d="M15.0688 32.5399C15.0688 32.5399 15.0688 32.546 15.0709 32.548C15.0749 32.552 15.081 32.554 15.0851 32.558L15.0688 32.5399Z" fill="#0F0E0D"/>
<path d="M41.0285 32.3527C41.0285 32.3527 41.0285 32.3585 41.0285 32.3604C41.0324 32.3604 41.0344 32.3604 41.0383 32.3604L41.0285 32.3527Z" fill="#0F0E0D"/>
<path d="M46.3135 38.1769C46.3135 38.1769 46.3135 38.1825 46.3154 38.1844C46.3172 38.1844 46.3209 38.1862 46.3228 38.1881L46.3135 38.1769Z" fill="#0F0E0D"/>
<path d="M6.89355 37.5801C6.89355 37.5801 6.89938 37.5801 6.90327 37.5801C6.90327 37.5763 6.90327 37.5724 6.90327 37.5685L6.8916 37.5782L6.89355 37.5801Z" fill="#0F0E0D"/>
<path d="M2.05108 54.934C2.05108 54.934 2.04525 54.9302 2.0433 54.9263L2.05303 54.9321L2.05108 54.934Z" fill="#0F0E0D"/>
<path d="M46.3054 42.2597L46.3128 42.2504C46.3109 42.2504 46.3091 42.2504 46.3072 42.2504C46.3072 42.2522 46.3072 42.256 46.3054 42.2578V42.2597Z" fill="#0F0E0D"/>
<path d="M1.83615 54.747C1.83615 54.747 1.83615 54.747 1.83615 54.745L1.82193 54.7329L1.83615 54.747Z" fill="#0F0E0D"/>
<path d="M22.3644 15.6818C22.3624 15.6837 22.3605 15.6876 22.3585 15.6895L22.3663 15.6818H22.3644Z" fill="#0F0E0D"/>
<path d="M8.92862 11.0252C8.92862 11.0252 8.93419 11.0252 8.93605 11.0252C8.93605 11.0215 8.93605 11.0196 8.93605 11.0159L8.92676 11.0252H8.92862Z" fill="#0F0E0D"/>
<path d="M19.7359 17.7004C19.7359 17.7004 19.732 17.7004 19.7301 17.7004C19.7301 17.7024 19.7262 17.7063 19.7262 17.7082L19.7359 17.7004Z" fill="#0F0E0D"/>
<path d="M27.4036 38.7893C27.4016 38.7912 27.3997 38.7932 27.3977 38.7971L27.4036 38.7893Z" fill="#0F0E0D"/>
<path d="M44.6317 41.4079C44.6317 41.4079 44.6395 41.4079 44.6434 41.4079C44.6434 41.404 44.6434 41.4001 44.6434 41.3962L44.6317 41.4079Z" fill="#0F0E0D"/>
<path d="M31.6712 48.3082C31.6712 48.3082 31.6671 48.3002 31.6651 48.2961C31.661 48.2961 31.657 48.2961 31.6509 48.2961L31.6692 48.3102L31.6712 48.3082Z" fill="#0F0E0D"/>
<path d="M28.85 48.276C28.85 48.276 28.85 48.276 28.8479 48.276C28.8479 48.276 28.8479 48.278 28.8479 48.28V48.276H28.85Z" fill="#0F0E0D"/>
<path d="M29.2741 47.6938C29.2741 47.6938 29.2722 47.6938 29.2702 47.6938C29.2702 47.6938 29.2683 47.6958 29.2664 47.6977L29.2741 47.6938Z" fill="#0F0E0D"/>
<path d="M28.3077 49.1141C28.3077 49.1141 28.2934 49.1182 28.2874 49.1202C28.2874 49.1282 28.2874 49.1363 28.2874 49.1464L28.3077 49.1162V49.1141Z" fill="#0F0E0D"/>
<path d="M23.5345 40.2035C23.5345 40.2035 23.5366 40.2035 23.5386 40.2035C23.5427 40.1975 23.5488 40.1934 23.5528 40.1874L23.5345 40.2035Z" fill="#0F0E0D"/>
<path d="M22.9638 40.6549C22.9801 40.6569 22.9943 40.6549 23.0065 40.6549C23.0065 40.6468 23.0085 40.6407 23.0085 40.6327L22.9638 40.6528V40.6549Z" fill="#0F0E0D"/>
<path d="M10.4208 21.1433C10.4208 21.1433 10.4189 21.1433 10.4171 21.1433C10.4152 21.1471 10.4134 21.1508 10.4115 21.1545L10.4208 21.1452V21.1433Z" fill="#0F0E0D"/>
<path d="M44.2499 38.6342C44.2499 38.6342 44.2458 38.6281 44.2418 38.6261C44.2397 38.6261 44.2377 38.6221 44.2357 38.6221L44.2499 38.6362V38.6342Z" fill="#0F0E0D"/>
<path d="M10.4237 25.6823C10.4237 25.6823 10.4237 25.69 10.4237 25.692C10.4276 25.692 10.4334 25.692 10.4373 25.69L10.4237 25.6823Z" fill="#0F0E0D"/>
<path d="M23.171 40.4714C23.171 40.4714 23.1791 40.4694 23.1832 40.4674C23.1872 40.4533 23.1893 40.4372 23.1933 40.4231L23.171 40.4714Z" fill="#0F0E0D"/>
<path d="M20.9896 16.9348C20.9896 16.9348 20.9774 16.9348 20.9713 16.9348C20.9713 16.9429 20.9672 16.9469 20.9672 16.955L20.9896 16.9348Z" fill="#0F0E0D"/>
<path d="M11.4332 28.7083C11.4332 28.7083 11.4332 28.7141 11.4332 28.716C11.439 28.716 11.4429 28.718 11.4468 28.718L11.4332 28.7083Z" fill="#0F0E0D"/>
<path d="M24.3003 38.7671C24.3003 38.7671 24.3104 38.7671 24.3165 38.7671C24.3186 38.761 24.3226 38.755 24.3247 38.751L24.3003 38.7691V38.7671Z" fill="#0F0E0D"/>
<path d="M7.30594 14.6543C7.44812 15.436 7.59639 16.2196 6.95456 16.8784C6.89159 16.1088 7.03986 15.3715 7.30594 14.6543Z" fill="#0F0E0D"/>
<path d="M19.1026 0.00408513C18.6294 0.890512 17.8251 0.495649 17.1243 0.503707C17.7235 0.104815 18.3938 -0.0241194 19.1026 0.00408513Z" fill="#0F0E0D"/>
<path d="M0.257969 52.0978C0.832775 52.5732 0.9323 53.2521 1.04198 53.925C0.584979 53.3992 0.241721 52.8251 0.257969 52.0978Z" fill="#0F0E0D"/>
<path d="M8.18744 12.275C8.23821 13.0688 7.9762 13.7376 7.3689 14.2634C7.5456 13.5624 7.75887 12.8754 8.18744 12.275Z" fill="#0F0E0D"/>
<path d="M0.680427 45.0587C0.985094 45.7578 0.840885 46.3581 0.270142 46.8618C0.406226 46.2614 0.544342 45.6591 0.680427 45.0587Z" fill="#0F0E0D"/>
<path d="M10.7629 8.96912C10.6573 9.5594 10.4704 10.0691 9.71484 10.0187C9.99311 9.59767 10.3282 9.23303 10.7629 8.96912Z" fill="#0F0E0D"/>
<path d="M35.9447 30.763C35.8126 30.902 35.6217 30.9585 35.5913 30.7368C35.5405 30.3903 35.3333 29.9532 35.8776 29.7638C35.898 30.0982 35.638 30.4488 35.9467 30.763H35.9447Z" fill="#0F0E0D"/>
<path d="M8.93894 11.0159C8.84348 11.5034 9.04862 12.1823 8.18539 12.1823C8.42303 11.7834 8.56927 11.3301 8.93894 11.0159Z" fill="#0F0E0D"/>
<path d="M6.9586 18.6936C7.55981 18.9535 7.42372 19.3181 7.10687 19.711C6.87126 19.3987 6.95047 19.0421 6.9586 18.6936Z" fill="#0F0E0D"/>
<path d="M33.8221 29.921C34.1817 30.3159 34.3766 30.6926 33.6942 30.9626C33.7754 30.6201 33.5845 30.2454 33.8221 29.921Z" fill="#0F0E0D"/>
<path d="M6.17664 25.5574C6.78394 25.5654 6.93221 25.9019 6.81034 26.4297C6.52396 26.192 6.32491 25.8918 6.17664 25.5574Z" fill="#0F0E0D"/>
<path d="M7.9437 37.0225C7.79949 37.5886 7.35468 37.5986 6.89362 37.5825C7.18407 37.2884 7.55982 37.1454 7.9437 37.0225Z" fill="#0F0E0D"/>
<path d="M6.90783 37.5704C6.82659 38.2091 6.34318 38.1909 5.87399 38.195C6.15835 37.8887 6.50973 37.6913 6.90783 37.5704Z" fill="#0F0E0D"/>
<path d="M9.55642 10.204C9.58688 10.6573 9.50361 11.0259 8.9288 11.0259C9.07301 10.7036 9.2355 10.3954 9.55642 10.204Z" fill="#0F0E0D"/>
<path d="M36.5499 26.1597C36.4504 26.6896 36.034 26.5082 35.709 26.5304C35.9406 26.2967 36.1985 26.1235 36.5499 26.1597Z" fill="#0F0E0D"/>
<path d="M11.161 31.7825C11.6586 31.7261 11.8516 31.9537 11.7805 32.4312C11.5733 32.2156 11.3661 31.998 11.161 31.7825Z" fill="#0F0E0D"/>
<path d="M41.646 32.7696C41.3413 32.7737 41.0285 32.7918 41.0285 32.3506C41.2337 32.4896 41.4408 32.6286 41.646 32.7696Z" fill="#0F0E0D"/>
<path d="M13.0154 7.41785C12.9768 7.85905 12.6599 7.8248 12.3492 7.80264C12.5137 7.577 12.7554 7.4803 13.0154 7.41785Z" fill="#0F0E0D"/>
<path d="M14.6362 2.57874C14.6362 2.86279 14.6667 3.167 14.2503 3.19722C14.3031 2.94338 14.4351 2.7399 14.6362 2.57874Z" fill="#0F0E0D"/>
<path d="M10.5415 30.9807C10.9883 30.9686 10.9904 31.2748 10.9843 31.5871C10.836 31.3856 10.6898 31.1822 10.5415 30.9807Z" fill="#0F0E0D"/>
<path d="M34.0557 28.9258C34.4132 29.1736 34.2669 29.2864 33.9399 29.3549C33.9095 29.1937 33.9034 29.0386 34.0557 28.9258Z" fill="#0F0E0D"/>
<path d="M1.40149 54.3279C1.696 54.3138 1.85037 54.4428 1.83615 54.747C1.69194 54.608 1.54773 54.469 1.40149 54.3279Z" fill="#0F0E0D"/>
<path d="M39.2879 26.5122C39.1883 26.4619 39.0909 26.4135 38.9913 26.3632C39.1315 26.3309 39.2249 26.3934 39.2879 26.5122Z" fill="#0F0E0D"/>
<path d="M38.8146 26.3269C38.7374 26.2705 38.6603 26.2141 38.5831 26.1577C38.7232 26.1295 38.774 26.2201 38.8146 26.3269Z" fill="#0F0E0D"/>
<path d="M11.7581 8.29822C11.8008 8.32844 11.8434 8.35866 11.8881 8.38888C11.8353 8.36269 11.7805 8.3365 11.7236 8.31232C11.7195 8.31433 11.7581 8.29822 11.7581 8.29822Z" fill="#0F0E0D"/>
<path d="M7.76294 53.9351C6.78395 53.9412 5.80495 53.9855 4.82798 53.9472C3.30668 53.8888 2.24237 52.821 2.20785 51.3161C2.14285 48.4655 2.05754 45.6188 3.63978 43.0321C5.55512 39.8994 8.56727 38.5194 11.9877 37.7478C12.8712 37.5483 12.8692 38.193 12.9646 38.741C13.4521 41.5151 14.9836 43.5015 17.5509 44.6921C19.2225 45.4677 20.7783 45.0628 22.2529 44.1522C23.1161 43.6183 23.8717 42.9495 24.5237 42.1718C24.8893 41.7347 25.1229 41.5795 25.5921 42.1577C26.4167 43.1731 27.6963 43.7594 28.2163 45.1091C28.4275 45.6551 28.395 45.8989 28.0355 46.2937C26.7234 47.7362 25.8155 49.3922 25.4743 51.3302C25.3199 52.2066 25.4601 53.0628 25.59 53.923C25.328 53.9412 25.068 53.9593 24.806 53.9774C24.4364 53.9593 24.0687 53.9271 23.6991 53.9271C19.1189 53.917 14.5408 53.9109 9.96061 53.9049C9.95452 52.3798 9.95249 50.8548 9.93827 49.3297C9.93421 48.7757 9.84687 48.2338 9.18676 48.0887C8.5632 47.9497 8.16917 48.268 7.95184 48.8301C7.90512 48.812 7.85638 48.7938 7.80966 48.7777C7.80357 48.8059 7.79341 48.8362 7.79341 48.8644C7.78326 50.5546 7.77513 52.2449 7.76498 53.9351H7.76294Z" fill="#1FC2C3"/>
<path d="M11.0107 27.6546C10.9904 27.5498 10.968 27.4451 10.9477 27.3403C10.7182 26.8044 10.964 26.1215 10.4237 25.6823L10.4379 25.6904C10.4196 25.638 10.4014 25.5836 10.3831 25.5312C9.8753 25.1001 9.28019 25.4526 8.73585 25.3439L8.74397 25.3962C8.6546 25.092 8.44743 24.9409 8.13058 24.9369L8.14073 24.947C8.13667 24.7093 8.17932 24.4514 7.86247 24.3607C7.50499 23.3655 7.77513 22.4428 8.19354 21.5383C8.19354 21.5383 8.16917 21.5564 8.16917 21.5544C8.24026 21.4758 8.31135 21.3972 8.38243 21.3167C8.44337 21.2582 8.5043 21.1978 8.56727 21.1394C9.18473 20.9339 9.80218 21.6652 10.4217 21.1414L10.4115 21.1515C10.4603 21.0709 10.509 20.9903 10.5598 20.9077C10.574 20.7868 10.5862 20.6659 10.6004 20.543C10.8096 20.4625 10.7588 20.259 10.8096 20.1039C10.8766 20.0535 10.9437 20.0031 11.0127 19.9528C11.094 19.8742 11.1752 19.7936 11.2585 19.715C11.3072 19.6465 11.356 19.5781 11.4047 19.5116C11.5733 19.4693 11.7825 19.5237 11.882 19.3162C11.9267 19.3484 11.9694 19.3444 12.0059 19.302C13.0885 19.161 14.1691 19.02 15.2517 18.877C15.3898 18.8709 15.5259 18.8649 15.664 18.8568C16.3038 18.8911 16.903 18.7299 17.4859 18.4881C17.624 18.474 17.7621 18.4599 17.9002 18.4458C17.9713 18.3935 18.0424 18.3431 18.1135 18.2907C18.1805 18.2887 18.2435 18.2746 18.3065 18.2504C18.4771 18.2786 18.6396 18.2867 18.7228 18.0893C18.7878 18.0852 18.8508 18.0731 18.9117 18.049C19.2327 18.0308 19.5028 17.8959 19.7445 17.6944L19.7343 17.7025C20.2299 17.5655 20.6362 17.2814 20.9977 16.9288L20.9753 16.949C21.0972 16.8563 21.2191 16.7657 21.3409 16.675C21.412 16.6146 21.4831 16.5541 21.5522 16.4937C21.6273 16.4232 21.7025 16.3527 21.7776 16.2822C21.8406 16.2237 21.9036 16.1653 21.9665 16.1089C22.1026 15.9659 22.2387 15.8208 22.3748 15.6778L22.3667 15.6858C22.4215 15.6153 22.4784 15.5448 22.5332 15.4743C22.9272 15.1439 22.9719 15.573 23.0897 15.7483C24.0748 17.227 25.3138 18.4176 27.0037 19.0563C27.743 19.3363 27.9929 19.9628 28.135 20.5793C28.3056 21.3167 28.789 21.4597 29.3131 21.2683C30.5297 20.8251 30.7531 21.6491 30.9867 22.4529C31.1045 22.8598 31.0923 23.3051 31.139 23.7322C31.1553 24.3043 30.5906 24.6126 30.4911 25.1323L30.4769 25.1404C30.3997 25.1988 30.3225 25.2592 30.2454 25.3177L30.2575 25.3056C29.8615 25.3459 29.5182 25.5937 29.0937 25.5453C28.3747 25.4667 28.0274 25.8153 28.0619 26.5325C28.0314 26.6574 28.001 26.7803 27.9705 26.9052C27.8588 27.3182 27.7471 27.7312 27.6354 28.1442L27.5948 28.1764L27.611 28.2247C27.4871 28.4665 27.3652 28.7062 27.2413 28.948C27.1946 28.9681 27.1804 29.0024 27.2007 29.0487C27.0606 29.2744 26.9184 29.5 26.7782 29.7256L26.7986 29.7115C26.7356 29.7921 26.6726 29.8727 26.6097 29.9513L26.6137 29.9472C26.5569 30.0137 26.502 30.0822 26.4451 30.1487L26.3944 30.1729V30.2293C26.3151 30.334 26.2359 30.4388 26.1567 30.5456L26.1831 30.5073C26.108 30.5859 26.0349 30.6624 25.9597 30.741L25.9861 30.7148C25.911 30.7914 25.8358 30.8699 25.7627 30.9465C25.7038 31.0029 25.6428 31.0613 25.5839 31.1177C25.5068 31.1943 25.4276 31.2708 25.3504 31.3454C25.2915 31.3977 25.2326 31.4481 25.1737 31.5005C25.0559 31.5911 24.936 31.6818 24.8182 31.7725L24.7959 31.7866C24.6456 31.9034 24.4932 32.0203 24.3429 32.1371L24.3551 32.123C24.1317 32.264 23.9103 32.405 23.6869 32.5441L23.6178 32.542L23.5691 32.5884C23.3497 32.7093 23.1304 32.8321 22.911 32.953C22.8501 32.9389 22.7973 32.953 22.7526 32.9973C22.653 33.0477 22.5535 33.0981 22.456 33.1484L22.3951 33.1384L22.3524 33.1847C22.2082 33.229 22.0661 33.2754 21.9218 33.3197C21.7939 33.3519 21.668 33.3821 21.54 33.4144C20.2035 33.7971 18.8589 33.7992 17.5082 33.4849C17.3173 33.4426 17.1244 33.4003 16.9334 33.358C16.3119 33.084 15.6924 32.81 15.0709 32.534L15.0871 32.5521C15.01 32.4997 14.9307 32.4474 14.8536 32.395C14.7256 32.3164 14.5997 32.2358 14.4717 32.1573C14.2645 32.0062 14.0594 31.8571 13.8522 31.706C13.7182 31.5891 13.5862 31.4723 13.4521 31.3554C13.379 31.2829 13.3059 31.2104 13.2307 31.1379L13.247 31.154C13.1738 31.0815 13.1027 31.0069 13.0296 30.9344L13.0438 30.9465C12.9098 30.8034 12.7757 30.6604 12.6417 30.5174L12.6539 30.5294C12.5056 30.336 12.3553 30.1447 12.207 29.9513C12.1562 29.8807 12.1055 29.8082 12.0547 29.7377C11.9694 29.6088 11.8841 29.4798 11.8008 29.3509C11.6789 29.1353 11.555 28.9178 11.4332 28.7022L11.4474 28.7123C11.3011 28.3577 11.1569 28.0031 11.0107 27.6486V27.6546ZM19.4845 31.158C20.0492 30.9827 21.2495 30.876 22.0782 29.9291C22.4337 29.5221 22.4865 29.085 22.1371 28.6659C21.7858 28.2449 21.2902 28.1784 20.8779 28.4947C19.8115 29.3126 18.8102 29.2361 17.7499 28.4826C17.3295 28.1844 16.8319 28.2489 16.4927 28.6821C16.1697 29.095 16.1596 29.5443 16.5333 29.9533C17.1833 30.6644 17.884 31.291 19.4845 31.16V31.158ZM21.9584 22.7954C21.9584 23.5629 22.5474 24.3446 23.1954 24.2842C23.9408 24.2157 24.4364 23.8027 24.4851 23.0109C24.5257 22.3481 23.7417 21.4456 23.1568 21.5745C22.5698 21.7035 21.8853 21.8828 21.9584 22.7974V22.7954ZM16.7547 22.9586C16.7202 22.1124 16.32 21.6329 15.5462 21.5544C14.9084 21.4899 14.2117 22.2514 14.2645 22.9424C14.3214 23.6778 14.6931 24.2137 15.4873 24.2761C16.1718 24.3305 16.7567 23.6496 16.7527 22.9586H16.7547Z" fill="#F0BE9C"/>
<path d="M44.4672 38.7973C44.6155 39.0069 44.7638 39.2164 44.912 39.4259C44.9608 39.5307 45.0075 39.6354 45.0562 39.7382L45.0583 39.8147C45.0644 40.0847 45.0705 40.3526 45.0786 40.6226C45.0298 40.6508 45.0217 40.6891 45.0501 40.7374C44.91 40.961 44.7719 41.1847 44.6338 41.4063L44.646 41.3942C44.3433 41.5271 44.0468 41.7608 43.7401 41.7729C43.0393 41.8031 42.7672 42.1839 42.5925 42.7843C42.4645 43.2214 42.2249 43.6243 42.0339 44.0434C41.9608 44.1643 41.8857 44.2851 41.8125 44.406C41.5241 44.7485 41.2337 45.091 40.9453 45.4335C38.3373 47.5649 35.5039 48.0887 32.4532 46.479C30.9887 45.7054 29.9001 44.5168 29.3943 42.9132C29.1648 42.1859 28.9048 41.6238 28.0111 41.6198C27.7532 41.6198 27.5115 41.4365 27.418 41.1484C27.3876 40.951 27.3916 40.7374 27.1723 40.6266L27.2129 40.6447C27.2129 40.1633 27.2129 39.6838 27.2129 39.2023L27.1763 39.2204C27.3673 39.1378 27.4221 38.9847 27.4058 38.7933L27.3998 38.8014C27.6597 38.7047 28.0396 39.0512 28.2041 38.5898C28.7748 38.3582 29.0571 37.927 29.2542 37.3509C29.9549 35.304 31.33 33.8918 33.3936 33.1363C33.9542 32.9308 34.2731 32.9087 34.5615 33.5493C34.9799 34.478 35.7233 35.1811 36.5581 35.7714C37.1085 36.1602 37.7016 36.2831 38.1829 35.717C38.6765 35.1368 38.2845 34.6674 37.8438 34.2564C37.3908 33.8313 36.9318 33.4123 36.2615 32.7938C38.7313 32.9913 40.3928 34.0328 41.7618 35.6203C42.0482 36.1683 42.3366 36.7163 42.623 37.2642C42.5986 37.3206 42.6087 37.369 42.6555 37.4113C42.5945 38.5778 43.4253 38.608 44.2519 38.6382C44.2519 38.6382 44.2377 38.6241 44.2397 38.6241C44.3169 38.6825 44.3941 38.7409 44.4713 38.8014L44.4672 38.7973ZM35.7233 45.0829C36.5804 45.1031 37.3055 44.7807 37.9189 44.2146C38.315 43.852 38.581 43.4229 38.1789 42.8971C37.7808 42.3753 37.275 42.3068 36.7673 42.6956C36.0909 43.2134 35.4633 43.294 34.7585 42.7419C34.3584 42.4277 33.8668 42.3471 33.4992 42.8044C33.1011 43.298 33.1905 43.8258 33.619 44.2529C34.1898 44.821 34.9088 45.0829 35.7192 45.0829H35.7233ZM38.9487 40.7092C39.6657 40.6266 40.1572 40.2861 40.1877 39.5307C40.2181 38.7732 39.7733 38.3521 39.0441 38.2877C38.3718 38.2292 37.7605 38.8497 37.7645 39.5045C37.7686 40.2882 38.2418 40.6065 38.9507 40.7072L38.9487 40.7092ZM34.1796 39.5468C34.1268 38.8054 33.7368 38.3461 32.9833 38.3259C32.2176 38.3058 31.7484 38.8578 31.7301 39.4984C31.7118 40.1552 32.2176 40.7032 32.9467 40.7112C33.6576 40.7213 34.1451 40.3284 34.1796 39.5448V39.5468Z" fill="#F0BE9C"/>
<path d="M9.35328 15.2123C9.96261 12.1965 11.8678 10.2262 14.5245 8.83008C15.4588 8.33851 16.5292 8.41708 17.4777 8.02625C18.7837 8.02222 20.0918 8.01819 21.3978 8.01416C24.676 8.18742 28.2487 11.1005 29.2501 14.3924C29.6502 15.7059 29.8594 17.0295 29.6868 18.619C29.0998 17.7487 28.3808 17.4042 27.6536 17.0658C25.8256 16.2156 24.5623 14.8477 23.8514 12.9781C23.6625 12.4805 23.5325 11.9023 22.8521 11.86C22.1412 11.8157 22.0437 12.408 21.8 12.8875C20.4696 15.5105 18.1866 16.683 15.343 16.8623C13.7141 16.9651 12.1542 17.3438 10.5801 17.7125C10.0825 17.8293 9.99511 18.335 9.59498 18.5082C9.09533 17.4405 9.49749 16.3063 9.35125 15.2144L9.35328 15.2123Z" fill="#A35629"/>
<path d="M43.4638 52.7908C43.0962 53.5584 42.3914 53.7941 41.6277 53.9351C36.9419 53.9392 32.2541 53.9452 27.5683 53.9492C27.2901 52.8835 27.3307 51.8399 27.6455 50.7742C27.8161 50.192 28.2995 49.7468 28.3097 49.1122L28.2894 49.1424C28.724 49.0094 28.787 48.6408 28.85 48.2741L28.8479 48.2781C28.9901 48.0827 29.1323 47.8873 29.2745 47.6919L29.2663 47.6959C29.3313 47.6254 29.3943 47.5529 29.4593 47.4824L29.4695 47.4723C29.5304 47.4078 29.5893 47.3433 29.6502 47.2789L29.6685 47.2527C30.2819 47.025 30.4119 47.7644 30.8709 47.845C30.8872 47.8954 30.9217 47.9095 30.9704 47.8873C31.0679 47.9477 31.1654 48.0082 31.2629 48.0686L31.2832 48.0827C31.4132 48.1572 31.5432 48.2318 31.6732 48.3043L31.6549 48.2902C32.6035 48.9792 33.68 49.3821 34.8377 49.4547C36.1742 49.5373 37.5655 49.5695 38.7923 49.0215C39.4788 48.7153 40.3095 48.532 40.8173 47.8671C41.1463 47.9195 41.2905 47.6999 41.4205 47.4602C41.4205 47.4602 41.4246 47.4602 41.4226 47.4602C41.6947 47.4542 41.9669 47.4481 42.237 47.4441L42.2472 47.4622C42.3041 47.5327 42.363 47.6012 42.4198 47.6717L42.428 47.6838C42.6351 48.0102 42.8403 48.3345 43.0475 48.6609L43.0515 48.671C43.1998 49.1102 43.3501 49.5514 43.4984 49.9926C43.4882 50.9253 43.476 51.8561 43.4659 52.7888L43.4638 52.7908Z" fill="#FBD134"/>
<path d="M15.4466 34.7621C15.7086 34.8588 15.9707 34.9555 16.2327 35.0522C16.3769 35.0945 16.5211 35.1368 16.6673 35.1791C16.9537 35.4209 17.3112 35.4088 17.6545 35.4531C18.8223 35.7029 19.9902 35.7614 21.1541 35.437C21.282 35.4169 21.412 35.3947 21.54 35.3746C22.1554 35.3323 22.7241 35.1469 23.2421 34.8145H23.2888C23.6666 35.9024 23.7356 37.089 24.3551 38.1003C24.3368 38.1507 24.351 38.1869 24.3998 38.2131C24.3673 38.3985 24.3348 38.5818 24.3003 38.7672L24.3246 38.749C24.282 38.8357 24.2414 38.9223 24.1987 39.0109C24.15 39.0411 24.1337 39.0835 24.15 39.1378C24.0972 39.2305 24.0423 39.3232 23.9875 39.4159C23.9387 39.436 23.9245 39.4703 23.9468 39.5186C23.76 39.7181 23.5467 39.9034 23.5325 40.2076L23.5508 40.1915C23.4939 40.2116 23.435 40.2277 23.3761 40.2378C23.307 40.3184 23.238 40.397 23.1689 40.4776L23.1913 40.4292C23.1141 40.5058 23.0389 40.5823 22.9618 40.6609L23.0064 40.6407C22.8033 40.7012 22.7851 40.8724 22.7566 41.0396L22.7586 41.0376C22.4784 41.0457 22.3484 41.1927 22.3565 41.4667L22.3768 41.4466C22.1006 41.4426 21.9624 41.5795 21.9523 41.8515C21.7004 41.8515 21.5542 41.9684 21.5319 42.2242L21.5075 42.2403C21.3755 42.2967 21.2008 42.2847 21.1541 42.47C19.7628 43.4511 18.9137 43.4975 17.5834 42.5768C16.4297 41.777 15.5746 40.7153 15.0221 39.4239C14.8251 39.0411 14.9754 38.5556 14.6525 38.2111C14.6525 37.9472 14.6525 37.6813 14.6504 37.4174V36.2005C14.6322 36.0656 14.6159 35.9286 14.5976 35.7936C14.622 35.7332 14.622 35.6727 14.5976 35.6123C14.62 35.5498 14.6362 35.4833 14.6443 35.4169C14.9734 35.2335 14.7682 34.8447 14.9592 34.609C15.0384 34.609 15.1176 34.611 15.1968 34.613C15.278 34.6654 15.3593 34.7178 15.4405 34.7722L15.4466 34.7621Z" fill="#F0BE9C"/>
<path d="M19.4093 2.02478C21.3795 2.05701 23.1669 3.68482 23.2177 5.4758C23.2319 5.94319 23.2157 6.21315 22.5738 6.06004C20.4208 5.5443 18.2496 5.44961 16.0966 6.08824C15.5908 6.23732 15.5096 6.06004 15.534 5.62287C15.6396 3.8339 17.6118 1.99658 19.4073 2.02679L19.4093 2.02478Z" fill="#A35629"/>
<path d="M40.8153 47.8732C40.3075 48.538 39.4767 48.7193 38.7902 49.0275C37.5634 49.5755 36.1721 49.5433 34.8357 49.4607C33.6779 49.3882 32.6014 48.9852 31.6529 48.2962C32.0469 48.3627 32.4714 48.3587 32.833 48.5078C35.317 49.5332 37.6975 49.1464 40.0455 48.0605C40.2811 47.9517 40.5593 47.9336 40.8173 47.8732H40.8153Z" fill="#0F0E0D"/>
<path d="M24.804 53.9794C25.066 53.9613 25.326 53.9432 25.588 53.925C25.5474 54.2152 25.3605 54.3078 25.0904 54.3078C20.0898 54.3078 15.0892 54.3078 10.0865 54.3058C10.0581 54.3058 10.0094 54.2877 10.0033 54.2695C9.98904 54.2152 9.99311 54.1567 9.98904 54.0983C14.5631 54.0983 19.1392 54.0983 23.7133 54.0902C24.0769 54.0902 24.4546 54.1708 24.802 53.9815L24.804 53.9794Z" fill="#0F0E0D"/>
<path d="M24.804 53.9794C24.4567 54.1708 24.0789 54.0882 23.7153 54.0882C19.1412 54.0963 14.5651 54.0943 9.99107 54.0963C9.97482 54.0338 9.96466 53.9694 9.9606 53.9049C14.5387 53.911 19.1189 53.917 23.697 53.9271C24.0667 53.9271 24.4343 53.9613 24.804 53.9774V53.9794Z" fill="#505050"/>
<path d="M41.5566 54.064C41.7272 54.3541 41.4835 54.3058 41.3413 54.3058C36.9521 54.3098 32.5608 54.3078 28.1716 54.3058C27.9644 54.3058 27.7653 54.2856 27.6272 54.1043C32.2704 54.0902 36.9115 54.0761 41.5546 54.062L41.5566 54.064Z" fill="#0F0E0D"/>
<path d="M41.5566 54.064C36.9135 54.0782 32.2724 54.0923 27.6293 54.1064L27.6252 54.1043C27.6008 54.056 27.5825 54.0056 27.5683 53.9512C32.2541 53.9472 36.9419 53.9412 41.6277 53.9371C41.6054 53.9794 41.581 54.0217 41.5566 54.064Z" fill="#696966"/>
<path d="M27.5683 53.9512C27.5826 54.0036 27.6008 54.054 27.6252 54.1043C27.2413 54.0822 27.0626 53.782 27.0667 53.4999C27.0788 52.0091 27.1499 50.5203 28.0355 49.2209C28.0802 49.1544 28.2163 49.1484 28.3097 49.1141C28.2995 49.7487 27.8182 50.196 27.6476 50.7762C27.3327 51.8399 27.2941 52.8855 27.5704 53.9512H27.5683Z" fill="#0F0E0D"/>
<path d="M9.3533 15.2124C9.49954 16.3063 9.09738 17.4385 9.59703 18.5063C9.37564 18.8044 9.10956 19.157 9.03847 18.4499C8.92879 17.3559 8.91051 16.258 9.3533 15.2124Z" fill="#AF6535"/>
<path d="M17.5042 33.4909C18.8528 33.8052 20.1974 33.8032 21.5359 33.4204C21.5115 33.7206 21.282 33.8072 21.0444 33.8334C19.842 33.9684 18.6091 34.3653 17.5042 33.4909Z" fill="#0F0E0D"/>
<path d="M8.19353 21.5381C7.77512 22.4447 7.50701 23.3674 7.86246 24.3606C7.88277 24.4835 7.90308 24.6064 7.92339 24.7273C7.04798 23.9214 7.19422 22.1969 8.19353 21.5361V21.5381Z" fill="#0F0E0D"/>
<path d="M7.76294 53.9351C7.77106 52.2448 7.78122 50.5546 7.79137 48.8643C7.79137 48.8361 7.80153 48.8059 7.80762 48.7777C7.85434 48.7958 7.90309 48.812 7.9498 48.8301C7.95386 50.2967 7.96605 51.7613 7.95793 53.228C7.95793 53.4697 8.09198 53.7739 7.76294 53.9351Z" fill="#9C9A95"/>
<path d="M24.3551 38.1003C23.7377 37.0889 23.6666 35.9023 23.2888 34.8145C23.4594 34.8185 23.6747 34.8265 23.7092 35.0079C23.9062 36.0434 24.3511 37.0265 24.3551 38.1003Z" fill="#0F0E0D"/>
<path d="M15.2456 18.881C14.163 19.022 13.0824 19.163 11.9998 19.306C13.0276 18.7641 14.0919 18.4942 15.2456 18.881Z" fill="#0F0E0D"/>
<path d="M28.0538 26.5384C28.0192 25.8192 28.3666 25.4707 29.0856 25.5513C29.5101 25.5976 29.8533 25.3498 30.2494 25.3115C30.2413 25.5895 30.093 25.7225 29.8168 25.7346C29.116 25.7608 28.5412 26.0589 28.0538 26.5404V26.5384Z" fill="#0F0E0D"/>
<path d="M21.1541 35.4389C19.9882 35.7613 18.8223 35.7049 17.6544 35.4551C18.0221 34.9292 18.4547 35.3966 18.8406 35.4127C19.6124 35.445 20.3883 35.2334 21.1541 35.4389Z" fill="#0F0E0D"/>
<path d="M15.0688 32.5399C15.6904 32.8139 16.3099 33.0879 16.9314 33.3639C16.7648 33.3699 16.5739 33.3236 16.4378 33.3921C15.4913 33.8655 15.2598 33.241 15.0688 32.5419V32.5399Z" fill="#0F0E0D"/>
<path d="M21.3978 8.01417C20.0918 8.0182 18.7838 8.02223 17.4778 8.02626C18.7838 7.7019 20.0898 7.67168 21.3978 8.01417Z" fill="#AF6535"/>
<path d="M17.4798 18.4921C16.8968 18.7359 16.2977 18.895 15.6579 18.8608C16.1596 18.2282 16.8379 18.4478 17.4798 18.4921Z" fill="#0F0E0D"/>
<path d="M30.8689 47.849C30.4099 47.7684 30.2799 47.029 29.6665 47.2567C29.764 46.6342 30.1519 47.0612 30.4058 47.0693C30.9481 47.0854 30.8567 47.5045 30.8689 47.849Z" fill="#0F0E0D"/>
<path d="M10.3831 25.5312C10.4013 25.5836 10.4196 25.638 10.4379 25.6903C10.0134 25.7588 9.5828 25.9079 9.17048 25.8696C8.87597 25.8414 8.37632 25.8575 8.39663 25.3055C8.5124 25.3358 8.62817 25.366 8.74395 25.3962L8.73582 25.3438C9.24766 25.7246 9.84075 25.4184 10.3831 25.5312Z" fill="#0F0E0D"/>
<path d="M10.4217 21.1434C9.80218 21.6652 9.18675 20.9339 8.56726 21.1414C8.61601 20.5168 9.02223 20.8654 9.28221 20.9016C9.66609 20.956 10.0419 21.0608 10.4217 21.1434Z" fill="#0F0E0D"/>
<path d="M30.481 25.1362C30.5805 24.6165 31.1451 24.3082 31.1289 23.7361C31.4275 24.4372 31.2081 24.9025 30.481 25.1362Z" fill="#0F0E0D"/>
<path d="M23.2421 34.8165C22.7241 35.1489 22.1554 35.3342 21.54 35.3765C21.9462 34.7077 22.6165 34.8265 23.2421 34.8165Z" fill="#0F0E0D"/>
<path d="M10.4237 25.6823C10.9619 26.1214 10.7182 26.8044 10.9477 27.3403C10.3526 26.9172 10.3973 26.2967 10.4237 25.6823Z" fill="#0F0E0D"/>
<path d="M20.9895 16.9349C20.628 17.2874 20.2218 17.5715 19.7262 17.7085C19.9821 17.1867 20.3599 16.8583 20.9895 16.9349Z" fill="#0F0E0D"/>
<path d="M27.6272 28.1482C27.7389 27.7352 27.8506 27.3222 27.9624 26.9092C28.2731 27.435 28.1838 27.854 27.6272 28.1482Z" fill="#0F0E0D"/>
<path d="M40.9432 45.4335C41.2317 45.091 41.5221 44.7485 41.8105 44.406C41.841 45.0144 41.5241 45.3327 40.9432 45.4335Z" fill="#0F0E0D"/>
<path d="M14.6586 38.203C14.9815 38.5475 14.8312 39.033 15.0282 39.4158C14.4839 39.1378 14.4453 38.7087 14.6586 38.203Z" fill="#0F0E0D"/>
<path d="M28.85 48.276C28.785 48.6447 28.722 49.0133 28.2894 49.1443C28.263 48.7192 28.3422 48.3606 28.85 48.276Z" fill="#0F0E0D"/>
<path d="M11.0107 27.6545C11.1569 28.0091 11.3011 28.3637 11.4474 28.7183C10.6816 28.6135 11.098 28.0333 11.0107 27.6545Z" fill="#0F0E0D"/>
<path d="M27.2109 39.2002C27.2109 39.6817 27.2109 40.1612 27.2109 40.6427C26.9245 40.1612 26.9245 39.6817 27.2109 39.2002Z" fill="#F9F6EC"/>
<path d="M19.7364 17.7004C19.4946 17.9019 19.2245 18.0368 18.9036 18.055C19.0052 17.5312 19.4195 17.7266 19.7364 17.7004Z" fill="#0F0E0D"/>
<path d="M14.6565 36.1945C14.6565 36.5994 14.6565 37.0043 14.6565 37.4113C14.3234 37.0063 14.3255 36.6014 14.6565 36.1945Z" fill="#0F0E0D"/>
<path d="M26.7721 29.7316C26.9123 29.506 27.0545 29.2803 27.1946 29.0547C27.2088 29.375 27.2758 29.7296 26.7721 29.7316Z" fill="#0F0E0D"/>
<path d="M41.4165 47.4662C41.2865 47.7039 41.1423 47.9255 40.8132 47.8731C40.8275 47.4642 41.126 47.4702 41.4165 47.4662Z" fill="#0F0E0D"/>
<path d="M24.3003 38.7672C24.3328 38.5818 24.3653 38.3985 24.3998 38.2131C24.5501 38.2434 24.7349 38.2554 24.7045 38.469C24.674 38.6825 24.5034 38.7571 24.3003 38.7672Z" fill="#0F0E0D"/>
<path d="M28.2 38.5858C28.0355 39.0472 27.6577 38.7006 27.3957 38.7973C27.6029 38.4992 27.9258 38.6322 28.2 38.5858Z" fill="#F9F6EC"/>
<path d="M23.5345 40.2035C23.5488 39.9013 23.762 39.716 23.9489 39.5145C23.9651 39.8348 24.0301 40.1854 23.5345 40.2035Z" fill="#0F0E0D"/>
<path d="M13.8481 31.7119C14.0553 31.863 14.2605 32.0121 14.4676 32.1632C14.1366 32.1793 13.8339 32.1612 13.8481 31.7119Z" fill="#0F0E0D"/>
<path d="M23.6828 32.552C23.9062 32.411 24.1276 32.27 24.351 32.131C24.3551 32.6246 24.0078 32.5702 23.6828 32.552Z" fill="#0F0E0D"/>
<path d="M8.74192 25.3962C8.62615 25.366 8.51037 25.3358 8.3946 25.3056V25.3076C8.31945 25.2351 8.24227 25.1645 8.16711 25.092C8.16711 25.0376 8.15493 24.9852 8.13055 24.9369C8.44741 24.9409 8.65458 25.092 8.74395 25.3962H8.74192Z" fill="#F0BE9C"/>
<path d="M27.2352 28.952C27.3591 28.7103 27.481 28.4705 27.6049 28.2288C27.609 28.533 27.7044 28.8835 27.2352 28.952Z" fill="#0F0E0D"/>
<path d="M11.4332 28.7081C11.555 28.9237 11.6789 29.1413 11.8008 29.3568C11.3641 29.3165 11.3864 29.0184 11.4332 28.7081Z" fill="#0F0E0D"/>
<path d="M12.207 29.9573C12.3553 30.1507 12.5056 30.3421 12.6538 30.5355C12.209 30.5677 12.2111 30.2595 12.207 29.9573Z" fill="#0F0E0D"/>
<path d="M22.9069 32.963C23.1263 32.8422 23.3456 32.7193 23.565 32.5984C23.5183 33.0255 23.2014 32.9751 22.9069 32.963Z" fill="#0F0E0D"/>
<path d="M21.9178 33.3257C22.062 33.2813 22.2042 33.235 22.3484 33.1907C22.2895 33.5029 22.19 33.6863 21.9178 33.3257Z" fill="#0F0E0D"/>
<path d="M14.9653 34.601C14.7743 34.8367 14.9795 35.2255 14.6504 35.4088C14.6626 35.1046 14.5347 34.746 14.9653 34.601Z" fill="#0F0E0D"/>
<path d="M16.6673 35.1791C16.5231 35.1368 16.3789 35.0945 16.2327 35.0522C16.4967 34.6916 16.6064 34.8547 16.6673 35.1791Z" fill="#0F0E0D"/>
<path d="M29.2745 47.6939C29.1323 47.8893 28.9901 48.0847 28.8479 48.2801C28.852 47.984 28.8297 47.6717 29.2745 47.6939Z" fill="#0F0E0D"/>
<path d="M21.538 42.2182C21.5603 41.9623 21.7065 41.8455 21.9584 41.8455C21.8183 41.9704 21.6781 42.0933 21.538 42.2182Z" fill="#F9F6EC"/>
<path d="M21.9564 41.8455C21.9665 41.5755 22.1046 41.4365 22.3809 41.4405C22.2387 41.5755 22.0985 41.7105 21.9564 41.8455Z" fill="#F9F6EC"/>
<path d="M12.6396 30.5233C12.7737 30.6664 12.9077 30.8094 13.0418 30.9524C12.7473 30.9585 12.6132 30.8154 12.6396 30.5233Z" fill="#0F0E0D"/>
<path d="M22.3606 41.4606C22.3524 41.1866 22.4804 41.0396 22.7627 41.0315C22.6287 41.1745 22.4946 41.3176 22.3606 41.4606Z" fill="#F9F6EC"/>
<path d="M24.3368 32.1451C24.4871 32.0282 24.6395 31.9114 24.7898 31.7946C24.7573 32.0625 24.609 32.1834 24.3368 32.1451Z" fill="#0F0E0D"/>
<path d="M7.92339 24.7274C7.90308 24.6045 7.88277 24.4816 7.86246 24.3607C8.17931 24.4514 8.13666 24.7113 8.14072 24.949C8.0676 24.8765 7.99651 24.8019 7.92339 24.7294V24.7274Z" fill="#F0BE9C"/>
<path d="M22.3646 15.6818C22.2285 15.8248 22.0924 15.9699 21.9564 16.1129C21.9462 15.8329 22.0762 15.6818 22.3646 15.6818Z" fill="#0F0E0D"/>
<path d="M31.6712 48.3083C31.5412 48.2337 31.4112 48.1592 31.2812 48.0867C31.4539 48.0867 31.6042 48.127 31.6712 48.3083Z" fill="#0F0E0D"/>
<path d="M27.1702 40.6246C27.3896 40.7354 27.3855 40.949 27.416 41.1464C27.2373 41.0175 27.1865 40.8281 27.1702 40.6246Z" fill="#F9F6EC"/>
<path d="M22.7607 41.0356C22.7891 40.8684 22.8074 40.6951 23.0105 40.6367C23.0207 40.8281 22.915 40.947 22.7607 41.0356Z" fill="#F9F6EC"/>
<path d="M21.1602 42.4618C21.2069 42.2765 21.3815 42.2886 21.5136 42.2322C21.3958 42.3087 21.278 42.3853 21.1602 42.4618Z" fill="#F9F6EC"/>
<path d="M11.8008 29.3569C11.8861 29.4859 11.9714 29.6148 12.0547 29.7437C11.8637 29.6833 11.817 29.5302 11.8008 29.3569Z" fill="#0F0E0D"/>
<path d="M10.8076 20.1078C10.7568 20.2629 10.8076 20.4664 10.5984 20.547C10.5882 20.3636 10.6167 20.1964 10.8076 20.1078Z" fill="#0F0E0D"/>
<path d="M11.878 19.3181C11.7785 19.5256 11.5692 19.4712 11.4007 19.5135C11.5043 19.3161 11.685 19.304 11.878 19.3181Z" fill="#0F0E0D"/>
<path d="M24.8141 31.7805C24.932 31.6899 25.0518 31.5992 25.1696 31.5085C25.1269 31.6959 24.9807 31.7523 24.8141 31.7805Z" fill="#0F0E0D"/>
<path d="M21.3328 16.679C21.211 16.7696 21.0891 16.8623 20.9672 16.9529C20.9936 16.7374 21.1521 16.6931 21.3328 16.679Z" fill="#0F0E0D"/>
<path d="M18.7167 18.0953C18.6335 18.2927 18.471 18.2847 18.3004 18.2564C18.4039 18.1134 18.5563 18.0912 18.7167 18.0953Z" fill="#0F0E0D"/>
<path d="M27.4038 38.7893C27.4201 38.9807 27.3652 39.1338 27.1743 39.2164C27.1926 39.0431 27.219 38.8739 27.4038 38.7893Z" fill="#F9F6EC"/>
<path d="M25.3463 31.3534C25.4235 31.2768 25.5027 31.2003 25.5799 31.1257C25.5027 31.2023 25.4235 31.2788 25.3463 31.3534Z" fill="#0F0E0D"/>
<path d="M13.2287 31.1438C13.3018 31.2163 13.3749 31.2889 13.4501 31.3614C13.3769 31.2889 13.3038 31.2163 13.2287 31.1438Z" fill="#0F0E0D"/>
<path d="M25.9577 30.747C26.0328 30.6684 26.1059 30.5919 26.1811 30.5133C26.108 30.5919 26.0328 30.6684 25.9577 30.747Z" fill="#0F0E0D"/>
<path d="M26.1526 30.5515C26.2319 30.4468 26.3111 30.342 26.3903 30.2352C26.3111 30.34 26.2319 30.4447 26.1526 30.5515Z" fill="#0F0E0D"/>
<path d="M26.6035 29.9573C26.6665 29.8767 26.7295 29.7961 26.7924 29.7175C26.7295 29.7981 26.6665 29.8787 26.6035 29.9573Z" fill="#0F0E0D"/>
<path d="M25.7586 30.9525C25.8338 30.8759 25.9089 30.7974 25.982 30.7208C25.9069 30.7974 25.8317 30.8759 25.7586 30.9525Z" fill="#0F0E0D"/>
<path d="M22.9638 40.6548C23.041 40.5782 23.1182 40.5017 23.1933 40.4231C23.1629 40.546 23.1425 40.6769 22.9638 40.6548Z" fill="#F9F6EC"/>
<path d="M23.3781 40.2337C23.437 40.2236 23.4959 40.2095 23.5528 40.1874C23.4858 40.2639 23.4167 40.3405 23.3497 40.4191C23.3558 40.3566 23.3659 40.2942 23.3781 40.2337Z" fill="#0F0E0D"/>
<path d="M8.38243 21.3167C8.31134 21.3952 8.24025 21.4738 8.16916 21.5544C8.24025 21.4758 8.31134 21.3972 8.38243 21.3167Z" fill="#0F0E0D"/>
<path d="M14.6037 35.6041C14.6281 35.6646 14.6281 35.725 14.6037 35.7854C14.5814 35.7431 14.555 35.7008 14.5407 35.6545C14.5387 35.6444 14.5814 35.6202 14.6037 35.6041Z" fill="#0F0E0D"/>
<path d="M10.5578 20.9097C10.509 20.9903 10.4603 21.0708 10.4095 21.1534C10.4582 21.0729 10.507 20.9923 10.5578 20.9097Z" fill="#0F0E0D"/>
<path d="M15.4466 34.7621C15.3654 34.7097 15.2842 34.6573 15.2029 34.6029C15.2842 34.6553 15.3654 34.7077 15.4466 34.7621Z" fill="#0F0E0D"/>
<path d="M23.3781 40.2337C23.3639 40.2941 23.3538 40.3566 23.3497 40.419C23.2908 40.4392 23.2319 40.4573 23.173 40.4714C23.2421 40.3929 23.3111 40.3123 23.3781 40.2317V40.2337Z" fill="#F9F6EC"/>
<path d="M22.452 33.1565C22.5515 33.1061 22.651 33.0557 22.7485 33.0054C22.649 33.0557 22.5495 33.1061 22.452 33.1565Z" fill="#0F0E0D"/>
<path d="M24.1987 39.0109C24.2414 38.9243 24.282 38.8377 24.3246 38.749C24.282 38.8357 24.2414 38.9223 24.1987 39.0109Z" fill="#0F0E0D"/>
<path d="M19.4845 31.1579C17.886 31.2889 17.1832 30.6644 16.5333 29.9512C16.1596 29.5422 16.1677 29.095 16.4927 28.68C16.8319 28.2468 17.3295 28.1824 17.7499 28.4805C18.8102 29.234 19.8115 29.3105 20.8778 28.4926C21.2922 28.1763 21.7858 28.2428 22.1371 28.6639C22.4865 29.0829 22.4337 29.5201 22.0782 29.927C21.2475 30.8739 20.0471 30.9806 19.4845 31.1559V31.1579Z" fill="#1A1A19"/>
<path d="M21.9584 22.7953C21.8853 21.8807 22.5677 21.7034 23.1567 21.5725C23.7417 21.4435 24.5257 22.3461 24.4851 23.0089C24.4363 23.8006 23.9407 24.2136 23.1953 24.2821C22.5474 24.3426 21.9563 23.5609 21.9584 22.7933V22.7953Z" fill="#1A1A19"/>
<path d="M16.7547 22.9585C16.7587 23.6496 16.1738 24.3305 15.4893 24.2761C14.6951 24.2136 14.3234 23.6778 14.2666 22.9424C14.2117 22.2514 14.9104 21.4899 15.5482 21.5544C16.322 21.6329 16.7222 22.1124 16.7567 22.9585H16.7547Z" fill="#1A1A19"/>
<path d="M10.3831 25.5312C9.83874 25.4184 9.24768 25.7246 8.73584 25.3438C9.28018 25.4526 9.87733 25.1001 10.3831 25.5312Z" fill="#F0BE9C"/>
<path d="M35.7232 45.0849C34.9108 45.0849 34.1938 44.821 33.6231 44.2549C33.1945 43.8278 33.1051 43.3 33.5032 42.8064C33.8709 42.3511 34.3604 42.4296 34.7625 42.7439C35.4653 43.2959 36.0949 43.2174 36.7713 42.6976C37.2791 42.3088 37.7848 42.3773 38.1829 42.899C38.5851 43.4249 38.317 43.854 37.9229 44.2166C37.3075 44.7807 36.5824 45.105 35.7273 45.0849H35.7232Z" fill="#1A1A19"/>
<path d="M38.9487 40.7093C38.2418 40.6085 37.7665 40.2902 37.7625 39.5065C37.7605 38.8518 38.3698 38.2313 39.0421 38.2897C39.7713 38.3542 40.2161 38.7752 40.1856 39.5327C40.1551 40.2882 39.6636 40.6287 38.9466 40.7113L38.9487 40.7093Z" fill="#1A1A19"/>
<path d="M34.1796 39.5468C34.1451 40.3284 33.6576 40.7213 32.9467 40.7132C32.2196 40.7031 31.7138 40.1572 31.7301 39.5004C31.7463 38.8598 32.2176 38.3078 32.9833 38.3279C33.7368 38.3461 34.1268 38.8074 34.1796 39.5488V39.5468Z" fill="#1A1A19"/>
</g>
<defs>
<clipPath id="clip0_41_1014">
<rect width="47" height="56" fill="white"/>
</clipPath>
</defs>
</svg>
