<svg width="56" height="50" viewBox="0 0 56 50" fill="none" xmlns="http://www.w3.org/2000/svg">
<g clip-path="url(#clip0_41_1374)">
<path d="M0.240998 35.5472C1.12384 35.703 0.570526 36.3432 0.560689 36.7065C0.518883 38.3503 0.774636 39.9397 1.19515 41.5167C-0.0688559 39.6801 -0.228701 37.6656 0.240998 35.5472Z" fill="#0F0E0D"/>
<path d="M55.9705 31.5949C55.0287 30.7668 55.7246 29.5507 55.277 28.6015C55.2155 28.4705 55.2746 28.2826 55.277 28.1219C55.9115 29.1972 56.059 30.3738 55.9705 31.5949Z" fill="#0F0E0D"/>
<path d="M55.5229 40.7381C55.336 40.0732 55.2869 39.4453 55.9705 39.0078C56.059 39.648 55.8328 40.2042 55.5229 40.7381Z" fill="#0F0E0D"/>
<path d="M56 38.0167C55.609 37.0304 55.6163 36.0441 55.995 35.0554C55.995 36.0417 55.9975 37.0304 56 38.0167Z" fill="#0F0E0D"/>
<path d="M22.1718 0.464687C21.5669 0.469631 20.9594 0.472103 20.3545 0.477046C20.957 -0.0964163 21.5619 -0.215064 22.1718 0.464687Z" fill="#0F0E0D"/>
<path d="M54.2811 42.7255C54.2663 42.1891 54.3794 41.7491 55.036 41.7244C54.8713 42.1248 54.6352 42.4684 54.2811 42.7255Z" fill="#0F0E0D"/>
<path d="M53.5753 26.1543C53.1818 26.1716 52.8203 26.1444 52.8031 25.6179C53.0613 25.7959 53.3171 25.9763 53.5753 26.1543Z" fill="#0F0E0D"/>
<path d="M55.2819 28.1318C54.7458 28.1021 54.7704 27.7215 54.795 27.3408C55.0778 27.5287 55.2352 27.7956 55.2819 28.1318Z" fill="#0F0E0D"/>
<path d="M24.599 3.43835C24.0629 3.42847 24.0604 3.06264 24.0948 2.67456C24.3899 2.84512 24.4908 3.14421 24.599 3.43835Z" fill="#0F0E0D"/>
<path d="M24.1072 2.68692C23.5662 2.70175 23.5834 2.32109 23.5908 1.95032L24.1072 2.68692Z" fill="#0F0E0D"/>
<path d="M54.6032 27.1257C54.2368 27.1455 54.045 26.9848 54.0769 26.6017C54.2515 26.7772 54.4261 26.9527 54.6032 27.1257Z" fill="#0F0E0D"/>
<path d="M53.3589 39.3761C53.354 36.2592 53.349 33.1447 53.3441 30.0277C53.4228 30.307 53.5015 30.5863 53.5802 30.8657C53.5802 33.5748 53.5777 36.2814 53.5753 38.9905C53.504 39.1191 53.4302 39.2476 53.3589 39.3761Z" fill="#1FC2C3"/>
<path d="M53.7302 30.9201C53.9171 30.7915 54.0327 30.8583 54.0327 31.0684C54.0327 33.466 54.0352 35.8612 54.0155 38.2589C54.0155 38.4294 53.8409 38.6 53.7499 38.7706C53.745 36.1554 53.7376 33.5377 53.7327 30.9225L53.7302 30.9201Z" fill="#0F0E0D"/>
<path d="M53.7302 30.92C53.7376 33.5352 53.7425 36.1528 53.7474 38.768C53.6884 38.8422 53.6318 38.9163 53.5728 38.9905C53.5728 36.2814 53.5753 33.5722 53.5777 30.8656C53.6294 30.878 53.6786 30.8977 53.7277 30.92H53.7302Z" fill="#505050"/>
<path d="M44.2305 16.0025C44.6116 16.0618 44.9461 16.2151 45.2018 16.5142C45.2363 16.8256 45.2707 17.1346 45.6814 16.796C47.4962 17.9652 48.6815 19.6855 49.5472 21.5913C50.2972 23.2474 51.3768 24.555 52.8031 25.6179C52.8203 26.1444 53.1818 26.1741 53.5753 26.1543C53.654 26.2235 53.7302 26.2927 53.8089 26.3595C53.9073 26.446 54.0032 26.535 54.1015 26.6215L54.0794 26.5992C54.0474 26.9848 54.2368 27.143 54.6057 27.1233C54.6696 27.1949 54.7335 27.2666 54.7975 27.3383C54.7729 27.719 54.7483 28.0971 55.2844 28.1293L55.2795 28.1194C55.277 28.2801 55.218 28.4679 55.2795 28.5989C55.727 29.5481 55.0336 30.7642 55.973 31.5923C55.9803 32.7466 55.9902 33.8985 55.9976 35.0529C55.6188 36.0416 55.6115 37.0278 56.0025 38.0141C55.9926 38.3428 55.9828 38.6741 55.973 39.0028C55.2893 39.4403 55.3385 40.0706 55.5254 40.7331C55.5082 41.136 55.3139 41.4475 55.036 41.7194C54.3794 41.7441 54.2688 42.1841 54.2811 42.7204C54.0843 42.9182 53.9196 43.2148 53.6835 43.2964C52.0777 43.8377 51.4333 45.1181 50.6931 46.5493C48.3938 50.9887 43.1804 51.1395 40.313 46.9621C39.7376 46.1241 39.2876 45.212 39.0466 44.2085C39.0121 43.7833 38.7367 43.6894 38.3703 43.6894C36.4005 43.6943 34.4307 43.6894 32.1781 43.6894C32.6847 43.9193 32.9208 44.0256 33.1569 44.1343C32.5077 44.1269 32.1363 44.2752 31.8756 45.0489C31.0887 47.3774 29.7288 49.2905 27.1565 49.8591C24.4859 50.4498 21.6972 49.0285 20.3569 46.5048C20.3176 45.8918 20.4258 45.2145 19.6635 44.9253C19.4741 44.7276 19.3733 44.4977 19.393 44.2208C19.361 43.6993 18.9921 43.6894 18.6085 43.6894C17.9175 43.6894 17.2264 43.6795 16.5379 43.6894C15.3771 43.7092 15.0845 44.1936 15.478 45.4172C15.5468 45.7188 15.4067 45.9486 15.2173 46.1587C14.5189 46.3244 14.5115 46.8731 14.5189 47.4293L14.5312 47.4169C14.2287 47.4293 13.909 47.4317 14.209 47.8742C11.6687 50.9936 6.86599 50.6327 4.99949 46.8805C4.05271 44.9772 3.05675 43.3038 1.44108 41.9789C1.84684 41.5562 1.52715 41.5216 1.18533 41.4969L1.19762 41.5117C0.774648 39.9372 0.518895 38.3453 0.56316 36.7016C0.572997 36.3382 1.12877 35.6955 0.243469 35.5423C0.250847 35.2951 0.260683 35.0479 0.268061 34.8007C1.10663 33.7675 1.47551 32.6008 1.26402 31.2685C1.24927 31.1919 1.27878 31.1424 1.35501 31.1202C2.61164 31.3229 2.21817 30.3638 2.31162 29.7459L2.33867 29.7187C3.10101 29.8447 3.45267 29.5704 3.2584 28.7645L3.32726 28.6978C3.9568 29.0092 4.19042 28.7497 4.16091 28.112L4.14862 28.1194C4.54454 28.07 5.1372 28.3419 5.07326 27.5459L5.15441 27.583L5.06834 27.5558C5.69789 27.7313 6.31268 27.672 6.81926 27.2641C7.52258 26.6956 8.25049 26.6907 9.10382 26.8439C10.4146 27.0812 11.3318 26.09 12.372 25.5289C12.613 25.4004 12.4925 25.0914 12.2589 24.9209C13.6754 23.3265 15.087 21.7248 16.6461 20.2639C16.742 20.1601 16.8379 20.0588 16.9338 19.9574C17.3297 19.5521 17.7256 19.1467 18.1216 18.7388C18.215 18.6474 18.3085 18.5559 18.4019 18.462C18.4732 18.3903 18.5445 18.3186 18.6159 18.2469C18.7093 18.1555 18.8028 18.0665 18.8937 17.975C19.2577 17.4115 19.8184 17.0975 20.3889 16.8009C20.4897 16.8528 20.6299 16.9789 20.6865 16.9468C21.9038 16.2942 23.1948 15.9012 24.5572 15.7084C24.6531 15.6935 24.7195 15.4612 24.8006 15.3302C25.0466 15.3154 25.29 15.303 25.5359 15.2882C26.1556 15.6268 26.7655 15.8567 27.2573 15.088C28.0787 15.088 28.8976 15.083 29.719 15.083C29.7829 15.5279 30.1124 15.5403 30.4543 15.5403C32.9651 15.5403 35.4783 15.518 37.9891 15.5502C39.5531 15.57 41.1221 15.2585 42.691 15.7455C43.1509 15.8888 43.628 16.5364 44.2256 16.0001L44.2305 16.0025ZM36.8948 26.0777C37.212 26.6511 37.7653 26.4163 38.2006 26.3965C40.3622 26.31 42.5361 26.661 44.6854 26.2186C45.8609 26.8588 45.5732 27.5904 44.8182 28.3517C44.7813 28.3246 44.7395 28.3023 44.6977 28.285C44.3165 28.0675 43.8985 28.1466 43.4952 28.1466C32.4486 28.1416 21.4045 28.1416 10.358 28.1466C10.1957 28.1466 9.96453 28.018 9.82682 28.3221C10.0113 28.3517 10.1637 28.3765 10.3162 28.3987C10.299 28.4506 10.2842 28.5001 10.2695 28.552C7.59636 28.8066 5.1913 29.5728 3.69121 32.0545C3.67892 32.1237 3.63711 32.2103 3.66416 32.2548C3.69859 32.3116 3.78958 32.3685 3.85843 32.3685C6.07168 32.3882 8.28738 32.4006 10.5006 32.4129C12.5516 33.063 13.6115 34.7167 13.2549 36.7114C13.036 37.9375 11.3933 38.9484 9.5809 38.9583C7.86687 38.9682 6.15283 38.9386 4.44126 38.9732C3.95188 38.983 3.23627 38.6518 3.01002 39.208C2.76657 39.8012 3.29037 40.3549 3.68875 40.8196C3.94696 41.1212 4.20026 41.4722 4.66996 41.4746C5.00686 41.7811 5.42738 41.7416 5.82822 41.7416C10.3801 41.7515 14.9296 41.754 19.4815 41.7465C19.7643 41.7465 20.1627 41.9072 20.2733 41.4227C20.3078 40.6441 20.3373 39.8655 20.3766 39.0869C20.4676 37.2528 21.198 35.6708 22.3685 34.3014C24.4244 31.8988 27.8451 31.8617 29.9969 34.1828C31.4133 35.7128 32.0281 37.6013 32.3921 39.601C32.3872 39.8457 32.4093 40.0929 32.3773 40.3302C32.215 41.5018 32.6773 41.8726 33.8602 41.791C35.557 41.6749 37.2661 41.7688 38.9703 41.7367C39.3269 41.7292 39.7917 41.9764 40.0351 41.4623C40.0868 40.0262 40.1753 38.595 40.5639 37.2009C41.2647 34.687 43.2566 32.7071 45.2412 32.5588C47.9266 32.3586 49.7808 33.5623 51.0546 36.3234C51.5932 37.4901 51.8957 38.7136 51.9645 39.999C51.9793 40.2635 51.9153 40.6243 52.2818 40.7158C52.6433 40.8048 52.899 40.5947 53.0957 40.3005C53.2851 40.0187 53.3662 39.7073 53.3662 39.3711C53.4376 39.2426 53.5113 39.1141 53.5827 38.9855C53.6392 38.9114 53.6982 38.8372 53.7548 38.7631C53.8482 38.5925 54.0204 38.4219 54.0228 38.2514C54.0425 35.8537 54.0425 33.4585 54.0401 31.0609C54.0401 30.8532 53.9245 30.7865 53.7376 30.9125C53.6884 30.8903 53.6392 30.8705 53.5876 30.8582C53.5089 30.5789 53.4302 30.2995 53.3515 30.0202C53.3294 29.1576 52.8474 28.5569 52.1736 28.1293C49.7587 26.6042 48.1577 24.4389 46.8814 21.8978C45.7945 19.73 44.1051 18.0986 41.5303 17.7501C41.2008 17.6685 40.8737 17.587 40.5442 17.5029C40.4704 17.4337 40.3966 17.3645 40.3253 17.2953C40.0868 16.9987 39.7548 17.0209 39.4277 17.0209C35.6701 17.0209 31.9125 17.0209 28.1549 17.0234C27.8402 17.0234 27.4836 16.9468 27.2992 17.3299C27.2967 17.3719 27.2918 17.4139 27.2844 17.456C26.6057 17.5795 25.8901 17.404 25.2384 17.7328C23.4358 17.7031 21.9382 18.4818 20.6004 19.5891C18.3995 21.4109 16.6559 23.6874 14.6591 25.7143C14.4009 25.9244 14.6173 26.0381 14.7525 26.1667C14.9591 26.4311 15.2517 26.4064 15.537 26.4064C21.4955 26.4064 27.4541 26.4089 33.4126 26.3965C33.57 26.3965 33.9512 26.6165 33.8749 26.132C33.8922 26.0876 33.8922 26.0431 33.8749 25.9961C35.0603 24.5402 35.7906 22.8149 36.6858 21.1884C37.0891 20.4543 37.576 19.646 38.5523 20.1305C39.6097 20.657 39.1867 21.5592 38.8129 22.3452C38.4121 23.1856 37.9694 24.0088 37.544 24.8393C37.367 25.1334 37.1874 25.4276 37.0128 25.7193L36.9022 26.0703L36.8948 26.0777ZM10.3137 36.5681C10.4859 36.3926 10.658 36.2171 10.8302 36.0416C11.0761 36.0045 11.29 35.9279 11.2531 35.6164C11.2236 35.3742 11.0269 35.3371 10.8326 35.305C10.7392 35.1542 10.6433 35.0009 10.5498 34.8502C10.4465 34.0814 9.83419 34.3014 9.41368 34.3311C7.74883 34.4448 6.05692 34.0023 4.41912 34.5832C4.25928 34.6005 4.09206 34.6524 3.93713 34.6252C3.07642 34.4769 2.95838 34.9194 2.92641 35.6683C2.88953 36.5434 3.33463 36.5458 3.96418 36.5384C5.26262 36.5211 6.56351 36.5557 7.86195 36.5705C8.5874 37.2355 9.5932 37.2355 10.3137 36.5705V36.5681ZM29.9821 41.0544C29.9034 39.2451 29.7091 37.3343 28.2189 35.8587C26.8344 34.4893 25.3564 34.5684 24.1219 36.0589C22.1374 38.4516 22.1374 43.8253 24.1268 46.2354C25.4548 47.847 27.341 47.7679 28.5582 46.0698C29.6034 44.6089 29.9354 42.9478 29.9846 41.0544H29.9821ZM42.4795 40.3376C42.4869 42.9281 42.7058 44.7844 44.0067 46.3194C45.2141 47.7457 46.4535 47.7728 47.7569 46.443C49.1832 44.9896 49.5349 43.1085 49.5349 41.2275C49.5349 39.3563 49.2914 37.4406 47.9315 35.9427C46.6527 34.5338 44.828 34.6475 43.7632 36.2196C42.7919 37.6581 42.4869 39.297 42.482 40.3351L42.4795 40.3376ZM9.97191 44.1739C9.11858 44.1739 8.26279 44.1986 7.40946 44.1665C6.59302 44.1368 6.52908 44.468 6.81926 45.1329C7.44635 46.574 8.76938 47.4688 10.2596 47.4045C11.504 47.3502 12.554 46.3491 13.0606 44.8709C13.2746 44.2456 13.0459 44.164 12.5344 44.1714C11.681 44.1838 10.8252 44.1739 9.97191 44.1739Z" fill="#1A1A19"/>
<path d="M24.599 3.43829C25.7818 4.95352 26.3966 6.65413 25.9195 8.56238C25.2408 11.274 22.7448 12.8139 20.3053 12.1416C17.5855 11.3901 16.0239 8.67361 16.7961 5.92742C17.4084 3.74727 18.7191 1.99969 20.352 0.479522C20.957 0.474579 21.5644 0.472107 22.1693 0.467163C22.671 0.76131 23.0128 1.21613 23.3473 1.67588C23.4309 1.77228 23.5145 1.86621 23.5981 1.96262L23.5907 1.95026C23.5833 2.3235 23.5661 2.70416 24.1071 2.68686L24.0948 2.6745C24.0604 3.06505 24.0629 3.43088 24.599 3.43829ZM19.088 6.84199C19.088 8.4462 19.7028 9.21 20.6815 9.71177C21.4611 10.1122 22.1251 9.75874 22.698 9.25943C23.5145 8.54755 23.7555 7.64533 23.4309 6.58986C23.0743 5.43058 22.312 4.50612 21.6824 3.5075C21.5275 3.26032 21.2816 3.04033 21.0086 3.39874C20.1159 4.56791 19.147 5.70248 19.0905 6.84693L19.088 6.84199Z" fill="#1A1A19"/>
<path d="M7.36765 9.62526C7.66029 9.11607 8.0808 8.72552 8.53083 8.36711C8.89479 8.39183 9.26858 8.43632 9.33006 7.91724H9.82435C9.88583 8.43385 10.2547 8.3943 10.6187 8.36711C11.081 8.70575 11.4794 9.10865 11.7991 9.58819L11.9958 9.86503C13.5106 11.7189 14.9099 13.6395 14.2459 16.2448C13.9016 17.5969 13.127 18.6845 11.8015 19.2802C10.3801 19.4483 8.95872 19.6114 7.53979 19.2802C7.2201 19.2678 7.01353 19.08 6.85614 18.8229C6.86598 18.2865 6.60531 18.0245 6.06921 18.0468C6.00773 17.9677 5.94625 17.8886 5.88231 17.8095C6.00773 17.1198 5.56262 16.5661 5.37081 15.9729C5.01669 14.8902 5.70034 13.8793 5.4077 12.8362C5.4077 12.4308 5.58967 12.1119 5.87494 11.84C6.41595 11.8079 6.39628 11.4396 6.34464 11.0515L6.32988 11.0663C6.88811 11.1009 6.88319 10.7228 6.8586 10.3347L6.84631 10.347C7.37011 10.3668 7.36273 9.99109 7.37257 9.63021L7.36765 9.62526ZM11.9171 14.9743C11.9097 14.0647 10.1072 10.7376 9.76041 10.9329C8.66608 11.5483 8.18409 12.7274 7.64307 13.8125C7.55208 13.993 7.49306 14.1957 7.44634 14.3934C7.21272 15.4118 7.5152 16.2522 8.31196 16.9147C9.02512 17.5104 9.82681 17.498 10.6064 17.1371C11.5212 16.7144 11.8138 15.8592 11.9171 14.9743Z" fill="#1A1A19"/>
<path d="M44.2305 16.0025C43.6304 16.5364 43.1558 15.8888 42.6959 15.7479C41.127 15.261 39.5581 15.5724 37.994 15.5526C35.4832 15.5205 32.97 15.5428 30.4592 15.5428C30.1173 15.5428 29.7903 15.5304 29.7239 15.0855C33.4421 15.0756 37.1604 15.0237 40.8786 15.0805C42.0369 15.0978 43.205 15.3623 44.2305 16.005V16.0025Z" fill="#0F0E0D"/>
<path d="M12.2614 24.9234C12.495 25.0939 12.6155 25.4029 12.3745 25.5314C11.3343 26.0925 10.417 27.0813 9.10628 26.8464C8.25295 26.6932 7.52258 26.6981 6.82172 27.2667C6.31514 27.677 5.70035 27.7338 5.0708 27.5583C6.60286 26.5597 8.33657 26.0975 10.1121 25.9739C11.0539 25.9096 11.7155 25.6229 12.2614 24.9209V24.9234Z" fill="#0F0E0D"/>
<path d="M33.1568 44.1418C32.9208 44.0355 32.6847 43.9268 32.1781 43.6969C34.4307 43.6969 36.4005 43.6969 38.3703 43.6969C38.7367 43.6969 39.0121 43.7884 39.0465 44.216C37.0841 44.1913 35.1217 44.1665 33.1568 44.1443V44.1418Z" fill="#0F0E0D"/>
<path d="M15.4755 45.4247C15.0821 44.2012 15.3747 43.7167 16.5354 43.6969C17.2265 43.6845 17.9175 43.6969 18.606 43.6969C18.9897 43.6969 19.3585 43.7068 19.3905 44.2283C18.7069 44.2135 18.0134 44.2555 17.3371 44.1715C16.319 44.0454 15.5911 44.2531 15.4731 45.4272L15.4755 45.4247Z" fill="#0F0E0D"/>
<path d="M24.8055 15.3326C24.7244 15.4636 24.658 15.696 24.5621 15.7108C23.1997 15.9036 21.9086 16.2967 20.6914 16.9492C20.6348 16.9789 20.4946 16.8553 20.3938 16.8034C21.707 15.8394 23.2243 15.4908 24.8055 15.3351V15.3326Z" fill="#0F0E0D"/>
<path d="M5.40523 12.8337C5.69787 13.8744 5.01422 14.8878 5.36834 15.9705C5.56261 16.5637 6.00772 17.1149 5.87984 17.807C4.68715 16.2498 4.56911 14.5887 5.40277 12.8362L5.40523 12.8337Z" fill="#0F0E0D"/>
<path d="M1.26157 31.2734C1.47306 32.6057 1.10665 33.7724 0.265615 34.8057C0.218891 33.5203 0.686131 32.3808 1.26157 31.2734Z" fill="#0F0E0D"/>
<path d="M7.53979 19.2777C8.96119 19.6089 10.3826 19.4483 11.8015 19.2777C10.3801 20.133 8.95873 20.2442 7.53979 19.2777Z" fill="#0F0E0D"/>
<path d="M27.2598 15.0905C26.768 15.8617 26.1581 15.6293 25.5384 15.2907C26.0942 15.0608 26.6745 15.0484 27.2598 15.0905Z" fill="#0F0E0D"/>
<path d="M2.31159 29.7509C2.21815 30.3663 2.61161 31.3279 1.35498 31.1252C1.64762 30.6481 1.80992 30.0821 2.31159 29.7509Z" fill="#0F0E0D"/>
<path d="M3.25841 28.7695C3.45268 29.5753 3.10102 29.8497 2.33868 29.7237C2.64608 29.4048 2.95347 29.0884 3.25841 28.7695Z" fill="#0F0E0D"/>
<path d="M19.661 44.9303C20.4234 45.222 20.3176 45.8993 20.3545 46.5098C19.9659 46.0525 19.7077 45.5384 19.661 44.9303Z" fill="#0F0E0D"/>
<path d="M14.5164 47.4342C14.509 46.8781 14.5164 46.3293 15.2148 46.1637C15.0894 46.6482 14.8951 47.0931 14.5164 47.4342Z" fill="#0F0E0D"/>
<path d="M4.16093 28.1169C4.19044 28.7522 3.95927 29.0142 3.32727 28.7028C3.60516 28.5075 3.88304 28.3122 4.16093 28.1169Z" fill="#0F0E0D"/>
<path d="M6.06921 18.0443C6.60531 18.022 6.86598 18.284 6.85614 18.8204C6.5094 18.6474 6.23152 18.4052 6.06921 18.0443Z" fill="#0F0E0D"/>
<path d="M5.07571 27.5509C5.13964 28.3468 4.54699 28.0774 4.15106 28.1244C4.3896 27.8179 4.72405 27.6696 5.07571 27.5509Z" fill="#0F0E0D"/>
<path d="M7.36763 9.62524C7.36025 9.9886 7.36763 10.3618 6.84137 10.3421C7.01597 10.1023 7.19057 9.86254 7.36763 9.62524Z" fill="#0F0E0D"/>
<path d="M6.85367 10.3322C6.87826 10.7227 6.88564 11.0984 6.32495 11.0638C6.4184 10.7598 6.56349 10.4928 6.85367 10.3322Z" fill="#0F0E0D"/>
<path d="M6.3422 11.0491C6.39384 11.4371 6.41351 11.8054 5.8725 11.8376C5.9266 11.5138 6.06431 11.2394 6.3422 11.0491Z" fill="#0F0E0D"/>
<path d="M9.33005 7.91724C9.26857 8.43632 8.89478 8.39183 8.53082 8.36711C8.73001 8.09768 8.93413 7.83567 9.33005 7.91724Z" fill="#0F0E0D"/>
<path d="M10.6186 8.36707C10.2572 8.39179 9.88582 8.43134 9.82434 7.9172C10.1981 7.87518 10.4244 8.0927 10.6186 8.36707Z" fill="#0F0E0D"/>
<path d="M1.18286 41.5018C1.52468 41.5265 1.84192 41.5612 1.43861 41.9838C1.17794 41.9171 1.23204 41.6823 1.18286 41.5018Z" fill="#0F0E0D"/>
<path d="M14.2066 47.8792C13.9065 47.4367 14.2238 47.4342 14.5287 47.4219C14.4205 47.5751 14.3148 47.7259 14.2066 47.8792Z" fill="#0F0E0D"/>
<path d="M45.6814 16.7961C45.2707 17.1372 45.2363 16.8257 45.2018 16.5143C45.3617 16.6082 45.5215 16.7021 45.6814 16.7961Z" fill="#0F0E0D"/>
<path d="M18.4044 18.4669C18.3109 18.5584 18.2175 18.6498 18.124 18.7438C18.2175 18.6523 18.3109 18.5608 18.4044 18.4669Z" fill="#0F0E0D"/>
<path d="M18.8987 17.9775C18.8052 18.069 18.7118 18.158 18.6208 18.2494C18.7142 18.158 18.8077 18.069 18.8987 17.9775Z" fill="#0F0E0D"/>
<path d="M11.9958 9.86498L11.7991 9.58813C11.9196 9.64004 12.0302 9.69937 11.9958 9.86498Z" fill="#0F0E0D"/>
<path d="M53.3589 39.3761C53.3589 39.7122 53.2777 40.0237 53.0884 40.3055C52.8916 40.5996 52.6359 40.8097 52.2744 40.7207C51.908 40.6293 51.9719 40.2684 51.9571 40.0039C51.8883 38.7185 51.5858 37.495 51.0472 36.3283C49.7734 33.5673 47.9167 32.3635 45.2338 32.5637C43.2492 32.712 41.2573 34.6895 40.5565 37.2058C40.1679 38.5999 40.0819 40.0311 40.0278 41.4672C38.3998 41.4722 36.7743 41.4796 35.1463 41.4771C34.4553 41.4771 33.688 41.6427 33.0929 41.3955C32.2445 41.0421 32.8913 40.0657 32.6208 39.4502C32.4535 39.0695 32.4585 39.5244 32.3871 39.6035C32.0232 37.6038 31.4084 35.7153 29.9919 34.1852C27.8426 31.8642 24.4195 31.9013 22.3636 34.3039C21.193 35.6733 20.4627 37.2528 20.3717 39.0893C20.3323 39.8679 20.3028 40.6466 20.2684 41.4252C20.202 40.7084 20.1356 39.994 20.0667 39.2772C19.9364 39.4725 19.9118 39.6653 19.9069 39.8605C19.8823 40.9382 19.32 41.4779 18.2199 41.4796C13.7024 41.4796 9.18496 41.4796 4.66748 41.4796C4.20024 41.4771 3.94695 41.1286 3.68628 40.8245C3.28789 40.3598 2.76409 39.8061 3.00755 39.2129C3.23625 38.6568 3.94941 38.988 4.43878 38.9781C6.15281 38.941 7.86685 38.9707 9.57842 38.9633C11.3933 38.9534 13.0335 37.9424 13.2524 36.7164C13.609 34.7241 12.5491 33.068 10.5006 32.4179C10.208 31.8914 9.7063 32.1188 9.29562 32.1089C7.42912 32.0718 5.56016 32.0718 3.69119 32.057C5.19128 29.5753 7.59634 28.809 10.2694 28.5544C10.4318 28.5717 10.5941 28.6014 10.7564 28.6014C21.7267 28.6014 32.697 28.6014 43.6673 28.5866C44.0534 28.5866 44.4936 28.7274 44.8157 28.3517C45.5732 27.5904 45.8609 26.8587 44.6829 26.2185C44.5772 26.1839 44.469 26.1469 44.3632 26.1123L44.3411 26.001C44.11 25.4745 43.6427 25.6995 43.2788 25.6945C41.7 25.6723 40.1212 25.6649 38.5424 25.6945C37.9129 25.7069 37.512 25.5586 37.5317 24.8442C37.9571 24.0137 38.3998 23.193 38.8006 22.3501C39.1744 21.5641 39.5974 20.6619 38.54 20.1354C37.5637 19.6484 37.0768 20.4567 36.6735 21.1933C35.7783 22.8223 35.0504 24.5451 33.8651 26.001C27.9262 25.9862 21.9898 25.9738 16.0509 25.9516C15.5763 25.9516 15.0648 26.0999 14.6492 25.7217C16.6436 23.6948 18.3896 21.4183 20.5905 19.5965C21.9283 18.4892 23.426 17.7105 25.2285 17.7402C30.6583 17.7451 36.0906 17.7526 41.5205 17.7575C44.0952 18.1085 45.7846 19.7399 46.8716 21.9052C48.1479 24.4463 49.7463 26.6116 52.1637 28.1367C52.84 28.5618 53.3195 29.1625 53.3416 30.0276C53.3466 33.1446 53.3515 36.2591 53.3564 39.3761H53.3589Z" fill="#5494E8"/>
<path d="M29.9821 41.0545C29.9304 42.9479 29.6009 44.609 28.5558 46.0698C27.3385 47.7679 25.4548 47.847 24.1244 46.2354C22.1374 43.8254 22.1349 38.4516 24.1194 36.0589C25.3564 34.5684 26.8344 34.4918 28.2164 35.8587C29.7067 37.3319 29.9009 39.2426 29.9796 41.0545H29.9821ZM27.7762 41.1706C27.7836 39.8952 27.0999 38.7755 26.3278 38.7952C25.5974 38.8125 24.8547 39.9051 24.8006 41.0421C24.7293 42.4659 25.3761 43.5881 26.2958 43.6425C27.1049 43.6894 27.7664 42.587 27.7762 41.1731V41.1706Z" fill="#505050"/>
<path d="M42.4796 40.3376C42.4845 39.3019 42.7894 37.6606 43.7608 36.222C44.8232 34.65 46.6503 34.5363 47.9291 35.9452C49.289 37.4431 49.53 39.3588 49.5324 41.2299C49.5324 43.111 49.1808 44.9896 47.7545 46.4455C46.4511 47.7729 45.2142 47.7457 44.0043 46.3219C42.7034 44.7869 42.4845 42.9306 42.4771 40.3401L42.4796 40.3376ZM47.4077 41.0396C47.4348 40.6318 47.361 40.1572 47.1569 39.6974C46.8962 39.1091 46.5741 38.5431 45.8535 38.6049C45.1871 38.6617 44.9584 39.2846 44.8035 39.8284C44.683 40.2486 44.6436 40.7282 44.7076 41.1607C44.8502 42.1223 44.9658 43.2025 46.1511 43.4447C46.8864 43.593 47.4028 42.5672 47.4077 41.0421V41.0396Z" fill="#505050"/>
<path d="M9.97192 44.1739C10.8253 44.1739 11.681 44.1838 12.5344 44.1714C13.0459 44.164 13.2746 44.2431 13.0606 44.871C12.554 46.3491 11.504 47.3502 10.2596 47.4046C8.76693 47.4689 7.44636 46.5741 6.81928 45.133C6.5291 44.4681 6.59304 44.1368 7.40948 44.1665C8.26281 44.1986 9.11859 44.1739 9.97192 44.1739Z" fill="#505050"/>
<path d="M10.8277 36.0391C10.6556 36.2146 10.4834 36.3901 10.3113 36.5656C9.49483 36.5656 8.67593 36.5656 7.85949 36.5656C6.56106 36.5532 5.26016 36.5162 3.96172 36.5335C3.32972 36.5409 2.88707 36.5409 2.92396 35.6634C2.95593 34.9119 3.07151 34.4695 3.93467 34.6203C4.08714 34.6475 4.25436 34.5931 4.41667 34.5782C4.85686 34.603 5.29951 34.6153 5.7397 34.6524C7.34061 34.7834 8.95874 34.4201 10.5474 34.8452C10.6408 34.996 10.7367 35.1492 10.8302 35.3C10.8302 35.5447 10.8302 35.7919 10.8302 36.0366L10.8277 36.0391Z" fill="#F9F6EC"/>
<path d="M10.3187 28.4012C10.1662 28.3765 10.0137 28.3517 9.82928 28.3245C9.967 28.0205 10.1982 28.1491 10.3605 28.1491C21.407 28.1416 32.4511 28.1416 43.4977 28.1491C43.901 28.1491 44.319 28.07 44.7002 28.2875C44.1715 28.3147 43.6452 28.369 43.1165 28.369C32.1831 28.3839 21.2521 28.3938 10.3187 28.4036V28.4012Z" fill="#0F0E0D"/>
<path d="M10.3186 28.4012C21.2521 28.3913 32.183 28.3814 43.1165 28.3666C43.6452 28.3666 44.1714 28.3122 44.7002 28.285C44.742 28.3023 44.7813 28.3246 44.8182 28.3518C44.496 28.7275 44.0534 28.5866 43.6698 28.5866C32.6995 28.6014 21.7291 28.6014 10.7588 28.6014C10.5965 28.6014 10.4342 28.5718 10.2719 28.5545C10.2842 28.5026 10.3014 28.4506 10.3186 28.4012Z" fill="#696966"/>
<path d="M14.6541 25.7217C15.0722 26.1024 15.5837 25.9516 16.0559 25.9516C21.9947 25.9738 27.9336 25.9862 33.87 26.001C33.8848 26.0455 33.8823 26.0925 33.8676 26.137C27.4934 26.1493 21.1193 26.1592 14.7451 26.1716C14.6099 26.043 14.3935 25.9318 14.6517 25.7192L14.6541 25.7217Z" fill="#1CA858"/>
<path d="M14.7451 26.1741C21.1193 26.1618 27.4934 26.1519 33.8675 26.1395C33.9438 26.624 33.5626 26.404 33.4052 26.404C27.4467 26.4164 21.4881 26.4139 15.5296 26.4139C15.2443 26.4139 14.9517 26.4386 14.7451 26.1741Z" fill="#0F0E0D"/>
<path d="M4.6675 41.4772C9.18498 41.4772 13.7025 41.4772 18.2199 41.4772C19.32 41.4772 19.8823 40.9375 19.9069 39.8581C19.9118 39.6629 19.9389 39.4701 20.0668 39.2748C20.1332 39.9916 20.1996 40.706 20.2684 41.4228C20.1602 41.9073 19.7618 41.7441 19.4766 41.7466C14.9247 41.7565 10.3752 41.7515 5.8233 41.7417C5.42492 41.7417 5.00194 41.7812 4.66504 41.4747L4.6675 41.4772Z" fill="#1FC2C3"/>
<path d="M41.523 17.76C36.0931 17.755 30.6633 17.7476 25.231 17.7427C25.8802 17.4139 26.5983 17.5894 27.2746 17.4658C31.6937 17.4807 36.1153 17.498 40.5368 17.5128C40.8664 17.5944 41.1934 17.6759 41.523 17.76Z" fill="#1FC2C3"/>
<path d="M40.5393 17.5128C36.1177 17.498 31.6986 17.4807 27.277 17.4658C27.2844 17.4238 27.2893 17.3818 27.2918 17.3398C31.6347 17.3274 35.9751 17.3151 40.318 17.3052C40.3917 17.3744 40.4655 17.4436 40.5368 17.5128H40.5393Z" fill="#505050"/>
<path d="M40.3179 17.3053C35.975 17.3176 31.6322 17.3275 27.2917 17.3399C27.4762 16.9567 27.8328 17.0334 28.1475 17.0334C31.9051 17.0284 35.6627 17.0309 39.4203 17.0309C39.7474 17.0309 40.0818 17.0086 40.3179 17.3053Z" fill="#0F0E0D"/>
<path d="M32.3871 39.6035C32.4585 39.522 32.4535 39.0696 32.6208 39.4503C32.8913 40.0658 32.2445 41.0421 33.0929 41.3956C33.6856 41.6428 34.4553 41.4747 35.1463 41.4772C36.7743 41.4772 38.3998 41.4722 40.0277 41.4673C39.7843 41.9814 39.3195 41.7343 38.9629 41.7417C37.2587 41.7738 35.5496 41.6774 33.8528 41.7961C32.6699 41.8776 32.2076 41.5044 32.3699 40.3352C32.4044 40.0954 32.3822 39.8483 32.3847 39.606L32.3871 39.6035Z" fill="#1FC2C3"/>
<path d="M37.5366 24.8467C37.517 25.561 37.9178 25.7093 38.5473 25.697C40.1261 25.6649 41.7049 25.6723 43.2837 25.697C43.6476 25.7019 44.1173 25.477 44.346 26.0035C42.7697 25.9936 41.1909 26.0159 39.6146 25.9615C38.7441 25.9318 37.8366 26.2136 37.003 25.7291C37.1801 25.435 37.3596 25.1408 37.5366 24.8467Z" fill="#1FC2C3"/>
<path d="M44.3682 26.1124C44.474 26.147 44.5822 26.184 44.6879 26.2187C42.5386 26.6611 40.3647 26.3101 38.2031 26.3966C37.7678 26.4139 37.2145 26.6512 36.8973 26.0778C39.3884 26.0901 41.8795 26.1 44.3707 26.1124H44.3682Z" fill="#0F0E0D"/>
<path d="M44.3682 26.1123C41.877 26.0999 39.3859 26.09 36.8948 26.0777C36.9317 25.9615 36.9685 25.8429 37.0054 25.7267C37.8366 26.2112 38.7441 25.9294 39.6146 25.959C41.1909 26.0134 42.7697 25.9912 44.346 26.0011L44.3657 26.1123H44.3682Z" fill="#1CA858"/>
<path d="M3.69122 32.057C5.56018 32.0718 7.42669 32.0694 9.29565 32.1089C9.70633 32.1163 10.2105 31.8914 10.5006 32.4179C8.28493 32.4055 6.07169 32.3932 3.85598 32.3734C3.78959 32.3734 3.6986 32.3165 3.66171 32.2597C3.63466 32.2152 3.67892 32.1262 3.68876 32.0595L3.69122 32.057Z" fill="#1FC2C3"/>
<path d="M10.5474 34.8478C8.95876 34.4226 7.34063 34.7835 5.73972 34.655C5.29953 34.6179 4.85688 34.6055 4.41669 34.5808C6.05449 33.9999 7.74639 34.4424 9.41124 34.3287C9.83176 34.299 10.4441 34.079 10.5474 34.8478Z" fill="#0F0E0D"/>
<path d="M7.86194 36.5657C8.67838 36.5657 9.49728 36.5657 10.3137 36.5657C9.59073 37.2306 8.58493 37.2306 7.86194 36.5657Z" fill="#0F0E0D"/>
<path d="M10.8277 36.0391C10.8277 35.7944 10.8277 35.5472 10.8277 35.3025C11.022 35.3346 11.2187 35.3717 11.2482 35.6139C11.2851 35.9254 11.0712 36.002 10.8253 36.0391H10.8277Z" fill="#0F0E0D"/>
<path d="M19.088 6.84204C19.1446 5.70005 20.111 4.56302 21.0062 3.39384C21.2791 3.03543 21.5251 3.25542 21.68 3.5026C22.3095 4.50122 23.0719 5.42568 23.4284 6.58497C23.7531 7.64043 23.5121 8.54265 22.6956 9.25453C22.1226 9.75384 21.4587 10.1073 20.6791 9.70688C19.7028 9.2051 19.0856 8.4413 19.0856 6.83709L19.088 6.84204Z" fill="#5494E8"/>
<path d="M11.9171 14.9742C11.8138 15.8592 11.5212 16.7144 10.6064 17.1371C9.82683 17.498 9.02514 17.5103 8.31199 16.9146C7.51522 16.2522 7.21274 15.4118 7.44636 14.3934C7.49309 14.1956 7.5521 13.9929 7.64309 13.8125C8.18411 12.7274 8.6661 11.5483 9.76043 10.9328C10.1072 10.7375 11.9122 14.0646 11.9171 14.9742Z" fill="#5494E8"/>
<path d="M27.7763 41.1706C27.7664 42.5845 27.1049 43.6869 26.2958 43.64C25.3737 43.5856 24.7294 42.4659 24.8007 41.0396C24.8572 39.9026 25.5974 38.8125 26.3278 38.7927C27.1024 38.773 27.7861 39.8952 27.7763 41.1682V41.1706Z" fill="#1A1A19"/>
<path d="M47.4077 41.0396C47.4053 42.5672 46.8888 43.593 46.1511 43.4422C44.9658 43.2025 44.8502 42.1198 44.7076 41.1583C44.6436 40.7257 44.683 40.2462 44.8035 39.826C44.9584 39.2822 45.1871 38.6593 45.8535 38.6024C46.5716 38.5406 46.8962 39.1067 47.1569 39.695C47.361 40.1572 47.4348 40.6318 47.4077 41.0372V41.0396Z" fill="#1A1A19"/>
</g>
<defs>
<clipPath id="clip0_41_1374">
<rect width="56" height="50" fill="white"/>
</clipPath>
</defs>
</svg>
