<svg width="20" height="20" viewBox="0 0 20 20" fill="none" xmlns="http://www.w3.org/2000/svg">
<path d="M0.0145586 10.0643C-0.119266 5.67575 2.98438 1.48497 7.3891 0.364657C11.1484 -0.592008 14.4494 0.338746 17.184 3.09691C20.0882 6.02691 20.8141 10.6227 19.0433 14.3689C18.8879 14.6976 18.8548 14.9928 18.9507 15.3454C19.2846 16.5714 19.5928 17.8049 19.9058 19.037C19.9443 19.1897 19.9747 19.35 19.9727 19.5061C19.9686 19.8437 19.828 19.9534 19.4962 19.9848C18.7689 20.053 18.0937 19.8341 17.4117 19.6391C16.6 19.4066 15.7863 19.1802 14.9759 18.9402C14.8083 18.8904 14.6778 18.9211 14.5284 18.9981C13.3227 19.6207 12.0777 20.0809 10.6867 19.9875C10.2048 19.9548 9.71684 19.9562 9.23493 19.9875C7.69866 20.0864 6.31851 19.588 5.03095 18.8249C2.11114 17.0937 0.440364 14.5114 0.0206415 11.1191C-0.021939 10.7727 0.0145586 10.4161 0.0145586 10.0643ZM1.30414 9.60946C1.33658 12.4856 2.20441 14.6014 3.96982 16.3491C6.65036 19.0022 10.8996 19.5655 14.1459 17.6651C14.4419 17.4919 14.7224 17.4605 15.0475 17.556C16.0411 17.8485 17.0393 18.1267 18.0369 18.4056C18.3776 18.5011 18.3857 18.4881 18.2951 18.1369C18.0478 17.181 17.8173 16.2202 17.5435 15.2724C17.4232 14.8565 17.48 14.5012 17.6686 14.1303C18.4445 12.6083 18.7662 10.9998 18.602 9.28762C18.3553 6.70742 17.2151 4.60317 15.1516 3.101C12.3325 1.04857 9.26062 0.739004 6.12858 2.29981C3.00331 3.85788 1.47852 6.51922 1.30414 9.60946Z" fill="black"/>
<circle cx="5.2" cy="9.99999" r="1.2" fill="black"/>
<circle cx="9.99999" cy="9.99999" r="1.2" fill="black"/>
<circle cx="14.8" cy="9.99999" r="1.2" fill="black"/>
</svg>
