<svg width="43" height="52" viewBox="0 0 43 52" fill="none" xmlns="http://www.w3.org/2000/svg">
<g clip-path="url(#clip0_41_1541)">
<path d="M23.6142 29.7707C23.9284 30.0072 24.1971 30.2828 24.3831 30.6304C24.3955 30.9327 24.3934 31.2494 24.8439 31.1959L24.8315 31.1857C24.8212 31.3502 24.8005 31.5126 24.8047 31.6772C24.8088 31.8643 24.7571 32.1173 25.0113 32.1646C25.2325 32.2057 25.3482 32.0062 25.4309 31.8191C26.1026 32.4731 26.7081 33.1764 27.0905 34.0443C27.2227 35.3234 27.2289 35.3337 28.3904 35.3358C30.7237 35.3378 33.0591 35.342 35.3924 35.3317C35.721 35.3317 36.0868 35.4489 36.3597 35.1404C36.5684 35.1404 36.7771 35.1404 36.9859 35.1404C37.2607 35.418 37.5356 35.418 37.8064 35.1363C38.0151 35.1445 38.2218 35.1548 38.4305 35.163C38.4904 35.4859 38.602 35.636 38.8604 35.2905C39.1559 35.2988 39.4411 35.3378 39.6664 35.5538C39.7036 36.0042 40.0322 35.9486 40.3339 35.9342C41.1958 36.3723 41.8282 37.018 42.163 37.9312C42.1878 38.5564 42.0638 39.233 42.7334 39.6443L42.7499 40.0617C42.4482 40.5409 42.4358 41.018 42.7541 41.4952C42.8243 43.4139 42.8264 45.3327 42.7355 47.2515C42.0968 47.6011 42.2684 48.1563 42.3634 48.6931C42.3428 49.0242 42.2105 49.2998 41.9563 49.5157C41.5037 49.5137 41.5306 49.8366 41.5264 50.1409C41.3921 50.4083 41.1896 50.6119 40.923 50.7476C40.615 50.7456 40.2905 50.7209 40.2885 51.1713C40.0653 51.4139 39.8028 51.5743 39.4597 51.5682C38.8707 51.525 38.2362 51.2947 37.8084 51.9466C36.0248 51.963 34.2433 51.9898 32.4598 51.9918C24.6373 51.998 16.8148 51.9959 8.99226 51.9939C8.40945 51.9939 7.8287 51.961 7.24589 51.9445C7.05988 51.3666 6.74988 51.488 6.40887 51.8006C6.27453 51.7821 6.1402 51.7615 6.00793 51.743C5.78886 51.2617 5.44785 51.1281 4.97044 51.379C4.40623 51.2597 3.91642 51.0047 3.51754 50.5851C3.54854 50.1471 3.24267 50.1327 2.93266 50.1224C2.73632 50.0299 2.58339 49.8941 2.50899 49.6844C2.49245 49.3923 2.49245 49.0859 2.06464 49.1065C1.88897 49.0509 1.86004 48.9132 1.8621 48.7569C1.83937 47.8869 1.35576 47.1013 1.40123 46.217C1.40743 46.0772 1.21316 46.0504 1.08295 46.0216C1.01269 42.9389 1.00235 39.854 1.08295 36.7713C1.7939 36.2921 1.50043 35.708 1.25862 35.1281C1.26896 34.9903 1.27929 34.8525 1.28963 34.7147C1.42396 34.6839 1.59343 34.6674 1.61617 34.5111C1.92411 32.4998 2.38498 30.5378 3.08766 28.6129C3.63741 27.1096 4.07349 25.5651 4.7307 24.0967C4.9105 23.6936 5.25978 23.2988 4.97457 22.8011C4.97457 22.6386 4.94977 22.4659 5.14404 22.3774C5.22671 22.3815 5.30938 22.3857 5.39205 22.3898C5.41685 22.4062 5.44372 22.4206 5.46852 22.4371C5.44165 22.4227 5.41478 22.4062 5.38998 22.3918C5.49745 22.1265 5.74959 21.8736 5.44785 21.5795C5.55118 21.3636 5.55118 21.0941 5.78266 20.944C6.1216 20.9666 6.2456 20.7939 6.46054 20.5183C6.93382 19.9096 7.18595 19.0006 8.20484 18.9286C7.33889 18.4391 7.28722 18.4062 7.8163 17.5959C8.14904 17.0839 7.7915 16.8741 7.47736 16.5841C7.82663 16.4402 8.26271 16.7486 8.32471 16.1728C8.38258 15.6402 8.0023 15.8643 7.7977 15.8047C7.42776 15.6957 7.41949 15.451 7.53729 15.1692C7.65096 14.8998 8.10151 15.1178 8.18624 14.7127C6.99788 14.1738 7.31822 12.942 7.26656 12.0741C7.21075 11.1219 6.76021 10.8443 6.12986 10.5049C6.02033 10.4206 5.91079 10.3384 5.80126 10.254C5.71652 10.1965 5.63179 10.1409 5.54705 10.0833L5.46232 10.0875L5.38998 10.0463C5.17918 9.43964 4.86917 9.57332 4.53023 9.93322C3.99082 9.90031 3.45141 9.86535 2.90993 9.83245C2.90373 9.56509 2.75079 9.4561 2.49865 9.45198C2.30231 9.18052 2.12871 9.33887 1.95717 9.48489L2.01711 9.51985C1.8869 9.50134 1.75877 9.48489 1.62857 9.46638H1.5397L1.46116 9.4273C1.38263 9.36972 1.30409 9.31419 1.22762 9.25661C0.961018 9.13116 0.73988 8.95841 0.626211 8.67666C0.529075 8.14607 0.655145 7.52705 0.0433981 7.19389C-0.0248034 6.91831 -0.0144698 6.64273 0.0495983 6.36715C0.667545 6.12859 0.574543 5.57332 0.624144 5.0818C0.828749 4.52448 1.17182 4.06381 1.62443 3.68129C1.99024 3.69363 2.08324 3.47769 2.06464 3.16509C2.27131 2.78463 2.55652 2.48026 2.93679 2.26432C3.38527 2.26432 3.74281 2.15533 3.72835 1.60417C3.85235 1.38 4.03008 1.23193 4.29876 1.21342C4.61496 1.23605 4.94564 1.27923 4.97871 0.818565C5.06757 0.649927 5.21844 0.608796 5.39411 0.621135C6.17533 0.878205 6.86768 0.376405 7.6489 0.380518C14.6323 0.425763 21.6157 0.396971 28.6012 0.388745C28.9319 0.900827 29.3762 1.10648 30.0066 1.03656C30.5357 0.976919 31.0813 1.04684 31.6186 1.06124C31.7261 1.50545 31.9328 1.56304 32.2428 1.21959C32.6478 1.22371 32.8958 1.46021 33.0819 1.7872C33.0756 3.10957 33.0633 4.42988 33.0653 5.75224C33.0653 6.04633 32.9785 6.37332 33.2906 6.58926C33.2245 7.07049 32.9289 7.3399 32.4722 7.45712C31.6517 7.22268 30.8229 7.49003 29.9962 7.41394C29.7069 7.3872 29.3659 7.307 29.1427 7.61959L29.1551 7.6052C29.0807 7.66895 29.0063 7.73476 28.9319 7.79851L28.9257 7.81085C28.7666 7.84376 28.5681 7.84993 28.7066 8.10494C28.6942 8.15841 28.6632 8.19132 28.6116 8.20571C28.0907 7.92602 27.5596 7.97743 27.0202 8.14607C25.9372 8.4854 25.7657 9.4088 26.6254 10.2746C26.6358 10.4124 26.6482 10.5502 26.6585 10.688C26.3258 11.0047 26.4539 11.344 26.5758 11.708C27.1587 13.4561 28.1197 15.0438 28.748 16.7713C28.8575 17.0736 29.0931 17.0448 29.3266 17.0551C29.4589 17.2422 29.6118 17.4211 29.5416 17.6761C29.3101 17.7008 29.1923 17.8201 29.1448 18.0587C28.8906 19.3173 28.7232 19.3666 27.4273 19.562C26.8672 19.6463 26.3506 19.235 25.8215 19.5538C25.559 19.5127 25.3441 19.3913 25.1953 19.1671C25.2242 18.7085 24.9121 18.7003 24.5856 18.7065L24.5897 18.7106C24.6889 18.0628 24.4099 17.7893 23.761 17.8818C23.6452 17.8489 23.577 17.7749 23.5667 17.6556C23.5564 17.3594 23.5646 17.051 23.1286 17.0715L23.1348 17.0797C23.1616 16.3003 22.9281 15.7409 22.4259 15.0252C21.4587 13.6474 21.0557 11.9178 21.8989 10.1492C21.2685 10.0443 20.8448 10.0957 20.6712 10.688C20.663 10.7579 20.6526 10.8278 20.6444 10.8977C19.8363 11.6196 19.5945 12.9461 20.0471 14.1821C20.0512 14.7291 20.0554 15.2782 20.0595 15.8252C19.9252 15.8458 19.7268 15.8705 19.735 16.0103C19.7805 16.6746 19.8466 17.3389 19.9438 17.997C19.9768 18.217 20.2145 18.2787 20.4294 18.2911C20.4439 18.4268 20.4584 18.5646 20.4728 18.7003C20.1277 19.0808 20.4501 19.0725 20.7084 19.1013C20.82 19.1137 20.8779 19.1795 20.8862 19.2905C20.8118 20.2407 21.6095 21.0366 21.3719 22.0237C21.345 22.1368 21.5723 22.1738 21.7046 22.1985C21.6943 22.3363 21.6839 22.472 21.6757 22.6098C21.376 22.6345 21.1755 22.7456 21.1383 23.0869C21.0474 23.8808 21.1425 24.6828 20.9585 25.4767C20.8965 25.7461 21.0846 26.071 21.4773 26.0977C21.4979 26.2273 21.5186 26.3589 21.5413 26.4885C21.1859 26.7682 21.3739 26.8648 21.6881 26.9204C21.7232 26.9677 21.7335 27.0211 21.7191 27.0787C21.7749 27.163 21.8307 27.2453 21.8844 27.3296C21.9133 27.3831 21.9257 27.4427 21.9216 27.5024C21.9009 27.8376 21.903 28.1584 22.3825 28.1337C22.5024 28.1564 22.5396 28.2366 22.5334 28.3476C22.5334 28.6561 22.5148 28.979 22.9715 28.9666C23.0852 28.9975 23.143 29.0715 23.1451 29.1887C23.1472 29.5054 23.1575 29.816 23.6122 29.781L23.6142 29.7707ZM18.7657 37.9908L18.8091 37.9805C18.7368 37.9887 18.6645 37.997 18.5921 38.0052C18.3255 38.0237 18.1933 38.1635 18.2077 38.433C17.6869 38.4638 17.8006 38.8443 17.8027 39.163C17.7882 39.2576 17.7737 39.3502 17.7592 39.4448C17.3914 39.4921 17.3645 39.7553 17.3666 40.0453C17.3707 42.2252 17.3004 44.4114 17.4224 46.5851C17.4513 47.1075 17.195 47.9157 17.968 48.2797L18.1933 48.4998L18.185 48.4833C18.216 48.6088 18.247 48.7322 18.2759 48.8576C18.2346 48.8988 18.1499 48.9522 18.1581 48.979C18.2015 49.1332 18.34 49.0777 18.4475 49.0839C18.557 49.0941 18.6149 49.1538 18.6231 49.2628C18.6562 49.3882 18.7368 49.4643 18.8649 49.489V49.4808C19.2679 50.3795 20.0926 50.3322 20.8697 50.3322C26.0096 50.3425 31.1495 50.326 36.2915 50.3507C37.0541 50.3548 37.7878 50.2438 38.5214 50.1039C38.8893 50.034 39.3729 49.9826 39.3605 49.4047L39.3729 49.4252C39.5259 49.4561 39.6003 49.3862 39.6106 49.236L39.5941 49.2587C40.6005 48.7877 41.0511 47.9013 41.0842 46.8936C41.1565 44.6808 41.1606 42.4618 41.078 40.2489C41.049 39.5003 40.9788 38.6016 40.0384 38.2438L40.0549 38.254C40.0239 38.1327 39.9475 38.0587 39.8235 38.0319C39.716 38.0196 39.6499 37.9641 39.6333 37.8571C39.6478 37.345 39.3027 37.3903 38.9637 37.4273C38.9079 37.4479 38.8645 37.4335 38.8335 37.3821C38.4098 36.6602 37.672 36.7939 37.0355 36.7898C33.3237 36.763 29.6118 36.7774 25.9021 36.7774C24.288 36.7774 22.6677 36.7157 21.0577 36.8021C20.231 36.8474 19.2431 36.7733 18.8112 37.8037C18.7864 37.8633 18.7699 37.927 18.7616 37.9929L18.7657 37.9908ZM25.0031 35.1342C25.1746 35.0006 25.1891 34.8628 25.0093 34.725C24.5174 33.7831 23.7527 33.053 23.0521 32.2756C21.9857 31.0911 20.9482 29.89 20.167 28.4916C20.0678 28.3044 19.9686 28.1173 19.8694 27.9301L19.8652 27.9198C19.2452 26.1882 19.0695 24.4258 19.4808 22.6222L19.4664 22.6324C19.7578 22.1265 19.7412 21.6227 19.454 21.1229C19.2989 20.2736 18.7285 19.9198 17.9225 19.9096C16.79 19.8952 15.6553 19.9178 14.5207 19.924C14.0309 20.0988 14.2851 20.5101 14.283 20.7959C14.2603 23.5312 14.283 26.2664 14.2603 29.0016C14.2479 30.5378 14.3512 32.0761 14.1921 33.6103C13.1608 34.5522 13.0533 34.5399 12.268 33.3738C12.2556 29.2093 12.2515 25.0448 12.2205 20.8803C12.2184 20.5615 12.4829 20.1193 11.9683 19.9137C11.3834 19.9013 10.7924 19.9466 10.2178 19.8623C9.11006 19.6998 8.47352 20.2592 8.00644 21.1456C7.8473 21.4479 7.68196 21.7481 7.54143 22.0587C6.4502 24.4546 5.44992 26.8916 4.65423 29.3985C4.00528 31.4448 3.29847 33.4952 3.3088 35.6895C3.14553 36.0021 3.13107 36.3435 3.129 36.6828C3.12073 39.706 3.11246 42.7291 3.11453 45.7522C3.11453 46.0833 3.07733 46.4391 3.31294 46.7291C3.42041 47.8047 4.06109 48.5389 4.91877 49.0921C5.76612 49.6371 6.71061 49.9312 7.7357 49.9291C10.6456 49.925 13.5535 49.9291 16.5358 49.9291C16.1369 48.9934 15.7194 48.1605 15.7153 47.2247C15.7049 44.6931 15.6822 42.1594 15.7277 39.6278C15.7669 37.4067 17.9308 35.2103 20.0595 35.163C21.3429 35.5538 22.6574 35.2556 23.9553 35.3296C24.3025 35.3502 24.7055 35.4777 25.001 35.1363L25.0031 35.1342ZM29.3576 2.8525C29.277 2.9327 29.1964 3.01085 29.1158 3.09106C28.8658 3.91779 28.7211 4.74042 29.2068 5.53836C29.2584 5.51985 29.308 5.49928 29.3576 5.47666C30.0376 5.48283 30.7196 5.49106 31.3995 5.49723C31.4491 5.51574 31.5008 5.52808 31.5525 5.54042C32.125 4.74247 31.7116 3.84993 31.786 3.00468C31.8026 2.81959 31.629 2.68386 31.4491 2.69209C30.7506 2.7291 30.0293 2.48232 29.3576 2.85044V2.8525ZM17.9804 17.9003C18.3069 17.6844 18.1313 17.345 18.185 17.0612C18.1871 16.4484 18.185 15.8355 18.1974 15.2227C18.2057 14.8155 18.0693 14.5831 17.6146 14.5831C14.8431 14.5893 12.0717 14.5831 9.30227 14.5872C9.06253 14.5872 8.74012 14.5872 8.74632 14.8957C8.76492 15.8931 8.44458 16.9132 8.92612 17.8818C9.09353 18.1183 9.34773 18.0751 9.58334 18.0751C12.1605 18.0772 14.7377 18.0751 17.3149 18.0751C17.5526 18.0751 17.8027 18.1101 17.9845 17.8983L17.9804 17.9003ZM7.29136 2.08746C7.27896 2.13065 7.26449 2.17383 7.24795 2.21497C4.7989 2.77846 3.41007 4.58 2.19898 6.55635C1.87657 7.08489 2.05224 7.57435 2.76112 7.66484C3.37287 7.74299 3.98875 7.7944 4.60463 7.8273C6.84908 7.94659 8.19244 9.03245 8.77319 11.2227C8.88686 11.6504 8.98813 12.0823 9.09559 12.5121C9.18653 12.8515 9.46967 12.7445 9.68461 12.7466C12.2804 12.7548 14.8762 12.761 17.472 12.7507C17.7117 12.7507 18.0403 12.8947 18.1623 12.5121C18.2863 11.8767 18.371 11.2309 18.5446 10.6098C19.3775 7.62371 21.1714 6.31779 24.257 6.33219C25.1663 6.3363 26.0984 6.56869 26.9913 6.18206C27.2145 4.82885 27.0905 3.46946 27.0636 2.11214C26.9127 1.78926 26.6151 1.85096 26.3506 1.85096C20.1112 1.84684 13.8718 1.84684 7.63236 1.85507C7.50216 1.85507 7.17975 1.69054 7.29342 2.08746H7.29136ZM27.603 17.9127C27.3467 17.3821 27.2083 17.0366 27.0202 16.7178C25.6066 14.3096 24.5918 11.7718 24.4017 8.95635C24.3459 8.12756 24.1495 7.998 23.2133 8.07615C22.3659 8.14607 22.5458 8.63964 22.6884 9.16818C22.7586 9.42731 22.74 9.70905 22.7731 9.97846C23.0852 12.4977 23.8808 14.8134 25.6334 16.7301C26.115 17.2587 26.6399 17.7008 27.6009 17.9127H27.603ZM13.7209 30.8792C14.2128 29.8695 14.1384 21.0283 13.7209 20.3723V30.8792ZM13.8656 33.3553C14.1342 32.7589 14.1404 32.1646 13.8573 31.5743C13.5886 32.1707 13.5721 32.7651 13.8656 33.3553Z" fill="#1A1A1B"/>
<path d="M38.1412 10.4741C38.8852 10.4576 39.1249 10.8011 39.2489 11.2C39.7491 12.8288 40.768 13.9476 42.3552 14.6242C43.2005 14.9841 43.2191 15.8458 42.38 16.2468C40.8155 16.9975 39.7015 18.0813 39.1787 19.7533C39.0608 20.1337 38.7426 20.3394 38.3168 20.3599C37.8704 20.3805 37.6307 20.109 37.4261 19.782C37.3744 19.6977 37.3703 19.5846 37.3331 19.49C36.7771 18.0751 35.9091 16.9543 34.4355 16.3702C34.0305 16.2098 33.6419 15.9527 33.6709 15.3995C33.6957 14.9018 34.0449 14.7085 34.4335 14.5481C35.9174 13.9373 36.8557 12.8268 37.3889 11.3481C37.5604 10.871 37.827 10.5152 38.1412 10.4741ZM38.3354 16.6499C39.2324 15.7272 39.2165 14.895 38.2879 14.1533C37.8973 14.6078 37.3682 14.9409 37.0727 15.488C37.4881 15.8705 37.887 16.2386 38.3334 16.6499H38.3354Z" fill="#1A1A1B"/>
<path d="M36.4568 27.9157C36.5105 27.8848 36.5498 27.8972 36.5725 27.9547C36.6118 28.4031 36.9259 28.3578 37.2359 28.3187L37.2235 28.3064C37.2153 28.7403 37.207 29.1743 37.1987 29.6082C36.5457 30.1409 35.6942 30.3732 35.1196 31.0396C34.5947 31.6483 34.2888 32.3578 33.9891 33.0817C33.8114 33.5095 33.5593 33.9002 33.0405 33.8858C32.5383 33.8714 32.22 33.5033 32.0754 33.0756C31.5421 31.4961 30.5253 30.4205 28.9794 29.7501C28.0721 29.3573 28.0969 28.4853 29.027 28.0884C30.5357 27.4406 31.5463 26.4103 32.0733 24.8637C32.2262 24.4175 32.4866 23.9794 33.0942 24.0226C33.6295 24.0596 33.8238 24.4442 33.9829 24.8761C34.4211 26.0545 35.1238 27.0375 36.1654 27.7676C36.2625 27.819 36.3596 27.8684 36.4568 27.9198V27.9157ZM32.9702 30.0545C34.4231 28.9933 34.4231 28.9563 32.9082 27.6709C32.5404 28.0946 31.9534 28.4812 31.8708 28.9542C31.8005 29.3614 32.6106 29.5568 32.8896 29.9928C32.9062 30.0195 32.9434 30.036 32.9702 30.0565V30.0545Z" fill="#1A1A1B"/>
<path d="M28.6012 0.38664C21.6178 0.394866 14.6323 0.423658 7.64889 0.378414C6.86767 0.374301 6.17739 0.8761 5.3941 0.619031C6.11539 0.191267 6.90074 0.00823388 7.73362 0.00823388C14.2872 0.00823388 20.8386 0.00617733 27.3922 7.66298e-06C27.8427 7.66298e-06 28.2871 -0.0185013 28.6033 0.38664H28.6012Z" fill="#070706"/>
<path d="M6.13194 10.5048C6.76228 10.8442 7.21283 11.1239 7.26863 12.074C7.31823 12.9419 6.99789 14.1737 8.18831 14.7126C8.10358 15.1198 7.65304 14.9018 7.53937 15.1691C7.4195 15.4529 7.42983 15.6956 7.79977 15.8046C8.00438 15.8663 8.38465 15.6421 8.32678 16.1727C8.26478 16.7485 7.82871 16.4401 7.47943 16.584C7.79357 16.874 8.15111 17.0858 7.81837 17.5958C7.29136 18.4061 7.34303 18.439 8.20691 18.9285C7.18803 18.9984 6.93795 19.9095 6.46261 20.5182C6.24561 20.7958 6.1216 20.9686 5.78473 20.9439C5.80746 20.8452 5.79713 20.7156 5.855 20.6498C6.94622 19.4303 6.89869 17.9537 6.86149 16.4627C6.83875 15.5105 6.90075 14.5542 6.91729 13.6C6.93589 12.4976 6.72922 11.4488 6.13194 10.5007V10.5048Z" fill="#10100F"/>
<path d="M4.97871 22.8031C5.26185 23.3028 4.91464 23.6977 4.73484 24.0987C4.07762 25.5671 3.64155 27.1116 3.0918 28.6149C2.38912 30.5399 1.92824 32.5018 1.6203 34.5131C1.5955 34.6694 1.42603 34.6859 1.29376 34.7167C1.43843 32.7136 1.98198 30.7928 2.60612 28.9028C3.29021 26.8298 3.97015 24.7507 4.98078 22.8031H4.97871Z" fill="#070706"/>
<path d="M20.6733 10.6818C20.8448 10.0895 21.2685 10.0381 21.9009 10.143C21.0598 11.9116 21.4607 13.6412 22.4279 15.0191C22.9302 15.7348 23.1637 16.2921 23.1368 17.0736C21.7769 15.2823 20.9916 13.2792 20.8944 11.0232C20.8882 10.8628 20.9399 10.6715 20.6733 10.6818Z" fill="#10100F"/>
<path d="M29.3266 17.0509C29.0931 17.0386 28.8575 17.0694 28.748 16.7671C28.1217 15.0396 27.1607 13.452 26.5758 11.7039C26.4539 11.3399 26.3258 11.0005 26.6585 10.6838C27.2765 12.9193 28.3512 14.9635 29.3266 17.0509Z" fill="#10100F"/>
<path d="M25.8215 19.5476C26.3506 19.2288 26.8673 19.6401 27.4273 19.5558C28.7232 19.3625 28.8906 19.3111 29.1448 18.0524C29.1923 17.8139 29.3101 17.6967 29.5416 17.6699C29.8516 19.1342 28.7025 20.3476 27.2021 20.0905C26.7205 20.0082 26.2038 19.9177 25.8215 19.5455V19.5476Z" fill="#10100F"/>
<path d="M36.3617 35.1403C36.0889 35.4488 35.721 35.3295 35.3945 35.3316C33.0612 35.3419 30.7258 35.3378 28.3925 35.3357C27.231 35.3357 27.2248 35.3234 27.0925 34.0442C27.4521 35.0334 28.1879 35.1568 29.1613 35.1301C31.5587 35.0622 33.9623 35.1301 36.3617 35.1403Z" fill="#070706"/>
<path d="M26.6254 10.2704C25.7636 9.40256 25.9372 8.47917 27.0202 8.14189C27.5596 7.97325 28.0907 7.91978 28.6116 8.20153C28.0701 8.94189 27.2248 8.45243 26.5531 8.69099C26.4043 9.23186 26.5779 9.74806 26.6275 10.2704H26.6254Z" fill="#10100F"/>
<path d="M33.2906 6.58306C32.9764 6.36918 33.0653 6.04013 33.0653 5.74604C33.0653 4.42368 33.0756 3.10337 33.0818 1.78101C33.2906 1.88383 33.3733 2.11622 33.3836 2.28281C33.4725 3.71622 33.6378 5.15581 33.2885 6.58101L33.2906 6.58306Z" fill="#070706"/>
<path d="M21.4793 26.0895C21.0867 26.0607 20.8986 25.7378 20.9606 25.4684C21.1445 24.6746 21.0495 23.8725 21.1404 23.0787C21.1797 22.7373 21.3801 22.6262 21.6777 22.6016C21.3822 23.7512 21.2065 24.909 21.4773 26.0915L21.4793 26.0895Z" fill="#10100F"/>
<path d="M21.7087 22.1902C21.5744 22.1655 21.3471 22.1264 21.376 22.0154C21.6137 21.0282 20.8159 20.2324 20.8903 19.2822C21.5661 20.1398 22.0374 21.0529 21.7087 22.1902Z" fill="#10100F"/>
<path d="M20.0492 14.1737C19.5966 12.9398 19.8384 11.6113 20.6465 10.8894C20.448 11.9835 20.2476 13.0776 20.0492 14.1737Z" fill="#10100F"/>
<path d="M29.1427 7.6113C29.3659 7.2987 29.7048 7.37891 29.9963 7.40565C30.8209 7.48174 31.6517 7.21439 32.4722 7.44883C31.3789 7.83547 30.2587 7.66477 29.1448 7.6113H29.1427Z" fill="#070706"/>
<path d="M20.4315 18.2828C20.2166 18.2684 19.9789 18.2088 19.9458 17.9887C19.8466 17.3306 19.7825 16.6664 19.7371 16.0021C19.7267 15.8623 19.9252 15.8376 20.0616 15.817C20.1856 16.6396 20.3096 17.4602 20.4315 18.2828Z" fill="#10100F"/>
<path d="M1.08504 46.0237C1.21524 46.0525 1.40951 46.0813 1.40331 46.2191C1.35784 47.1034 1.84145 47.891 1.86419 48.7589C1.25657 47.9445 1.03544 47.0211 1.08504 46.0237Z" fill="#070706"/>
<path d="M1.2607 35.1301C1.50457 35.7101 1.79598 36.2941 1.08503 36.7733C1.04783 36.216 1.03749 35.6607 1.2607 35.1301Z" fill="#070706"/>
<path d="M42.3676 48.6992C42.2746 48.1625 42.103 47.6051 42.7396 47.2576C42.8285 47.7923 42.5908 48.2447 42.3676 48.6992Z" fill="#070706"/>
<path d="M0.0475481 7.19177C0.659295 7.52288 0.533225 8.1419 0.630361 8.67455C0.214952 8.26735 -0.0185867 7.78817 0.0475481 7.19177Z" fill="#070706"/>
<path d="M42.7375 39.6483C42.0679 39.2349 42.1919 38.5604 42.1671 37.9352C42.535 38.4473 42.7293 39.0169 42.7375 39.6483Z" fill="#070706"/>
<path d="M25.4329 31.819C25.3503 32.0041 25.2366 32.2056 25.0134 32.1645C24.7592 32.1172 24.8109 31.8642 24.8067 31.6771C24.8026 31.5146 24.8233 31.3501 24.8336 31.1855C25.0816 31.3521 25.2841 31.5578 25.4329 31.819Z" fill="#10100F"/>
<path d="M0.626212 5.07971C0.576611 5.57123 0.669613 6.12444 0.0516663 6.36506C0.0682 5.85915 0.279005 5.43961 0.626212 5.07971Z" fill="#070706"/>
<path d="M23.7631 17.8756C24.412 17.783 24.691 18.0565 24.5918 18.7044C24.2425 18.5008 23.9759 18.217 23.7631 17.8756Z" fill="#10100F"/>
<path d="M37.1987 29.6082C37.207 29.1743 37.2153 28.7403 37.2235 28.3064C37.7588 28.7506 37.7815 29.1866 37.1987 29.6082Z" fill="#070706"/>
<path d="M4.9725 51.383C5.44991 51.1321 5.79092 51.2658 6.00999 51.747C5.63385 51.712 5.28044 51.6092 4.9725 51.383Z" fill="#070706"/>
<path d="M4.53229 9.93105C4.87123 9.5732 5.18124 9.43747 5.39204 10.0442C5.1027 10.0256 4.79063 10.184 4.53229 9.93105Z" fill="#070706"/>
<path d="M3.73042 1.60413C3.74489 2.15528 3.38735 2.26428 2.93887 2.26428C3.14348 1.97431 3.41215 1.76042 3.73042 1.60413Z" fill="#070706"/>
<path d="M42.7582 41.4992C42.4399 41.0221 42.4502 40.545 42.754 40.0658C42.8326 40.5429 42.8119 41.0221 42.7582 41.4992Z" fill="#070706"/>
<path d="M2.50278 9.4519C2.75492 9.45602 2.90786 9.56502 2.91406 9.83237C2.53585 9.90846 2.20931 9.83442 1.97577 9.50332C2.15144 9.48687 2.32711 9.47041 2.50278 9.4519Z" fill="#070706"/>
<path d="M32.2428 1.21545C31.9328 1.5589 31.7282 1.50132 31.6186 1.0571C31.846 1.03448 32.0671 1.03242 32.2428 1.21545Z" fill="#070706"/>
<path d="M5.3962 22.3918C5.31353 22.3877 5.23086 22.3836 5.14819 22.3795C5.24946 22.1142 5.35073 21.8468 5.44993 21.5815C5.75167 21.8756 5.49953 22.1286 5.39207 22.3939H5.39413L5.3962 22.3918Z" fill="#070706"/>
<path d="M24.5856 18.7003C24.9121 18.6941 25.2242 18.7003 25.1953 19.1609C24.9555 19.056 24.7365 18.9224 24.5856 18.7003Z" fill="#10100F"/>
<path d="M23.1306 17.0632C23.5667 17.0427 23.5585 17.3532 23.5688 17.6473C23.3663 17.4951 23.2278 17.2936 23.1306 17.0632Z" fill="#10100F"/>
<path d="M4.98079 0.816406C4.94772 1.27913 4.61705 1.23389 4.30084 1.21126C4.47031 0.980931 4.70178 0.859594 4.98079 0.816406Z" fill="#070706"/>
<path d="M40.3381 35.9363C40.0343 35.9506 39.7057 36.0062 39.6705 35.5558C39.9433 35.5969 40.1727 35.7121 40.3381 35.9363Z" fill="#070706"/>
<path d="M40.2926 51.1754C40.2947 50.725 40.6171 50.7497 40.9271 50.7517C40.77 50.9718 40.5592 51.1137 40.2926 51.1754Z" fill="#070706"/>
<path d="M2.93472 50.1244C3.24473 50.1367 3.5506 50.1491 3.5196 50.5871C3.29226 50.474 3.05873 50.3671 2.93472 50.1244Z" fill="#070706"/>
<path d="M41.5306 50.145C41.5347 49.8427 41.5078 49.5177 41.9605 49.5198C41.8716 49.7645 41.7517 49.9887 41.5306 50.145Z" fill="#070706"/>
<path d="M2.06671 49.1106C2.49452 49.09 2.49452 49.3965 2.51105 49.6885C2.29612 49.5466 2.14525 49.3574 2.06671 49.1106Z" fill="#070706"/>
<path d="M24.846 31.198C24.3934 31.2515 24.3955 30.9348 24.3851 30.6324C24.6042 30.7682 24.7427 30.9697 24.846 31.198Z" fill="#10100F"/>
<path d="M23.6142 29.7708C23.1616 29.8057 23.1492 29.4952 23.1472 29.1785C23.3022 29.3759 23.4572 29.5733 23.6142 29.7708Z" fill="#10100F"/>
<path d="M22.9736 28.9584C22.5148 28.9707 22.5354 28.6478 22.5354 28.3394L22.9736 28.9584Z" fill="#10100F"/>
<path d="M37.236 28.3187C36.9259 28.3578 36.6118 28.403 36.5725 27.9547C36.8371 27.9979 37.0685 28.1007 37.236 28.3187Z" fill="#070706"/>
<path d="M2.0667 3.16504C2.08531 3.47764 1.9923 3.69357 1.6265 3.68123C1.7195 3.4653 1.8683 3.29255 2.0667 3.16504Z" fill="#070706"/>
<path d="M38.8624 35.2926C38.602 35.636 38.4904 35.4879 38.4326 35.1651C38.5958 35.1424 38.7467 35.161 38.8624 35.2926Z" fill="#070706"/>
<path d="M37.8084 35.1362C37.5356 35.42 37.2628 35.418 36.9879 35.1403C37.2608 35.1403 37.5356 35.1383 37.8084 35.1362Z" fill="#070706"/>
<path d="M22.3846 28.1255C21.9051 28.1502 21.9051 27.8314 21.9237 27.4941C22.211 27.6073 22.1324 27.9857 22.3846 28.1255Z" fill="#10100F"/>
<path d="M20.7126 19.093C20.4543 19.0643 20.1318 19.0725 20.477 18.692C20.5555 18.8257 20.6341 18.9594 20.7126 19.093Z" fill="#10100F"/>
<path d="M21.6901 26.9121C21.3781 26.8566 21.19 26.7599 21.5434 26.4802C21.748 26.5728 21.7191 26.7414 21.6901 26.9121Z" fill="#10100F"/>
<path d="M2.50278 9.45191C2.32711 9.46837 2.15144 9.48482 1.97577 9.50333L1.9613 9.48482C2.13284 9.3388 2.30438 9.18251 2.50278 9.45191Z" fill="#10100F"/>
<path d="M28.7066 8.09877C28.5681 7.84582 28.7665 7.83965 28.9257 7.80469C28.9505 7.97538 28.7996 8.01651 28.7066 8.09877Z" fill="#070706"/>
<path d="M1.63269 9.46423C1.76289 9.48274 1.89103 9.49919 2.02123 9.5177C1.85383 9.77683 1.74223 9.62876 1.63269 9.46423Z" fill="#070706"/>
<path d="M1.23175 9.25452C1.31029 9.3121 1.38882 9.36763 1.46529 9.42521C1.32682 9.45195 1.27308 9.36146 1.23175 9.25452Z" fill="#070706"/>
<path d="M5.54913 10.0833C5.63387 10.1408 5.7186 10.1964 5.80334 10.2539C5.66694 10.2725 5.5946 10.1964 5.54913 10.0833Z" fill="#070706"/>
<path d="M36.4568 27.9157C36.3596 27.8643 36.2625 27.8149 36.1654 27.7635C36.3038 27.7347 36.3968 27.7964 36.4568 27.9157Z" fill="#070706"/>
<path d="M21.8865 27.3213C21.8307 27.237 21.7749 27.1548 21.7211 27.0704C21.8348 27.1157 21.9216 27.1794 21.8865 27.3213Z" fill="#10100F"/>
<path d="M14.5207 19.9197C15.6554 19.9136 16.7879 19.8909 17.9225 19.9053C18.7286 19.9156 19.299 20.2694 19.454 21.1187C19.4581 21.6226 19.4622 22.1244 19.4664 22.6282L19.4808 22.6179C19.1936 22.7228 19.0448 22.9326 19.0448 23.2328C19.0448 24.2097 18.927 25.2071 19.0944 26.1552C19.1998 26.7496 19.2225 27.5023 19.8652 27.9177L19.8694 27.928C19.8714 28.1665 19.7619 28.4627 20.167 28.4894C20.9482 29.8879 21.9857 31.0889 23.0521 32.2735C23.7507 33.0508 24.5174 33.7809 25.0093 34.7228C24.6642 35.0663 24.2301 34.8935 23.8313 34.9244C22.645 35.019 21.438 34.7413 20.2641 35.0971L20.0616 35.1609C17.9329 35.2102 15.769 37.4046 15.7298 39.6257C15.6843 42.1573 15.705 44.6909 15.7174 47.2226C15.7215 48.1583 16.139 48.9912 16.5378 49.9269C13.5556 49.9269 10.6477 49.9228 7.73778 49.9269C6.71063 49.9269 5.7682 49.6349 4.92085 49.0899C4.06317 48.5388 3.42249 47.8025 3.31502 46.7269C3.31502 43.0478 3.31089 39.3665 3.30882 35.6873C3.30055 33.4951 4.0053 31.4426 4.65425 29.3963C5.44993 26.8894 6.45229 24.4524 7.54144 22.0565C7.68198 21.746 7.84732 21.4457 8.00645 21.1434C8.47353 20.257 9.11008 19.6997 10.2178 19.8601C10.7924 19.9444 11.3835 19.8971 11.9683 19.9115C11.9807 20.2858 12.0055 20.6622 12.0055 21.0364C12.0076 24.8267 12.0014 28.6149 12.0179 32.4051C12.0179 32.728 11.8071 33.1496 12.2701 33.3717C13.0554 34.5357 13.1629 34.5501 14.1942 33.6082C14.715 33.3634 14.4587 32.8904 14.4629 32.5367C14.5001 28.3311 14.5083 24.1254 14.5228 19.9218L14.5207 19.9197Z" fill="#5494E8"/>
<path d="M39.6395 37.8551C39.6561 37.9641 39.7222 38.0196 39.8297 38.0299C39.9061 38.1039 39.9847 38.1779 40.0611 38.252L40.0446 38.2417C40.1975 38.6037 40.3505 38.9635 40.5034 39.3255C40.5055 42.1162 40.5075 44.907 40.5096 47.6977L39.6003 49.2566L39.6168 49.234C39.5383 49.2977 39.4577 49.3594 39.3791 49.4232L39.3667 49.4026C39.2303 49.4417 39.0939 49.4787 38.9575 49.5178C38.3292 49.4047 37.7609 49.7399 37.1347 49.7378C31.7468 49.7132 26.3588 49.7193 20.9689 49.7255C20.601 49.7255 20.2104 49.6227 19.8714 49.8715C19.611 49.8427 19.3672 49.7749 19.1977 49.5569C18.9993 49.0715 18.6149 48.7589 18.1912 48.4792L18.1995 48.4957C18.1953 48.1193 18.1705 47.743 18.1912 47.3687C18.3524 44.3024 17.782 41.2093 18.557 38.1677L18.5632 38.1965C18.6479 38.1224 18.7327 38.0504 18.8153 37.9764L18.7719 37.9867C18.9187 37.9846 19.0034 37.9168 19.0117 37.7666L18.9972 37.7893C20.043 37.6679 21.0763 37.1661 22.1242 37.4047C23.2484 37.6597 24.3748 37.4725 25.4598 37.4376C28.6777 37.3368 31.8935 37.4684 35.1072 37.3718C36.5519 37.3286 37.9696 37.4746 39.375 37.7851L39.6437 37.853L39.6395 37.8551ZM34.6546 41.709C34.6629 40.9337 34.0243 40.2653 33.2617 40.2551C32.4205 40.2448 31.8212 40.8124 31.817 41.6268C31.8129 42.3713 32.4866 43.0993 33.2079 43.1301C33.9375 43.161 34.6464 42.4659 34.6546 41.707V41.709ZM25.6913 39.6607C25.0692 39.5908 24.4533 40.0885 24.4017 40.6993C24.3479 41.3224 24.8191 41.8921 25.466 41.9908C26.0468 42.0792 26.706 41.5486 26.7639 40.944C26.8239 40.3332 26.3196 39.7306 25.6913 39.6607ZM36.8825 46.8422C36.9073 46.2108 36.37 45.6391 35.7458 45.633C35.1258 45.6268 34.541 46.1882 34.5389 46.7929C34.5368 47.3584 35.1734 47.9815 35.7479 47.9774C36.2997 47.9713 36.8598 47.4098 36.8825 46.8422ZM30.6989 46.2828C30.7031 45.672 30.0996 45.0633 29.5126 45.088C28.9836 45.1106 28.3718 45.707 28.3491 46.2232C28.3243 46.8155 28.8926 47.4139 29.5085 47.4427C30.1451 47.4715 30.6948 46.9368 30.6989 46.2849V46.2828ZM21.8989 46.0669C21.9195 46.6818 22.4259 47.2206 22.9777 47.2124C23.5646 47.2042 24.1413 46.5687 24.1041 45.9743C24.0689 45.4252 23.4634 44.87 22.9198 44.8864C22.3246 44.9049 21.8782 45.4211 21.8989 46.0669Z" fill="#FBD134"/>
<path d="M9.09561 12.5121C8.98814 12.0823 8.88687 11.6504 8.7732 11.2226C8.19246 9.0324 6.84909 7.94654 4.60464 7.82726C3.98876 7.79435 3.37288 7.74294 2.76114 7.66479C2.05226 7.5743 1.87452 7.08278 2.19899 6.5563C3.41009 4.57995 4.79891 2.77841 7.24797 2.21492C7.38437 2.22109 7.52284 2.23137 7.65924 2.23137C13.7746 2.22931 19.89 2.24165 26.0054 2.20463C26.8197 2.20052 26.9913 2.48638 26.9582 3.2144C26.9148 4.20155 26.9768 5.19281 26.9933 6.18407C26.1026 6.5707 25.1684 6.33831 24.2591 6.3342C21.1735 6.3198 19.3796 7.62777 18.5467 10.6118C18.3731 11.2329 18.2904 11.8787 18.1643 12.5141C15.1428 12.5141 12.1192 12.5141 9.09767 12.5141L9.09561 12.5121Z" fill="#5494E8"/>
<path d="M27.603 17.9126C26.642 17.7008 26.117 17.2586 25.6355 16.7301C23.885 14.8113 23.0872 12.4977 22.7752 9.97842C22.7421 9.70901 22.7607 9.42726 22.6904 9.16813C22.5478 8.6396 22.368 8.14603 23.2154 8.0761C24.1516 8.00001 24.3479 8.12957 24.4037 8.95631C24.5939 11.7717 25.6086 14.3116 27.0222 16.7177C27.2103 17.0365 27.3488 17.382 27.6051 17.9126H27.603Z" fill="#F65941"/>
<path d="M38.9534 49.5198C39.0898 49.4808 39.2262 49.4437 39.3626 49.4047C39.375 49.9805 38.8914 50.034 38.5235 50.1039C37.7898 50.2417 37.0541 50.3548 36.2935 50.3507C31.1536 50.326 26.0137 50.3425 20.8717 50.3322C20.0946 50.3322 19.27 50.3795 18.8649 49.4808C18.9745 49.5075 19.084 49.5342 19.1915 49.561C19.363 49.779 19.6048 49.8489 19.8652 49.8756C25.8504 49.89 31.8356 49.9044 37.8229 49.9167C38.2403 49.9167 38.6351 49.8201 38.9513 49.5219L38.9534 49.5198Z" fill="#10100F"/>
<path d="M18.8153 37.8016C19.2452 36.7713 20.2352 36.8453 21.0619 36.8001C22.6718 36.7137 24.2901 36.7754 25.9062 36.7754C29.618 36.7754 33.3299 36.763 37.0396 36.7877C37.6761 36.7918 38.416 36.6582 38.8376 37.38C38.2404 37.2031 37.6307 37.1887 37.0127 37.1908C31.7302 37.1949 26.4477 37.1949 21.1673 37.1867C20.5824 37.1867 20.0078 37.2134 19.4498 37.4026C19.3775 37.4499 19.3031 37.4972 19.2307 37.5445C19.1522 37.6268 19.0716 37.7111 18.9931 37.7934L19.0075 37.7707C18.9435 37.7851 18.8794 37.7975 18.8153 37.8037V37.8016Z" fill="#10100F"/>
<path d="M31.3995 5.49721C30.7196 5.49104 30.0376 5.48281 29.3576 5.47664C29.3535 5.10441 29.3473 4.73217 29.3473 4.35994C29.3473 3.00261 29.4072 2.96765 30.8023 3.07048C31.2239 3.10132 31.4285 3.23294 31.414 3.67099C31.3954 4.27973 31.4037 4.89053 31.3995 5.49927V5.49721Z" fill="#F65941"/>
<path d="M26.9912 6.18196C26.9747 5.19276 26.9127 4.19944 26.9561 3.2123C26.9892 2.48222 26.8176 2.19842 26.0034 2.20253C19.888 2.23955 13.7726 2.22721 7.65716 2.22926C7.52075 2.22926 7.38228 2.21898 7.24588 2.21281C7.26241 2.17168 7.27688 2.12849 7.28928 2.0853C7.52902 2.07091 7.76876 2.04212 8.0085 2.04212C14.2252 2.038 20.4418 2.03389 26.6564 2.03595C26.7908 2.03595 26.9251 2.0853 27.0594 2.10998C27.0863 3.46731 27.2103 4.82669 26.9871 6.17991L26.9912 6.18196Z" fill="#5494E8"/>
<path d="M19.4498 37.4005C20.0079 37.2113 20.5824 37.1846 21.1673 37.1846C26.4498 37.1928 31.7323 37.1928 37.0128 37.1887C37.6307 37.1887 38.2404 37.2031 38.8377 37.3779C38.8687 37.4293 38.9121 37.4437 38.9679 37.4231C39.1022 37.5445 39.2365 37.6637 39.3688 37.7851C37.9634 37.4745 36.5457 37.3285 35.101 37.3717C31.8873 37.4704 28.6715 37.3388 25.4536 37.4375C24.3686 37.4704 23.2443 37.6596 22.118 37.4046C21.0701 37.1661 20.0368 37.6679 18.991 37.7892C19.0696 37.7069 19.1502 37.6226 19.2287 37.5404C19.301 37.4931 19.3754 37.4458 19.4478 37.3985L19.4498 37.4005Z" fill="#FBF37A"/>
<path d="M39.6003 49.2586L40.5096 47.6997C40.7555 47.4529 40.7204 47.13 40.7204 46.8318C40.7266 44.6169 40.7266 42.402 40.7142 40.1871C40.7142 39.893 40.7783 39.5619 40.5034 39.3275C40.3505 38.9655 40.1975 38.6056 40.0446 38.2437C40.987 38.6035 41.0552 39.5002 41.0841 40.2488C41.1668 42.4616 41.1627 44.6807 41.0904 46.8935C41.0573 47.9012 40.6047 48.7876 39.6003 49.2586Z" fill="#10100F"/>
<path d="M13.7209 30.8791V20.3722C14.1384 21.0282 14.2128 29.8694 13.7209 30.8791Z" fill="#191918"/>
<path d="M27.0636 2.11411C26.9293 2.08738 26.7949 2.04008 26.6606 2.04008C20.4439 2.04008 14.2272 2.04008 8.01264 2.04625C7.77291 2.04625 7.53317 2.07298 7.29343 2.08943C7.17976 1.69252 7.50423 1.85704 7.63237 1.85704C13.8718 1.84882 20.1112 1.85087 26.3506 1.85293C26.6151 1.85293 26.9148 1.79123 27.0636 2.11411Z" fill="#10100F"/>
<path d="M18.5508 38.1718C17.7758 41.2134 18.3462 44.3065 18.185 47.3728C18.1643 47.7471 18.1891 48.1234 18.1933 48.4998L17.968 48.2797C17.8006 47.6175 17.784 46.943 17.782 46.2664C17.782 43.9939 17.7675 41.7193 17.7592 39.4468C17.7737 39.3522 17.7882 39.2597 17.8026 39.1651C17.937 38.9224 18.0734 38.6777 18.2077 38.435C18.3214 38.3486 18.4371 38.2622 18.5508 38.1738V38.1718Z" fill="#FBF37A"/>
<path d="M17.7634 39.4447C17.7717 41.7172 17.7841 43.9917 17.7861 46.2642C17.7861 46.9429 17.8027 47.6174 17.9721 48.2776C17.1992 47.9136 17.4575 47.1074 17.4265 46.583C17.3046 44.4092 17.3748 42.2251 17.3707 40.0431C17.3707 39.7532 17.3955 39.4899 17.7634 39.4426V39.4447Z" fill="#10100F"/>
<path d="M8.92407 17.8838C8.44253 16.9152 8.76494 15.8951 8.74427 14.8977C8.73807 14.5892 9.06254 14.5892 9.30021 14.5892C12.0717 14.5871 14.8431 14.5892 17.6125 14.5851C18.0672 14.5851 18.2036 14.8175 18.1953 15.2247C18.1829 15.8375 18.1871 16.4504 18.1829 17.0632C18.1437 17.0221 18.0982 16.9892 18.0465 16.9645C18.03 16.4195 17.9969 15.8725 18.0031 15.3275C18.0073 14.9511 17.8936 14.764 17.4803 14.7661C14.8059 14.7743 12.1295 14.7661 9.45522 14.7661C9.20308 14.7661 8.93234 14.7928 8.95301 15.1218C9.00674 15.9938 8.75253 16.8781 9.05634 17.7398C9.06667 17.7851 9.07701 17.8324 9.09148 17.8756C9.03567 17.8817 8.97987 17.8838 8.922 17.8838H8.92407Z" fill="#191918"/>
<path d="M14.5207 19.9198C14.5062 24.1255 14.498 28.3311 14.4608 32.5347C14.4587 32.8884 14.715 33.3594 14.1921 33.6062C14.3492 32.072 14.2458 30.5337 14.2603 28.9974C14.283 26.2622 14.2603 23.527 14.283 20.7918C14.2851 20.5059 14.033 20.0946 14.5207 19.9198Z" fill="#5494E8"/>
<path d="M12.268 33.3718C11.805 33.1517 12.0179 32.7281 12.0158 32.4052C11.9993 28.615 12.0055 24.8268 12.0034 21.0366C12.0034 20.6623 11.9786 20.2859 11.9662 19.9116C12.4809 20.1173 12.2163 20.5594 12.2184 20.8782C12.2494 25.0427 12.2556 29.2073 12.2659 33.3718H12.268Z" fill="#5494E8"/>
<path d="M3.30674 35.6895C3.30674 39.3686 3.31088 43.0499 3.31294 46.729C3.07734 46.437 3.11454 46.0833 3.11454 45.7522C3.11247 42.729 3.11867 39.7059 3.12901 36.6828C3.12901 36.3434 3.14347 36.002 3.30881 35.6895H3.30674Z" fill="#64B5D8"/>
<path d="M8.92407 17.8838C8.97987 17.8838 9.03567 17.8838 9.09354 17.8755C12.0035 17.8652 14.9113 17.8529 17.8213 17.8426L17.9039 17.8488L17.9825 17.8262V17.9002C17.8006 18.1141 17.5505 18.0771 17.3149 18.0771C14.7377 18.0771 12.1605 18.0771 9.58335 18.0771C9.34775 18.0771 9.09354 18.1203 8.92614 17.8838H8.92407Z" fill="#070706"/>
<path d="M9.09561 12.5121C12.1171 12.5121 15.1407 12.5121 18.1623 12.5121C18.0403 12.8946 17.7117 12.7486 17.472 12.7506C14.8762 12.7609 12.2804 12.7548 9.68462 12.7465C9.46762 12.7465 9.18655 12.8514 9.09561 12.5121Z" fill="#5494E8"/>
<path d="M19.8652 27.9178C19.2225 27.5044 19.1997 26.7497 19.0943 26.1553C18.9269 25.2072 19.0427 24.2098 19.0447 23.233C19.0447 22.9327 19.1956 22.725 19.4808 22.618C19.0695 24.4237 19.2452 26.1862 19.8652 27.9157V27.9178Z" fill="#5494E8"/>
<path d="M31.3996 5.49711C31.4037 4.88837 31.3954 4.27758 31.414 3.66884C31.4264 3.23079 31.2239 3.09917 30.8023 3.06832C29.4072 2.96549 29.3473 3.00045 29.3473 4.35778C29.3473 4.73002 29.3535 5.10225 29.3576 5.47449C29.308 5.49917 29.2584 5.51973 29.2068 5.53619C29.1758 4.71973 29.1468 3.90534 29.1158 3.08889C29.1964 3.00868 29.277 2.93053 29.3576 2.85033C29.8661 2.85033 30.3765 2.86883 30.8849 2.85033C31.3748 2.82976 31.6786 2.96755 31.6393 3.52282C31.5918 4.19326 31.7344 4.87192 31.5546 5.53824C31.5029 5.52796 31.4512 5.51356 31.4016 5.49506L31.3996 5.49711Z" fill="#AF6535"/>
<path d="M20.2662 35.0972C21.4401 34.7414 22.647 35.019 23.8333 34.9244C24.2301 34.8936 24.6662 35.0663 25.0113 34.7229C25.1911 34.8627 25.1767 34.9985 25.0051 35.1322L20.2682 35.0951L20.2662 35.0972Z" fill="#1FC2C3"/>
<path d="M31.5525 5.53834C31.7323 4.87201 31.5897 4.19335 31.6372 3.52291C31.6765 2.96559 31.3727 2.82985 30.8829 2.85042C30.3744 2.87098 29.866 2.85248 29.3556 2.85042C30.0272 2.48024 30.7485 2.72703 31.4471 2.69206C31.6269 2.68178 31.8005 2.81751 31.7839 3.00466C31.7095 3.84991 32.1229 4.74039 31.5504 5.54039L31.5525 5.53834Z" fill="#10100F"/>
<path d="M20.2662 35.0972C21.8452 35.1095 23.4241 35.1218 25.0031 35.1342C24.7076 35.4756 24.3066 35.346 23.9573 35.3275C22.6594 35.2535 21.345 35.5517 20.0616 35.1609L20.2641 35.0972H20.2662Z" fill="#070706"/>
<path d="M13.8656 33.3553C13.5742 32.763 13.5886 32.1687 13.8573 31.5743C14.1404 32.1666 14.1322 32.761 13.8656 33.3553Z" fill="#191918"/>
<path d="M29.1158 3.08899C29.1468 3.90544 29.1758 4.71984 29.2068 5.53629C28.7211 4.73629 28.8658 3.91572 29.1158 3.08899Z" fill="#10100F"/>
<path d="M19.1935 49.5588C19.084 49.5321 18.9745 49.5054 18.867 49.4786V49.4869C18.7885 49.4108 18.7079 49.3367 18.6273 49.2606C18.619 49.1516 18.5611 49.092 18.4516 49.0817C18.3937 49.0056 18.3359 48.9316 18.2801 48.8555C18.2491 48.73 18.2181 48.6067 18.1891 48.4812C18.6128 48.7588 18.9972 49.0735 19.1956 49.5588H19.1935Z" fill="#FBF37A"/>
<path d="M19.4664 22.6283C19.4622 22.1244 19.4581 21.6226 19.4539 21.1188C19.7433 21.6206 19.7578 22.1224 19.4664 22.6283Z" fill="#5494E8"/>
<path d="M39.3709 37.7872C39.2365 37.6658 39.1022 37.5465 38.9699 37.4252C39.3089 37.3902 39.6561 37.345 39.6395 37.855L39.3709 37.7872Z" fill="#10100F"/>
<path d="M18.2098 38.4329C18.0755 38.6755 17.9391 38.9203 17.8047 39.1629C17.8027 38.8442 17.689 38.4637 18.2098 38.4329Z" fill="#10100F"/>
<path d="M18.0486 16.9625C18.1002 16.9872 18.1457 17.0201 18.185 17.0612C18.1312 17.343 18.3069 17.6823 17.9804 17.9003V17.8263C18.0031 17.5384 18.0258 17.2504 18.0486 16.9625Z" fill="#A35629"/>
<path d="M18.5508 38.1717C18.4371 38.2581 18.3214 38.3465 18.2077 38.4329C18.1933 38.1635 18.3255 38.0236 18.5921 38.0051C18.5694 38.0689 18.557 38.1326 18.557 38.2005L18.5508 38.1717Z" fill="#10100F"/>
<path d="M20.169 28.4894C19.764 28.4627 19.8735 28.1665 19.8714 27.928C19.9706 28.1151 20.0698 28.3023 20.169 28.4894Z" fill="#64B5D8"/>
<path d="M18.278 48.8555C18.3359 48.9316 18.3937 49.0056 18.4495 49.0817C18.34 49.0755 18.2036 49.131 18.1602 48.9768C18.1519 48.9501 18.2367 48.8966 18.278 48.8555Z" fill="#10100F"/>
<path d="M40.0611 38.254C39.9847 38.1799 39.9061 38.1059 39.8297 38.0319C39.9537 38.0586 40.0301 38.1326 40.0611 38.254Z" fill="#10100F"/>
<path d="M18.557 38.2005C18.557 38.1347 18.5694 38.0689 18.5921 38.0051C18.6645 37.9969 18.7368 37.9887 18.8091 37.9805C18.7244 38.0545 18.6397 38.1265 18.557 38.2005Z" fill="#FBF37A"/>
<path d="M18.8154 37.8016C18.8794 37.7954 18.9435 37.7851 19.0076 37.7687C18.9972 37.9188 18.9125 37.9867 18.7678 37.9887C18.774 37.9229 18.7906 37.8612 18.8174 37.7995L18.8154 37.8016Z" fill="#FBF37A"/>
<path d="M39.377 49.4252C39.4556 49.3614 39.5362 49.2997 39.6147 49.236C39.6044 49.384 39.53 49.454 39.377 49.4252Z" fill="#10100F"/>
<path d="M18.6252 49.2627C18.7058 49.3388 18.7864 49.4128 18.867 49.4889C18.7389 49.4642 18.6583 49.3881 18.6252 49.2627Z" fill="#10100F"/>
<path d="M5.39206 22.3938C5.41893 22.4082 5.44579 22.4246 5.47059 22.439C5.44579 22.4226 5.41893 22.4082 5.39413 22.3917L5.39206 22.3938Z" fill="#070706"/>
<path d="M38.3354 16.6499C37.889 16.2385 37.4901 15.8704 37.0747 15.4879C37.3703 14.9409 37.8994 14.6098 38.29 14.1532C39.2186 14.8936 39.2345 15.7258 38.3375 16.6499H38.3354Z" fill="#15AFF4"/>
<path d="M32.9702 30.0546C32.9434 30.034 32.9062 30.0196 32.8896 29.9908C32.6106 29.5548 31.8005 29.3594 31.8708 28.9522C31.9534 28.4792 32.5404 28.0926 32.9082 27.6689C34.4231 28.9543 34.4231 28.9913 32.9702 30.0525V30.0546Z" fill="#15AFF4"/>
<path d="M34.6546 41.709C34.6464 42.4679 33.9375 43.163 33.2079 43.1322C32.4866 43.1013 31.8129 42.3712 31.817 41.6288C31.8212 40.8144 32.4205 40.2468 33.2617 40.2571C34.0243 40.2674 34.6629 40.9337 34.6546 41.7111V41.709Z" fill="#DE7802"/>
<path d="M25.6913 39.6607C26.3196 39.7306 26.8238 40.3331 26.7639 40.9439C26.704 41.5486 26.0468 42.0792 25.466 41.9907C24.8191 41.892 24.35 41.3223 24.4017 40.6992C24.4533 40.0884 25.0692 39.5928 25.6913 39.6607Z" fill="#A35629"/>
<path d="M36.8825 46.8421C36.8598 47.4097 36.2997 47.9712 35.7479 47.9773C35.1734 47.9835 34.5368 47.3583 34.5389 46.7928C34.541 46.1881 35.1258 45.6267 35.7458 45.6329C36.3679 45.639 36.9073 46.2108 36.8825 46.8421Z" fill="#A35629"/>
<path d="M30.6989 46.2827C30.6927 46.9367 30.143 47.4714 29.5085 47.4406C28.8926 47.4118 28.3243 46.8113 28.3491 46.221C28.3718 45.7069 28.9856 45.1084 29.5126 45.0858C30.0975 45.0611 30.7031 45.6719 30.6989 46.2807V46.2827Z" fill="#A35629"/>
<path d="M21.8989 46.0668C21.8782 45.421 22.3246 44.9049 22.9198 44.8863C23.4655 44.8699 24.0689 45.4252 24.1041 45.9743C24.1433 46.5686 23.5647 47.2041 22.9777 47.2123C22.4259 47.2205 21.9195 46.6817 21.8989 46.0668Z" fill="#A35629"/>
<path d="M38.9534 49.5197C38.6372 49.8179 38.2424 49.9167 37.825 49.9146C31.8398 49.9023 25.8546 49.8879 19.8673 49.8735C20.2063 49.6246 20.5969 49.7275 20.9647 49.7275C26.3527 49.7213 31.7426 49.7151 37.1306 49.7398C37.7588 49.7418 38.3251 49.4087 38.9534 49.5197Z" fill="#FBF37A"/>
<path d="M40.5034 39.3254C40.7804 39.5619 40.7122 39.893 40.7142 40.1851C40.7266 42.4 40.7266 44.6149 40.7204 46.8298C40.7204 47.128 40.7556 47.4509 40.5096 47.6977C40.5076 44.9069 40.5055 42.1162 40.5034 39.3254Z" fill="#FBF37A"/>
<path d="M18.0486 16.9625C18.0259 17.2504 18.0031 17.5383 17.9804 17.8263L17.9019 17.8489L17.8192 17.8427C17.8109 17.8016 17.8006 17.7625 17.7882 17.7234C17.7882 17.0386 17.7758 16.3538 17.7944 15.671C17.8068 15.2083 17.6477 14.9841 17.1454 14.9862C14.6695 14.9985 12.1915 14.9964 9.71562 14.9862C9.27127 14.9862 9.09974 15.1733 9.11007 15.6031C9.1266 16.288 9.11627 16.9728 9.11834 17.6576L9.06047 17.7399C8.75666 16.8782 9.01294 15.9939 8.95713 15.1219C8.93647 14.7928 9.20721 14.7661 9.45934 14.7661C12.1337 14.7661 14.8101 14.7743 17.4844 14.7661C17.8977 14.7661 18.0114 14.9512 18.0073 15.3276C18.0011 15.8725 18.0341 16.4196 18.0507 16.9646L18.0486 16.9625Z" fill="#C18A65"/>
<path d="M17.7882 17.7234C17.8027 17.7625 17.813 17.8016 17.8192 17.8427C14.9093 17.853 12.0014 17.8653 9.09147 17.8756C9.077 17.8303 9.06667 17.7851 9.05634 17.7399L9.1142 17.6576C12.0055 17.6802 14.8948 17.7008 17.7861 17.7234H17.7882Z" fill="#A35629"/>
<path d="M17.7882 17.7234C14.8969 17.7008 12.0076 17.6802 9.11628 17.6576C9.11628 16.9727 9.12454 16.2879 9.10801 15.6031C9.09767 15.1732 9.27128 14.984 9.71355 14.9861C12.1895 14.9943 14.6675 14.9984 17.1434 14.9861C17.6456 14.984 17.8047 15.2062 17.7923 15.6709C17.7737 16.3558 17.7861 17.0406 17.7861 17.7234H17.7882Z" fill="#F65941"/>
</g>
<defs>
<clipPath id="clip0_41_1541">
<rect width="43" height="52" fill="white"/>
</clipPath>
</defs>
</svg>
