<svg width="87" height="60" viewBox="0 0 87 60" fill="none" xmlns="http://www.w3.org/2000/svg">
<g clip-path="url(#clip0_35_1277)">
<path d="M83.2207 28.6271C82.9201 28.5077 82.4992 28.2774 82.2673 28.1325C81.812 27.834 80.8415 26.896 80.6869 26.6231C80.5924 26.4355 80.5838 26.4355 80.266 26.6316C80.0856 26.7339 79.6733 26.8789 79.3298 26.9301C77.0966 27.3223 76.9334 27.3309 73.2057 27.3564C69.5982 27.382 68.4301 27.3309 65.9049 27.0409C65.441 26.9812 64.8226 26.9215 64.5392 26.8789C62.2888 26.6231 58.9047 25.7106 55.0223 24.3121C54.4297 24.0989 53.8542 23.8943 53.7511 23.8601C53.6481 23.8346 53.4763 23.7578 53.3732 23.6896C53.2701 23.6214 52.5744 23.2973 51.8186 22.9733C51.0627 22.6407 49.8345 22.0438 49.0614 21.6515C48.297 21.2678 47.4467 20.884 47.189 20.7987C46.9227 20.722 46.6135 20.6026 46.5104 20.5344C46.3988 20.4576 46.227 20.3809 46.1239 20.3553C46.0209 20.3212 45.3853 20.0995 44.7067 19.8607C43.5729 19.4599 42.1214 18.9909 39.9998 18.3172C38.4709 17.8397 36.3666 17.311 35.1985 17.1063C33.661 16.8505 32.991 16.7823 31.1444 16.6629C28.3443 16.5008 25.1577 16.6202 22.9932 16.9528C22.1343 17.0892 21.1809 17.2342 20.8717 17.2769C20.3048 17.3536 18.6814 17.7203 18.5612 17.7885C18.5268 17.8141 17.8826 17.9591 17.1354 18.1126C13.9144 18.7777 13.9917 18.7521 14.0604 19.2126C14.1549 19.7754 13.8285 20.722 13.3389 21.2592C13.1156 21.5151 12.7721 21.7965 12.5917 21.8988C12.2825 22.0608 12.2567 22.112 12.1622 22.7686C12.0334 23.6299 11.8874 25.2842 11.8273 26.8107C11.8015 27.4588 11.7328 28.3798 11.6984 28.8658C11.6211 29.7271 11.6555 40.1393 11.7242 41.444C11.7414 41.8022 11.7929 42.996 11.8273 44.079C11.8874 45.6993 11.9217 46.0745 12.0248 46.0745C12.3082 46.0745 13.3561 46.6288 13.6739 46.9443C13.8629 47.1234 14.1635 47.5668 14.3439 47.9249L14.6703 48.5816L15.1341 48.411C17.0495 47.7373 17.7796 47.5412 19.695 47.1404C22.1515 46.6373 22.7269 46.552 26.051 46.2109C27.7173 46.0404 33.5407 45.9636 35.1899 46.1C36.4095 46.1939 38.3593 46.4241 38.9605 46.552C41.5459 47.0892 43.1435 47.5497 45.2736 48.3684C45.6429 48.5048 46.1067 48.6754 46.3129 48.7436C46.519 48.8118 46.9055 48.9568 47.1632 49.0676C47.4295 49.1785 47.8246 49.3405 48.0565 49.4173C48.2884 49.494 48.7007 49.6646 48.9498 49.784C49.216 49.8948 49.7228 50.108 50.0835 50.2444C50.4529 50.3809 50.7879 50.5259 50.8394 50.5685C50.8995 50.6026 51.3376 50.8158 51.8272 51.029C52.3167 51.2336 53.2959 51.6856 53.9916 52.0182C54.6874 52.3678 55.4346 52.7089 55.6408 52.8112C55.8469 52.9051 56.388 53.1438 56.8261 53.3655C57.2727 53.5787 57.685 53.7493 57.7365 53.7493C57.8052 53.7493 57.9255 53.7834 58.02 53.8346C58.4666 54.0477 59.0936 54.3121 59.1967 54.3121C59.2568 54.3206 59.4801 54.3974 59.6863 54.4997C59.8924 54.602 60.1329 54.6788 60.2102 54.6873C60.2961 54.6873 60.5624 54.7726 60.7857 54.8749C61.0176 54.9772 61.4385 55.0966 61.7219 55.1563C62.0054 55.216 62.3833 55.3184 62.5637 55.3866C62.744 55.4633 63.2336 55.5827 63.6459 55.668C64.0582 55.7447 64.6508 55.8726 64.9686 55.9494C65.4926 56.0688 66.1539 56.1626 67.9405 56.3672C70.9811 56.7254 74.7174 56.6828 77.9727 56.2649C78.6598 56.1711 80.0942 55.8641 80.1286 55.7874C80.1372 55.7703 80.2918 55.4718 80.4635 55.1137C80.8587 54.3377 81.7262 53.4167 82.4219 53.05L82.9115 52.7857V52.1717C82.9372 51.4639 82.9286 51.498 83.1262 49.3576C83.3152 47.3195 83.3839 45.8783 83.4268 42.7146C83.444 41.3502 83.4955 38.6981 83.5213 36.8221C83.59 32.0807 83.6587 29.1302 83.7188 28.9511C83.7446 28.8488 83.6072 28.7464 83.2207 28.5844V28.6271ZM25.9479 31.9528C25.6301 33.5048 24.1098 34.8778 22.7269 34.9033C21.911 34.9033 20.8974 34.5111 20.3391 33.9568C20.1845 33.8033 19.9097 33.3599 19.7121 32.9591C19.3857 32.2939 19.3514 32.1831 19.3514 31.4412C19.36 30.2729 19.5747 29.6674 20.2361 28.9767C20.803 28.3798 21.0005 28.2689 21.6619 28.1495C22.2116 28.0642 23.2509 28.141 23.5 28.2859C23.603 28.3542 23.8607 28.448 24.0754 28.5077C25.2693 28.8573 26.2313 30.614 25.9479 31.9443V31.9528ZM57.2899 38.357C57.0923 39.0648 56.2764 40.7959 55.7352 41.606C54.7303 43.158 53.1413 44.6674 51.8615 45.2985C51.5523 45.4605 51.0885 45.7163 50.8222 45.8869C50.5645 46.0489 50.178 46.2194 49.9719 46.2791C49.7657 46.3388 49.216 46.4923 48.7436 46.6288C47.481 47.004 45.4711 47.0551 44.0024 46.7908C43.4097 46.6799 42.7999 46.5264 42.6367 46.4582C42.4649 46.39 42.1471 46.2621 41.9152 46.1768C41.6833 46.083 41.3397 45.9295 41.1508 45.8442C40.9618 45.7419 40.6956 45.614 40.5667 45.5458C40.4465 45.4775 40.1888 45.3155 40.017 45.1705C39.8366 45.0426 39.4587 44.7442 39.1753 44.5224C38.4194 43.934 37.4832 42.9107 36.9592 42.1177C36.4954 41.4099 35.5936 39.5935 35.5936 39.3888C35.5936 39.3206 35.5592 39.1416 35.5077 38.9881C35.104 37.6663 34.9064 36.2678 34.9837 35.2359C35.061 34.17 35.1985 33.1296 35.3617 32.5242C35.439 32.2342 35.4991 31.9358 35.4991 31.859C35.4991 31.7737 35.5592 31.5776 35.6279 31.4156C35.7052 31.245 35.8255 30.8783 35.92 30.6055C36.1776 29.7697 37.2083 28.0983 38.0758 27.1091C39.1066 25.9494 40.3863 24.9005 41.314 24.4827C41.5029 24.3888 41.9152 24.2012 42.2244 24.0648C43.0404 23.6896 43.9165 23.4252 45.1963 23.1865C45.6172 23.1097 48.2455 23.195 48.7265 23.3058C50.0835 23.6299 51.7069 24.2439 52.4026 24.6958C55.1254 26.4952 56.912 29.1728 57.6163 32.5242C57.9341 34.008 57.7881 36.5151 57.2641 38.3741L57.2899 38.357ZM73.0167 40.9494C72.759 41.6316 72.6474 41.7936 72.0633 42.3223C71.2302 43.0813 70.7062 43.2774 69.6755 43.1921C67.992 43.0557 66.4546 41.5207 66.4717 39.9943C66.4803 39.1501 66.6521 38.6981 67.2104 38.05C67.7601 37.4105 68.4043 36.967 68.9454 36.8562C69.1344 36.8221 69.6497 36.7879 70.0964 36.7965C70.7749 36.8135 70.9725 36.8562 71.4191 37.0864C72.4069 37.5895 73.1971 38.7066 73.283 39.7044C73.3087 40.0796 73.2572 40.3439 73.0167 40.9494Z" fill="#B2C786"/>
<path d="M70.7321 37.8624C70.1051 37.5469 69.7958 37.5554 68.9197 37.9307C68.3958 38.1609 67.6657 38.9369 67.5369 39.4059C67.2277 40.5657 68.224 41.8022 69.6842 42.0495C70.3284 42.1518 70.8094 41.9557 71.4192 41.3587C71.9431 40.8215 72.1665 40.3951 72.1665 39.8494C72.1665 39.0904 71.5824 38.2888 70.7321 37.8539V37.8624Z" fill="#83965A"/>
<path d="M56.577 33.8715C56.5083 32.5923 56.4482 32.2512 56.0788 31.1682C55.5205 29.5139 54.9107 28.4906 53.7254 27.2541C53.0039 26.4951 51.6898 25.4548 51.4579 25.4462C51.3891 25.4462 51.1315 25.3439 50.8824 25.216C50.1008 24.8237 49.448 24.6105 48.486 24.4229C47.1289 24.15 45.9608 24.2012 44.1828 24.602C43.0576 24.8493 40.9361 25.8982 40.6269 26.3502C40.5496 26.4695 40.4036 26.5975 40.3091 26.623C40.0514 26.7083 38.6771 28.0983 38.2648 28.7123C36.2464 31.6287 35.6451 34.6645 36.4268 37.9903C36.8305 39.7214 37.844 41.623 38.9778 42.7998C39.7851 43.6355 41.7263 44.9914 42.13 45C42.2159 45.0085 42.3619 45.0426 42.4564 45.1023C42.9975 45.4093 45.1362 45.8442 46.124 45.8527C47.2835 45.8527 49.5596 45.2899 50.4357 44.7868C50.6419 44.6589 51.0542 44.4286 51.3376 44.2751C52.5315 43.627 54.2837 41.8106 55.0653 40.4292C55.4776 39.6873 55.9414 38.6043 56.1561 37.905C56.3279 37.3166 56.7144 34.9204 56.6457 34.818C56.6286 34.7925 56.5856 34.3661 56.5598 33.88L56.577 33.8715Z" fill="#83965A"/>
<path d="M8.45174 35.2188C8.33149 35.2444 8.06523 35.2956 7.85908 35.3211C7.30079 35.4064 6.19278 35.6537 5.97805 35.739C5.87498 35.7816 5.65166 35.8499 5.48847 35.8754C5.31668 35.9095 5.17925 35.9778 5.17925 36.0289C5.17925 36.1483 4.67249 36.1313 4.5093 35.9948C4.43199 35.9351 4.25162 35.7049 4.11419 35.4917C3.82216 35.0397 3.16079 34.6645 2.47366 34.5707C1.69204 34.4599 1.40001 34.1443 1.73499 33.7777C1.86382 33.6412 1.86382 33.3086 1.8037 31.245C1.76934 29.9317 1.73499 28.6782 1.73499 28.4479C1.74357 28.2177 1.76075 26.2137 1.77793 24.0051C1.78652 21.7879 1.83806 19.2211 1.881 18.3001C1.94113 17.3706 1.99266 16.2023 2.01843 15.7077C2.05279 14.8464 2.18162 13.3797 2.28469 12.4502C2.30187 12.22 2.35341 11.5633 2.38776 11.0005C2.45648 9.95162 2.58532 9.20119 2.72274 9.03917C2.76569 8.99653 2.80864 8.86862 2.80864 8.77482C2.80864 8.67248 3.01478 8.38255 3.27245 8.10966C3.53872 7.84531 3.84793 7.50421 3.97677 7.34218C4.27739 6.96697 4.78415 5.91808 4.78415 5.66225C4.78415 5.38084 5.05042 4.66453 5.18784 4.57925C5.25656 4.54514 5.43693 4.5025 5.58295 4.5025C5.74614 4.5025 5.90934 4.46839 5.96087 4.41723C6.08112 4.30637 7.26643 3.95674 8.27137 3.74355C10.3414 3.30011 10.2555 3.3257 12.3684 3.00165C13.0384 2.89932 14.1979 2.73729 14.7219 2.6776C14.928 2.65202 15.6237 2.55822 16.2765 2.47294C17.9514 2.25975 19.6349 2.20006 21.5503 2.29386C22.6153 2.35355 25.2522 2.60938 25.4326 2.6776C25.5099 2.70318 25.7332 2.75435 25.9394 2.76288C26.4976 2.82257 27.3308 2.96754 28.3357 3.18073C28.8253 3.29159 29.6327 3.47067 30.1223 3.573C30.6119 3.67533 31.3162 3.84588 31.6769 3.94821C32.0463 4.05907 32.6905 4.24667 33.1371 4.36606C33.5837 4.48545 34.0218 4.63042 34.1249 4.67305C34.2279 4.71569 34.4856 4.80949 34.6917 4.89477C34.8979 4.97152 35.3703 5.1506 35.731 5.28704C36.1004 5.42348 36.59 5.61961 36.8305 5.70489C37.0624 5.79869 37.3716 5.93513 37.4832 6.02041C37.6035 6.10569 37.7667 6.17391 37.844 6.17391C37.9213 6.17391 38.2906 6.3274 38.6771 6.49795C39.0551 6.67703 39.4673 6.84758 39.5962 6.88169C39.725 6.90728 39.8624 6.9755 39.8882 7.01814C39.914 7.06077 39.9999 7.10341 40.0858 7.10341C40.1717 7.10341 40.4895 7.2228 40.8073 7.37629C41.1251 7.52979 41.6576 7.75151 41.9926 7.87942C42.3275 7.99881 43.2638 8.36549 44.0712 8.68101C45.7031 9.32058 49.4394 10.5571 49.7228 10.5571C49.8173 10.5571 50.0836 10.6168 50.2983 10.685C50.6934 10.8044 51.2174 10.9323 52.772 11.2563C53.1843 11.3501 53.7769 11.4781 54.0947 11.5548C54.404 11.6401 54.9365 11.7509 55.2715 11.8192C55.6064 11.8874 56.3709 12.0409 56.9635 12.1773C57.5562 12.3138 58.5354 12.4673 59.128 12.5269C60.6483 12.6634 64.2644 12.7231 65.4411 12.6208C65.9908 12.5781 66.9012 12.5184 67.4681 12.4928C69.2117 12.4161 70.9382 12.2455 71.3333 12.1091C71.5394 12.0409 72.0805 11.9556 72.5186 11.9215L73.3345 11.8618L73.6438 12.2626C74.2879 13.0983 74.6315 13.3882 75.5248 13.8317C76.5727 14.3518 76.7187 14.4968 76.5727 14.8038C76.4438 15.1023 76.3751 16.2194 76.315 19.349C76.2892 20.8157 76.2205 22.4957 76.1604 23.0756C76.1003 23.6554 76.0745 24.1586 76.1175 24.1927C76.1432 24.2268 76.3751 24.2097 76.6242 24.1671L77.0709 24.0818V21.9755C77.0623 18.3939 76.9334 10.7276 76.8733 10.6338C76.8475 10.5912 76.8132 10.4036 76.8132 10.216C76.8132 9.92604 76.796 9.90045 76.607 9.94309C76.504 9.9772 76.2549 10.0284 76.0831 10.054C75.9027 10.0881 75.3444 10.233 74.8548 10.378C73.8499 10.6765 72.6045 10.9408 70.5688 11.2904C70.2596 11.3331 69.8989 11.4013 69.77 11.4269C69.289 11.5292 67.4424 11.7765 66.7982 11.8192C65.7675 11.8959 61.5244 11.913 60.5796 11.8362C58.6556 11.6998 56.3108 11.3331 54.5929 10.9152C54.0432 10.7788 52.0247 10.1989 51.7155 10.0881C51.5609 10.0284 51.0971 9.8834 50.6762 9.74696C49.8431 9.49113 48.2111 8.91126 47.9363 8.77482C47.5841 8.59574 45.9522 7.85384 45.0761 7.49568C44.7411 7.35924 44.1399 7.09488 43.7533 6.90728C43.3668 6.7282 42.8601 6.50648 42.6196 6.42121C42.3877 6.33593 42.0183 6.17391 41.8122 6.06305C41.5975 5.96072 41.2195 5.78164 40.9619 5.67931C40.7042 5.5855 40.1459 5.35526 39.6992 5.16765C39.2698 4.98005 38.8575 4.83508 38.806 4.83508C38.7544 4.83508 38.5569 4.75833 38.3851 4.656C38.2047 4.56219 37.8869 4.43428 37.6808 4.36606C37.4746 4.29784 37.071 4.15287 36.7875 4.04201C36.5041 3.92263 35.9458 3.73502 35.5593 3.62416C35.1727 3.5133 34.7261 3.35981 34.5715 3.30011C34.4169 3.22337 33.996 3.10398 33.6267 3.0187C33.2659 2.94196 32.8193 2.82257 32.6389 2.74582C32.4586 2.6776 31.969 2.54969 31.5567 2.46441C30.0879 2.16595 29.4781 2.03803 29.0572 1.94423C28.6793 1.85895 27.0044 1.62018 26.1369 1.53491C25.9565 1.51785 25.6559 1.46669 25.4755 1.4411C25.2952 1.41552 24.6853 1.33877 24.1098 1.27908C22.9847 1.17675 19.7036 1.06589 19.6349 1.14264C19.6091 1.15969 18.7244 1.21086 17.6594 1.23644C16.5943 1.27055 15.4777 1.33877 15.1599 1.38994C14.8507 1.43258 14.3611 1.5008 14.0777 1.51785C13.2102 1.5946 11.7242 1.83337 10.8309 2.05509C9.68858 2.32797 6.92286 3.06134 6.68236 3.15515C6.57929 3.18926 5.98664 3.38539 5.37681 3.59858C4.75838 3.79471 3.82216 4.17845 3.30681 4.43428L2.35341 4.91183L2.28469 5.37231C2.15586 6.3274 1.83806 9.32911 1.78652 10.1392C1.67486 11.9471 1.53743 13.7293 1.46013 14.6333C1.41719 15.1449 1.34847 16.2023 1.3227 16.9783C1.28835 17.7543 1.22822 18.9312 1.19387 19.5963C1.12515 20.739 1.15092 30.1108 1.21104 30.9039C1.22822 31.1085 1.27976 32.6435 1.31412 34.3149C1.39142 37.8112 1.43436 38.6213 1.59756 38.6213C1.65768 38.6213 1.91536 38.4678 2.17303 38.2887C2.4393 38.1011 2.98042 37.7941 3.40129 37.598C4.16573 37.2398 6.8112 36.353 7.99651 36.0545L8.62352 35.8925V35.5258C8.62352 35.1932 8.60635 35.1591 8.41738 35.2018L8.45174 35.2188Z" fill="#83965A"/>
<path d="M85.5227 23.8857C85.5227 23.5957 85.5056 23.5702 85.3166 23.6128C85.2135 23.6469 84.9644 23.6981 84.7926 23.7236C84.6123 23.7578 84.054 23.9027 83.5644 24.0477C82.5595 24.3462 81.314 24.6105 79.2784 24.9687C78.9692 25.0113 78.6084 25.0795 78.4796 25.1051C77.9986 25.2074 76.1519 25.4547 75.5077 25.4974C74.477 25.5741 70.234 25.5912 69.2891 25.5144C67.9406 25.4121 65.6387 25.1136 65.0461 24.9516C64.8399 24.8919 64.3761 24.7981 64.0068 24.7384C63.646 24.6617 63.2338 24.5849 63.0963 24.5593C62.7785 24.4826 60.803 23.9027 60.4337 23.7748C60.2791 23.7066 59.8153 23.5702 59.3944 23.4422C58.5612 23.1864 56.9293 22.6065 56.6544 22.4701C56.4741 22.3763 55.8041 22.0693 55.0139 21.7197C54.782 21.6173 54.3182 21.4127 53.9746 21.2507C53.6396 21.0972 53.2617 20.9437 53.1243 20.901C52.9954 20.8669 52.6175 20.6964 52.2739 20.5258C51.939 20.3553 51.5095 20.1676 51.3291 20.108C51.1488 20.0397 50.7451 19.8777 50.4358 19.7242C49.6285 19.3319 47.6444 18.5133 47.5241 18.5133C47.464 18.5133 47.2664 18.4366 47.0947 18.3342C46.9143 18.2404 46.5965 18.1125 46.3903 18.0443C46.1842 17.9761 45.7805 17.8311 45.4971 17.7202C45.2136 17.6009 44.6553 17.4132 44.2688 17.3024C43.8823 17.1915 43.4356 17.038 43.281 16.9783C43.1264 16.9016 42.7056 16.7822 42.3362 16.6969C41.9755 16.6202 41.5288 16.5008 41.3485 16.424C41.1681 16.3558 40.6785 16.2279 40.2662 16.1426C38.514 15.7845 38.1705 15.7163 37.8011 15.6225C37.4747 15.5457 35.5336 15.2728 34.8035 15.2046C34.7004 15.1961 34.4428 15.162 34.2366 15.1279C34.0305 15.0937 33.3949 15.017 32.8194 14.9573C31.7114 14.855 28.4131 14.7441 28.3444 14.8209C28.3187 14.8379 27.434 14.8891 26.3689 14.9147C25.3038 14.9488 24.1873 15.017 23.8695 15.0682C23.5602 15.1108 23.0707 15.179 22.7872 15.1961C21.9197 15.2728 20.4338 15.5116 19.5405 15.7333C18.3981 16.0062 15.6324 16.7396 15.3919 16.8334C15.2888 16.8675 14.6962 17.0636 14.0864 17.2768C13.4679 17.4729 12.5317 17.8567 12.0164 18.1125L11.063 18.59L10.9942 19.0505C10.8654 19.98 10.5476 22.9988 10.5047 23.7748C10.3758 25.7958 10.247 27.5014 10.2126 27.8425C10.1869 28.0471 10.1181 29.0619 10.0752 30.0852C10.0151 31.1171 9.93777 32.5241 9.89482 33.2148C9.81752 34.4343 9.8347 43.9084 9.912 44.6759C9.93777 44.8806 9.98072 46.3985 10.0151 48.0443C10.0924 51.498 10.1353 52.2995 10.2985 52.2995C10.3586 52.2995 10.6163 52.146 10.874 51.967C11.8102 51.3018 13.863 50.5173 16.9551 49.6475C19.1196 49.0335 21.4387 48.5986 23.7406 48.3854C26.4462 48.121 31.239 48.0358 32.0636 48.2319C32.1752 48.2575 32.5703 48.3001 32.9311 48.3172C34.3311 48.3939 35.817 48.573 37.2428 48.8544C37.5005 48.897 37.8097 48.9397 37.9472 48.9397C38.076 48.9397 38.3594 48.9994 38.5828 49.0676C38.7889 49.1443 39.3987 49.2893 39.9484 49.4002C40.4981 49.511 41.2798 49.6986 41.692 49.818C44.9645 50.7987 46.2443 51.2251 46.6738 51.4638C46.7768 51.5235 47.1204 51.6685 47.4296 51.7794C48.4432 52.1631 49.5855 52.6321 50.5475 53.067C51.0629 53.2973 51.5954 53.519 51.7242 53.5531C51.8445 53.5872 52.231 53.7663 52.5831 53.9368C52.9353 54.1159 53.2445 54.2524 53.2789 54.2524C53.3562 54.2524 53.5709 54.3462 54.9709 54.9857C55.5464 55.2501 56.1133 55.4803 56.2421 55.523C56.371 55.5571 56.5771 55.6509 56.7146 55.7362C57.0238 55.9323 58.6729 56.5122 60.4852 57.0579C60.8202 57.1603 61.3699 57.3308 61.7135 57.4331C62.4779 57.6634 63.646 57.9448 64.4448 58.0983C64.7798 58.158 65.2436 58.2518 65.4841 58.303C65.716 58.3456 66.2314 58.4309 66.6179 58.482C67.0044 58.5247 67.6228 58.6099 67.9836 58.6696C69.7014 58.934 75.3617 58.8658 76.5127 58.5673C76.693 58.5247 77.0881 58.4564 77.3802 58.4309C77.6722 58.4053 78.0244 58.3456 78.1446 58.303C78.2735 58.2433 78.5483 58.2091 78.7544 58.2177C78.9606 58.2177 79.1753 58.2006 79.2268 58.158C79.287 58.1324 79.9483 57.9704 80.7214 57.8254C82.1987 57.5269 83.0319 57.3223 83.2294 57.2029C83.2895 57.1688 83.5987 57.092 83.8994 57.0323L84.4663 56.93L84.638 56.0943C84.7239 55.6253 84.8442 54.9346 84.8957 54.5508C85.497 49.8521 85.5485 49.4684 85.6773 47.0636C85.8577 43.8743 85.789 24.6105 85.6 24.312C85.5743 24.2694 85.5399 24.0818 85.5399 23.8942L85.5227 23.8857ZM84.5865 29.8464C84.7239 32.038 84.5092 45.1961 84.2773 48.7862C84.1742 50.3211 83.9509 52.2825 83.8135 52.8112C83.6932 53.2717 83.5987 53.4252 83.2724 53.6981C82.4822 54.3547 81.984 54.9346 81.5373 55.685C81.2883 56.1114 81.0306 56.5463 80.9705 56.6571C80.7729 56.9641 79.0121 57.3905 77.509 57.4843C77.1053 57.5099 76.4096 57.5866 75.9544 57.6463C74.7089 57.8169 69.7186 57.7828 68.4732 57.6037C67.9321 57.5184 67.2363 57.4331 66.9271 57.4161C66.4289 57.3734 65.5443 57.2114 63.2252 56.7509C62.8387 56.6742 62.392 56.5548 62.2374 56.4781C62.0656 56.4013 61.6448 56.2734 61.284 56.1881C60.9233 56.1028 60.5367 55.9749 60.4337 55.9067C60.322 55.8385 60.1331 55.7532 60.0042 55.7191C59.7551 55.6509 58.9306 55.3524 58.4496 55.1563C58.295 55.0881 57.8741 54.909 57.5048 54.764C57.144 54.602 56.7231 54.457 56.5685 54.4144C56.4139 54.3803 56.182 54.2609 56.0618 54.1586C55.9329 54.0647 55.7697 53.9795 55.6924 53.9795C55.6065 53.9795 55.2887 53.8601 54.9709 53.7066C54.6617 53.5701 54.1378 53.3228 53.8286 53.1864C53.5194 53.05 52.9267 52.7771 52.5058 52.581C51.6297 52.1631 50.5217 51.6514 50.2469 51.5491C50.1438 51.5065 49.869 51.3871 49.6371 51.2848C49.4051 51.191 48.8984 50.9692 48.5119 50.8072C48.1254 50.6367 47.6186 50.4405 47.3781 50.3553C46.3044 49.9971 44.3805 49.2808 44.1486 49.1614C44.0197 49.0846 43.8479 49.025 43.7792 49.025C43.7019 49.025 43.3755 48.9226 43.032 48.8032C42.2761 48.5304 41.2969 48.2404 40.4896 48.0528C40.146 47.9761 39.519 47.8311 39.0723 47.7288C36.2894 47.0807 30.3199 46.8931 25.8793 47.3109C25.0805 47.3962 24.2646 47.4729 24.0756 47.4815C23.4572 47.5412 22.7013 47.6605 21.8252 47.814C18.9135 48.3683 18.1405 48.5474 16.1735 49.1273C15.8386 49.2296 15.3747 49.3319 15.1342 49.3575C14.9023 49.3916 14.6275 49.4599 14.5158 49.5196C14.1121 49.7157 13.906 49.5878 13.4593 48.8459C12.8409 47.797 12.798 47.7629 11.4151 47.1063L11.0372 46.9272L10.9685 46.0829C10.6593 41.785 10.5734 30.1875 10.8396 26.3928C10.9255 25.1307 11.0544 23.6981 11.1403 23.212C11.2262 22.7259 11.3035 22.2143 11.312 22.0778C11.3292 21.8561 12.2654 20.6878 12.4115 20.6878C12.5747 20.6878 12.8839 19.801 12.9612 19.1443C13.0556 18.3683 13.1244 18.2489 13.4593 18.2063C13.5796 18.1893 13.9146 18.0784 14.198 17.942C14.4815 17.8226 15.306 17.5753 16.0361 17.4218C16.7576 17.2512 18.0546 16.9528 18.9135 16.7566C19.7724 16.5605 20.6399 16.3729 20.8461 16.3388C21.0522 16.3132 21.4731 16.245 21.7909 16.1853C23.2768 15.938 23.6805 15.8868 25.0376 15.7845C27.8978 15.5542 31.9175 15.6139 34.0391 15.9209C35.0268 16.0744 36.6759 16.3814 37.5263 16.5861C37.9386 16.6884 38.4281 16.7993 38.6085 16.8504C38.7889 16.8845 39.3472 17.0551 39.8368 17.2171C40.3264 17.3791 41.0049 17.5838 41.3485 17.6605C41.6835 17.7458 42.1215 17.8908 42.3105 17.9846C42.508 18.0869 42.7142 18.1637 42.7829 18.1637C42.9461 18.1637 45.6603 19.1273 46.7253 19.5537C46.9572 19.656 47.3351 19.8095 47.5756 19.8862C47.8076 19.98 48.8468 20.4661 49.8861 20.9607C52.3083 22.1375 52.9954 22.4616 53.1329 22.4616C53.2016 22.4616 53.3562 22.5468 53.5108 22.6492C53.6482 22.7515 54.2752 23.0073 54.8851 23.2205C55.5035 23.4337 56.182 23.6895 56.4053 23.7833C56.6201 23.8857 56.8692 23.9624 56.9465 23.9624C57.0238 23.9624 57.2814 24.0477 57.5391 24.1586C57.9342 24.3376 59.2054 24.7384 60.6312 25.1392C61.2067 25.3012 63.8092 25.8385 64.2559 25.8982C64.4362 25.9152 65.0976 25.992 65.716 26.0687C68.456 26.3928 69.0315 26.4354 72.596 26.4354C75.628 26.4354 76.4697 26.4013 77.3973 26.2649C78.8317 26.0517 79.4588 25.8982 79.9569 25.6594C80.2747 25.4974 80.4207 25.4803 80.7729 25.5485C81.1337 25.6168 81.314 25.7362 81.9239 26.3331C82.6883 27.092 83.4012 27.6037 83.9423 27.7913C84.1227 27.851 84.3546 27.9619 84.4834 28.0386C84.7068 28.1921 84.7755 28.5332 84.6037 28.7037C84.5436 28.7634 84.535 29.1898 84.5865 29.8635V29.8464Z" fill="#83965A"/>
<path d="M41.8293 10.9494C41.7005 10.8897 41.5115 10.8129 41.4084 10.7618C41.3054 10.7191 40.8931 10.5656 40.4894 10.4377C39.8194 10.2245 39.5789 10.1904 37.9899 10.1563C37.0022 10.1392 36.023 10.1563 35.7567 10.216C34.6745 10.4292 32.9309 11.0091 32.364 11.3502C32.2094 11.444 31.9088 11.5975 31.7026 11.6998C31.1615 11.9471 29.4694 13.4991 29.5983 13.627C29.6155 13.6441 30.2167 13.6867 30.9382 13.7123C31.6511 13.7464 32.3296 13.789 32.4499 13.8146C32.553 13.8402 32.9481 13.8828 33.3088 13.8999C34.7089 13.9766 36.1948 14.1557 37.6206 14.4371C37.8783 14.4798 38.1875 14.5224 38.3249 14.5224C38.4537 14.5224 38.7372 14.5821 38.9605 14.6503C39.1667 14.7271 39.7765 14.872 40.3262 14.9744C40.8759 15.0852 41.5287 15.2473 41.7864 15.3325C42.0526 15.4178 42.5937 15.5798 43.0146 15.6992C44.0711 15.9892 45.7202 16.5264 46.4932 16.8163L47.1374 17.0636L47.0945 16.8504C46.8368 15.776 45.9006 14.3092 44.6981 13.0813C43.9079 12.2882 42.5164 11.2478 41.8465 10.9749L41.8293 10.9494Z" fill="#83965A"/>
<path d="M10.9685 17.7459C11.9649 16.9528 13.9232 16.1683 17.3245 15.2132C20.5283 14.3093 24.3505 13.7635 27.6574 13.755H28.2328L28.5163 13.2604C28.8255 12.7146 30.0108 11.4866 30.6378 11.0517C31.1016 10.7447 33.163 9.72995 33.352 9.72995C33.4293 9.72142 33.6526 9.6532 33.8588 9.57646C35.2846 9.0648 37.9214 8.84308 39.6049 9.11597C40.1804 9.20977 40.7559 9.33768 40.8933 9.4059C41.0307 9.48265 41.2197 9.53382 41.3142 9.53382C41.4087 9.53382 41.7608 9.68731 42.0958 9.85787C42.4308 10.0369 42.7743 10.216 42.8516 10.2501C43.4615 10.5315 44.7756 11.5463 45.626 12.3991C46.4677 13.2433 47.026 13.9852 47.4898 14.8806C48.0911 16.0404 48.1426 16.1512 48.3058 16.9102L48.469 17.6094L48.9414 17.7885C49.1991 17.8908 49.9549 18.2149 50.6249 18.5048C51.3034 18.8033 51.9562 19.0762 52.085 19.1103C52.2053 19.1444 52.5918 19.3235 52.944 19.494C53.2961 19.6731 53.6053 19.8095 53.6397 19.8095C53.717 19.8095 53.9317 19.9033 55.3318 20.5429C55.9072 20.8073 56.4741 21.0375 56.603 21.0802C56.7318 21.1143 56.9379 21.2081 57.0754 21.2933C57.4017 21.498 59.1282 22.0949 61.035 22.6748C61.4816 22.8027 62.0227 22.9733 62.2632 23.0415C62.8301 23.2206 64.0498 23.5105 64.8056 23.6469C65.1406 23.7066 65.6044 23.8004 65.8449 23.8516C67.0474 24.1245 69.8217 24.3633 71.8574 24.3888C73.2574 24.4059 73.3863 24.3888 73.3948 24.2354V20.2103C73.3948 17.9505 73.4206 16.2535 73.4807 16.1171C73.5924 15.8101 73.9703 15.8016 74.1249 16.0915C74.228 16.3132 74.3225 17.1745 74.3826 18.6413C74.4513 20.108 74.4427 23.7237 74.374 24.0733L74.3053 24.423L74.666 24.3633C74.8636 24.3377 75.0354 24.295 75.044 24.278C75.1041 24.2183 75.1986 22.4787 75.2415 20.5088C75.2673 19.3746 75.3017 18.3172 75.3188 18.1722C75.336 18.0102 75.379 17.4559 75.4133 16.9102C75.4477 16.3644 75.4992 15.7163 75.525 15.4434L75.5679 14.9574L75.2329 14.8891C74.7605 14.8039 73.5924 14.0193 73.2746 13.5759C73.1372 13.3798 72.9654 13.1325 72.8967 13.0557C72.7936 12.9022 72.7421 12.9022 72.158 13.0642C71.2218 13.3286 69.7015 13.5077 67.6916 13.5844C67.0217 13.61 66.2572 13.6612 65.9995 13.6867C64.7369 13.8402 60.2791 13.772 59.403 13.6015C59.3 13.5759 58.8791 13.5247 58.4668 13.4906C58.0545 13.4565 57.5048 13.3712 57.2386 13.303C56.9723 13.2348 56.2937 13.0898 55.7183 12.9875C55.1514 12.8766 54.4728 12.7231 54.2066 12.6634C53.9489 12.5867 53.5023 12.4844 53.2188 12.4332C51.8016 12.1433 50.4359 11.8277 50.0065 11.6913C49.8261 11.6316 49.4138 11.5207 49.0702 11.4269C48.7353 11.3417 48.2027 11.1796 47.8935 11.0773C47.5843 10.9835 47.1377 10.8471 46.9058 10.7788C46.399 10.6253 44.0455 9.78112 43.5989 9.58498C43.4185 9.50823 43.0063 9.33768 42.6627 9.20977C41.0136 8.5702 40.2749 8.28026 40.1375 8.21204C40.0516 8.16941 39.4847 7.93916 38.892 7.70892C38.2994 7.47867 37.5435 7.15462 37.2171 7.00113C36.8993 6.84763 36.5901 6.71972 36.5386 6.71972C36.4527 6.71972 36.2637 6.64297 35.3619 6.2507C35.1557 6.1569 34.752 6.02046 34.4686 5.92665C34.1851 5.83285 33.8673 5.72199 33.7643 5.6623C33.6612 5.60261 33.3005 5.49175 32.9655 5.39794C32.6305 5.30414 31.9777 5.12506 31.5053 4.99715C31.0415 4.86924 30.32 4.69868 29.9077 4.61341C29.4954 4.5196 28.8169 4.38316 28.396 4.28083C27.9837 4.18703 27.3224 4.06764 26.9359 3.99942C26.5493 3.93973 25.8536 3.8374 25.3812 3.75212C24.5481 3.61568 24.153 3.57304 21.7995 3.35985C20.8032 3.26605 17.8399 3.24047 17.7712 3.32574C17.754 3.33427 17.3417 3.36838 16.8436 3.40249C15.9331 3.44513 15.3662 3.51335 13.3649 3.82034C12.7121 3.92267 11.6986 4.07617 11.106 4.15292C10.5133 4.22967 9.70593 4.37464 9.31942 4.47697C8.9329 4.5793 8.33166 4.69868 7.9795 4.74985C7.64452 4.79249 7.04328 4.93746 6.67394 5.05684L5.98681 5.27856L5.88374 5.87549C5.71195 6.86469 4.90457 8.06707 4.09718 8.51904C3.82233 8.68106 3.80515 8.74075 3.64195 9.67879C3.55606 10.2331 3.46158 11.1029 3.43581 11.6145C3.41005 12.1262 3.34133 12.8255 3.29839 13.158C3.23826 13.4906 3.16096 14.693 3.09225 15.8272C3.03212 16.9613 2.972 18.1381 2.95482 18.4451C2.86893 19.5708 2.89469 31.8419 2.98059 32.6435L3.06648 33.4792L3.4444 33.6157C3.65054 33.6924 3.93399 33.7862 4.07141 33.8289C4.4837 33.9568 4.86162 34.2723 5.03341 34.6134L5.18801 34.9375L5.5917 34.801C6.36473 34.5281 7.3439 34.2979 7.99668 34.2382C8.64087 34.1785 8.65805 34.1614 8.70958 33.8886C8.73535 33.7351 8.76971 33.4195 8.76971 33.1978C8.76971 32.8311 8.75253 32.7885 8.60651 32.8397C8.23718 32.9761 7.18071 33.1637 6.72548 33.1637C6.30461 33.1637 6.21013 33.1296 6.0727 32.9335C5.89233 32.6606 5.96963 32.3707 6.25307 32.1916C6.45921 32.0637 7.59299 31.7993 8.36601 31.697C8.73535 31.6543 8.75253 31.6288 8.81265 31.2535C8.83842 31.0489 8.89855 30.3837 8.92431 29.7953C8.95008 29.2069 8.99303 28.5674 9.01879 28.3883C9.03597 28.2092 9.0961 27.4844 9.13904 26.7766C9.18199 26.0688 9.26788 25.1052 9.328 24.6276C9.37095 24.1501 9.46543 23.1865 9.52556 22.4957C9.65439 20.7987 9.87771 19.5878 10.1783 18.8033C10.3845 18.2405 10.4961 18.0955 10.9857 17.7032L10.9685 17.7459Z" fill="#B2C786"/>
<path d="M23.2425 29.1387C22.8388 29.0023 22.5725 28.9852 22.0314 29.0961C21.078 29.2837 20.4854 30.1364 20.4854 31.3047C20.4854 31.8761 20.5283 32.0552 20.8117 32.618C21.0952 33.1893 21.2068 33.3087 21.6277 33.5304C22.2719 33.863 22.7958 33.8886 23.3885 33.5986C23.6376 33.4707 23.9296 33.2661 24.0327 33.1296C24.7112 32.2598 24.7542 32.166 24.8143 31.6799C24.9517 30.5884 24.2904 29.5225 23.2425 29.1472V29.1387Z" fill="#83965A"/>
<path fill-rule="evenodd" clip-rule="evenodd" d="M19.5916 0.0340115C19.5916 0.0340115 18.8272 0.11076 17.9425 0.136342C14.5497 0.264256 11.6638 0.70769 8.65756 1.56045C5.25623 2.51554 3.29789 3.30007 2.30155 4.09314C1.81196 4.4854 1.7003 4.6389 1.49416 5.19319C1.19354 5.97773 0.978811 7.19717 0.841384 8.88563C0.78126 9.57637 0.686778 10.54 0.643832 11.0175C0.583708 11.4951 0.506405 12.4587 0.45487 13.1665C0.411924 13.8657 0.3518 14.6162 0.326032 14.8208C0.0425884 17.183 -0.103428 26.0772 0.0855344 30.503C0.12848 31.6628 0.197194 33.8032 0.222962 35.2699C0.300264 38.536 0.3518 39.0391 0.703957 39.3973C1.0647 39.7725 1.47698 39.764 2.09541 39.3547C2.79113 38.8942 3.83901 38.4422 5.07586 38.0243C5.66851 37.8367 6.24399 37.6406 6.34706 37.598C6.45013 37.5639 6.92254 37.4189 7.40353 37.2995C7.87594 37.1801 8.35693 37.0437 8.46 37.0096C8.59171 36.9698 8.65756 37.8026 8.65756 39.5081C8.65756 40.9152 8.69191 43.0045 8.75204 44.1642C8.79498 45.324 8.8637 47.4644 8.88946 48.9311C8.96677 52.2057 9.0183 52.7003 9.37046 53.0585C9.7312 53.4337 10.1435 53.4251 10.7619 53.0158C11.4576 52.5553 12.5055 52.0948 13.7424 51.6855C14.335 51.4979 14.9105 51.3018 15.0136 51.2677C15.297 51.1483 18.183 50.3979 19.3511 50.125C19.9266 49.9971 20.9401 49.818 21.6101 49.7327C22.2886 49.656 23.1389 49.5451 23.4911 49.5025C24.9169 49.3063 30.2852 49.1869 31.5478 49.3234C32.6128 49.4257 34.073 49.5963 34.4252 49.6389C34.5884 49.656 35.2154 49.7412 35.8424 49.818C36.4608 49.9033 37.1651 50.0056 37.397 50.0482C37.6289 50.1079 38.0756 50.1847 38.3848 50.2444C38.694 50.3126 39.0376 50.3808 39.1406 50.4234C39.2437 50.4661 39.6302 50.5514 39.991 50.6196C40.3603 50.6793 40.7983 50.7901 40.9787 50.8669C41.1591 50.9436 41.6057 51.063 41.9665 51.1398C42.3358 51.225 42.7567 51.3444 42.9113 51.4212C43.0745 51.4894 43.5125 51.6344 43.899 51.7452C44.2856 51.8561 44.8439 52.0437 45.1273 52.1631C45.4107 52.2739 45.8144 52.4274 46.0206 52.4871C46.2267 52.5553 46.5445 52.6832 46.7249 52.7771C46.9053 52.8794 47.1028 52.9561 47.1544 52.9561C47.2746 52.9561 49.2673 53.7833 50.0146 54.1415C50.298 54.2779 50.7189 54.457 50.9594 54.5423C51.1913 54.6275 51.7066 54.8492 52.0931 55.0283C52.4797 55.2159 53.0723 55.4803 53.4159 55.6167C54.292 55.9834 55.9325 56.7168 56.2761 56.8959C56.5509 57.0323 58.1915 57.6122 59.016 57.868C59.4283 57.9959 59.9007 58.1409 60.0553 58.2091C60.4333 58.337 62.4002 58.9169 62.718 58.9936C62.8554 59.0192 63.2763 59.096 63.6284 59.1727C63.9978 59.2409 64.4616 59.3347 64.6677 59.3859C65.2604 59.5479 67.5537 59.8464 68.9108 59.9487C69.8556 60.0255 74.0987 60.0084 75.1294 59.9317C75.7736 59.889 77.6202 59.6417 78.1012 59.5394C78.2301 59.5138 78.5908 59.4456 78.9 59.403C80.9786 59.0363 82.1983 58.7719 83.1946 58.4735C83.6928 58.3114 84.1996 58.1921 84.337 58.1921C84.5689 58.1921 85.5309 57.7657 85.5567 57.6463C85.5824 57.3905 85.6511 57.0835 85.8229 56.2733C85.9346 55.7617 86.0892 54.8493 86.1579 54.2608C86.2352 53.6724 86.3383 52.8453 86.3898 52.4359C86.4499 52.0266 86.5101 51.4041 86.5272 51.063C86.5444 50.7048 86.5874 50.3979 86.6131 50.3552C86.6818 50.2529 86.8622 47.5838 86.9309 45.7077C87.0855 41.5292 86.9138 25.7446 86.6733 23.681C86.596 22.9647 86.5616 22.8709 86.2867 22.6236C86.0119 22.3763 85.9346 22.3592 85.4965 22.4104C84.6462 22.5127 83.8045 22.6747 83.6241 22.7685C83.3492 22.905 82.5762 23.1011 81.0817 23.4081C80.3087 23.5616 79.6473 23.7066 79.6129 23.7321C79.57 23.7492 79.2608 23.7918 78.9258 23.8174L78.316 23.8601V22.0607C78.316 20.2529 78.2215 14.7014 78.1442 12.1773C78.127 11.4268 78.0669 10.4632 78.0153 10.0283C77.938 9.31201 77.9037 9.21821 77.6288 8.97091C77.3024 8.68097 77.3282 8.68097 75.8423 8.90269C75.4558 8.97091 75.0607 9.06471 74.9662 9.10735C74.6913 9.24379 73.9269 9.4314 72.4495 9.73839C71.6937 9.89189 71.0152 10.0369 70.9293 10.071C70.8434 10.0965 70.5943 10.1392 70.3624 10.1562C70.1305 10.1733 69.6924 10.233 69.3832 10.2927C67.2015 10.7105 65.8874 10.7958 62.8812 10.7446C61.4897 10.7191 60.0467 10.6508 59.6774 10.5911C59.3167 10.5315 58.6982 10.4547 58.3117 10.4035C57.9252 10.3609 57.4184 10.2756 57.1779 10.2159C56.946 10.1733 56.3792 10.0539 55.9239 9.96863C55.4601 9.88336 54.7214 9.70428 54.2748 9.57637C53.8196 9.45698 53.2183 9.29496 52.9349 9.21821C52.6514 9.14999 52.2477 9.0306 52.0416 8.95385C51.8355 8.86858 51.3287 8.69803 50.9078 8.57011C49.6538 8.17784 48.6575 7.81116 48.4084 7.64913C48.2795 7.56386 48.0734 7.47006 47.936 7.43595C47.8071 7.40183 47.2402 7.16306 46.6648 6.89871C45.2647 6.25914 45.0414 6.16534 44.9727 6.16534C44.9383 6.16534 44.6205 6.0289 44.277 5.84982C43.9248 5.67927 43.5383 5.50019 43.418 5.46608C43.2892 5.43196 42.7567 5.21025 42.2413 4.98C41.2793 4.53657 40.137 4.07608 39.1234 3.69234C38.8142 3.58148 38.4707 3.42799 38.3676 3.37682C37.9381 3.12952 36.6498 2.71167 33.3859 1.731C32.9736 1.61161 32.192 1.42401 31.6423 1.31315C31.0925 1.20229 30.4827 1.04879 30.2766 0.972044C30.0618 0.895296 29.7784 0.844131 29.6496 0.844131C29.5121 0.844131 29.1943 0.810021 28.9452 0.758855C27.5796 0.485973 26.0507 0.298366 24.7709 0.238673C24.4875 0.221618 23.8519 0.161925 23.3537 0.119287C22.4003 0.0254839 19.6603 -0.0427367 19.583 0.0340115H19.5916ZM24.1611 1.30462C24.7365 1.36431 25.3464 1.43253 25.5267 1.46664C25.7071 1.49223 26.0077 1.54339 26.1881 1.56045C27.0556 1.64572 28.7305 1.88449 29.1084 1.96977C29.5207 2.06357 30.1391 2.19149 31.6079 2.48995C32.0202 2.57523 32.5098 2.70314 32.6901 2.77136C32.8705 2.84811 33.3171 2.9675 33.6779 3.04424C34.0472 3.12952 34.4681 3.24891 34.6227 3.32565C34.7859 3.39388 35.2239 3.53884 35.6105 3.6497C35.997 3.76056 36.5553 3.94817 36.8387 4.06755C37.1222 4.17841 37.5259 4.33191 37.732 4.3916C37.9381 4.45129 38.2559 4.58774 38.4363 4.68154C38.6167 4.78387 38.8056 4.86062 38.8572 4.86062C38.9087 4.86062 39.321 5.01411 39.7505 5.19319C40.1971 5.3808 40.7554 5.61104 41.0131 5.70485C41.2707 5.80718 41.6401 5.98626 41.8634 6.08859C42.0695 6.19945 42.4389 6.36147 42.6708 6.44675C42.9027 6.53202 43.418 6.75374 43.8046 6.93282C44.1911 7.12042 44.7837 7.38478 45.1273 7.52122C46.0034 7.88791 47.6439 8.62128 47.9875 8.80036C48.2624 8.9368 49.9029 9.51667 50.7275 9.7725C51.1397 9.90041 51.6121 10.0539 51.7668 10.1136C52.0674 10.2159 54.0944 10.7958 54.6441 10.9408C56.362 11.3501 58.7068 11.7168 60.6308 11.8618C61.5756 11.9385 65.8187 11.9214 66.8494 11.8447C67.4936 11.8021 69.3403 11.5548 69.8213 11.4524C69.9501 11.4268 70.3108 11.3586 70.62 11.316C72.6557 10.9578 73.9011 10.702 74.9061 10.4035C75.3956 10.25 75.9539 10.1136 76.1343 10.0795C76.3147 10.0539 76.5552 10.0027 76.6582 9.96863C76.8472 9.926 76.8644 9.95158 76.8644 10.2415C76.8644 10.4291 76.8902 10.6167 76.9245 10.6594C76.9846 10.7532 77.1135 18.4109 77.1221 22.001V24.1073L76.6754 24.1926C76.4177 24.2353 76.1944 24.2608 76.1687 24.2182C76.1343 24.1926 76.1601 23.681 76.2116 23.1011C76.2717 22.5212 76.3319 20.8498 76.3662 19.3745C76.4263 16.2449 76.4865 15.1278 76.6239 14.8293C76.7785 14.5224 76.6239 14.3774 75.576 13.8572C74.6827 13.4052 74.3306 13.1153 73.695 12.2881L73.3858 11.8873L72.5698 11.947C72.1232 11.9811 71.5906 12.0664 71.3845 12.1346C70.9894 12.2711 69.2629 12.4416 67.5193 12.5184C66.9525 12.544 66.042 12.6037 65.4923 12.6463C64.3156 12.7486 60.6995 12.6889 59.1792 12.5525C58.5866 12.4928 57.6074 12.3478 57.0147 12.2029C56.4221 12.0749 55.6577 11.9129 55.3227 11.8447C54.9877 11.7765 54.4552 11.6656 54.146 11.5803C53.8367 11.5036 53.2441 11.3757 52.8232 11.2819C51.2686 10.9578 50.7446 10.8299 50.3409 10.7105C50.1262 10.6338 49.8599 10.5826 49.7655 10.5826C49.482 10.5826 45.7457 9.33759 44.1138 8.70655C43.3064 8.39103 42.3702 8.02435 42.0352 7.90496C41.7002 7.77705 41.1677 7.5468 40.8499 7.40183C40.5321 7.24834 40.2057 7.12895 40.1284 7.12895C40.0511 7.12895 39.9566 7.09484 39.9308 7.04368C39.9051 7.00104 39.7676 6.93282 39.6388 6.90724C39.51 6.87313 39.0891 6.70257 38.7198 6.52349C38.3332 6.34442 37.9639 6.19945 37.8866 6.19945C37.8093 6.19945 37.6547 6.13123 37.5259 6.04595C37.4142 5.96067 37.1136 5.82423 36.8731 5.73043C36.624 5.64515 36.1344 5.44902 35.7737 5.31258C35.4129 5.17614 34.9405 4.99706 34.7344 4.92031C34.5282 4.83504 34.2705 4.74123 34.1675 4.69859C34.0644 4.65596 33.6178 4.51099 33.1797 4.3916C32.7331 4.27222 32.0889 4.08461 31.7196 3.97375C31.3588 3.87142 30.6545 3.70087 30.1649 3.59854C29.6753 3.49621 28.8679 3.31713 28.3784 3.20627C27.382 2.99308 26.5403 2.83958 25.982 2.78842C25.7758 2.77989 25.5525 2.72872 25.4752 2.70314C25.2948 2.63492 22.658 2.37909 21.5929 2.3194C19.6689 2.2256 17.994 2.28529 16.3191 2.49848C15.6663 2.58376 14.9706 2.67756 14.7645 2.70314C14.2405 2.77136 13.081 2.92486 12.411 3.02719C10.2981 3.34271 10.384 3.32565 8.31399 3.76909C7.31764 3.98228 6.13233 4.33191 6.00349 4.44277C5.96055 4.4854 5.78876 4.52804 5.62557 4.52804C5.47096 4.52804 5.29918 4.56215 5.23047 4.60479C5.09304 4.69007 4.82677 5.40638 4.82677 5.68779C4.82677 5.95215 4.32001 7.00104 4.01939 7.36772C3.89055 7.52975 3.57275 7.87085 3.31507 8.13521C3.0574 8.40809 2.85126 8.69803 2.85126 8.80036C2.85126 8.89416 2.8169 9.01355 2.76536 9.06471C2.62794 9.23526 2.49051 9.97716 2.43039 11.0261C2.39603 11.5889 2.34449 12.2455 2.32732 12.4757C2.22425 13.4052 2.104 14.872 2.06105 15.7333C2.03528 16.2279 1.97516 17.3961 1.92362 18.3257C1.88068 19.2552 1.82914 21.8134 1.82055 24.0306C1.80337 26.2392 1.7862 28.2432 1.77761 28.4735C1.77761 28.7037 1.80337 29.9573 1.84632 31.2705C1.91503 33.3342 1.91503 33.6668 1.77761 33.8032C1.44263 34.1699 1.73466 34.4854 2.51628 34.5963C3.20341 34.6901 3.86478 35.0653 4.15682 35.5172C4.29424 35.7304 4.47462 35.9692 4.55192 36.0204C4.71511 36.1568 5.22188 36.1824 5.22188 36.0545C5.22188 36.0118 5.3593 35.9436 5.53109 35.901C5.69428 35.8754 5.9176 35.8072 6.02067 35.7645C6.2354 35.6793 7.352 35.432 7.90171 35.3467C8.10785 35.3211 8.37411 35.2699 8.49436 35.2444C8.68332 35.2103 8.7005 35.2358 8.7005 35.5684V35.9351L8.07349 36.0971C6.88818 36.3956 4.24271 37.2824 3.47827 37.6406C3.06599 37.8367 2.51628 38.1437 2.25001 38.3313C1.99234 38.5189 1.73466 38.6639 1.67454 38.6639C1.51134 38.6639 1.4684 37.8623 1.39109 34.3575C1.35674 32.6861 1.3052 31.1511 1.28802 30.9465C1.21931 30.1534 1.20213 20.7816 1.27084 19.6389C1.3052 18.9738 1.36533 17.7969 1.39968 17.0209C1.42545 16.2449 1.49416 15.1875 1.53711 14.6759C1.623 13.7805 1.75184 11.9897 1.8635 10.1818C1.92362 9.3717 2.23283 6.36147 2.36167 5.41491L2.43039 4.95442L3.38379 4.47688C3.89914 4.22105 4.83536 3.83731 5.45378 3.64117C6.06362 3.43651 6.65627 3.24038 6.75934 3.19774C6.99125 3.10394 9.76556 2.36204 10.9079 2.09768C11.8012 1.88449 13.2957 1.6372 14.1546 1.56045C14.4381 1.54339 14.9277 1.47517 15.2369 1.43253C15.5461 1.3899 16.6713 1.32167 17.7363 1.27904C18.8014 1.25345 19.6861 1.20229 19.7119 1.18523C19.7806 1.10849 23.0702 1.21934 24.1868 1.32167L24.1611 1.30462ZM21.8076 3.38535C24.1611 3.59854 24.5562 3.64117 25.3893 3.77762C25.8617 3.86289 26.5574 3.96522 26.944 4.02492C27.3305 4.09314 27.9918 4.21252 28.4041 4.30633C28.8164 4.40866 29.495 4.55363 29.9158 4.6389C30.3281 4.72418 31.0582 4.89473 31.5134 5.02264C31.9858 5.15056 32.6386 5.32963 32.9736 5.42344C33.3086 5.51724 33.6693 5.6281 33.7724 5.68779C33.8754 5.74749 34.1932 5.85834 34.4767 5.95215C34.7601 6.04595 35.1638 6.18239 35.37 6.2762C36.2718 6.66846 36.4608 6.74521 36.5467 6.74521C36.5896 6.74521 36.9074 6.87312 37.2252 7.02662C37.5516 7.18864 38.3075 7.50417 38.9001 7.73441C39.4928 7.96465 40.0597 8.1949 40.1456 8.23754C40.283 8.31428 41.0217 8.60422 42.6708 9.23526C43.0058 9.36318 43.4266 9.53373 43.607 9.61048C44.0536 9.80661 46.4071 10.6594 46.9139 10.8043C47.1458 10.8726 47.5924 11.009 47.9016 11.1028C48.2108 11.2051 48.7434 11.3672 49.0783 11.4524C49.4133 11.5462 49.8342 11.6571 50.0146 11.7168C50.444 11.8447 51.8183 12.1687 53.2269 12.4587C53.5104 12.5184 53.9656 12.6207 54.2147 12.6889C54.4809 12.7572 55.1595 12.9021 55.7264 13.013C56.3018 13.1153 56.9804 13.2688 57.2467 13.3285C57.5129 13.3967 58.054 13.482 58.4749 13.5161C58.8786 13.5502 59.3081 13.6014 59.4111 13.627C60.2872 13.7975 64.745 13.8572 66.0076 13.7122C66.2739 13.6867 67.0383 13.6355 67.6997 13.6099C69.7096 13.5246 71.2299 13.3456 72.1661 13.0897C72.7502 12.9277 72.7931 12.9277 72.9048 13.0812C72.9735 13.1665 73.1367 13.4052 73.2827 13.6014C73.6005 14.0448 74.7686 14.8294 75.241 14.9146L75.576 14.9828L75.5331 15.4689C75.5073 15.7418 75.4558 16.3984 75.4214 16.9357C75.387 17.4814 75.3441 18.0357 75.3269 18.1977C75.3097 18.3512 75.284 19.4087 75.2496 20.5343C75.2067 22.5042 75.1122 24.2438 75.0521 24.3035C75.0435 24.3205 74.8717 24.3632 74.6741 24.3888L74.3134 24.4485L74.3821 24.0988C74.4508 23.7407 74.4594 20.1335 74.3907 18.6668C74.3306 17.2 74.2361 16.3387 74.133 16.117C73.9784 15.8271 73.6091 15.8356 73.4888 16.1426C73.4287 16.279 73.4029 17.976 73.4029 20.2358V24.2608C73.3944 24.4143 73.2741 24.4314 71.8655 24.4143C69.8298 24.3973 67.0641 24.15 65.853 23.8771C65.6211 23.8174 65.1573 23.7236 64.8137 23.6724C64.0579 23.536 62.8382 23.2461 62.2713 23.067C62.0394 22.9988 61.4897 22.8367 61.0431 22.7003C59.1363 22.1204 57.4184 21.5235 57.0835 21.3188C56.9546 21.2336 56.7485 21.1398 56.6111 21.1056C56.4822 21.0715 55.9153 20.8328 55.3399 20.5684C53.9398 19.9288 53.7165 19.835 53.6478 19.835C53.6134 19.835 53.2956 19.6986 52.9521 19.5195C52.5999 19.349 52.2134 19.1699 52.0931 19.1358C51.9643 19.1017 51.3115 18.8288 50.633 18.5303C49.963 18.2404 49.1986 17.9163 48.9495 17.814L48.4771 17.6349L48.3139 16.9357C48.1421 16.1767 48.0992 16.0658 47.4979 14.9061C47.0341 14.0192 46.4672 13.2688 45.6341 12.4246C44.7837 11.5718 43.4782 10.557 42.8598 10.2756C42.7824 10.2415 42.4475 10.0624 42.1039 9.88336C41.7689 9.70428 41.4168 9.55931 41.3223 9.55931C41.2278 9.55931 41.0388 9.49962 40.9014 9.4314C40.764 9.36318 40.1885 9.23526 39.613 9.14146C37.9295 8.86858 35.2841 9.08177 33.8669 9.60195C33.6607 9.6787 33.4374 9.73839 33.3601 9.75544C33.1711 9.75544 31.1097 10.7617 30.6459 11.0772C30.0275 11.5036 28.8336 12.7401 28.5244 13.2859L28.2409 13.7805H27.6655C24.3586 13.789 20.5364 14.3348 17.3326 15.2387C13.9313 16.1938 11.973 16.9783 10.9766 17.7714C10.4871 18.1636 10.3754 18.3171 10.1693 18.8714C9.86863 19.656 9.6539 20.8754 9.51648 22.5639C9.45635 23.2546 9.36187 24.2182 9.31892 24.6958C9.2588 25.1733 9.1815 26.1369 9.12996 26.8447C9.08702 27.544 9.02689 28.2773 9.00971 28.4564C8.98394 28.6355 8.941 29.2665 8.91523 29.8635C8.88946 30.4604 8.82934 31.117 8.80357 31.3217C8.74345 31.6969 8.72627 31.7139 8.35693 31.7651C7.58391 31.8674 6.45013 32.1318 6.24399 32.2597C5.96055 32.4388 5.88324 32.7287 6.06362 33.0016C6.19246 33.1977 6.28694 33.2319 6.7164 33.2319C7.18021 33.2319 8.23668 33.0442 8.59743 32.9078C8.73486 32.8481 8.76063 32.8993 8.76063 33.266C8.76063 33.4877 8.73486 33.8117 8.7005 33.9567C8.64038 34.2296 8.6232 34.2466 7.9876 34.3063C7.33482 34.366 6.35565 34.5963 5.58262 34.8691L5.17893 35.0056L5.02432 34.6815C4.85254 34.3319 4.47462 34.0249 4.06233 33.897C3.92491 33.8544 3.64146 33.7606 3.43532 33.6838L3.0574 33.5474L2.97151 32.7117C2.88561 31.9101 2.85985 19.6304 2.94574 18.5133C2.96292 18.2063 3.03163 17.0295 3.08316 15.8953C3.15188 14.7611 3.23777 13.5673 3.28931 13.2262C3.33225 12.8936 3.40097 12.1943 3.42673 11.6827C3.4525 11.171 3.54698 10.3012 3.63287 9.74692C3.79607 8.80888 3.81325 8.74919 4.0881 8.58717C4.89549 8.12668 5.71146 6.93282 5.87466 5.94362L5.97773 5.34669L6.66486 5.12497C7.04279 5.00559 7.63544 4.86062 7.97042 4.81798C8.32258 4.77534 8.92382 4.64743 9.31034 4.5451C9.69685 4.44277 10.5042 4.28927 11.0969 4.22105C11.6895 4.13577 12.7117 3.99081 13.3558 3.88847C15.3571 3.58148 15.9154 3.51326 16.8345 3.47062C17.3241 3.44504 17.7363 3.4024 17.7621 3.39388C17.8394 3.3086 20.7941 3.33418 21.7904 3.42799L21.8076 3.38535ZM40.4805 10.4377C40.8842 10.5656 41.2965 10.7191 41.3996 10.7617C41.5027 10.8043 41.6916 10.8896 41.8205 10.9493C42.4904 11.2222 43.8819 12.2626 44.6721 13.0556C45.866 14.2836 46.8108 15.7503 47.0685 16.8248L47.1114 17.038L46.4672 16.7907C45.6942 16.5008 44.0451 15.9635 42.9886 15.6736C42.5763 15.5542 42.0266 15.3922 41.7603 15.3069C41.5027 15.2216 40.8499 15.0596 40.3002 14.9487C39.7505 14.8464 39.1406 14.6929 38.9345 14.6247C38.7198 14.5479 38.4363 14.4968 38.2989 14.4968C38.1615 14.4968 37.8437 14.4627 37.5946 14.4115C36.1602 14.1301 34.6828 13.951 33.2828 13.8743C32.922 13.8572 32.5269 13.8146 32.4239 13.789C32.3122 13.7634 31.6337 13.7208 30.9122 13.6867C30.1993 13.6611 29.5894 13.6184 29.5723 13.6014C29.4434 13.4735 31.1355 11.9214 31.6766 11.6741C31.8828 11.5718 32.1834 11.4183 32.338 11.3245C32.9049 10.9919 34.6485 10.4121 35.7307 10.1904C35.997 10.1307 36.9762 10.1136 37.9639 10.1307C39.5443 10.1648 39.7934 10.1989 40.4634 10.4121L40.4805 10.4377ZM32.8276 14.9658C33.403 15.0255 34.0301 15.0937 34.2448 15.1363C34.4509 15.1619 34.7086 15.2046 34.8117 15.2131C35.5332 15.2898 37.4743 15.5627 37.8093 15.6309C38.1872 15.7247 38.5222 15.8015 40.2744 16.1511C40.6867 16.2364 41.1763 16.3643 41.3566 16.4325C41.537 16.5093 41.9837 16.6287 42.3444 16.7054C42.7137 16.7907 43.1346 16.9101 43.2892 16.9868C43.4524 17.055 43.8905 17.2 44.277 17.3109C44.6635 17.4217 45.2218 17.6093 45.5052 17.7287C45.7887 17.8396 46.1924 17.9931 46.3985 18.0528C46.6046 18.121 46.9224 18.2489 47.1028 18.3427C47.2832 18.445 47.4807 18.5218 47.5323 18.5218C47.6525 18.5218 49.6366 19.3319 50.444 19.7327C50.7532 19.8862 51.1569 20.0482 51.3373 20.1164C51.5177 20.1847 51.9385 20.3723 52.2821 20.5343C52.6171 20.7048 52.995 20.8669 53.1324 20.9095C53.2613 20.9436 53.6392 21.1056 53.9828 21.2591C54.3177 21.4212 54.7816 21.6258 55.0221 21.7282C55.8123 22.0778 56.4822 22.3848 56.6626 22.4786C56.9375 22.615 58.578 23.1949 59.4026 23.4507C59.8148 23.5786 60.2872 23.7236 60.4418 23.7833C60.8198 23.9112 62.7867 24.4911 63.1045 24.5678C63.2419 24.5934 63.6628 24.6702 64.0149 24.7469C64.3843 24.8151 64.8481 24.9089 65.0542 24.9601C65.6469 25.1221 67.9488 25.4206 69.2973 25.5229C70.2421 25.5997 74.4852 25.5826 75.5159 25.5059C76.1601 25.4632 78.0068 25.2159 78.4877 25.1136C78.6166 25.088 78.9773 25.0198 79.2865 24.9772C81.3222 24.619 82.5676 24.3632 83.5726 24.0562C84.0621 23.9027 84.6204 23.7662 84.8008 23.7321C84.9812 23.7066 85.2217 23.6554 85.3248 23.6213C85.5137 23.5786 85.5309 23.6042 85.5309 23.8942C85.5309 24.0818 85.5567 24.2694 85.591 24.312C85.78 24.6105 85.8487 43.8743 85.6683 47.0636C85.5395 49.4683 85.488 49.8521 84.8867 54.5508C84.8438 54.9345 84.7149 55.6253 84.629 56.0943L84.4572 56.93L83.8904 57.0323C83.5897 57.092 83.2805 57.1602 83.2204 57.2029C83.0229 57.3222 82.1897 57.5269 80.7124 57.8254C79.9393 57.9789 79.2694 58.1324 79.2178 58.1579C79.1749 58.1921 78.9516 58.2176 78.7454 58.2176C78.5393 58.2091 78.2644 58.2432 78.1356 58.3029C78.0153 58.3456 77.6632 58.4052 77.3712 58.4308C77.0791 58.4564 76.684 58.5246 76.5036 58.5673C75.3527 58.8657 69.6924 58.934 67.9746 58.6696C67.6138 58.6099 66.9954 58.5332 66.6089 58.482C66.2224 58.4394 65.7156 58.3541 65.4751 58.3029C65.2432 58.2432 64.7794 58.1494 64.4358 58.0982C63.637 57.9448 62.4689 57.6719 61.7045 57.4331C61.3695 57.3308 60.8198 57.1602 60.4762 57.0579C58.6639 56.5121 57.0147 55.9322 56.7055 55.7361C56.5767 55.6508 56.3706 55.557 56.2331 55.5229C56.1043 55.4888 55.5374 55.25 54.9619 54.9857C53.5619 54.3461 53.3386 54.2523 53.2699 54.2523C53.2355 54.2523 52.9177 54.1159 52.5741 53.9368C52.222 53.7662 51.8355 53.5872 51.7152 53.5531C51.5864 53.5189 51.0538 53.2972 50.5385 53.067C49.5765 52.6236 48.4341 52.1631 47.4206 51.7793C47.1114 51.6685 46.7678 51.515 46.6648 51.4638C46.2353 51.2165 44.9469 50.7986 41.683 49.818C41.2707 49.6986 40.4891 49.511 39.9394 49.4001C39.3897 49.2893 38.7799 49.1358 38.5737 49.0676C38.359 48.9908 38.0756 48.9396 37.9467 48.9396C37.8093 48.9396 37.4915 48.9055 37.2424 48.8544C35.808 48.573 34.3307 48.3939 32.9306 48.3171C32.5699 48.3001 32.1748 48.2574 32.0631 48.2319C31.2472 48.0357 26.4458 48.121 23.7402 48.3853C21.4383 48.5985 19.1192 49.0334 16.9547 49.6474C13.8626 50.5172 11.8098 51.3018 10.8736 51.9669C10.6159 52.1545 10.3582 52.2995 10.2981 52.2995C10.1349 52.2995 10.092 51.4979 10.0146 48.0442C9.98029 46.3984 9.93735 44.8805 9.91158 44.6759C9.83428 43.9084 9.8171 34.4342 9.8944 33.2148C9.92876 32.5241 10.0146 31.1085 10.0748 30.0852C10.1177 29.0533 10.1864 28.0471 10.2122 27.8424C10.2466 27.4928 10.3754 25.7958 10.5042 23.7748C10.5472 22.9988 10.865 19.98 10.9938 19.0505L11.0625 18.59L12.0159 18.1125C12.5313 17.8566 13.4675 17.4729 14.0859 17.2768C14.6958 17.0721 15.2884 16.876 15.3915 16.8333C15.6234 16.7395 18.3977 15.9976 19.5401 15.7333C20.4333 15.5201 21.9279 15.2728 22.7868 15.196C23.0702 15.179 23.5598 15.1108 23.869 15.0681C24.1782 15.0255 25.3034 14.9573 26.3685 14.9146C27.4335 14.889 28.3182 14.8379 28.344 14.8208C28.4127 14.7441 31.711 14.8549 32.819 14.9573L32.8276 14.9658Z" fill="#0F0B0D"/>
<path fill-rule="evenodd" clip-rule="evenodd" d="M25.0545 15.776C23.6974 15.8783 23.2937 15.938 21.8078 16.1768C21.4986 16.2365 21.0691 16.2962 20.863 16.3303C20.6568 16.3644 19.7893 16.552 18.9304 16.7481C18.0715 16.9443 16.7831 17.2427 16.053 17.4133C15.3315 17.5753 14.4984 17.8141 14.2149 17.9335C13.9315 18.0614 13.6051 18.1808 13.4763 18.1978C13.1413 18.2319 13.0726 18.3598 12.9781 19.1359C12.9008 19.7925 12.5916 20.6793 12.4284 20.6793C12.2738 20.6793 11.3461 21.8476 11.329 22.0693C11.3204 22.1973 11.2431 22.7174 11.1572 23.2035C11.0713 23.6896 10.9424 25.1222 10.8565 26.3843C10.5903 30.1791 10.6762 41.7851 10.9854 46.0745L11.0541 46.9187L11.432 47.0978C12.8149 47.7544 12.8578 47.7885 13.4763 48.8374C13.9229 49.5793 14.129 49.7072 14.5327 49.5111C14.6444 49.4514 14.9192 49.3917 15.1511 49.349C15.3831 49.3235 15.8469 49.2211 16.1904 49.1188C18.1574 48.5389 18.9304 48.3598 21.8421 47.8056C22.7182 47.6435 23.4741 47.5241 24.0925 47.473C24.2815 47.4645 25.0889 47.3877 25.8962 47.3024C30.3369 46.8931 36.3063 47.0807 39.0892 47.7203C39.5359 47.8226 40.1629 47.9761 40.5065 48.0443C41.3138 48.2319 42.293 48.5219 43.0489 48.7948C43.3838 48.9141 43.7188 49.0165 43.7961 49.0165C43.8648 49.0165 44.028 49.0847 44.1655 49.1529C44.3974 49.2723 46.3214 49.9971 47.395 50.3468C47.6269 50.432 48.1423 50.6282 48.5288 50.7987C48.9153 50.9608 49.4135 51.1825 49.654 51.2763C49.8859 51.3786 50.1607 51.4895 50.2638 51.5406C50.5386 51.643 51.6467 52.1461 52.5228 52.5725C52.935 52.7686 53.5277 53.0415 53.8455 53.1779C54.1633 53.3144 54.6786 53.5617 54.9879 53.6981C55.3056 53.8516 55.632 53.971 55.7093 53.971C55.7866 53.971 55.9413 54.0563 56.0787 54.1501C56.1989 54.2524 56.4394 54.3633 56.5854 54.4059C56.74 54.44 57.1609 54.5935 57.5217 54.7555C57.891 54.909 58.3119 55.0796 58.4665 55.1478C58.9475 55.3439 59.772 55.6424 60.0211 55.7106C60.15 55.7447 60.3389 55.83 60.4506 55.8982C60.5536 55.9664 60.9402 56.0944 61.3009 56.1796C61.6617 56.2649 62.0825 56.3928 62.2543 56.4696C62.4175 56.5463 62.8556 56.6657 63.2421 56.7425C65.5612 57.2029 66.4458 57.3564 66.944 57.4076C67.2532 57.4247 67.949 57.5099 68.4901 57.5952C69.7355 57.7828 74.7258 57.8084 75.9713 57.6378C76.4265 57.5781 77.1222 57.5099 77.5259 57.4758C79.0204 57.382 80.7898 56.9642 80.9874 56.6486C81.0475 56.5378 81.3052 56.1029 81.5542 55.6765C82.0009 54.9261 82.4991 54.3462 83.2893 53.6896C83.6071 53.4167 83.7015 53.2632 83.8304 52.8027C83.9592 52.2825 84.1911 50.3127 84.2942 48.7777C84.5261 45.1876 84.7494 32.021 84.6034 29.838C84.5605 29.1643 84.5691 28.7379 84.6206 28.6782C84.7924 28.5077 84.7237 28.1666 84.5003 28.0131C84.3801 27.9363 84.1396 27.8255 83.9592 27.7658C83.4181 27.5782 82.7052 27.0665 81.9408 26.3075C81.3309 25.7106 81.1506 25.5912 80.7898 25.523C80.4291 25.4548 80.2916 25.4804 79.9738 25.6339C79.4757 25.8812 78.8401 26.0261 77.4143 26.2393C76.478 26.3672 75.6449 26.4099 72.6129 26.4099C69.0484 26.4099 68.4729 26.3758 65.7329 26.0432C65.1145 25.9664 64.4532 25.8897 64.2728 25.8726C63.8176 25.8129 61.2236 25.2757 60.6481 25.1137C59.2223 24.7129 57.9511 24.3121 57.556 24.133C57.2984 24.0222 57.0407 23.9369 56.9634 23.9369C56.8861 23.9369 56.6456 23.8601 56.4223 23.7578C56.2075 23.664 55.529 23.4082 54.902 23.195C54.2921 22.9818 53.6651 22.726 53.5277 22.6236C53.3731 22.5213 53.2185 22.436 53.1498 22.436C53.0123 22.436 52.3166 22.1205 49.903 20.9352C48.8638 20.4406 47.833 19.9545 47.5926 19.8607C47.3606 19.7754 46.9827 19.6305 46.7422 19.5281C45.6772 19.1017 42.963 18.1381 42.7998 18.1381C42.7311 18.1381 42.5249 18.0614 42.3274 17.9591C42.1384 17.8652 41.709 17.7118 41.3654 17.635C41.0304 17.5583 40.3519 17.3536 39.8537 17.1916C39.3641 17.0295 38.8058 16.8675 38.6254 16.8249C38.4451 16.7822 37.9555 16.6629 37.5432 16.5605C36.6929 16.3559 35.0437 16.0489 34.056 15.8954C31.9344 15.5884 27.9233 15.5202 25.0545 15.7589V15.776ZM31.1356 16.697C32.9823 16.8078 33.6523 16.8846 35.1898 17.1404C36.3579 17.3365 38.4708 17.8738 39.9911 18.3513C42.1212 19.025 43.5728 19.494 44.698 19.8948C45.3765 20.1421 46.0035 20.3553 46.1152 20.3894C46.2183 20.415 46.3901 20.4917 46.5017 20.5685C46.6048 20.6367 46.914 20.7561 47.1803 20.8328C47.4465 20.9181 48.2883 21.3019 49.0527 21.6856C49.8257 22.0779 51.0626 22.6663 51.8098 23.0074C52.5657 23.3314 53.2614 23.664 53.3645 23.7237C53.4676 23.7919 53.6393 23.8601 53.7424 23.8942C53.8455 23.9198 54.421 24.1245 55.0136 24.3462C58.8959 25.7362 62.2801 26.6572 64.5305 26.913C64.8139 26.9471 65.4323 27.0153 65.8961 27.075C68.4214 27.365 69.5895 27.4247 73.197 27.3905C76.9247 27.365 77.0879 27.3564 79.3211 26.9642C79.656 26.9045 80.0769 26.768 80.2573 26.6657C80.5751 26.4696 80.5837 26.4696 80.6781 26.6572C80.8413 26.9301 81.8119 27.8681 82.2586 28.1666C82.4819 28.3201 82.9113 28.5418 83.212 28.6612C83.5985 28.8232 83.7359 28.9255 83.7101 29.0278C83.65 29.2069 83.5813 32.1489 83.5126 36.8988C83.4868 38.7749 83.4353 41.4269 83.4181 42.7913C83.3752 45.9551 83.3064 47.3962 83.1175 49.4343C82.9199 51.5747 82.9285 51.5406 82.9113 52.2484V52.8624L82.4132 53.1268C81.7174 53.502 80.8499 54.4144 80.4548 55.1904C80.2745 55.5486 80.1284 55.8471 80.1199 55.8641C80.0855 55.9409 78.6511 56.2479 77.964 56.3417C74.7001 56.7595 70.9724 56.8021 67.9318 56.444C66.1538 56.2393 65.4924 56.1455 64.9599 56.0261C64.6507 55.9494 64.058 55.8215 63.6372 55.7447C63.2249 55.6595 62.7353 55.5401 62.5549 55.4633C62.3746 55.3866 61.9966 55.2842 61.7132 55.2331C61.4298 55.1734 61.0175 55.054 60.777 54.9517C60.5537 54.8493 60.2874 54.7641 60.2015 54.7641C60.1156 54.7555 59.8837 54.6788 59.6776 54.5764C59.4714 54.4741 59.2481 54.3974 59.188 54.3888C59.0849 54.3888 58.4493 54.1245 58.0113 53.9113C57.9168 53.8687 57.7965 53.826 57.7278 53.826C57.6677 53.826 57.2554 53.6555 56.8174 53.4423C56.3707 53.2291 55.8382 52.9818 55.632 52.888C55.4259 52.7857 54.6786 52.436 53.9829 52.0949C53.2872 51.7623 52.308 51.3104 51.8184 51.1057C51.3289 50.8925 50.8822 50.6879 50.8307 50.6452C50.7877 50.6026 50.4442 50.4576 50.0748 50.3212C49.7141 50.1933 49.2073 49.9716 48.9411 49.8607C48.6834 49.7413 48.2797 49.5708 48.0478 49.494C47.8159 49.4173 47.4208 49.2638 47.1545 49.1444C46.8968 49.0335 46.5103 48.88 46.3042 48.8203C46.098 48.7521 45.6342 48.5901 45.2649 48.4451C43.1348 47.635 41.5372 47.166 38.9518 46.6287C38.3506 46.5094 36.4008 46.2706 35.1812 46.1768C33.532 46.0489 27.7086 46.1171 26.0423 46.2876C22.7182 46.6202 22.1428 46.7055 19.6862 47.2172C17.7709 47.6179 17.0408 47.8141 15.1254 48.4878L14.6616 48.6583L14.3352 48.0017C14.1548 47.6435 13.8542 47.2001 13.6652 47.021C13.3474 46.7055 12.2995 46.1512 12.0161 46.1512C11.913 46.1512 11.8787 45.776 11.8185 44.1558C11.7842 43.0728 11.7326 41.8704 11.7155 41.5207C11.6382 40.2075 11.6124 29.7953 11.6897 28.9426C11.7241 28.4565 11.7928 27.527 11.8185 26.8874C11.8873 25.361 12.0247 23.7066 12.1535 22.8454C12.248 22.1887 12.2738 22.1376 12.583 21.9755C12.7634 21.8732 13.0983 21.5918 13.3302 21.336C13.8198 20.7902 14.1462 19.8522 14.0517 19.2894C13.9744 18.8203 13.8971 18.8459 17.1267 18.1893C17.8739 18.0273 18.5095 17.8908 18.5525 17.8652C18.6727 17.7885 20.2961 17.4218 20.863 17.3536C21.1722 17.311 22.1256 17.166 22.9845 17.0295C25.149 16.697 28.3356 16.5776 31.1356 16.7396V16.697Z" fill="#0F0B0D"/>
<path fill-rule="evenodd" clip-rule="evenodd" d="M45.2134 23.1694C43.9422 23.4167 43.0661 23.6725 42.2416 24.0477C41.9324 24.1842 41.5201 24.3718 41.3311 24.4656C40.3949 24.8834 39.1151 25.9323 38.093 27.0921C37.2255 28.0813 36.1862 29.7612 35.9371 30.5884C35.8426 30.8698 35.7224 31.2365 35.6451 31.3985C35.5678 31.5605 35.5162 31.7567 35.5162 31.8419C35.5162 31.9187 35.4475 32.2172 35.3788 32.5071C35.2156 33.1125 35.0782 34.1529 35.0009 35.2189C34.9236 36.2507 35.1211 37.6492 35.5248 38.971C35.5678 39.133 35.6107 39.3036 35.6107 39.3718C35.6107 39.5764 36.5126 41.3928 36.9764 42.1006C37.4917 42.8937 38.4366 43.917 39.1924 44.5054C39.4759 44.7186 39.8538 45.017 40.0341 45.1535C40.2059 45.2899 40.455 45.4605 40.5839 45.5287C40.7127 45.5969 40.979 45.7248 41.1679 45.8272C41.3569 45.921 41.6919 46.0745 41.9324 46.1597C42.1643 46.245 42.4907 46.3729 42.6539 46.4411C42.817 46.5179 43.4269 46.6629 44.0195 46.7737C45.4883 47.0466 47.4982 46.9869 48.7608 46.6117C49.2332 46.4838 49.7743 46.3218 49.989 46.2621C50.1952 46.2024 50.5817 46.0318 50.8394 45.8698C51.1056 45.6992 51.5609 45.4434 51.8787 45.2814C53.1584 44.6418 54.7389 43.141 55.7524 41.589C56.2935 40.7874 57.1095 39.0563 57.307 38.34C57.8224 36.4895 57.977 33.9824 57.6592 32.49C56.9635 29.1387 55.1683 26.4525 52.4455 24.6617C51.7498 24.2012 50.1265 23.5958 48.7694 23.2717C48.2884 23.1609 45.6601 23.0756 45.2392 23.1523L45.2134 23.1694ZM48.4859 24.423C49.4479 24.6106 50.1007 24.8237 50.8823 25.216C51.1314 25.3439 51.3891 25.4463 51.4578 25.4463C51.6897 25.4548 53.0038 26.4952 53.7253 27.2541C54.9106 28.4906 55.5291 29.5054 56.0788 31.1683C56.4481 32.2513 56.5082 32.5924 56.5769 33.8715C56.6027 34.3576 56.6457 34.7754 56.6628 34.8095C56.7316 34.9119 56.345 37.3081 56.1733 37.8965C55.9585 38.5958 55.4947 39.6873 55.0824 40.4207C54.3008 41.8021 52.5486 43.6185 51.3547 44.2666C51.0713 44.4286 50.659 44.6504 50.4528 44.7783C49.5767 45.2814 47.3006 45.8442 46.1411 45.8442C45.1533 45.8357 43.0146 45.4008 42.4735 45.0938C42.379 45.0341 42.2244 45 42.1471 44.9915C41.7434 44.9829 39.8022 43.627 38.9949 42.7913C37.8525 41.6145 36.8476 39.7129 36.4439 37.9818C35.6622 34.6475 36.2635 31.6202 38.282 28.7038C38.6942 28.0983 40.0685 26.6998 40.3262 26.6145C40.4207 26.589 40.5753 26.461 40.644 26.3417C40.9446 25.8897 43.0747 24.8323 44.1999 24.5935C45.9779 24.1927 47.146 24.1415 48.5031 24.4144L48.4859 24.423Z" fill="#0F0B0D"/>
<path fill-rule="evenodd" clip-rule="evenodd" d="M21.6616 28.1496C21.0002 28.2604 20.8026 28.3713 20.2358 28.9768C19.5744 29.659 19.3597 30.2644 19.3511 31.4412C19.3511 32.1831 19.3768 32.294 19.7118 32.9591C19.9094 33.3599 20.1928 33.8119 20.3388 33.9569C20.8971 34.5112 21.9021 34.9034 22.7266 34.9034C24.1095 34.8864 25.6298 33.5134 25.9476 31.9529C26.231 30.6226 25.269 28.8659 24.0751 28.5163C23.8604 28.4481 23.6027 28.3543 23.4997 28.2946C23.2506 28.1411 22.2113 28.0728 21.6616 28.1581V28.1496ZM23.242 29.1388C24.2899 29.514 24.9598 30.58 24.8138 31.6715C24.7537 32.1576 24.7107 32.2514 24.0322 33.1212C23.9291 33.2491 23.6371 33.4537 23.388 33.5902C22.7953 33.8801 22.2628 33.8631 21.6272 33.522C21.2063 33.3002 21.0861 33.1723 20.8112 32.6095C20.5278 32.0467 20.4848 31.8676 20.4848 31.2963C20.4848 30.128 21.0775 29.2752 22.0309 29.0876C22.5806 28.9853 22.8383 28.9938 23.2506 29.1303L23.242 29.1388Z" fill="#0F0B0D"/>
<path fill-rule="evenodd" clip-rule="evenodd" d="M68.945 36.8562C68.4039 36.9671 67.7597 37.4191 67.21 38.0501C66.6517 38.6982 66.4885 39.1502 66.4713 39.9944C66.4542 41.5208 67.9916 43.0558 69.6751 43.1922C70.7058 43.2775 71.2298 43.0814 72.0629 42.3224C72.647 41.7852 72.7586 41.6317 73.0163 40.9495C73.2482 40.344 73.3083 40.0797 73.2826 39.7045C73.1967 38.7067 72.4065 37.5896 71.4187 37.0865C70.9721 36.8562 70.7745 36.8136 70.096 36.7966C69.6493 36.788 69.134 36.8136 68.945 36.8562ZM70.7316 37.8625C71.5819 38.2889 72.166 39.099 72.166 39.858C72.166 40.4037 71.9512 40.8301 71.4187 41.3673C70.8089 41.9643 70.3279 42.1604 69.6837 42.0581C68.2235 41.8022 67.2272 40.5743 67.5364 39.4145C67.6652 38.9455 68.3953 38.1695 68.9193 37.9393C69.7954 37.564 70.096 37.5555 70.7316 37.871V37.8625Z" fill="#0F0B0D"/>
<path fill-rule="evenodd" clip-rule="evenodd" d="M10.4529 5.09948C8.88103 5.31267 7.34356 5.69641 7.04294 5.96929C6.8368 6.14837 6.82821 6.57475 7.02576 6.77088C7.19755 6.94143 7.42945 6.95849 7.96199 6.81352C8.52028 6.68561 9.1387 6.56622 10.4872 6.35303C11.7498 6.1569 12.1707 6.0034 12.3425 5.69641C12.54 5.33825 12.0934 4.92893 11.5609 4.95451C11.4492 4.96304 10.951 5.02273 10.4614 5.08242L10.4529 5.09948Z" fill="#0F0B0D"/>
<path fill-rule="evenodd" clip-rule="evenodd" d="M4.66417 9.72142C4.35496 10.054 4.09728 12.9278 3.89114 18.4792C3.80525 20.7561 3.79666 30.1279 3.88255 30.7163C3.95985 31.2365 4.15741 31.5691 4.35496 31.5008C4.41508 31.4838 4.51815 31.3047 4.58687 31.1C4.69852 30.8016 4.72429 29.8891 4.75865 26.2479C4.78442 21.95 4.83595 19.7754 4.93902 17.7373C4.96479 17.2257 5.02491 15.793 5.07645 14.5565C5.1194 13.3201 5.1967 11.7595 5.23106 11.0944C5.29118 10.0114 5.274 9.84933 5.13657 9.71289C4.93043 9.50823 4.86172 9.51675 4.66417 9.72994V9.72142Z" fill="#0F0B0D"/>
<path fill-rule="evenodd" clip-rule="evenodd" d="M69.0058 13.9085C68.542 13.9852 67.9493 14.062 67.683 14.0876C67.4254 14.1132 67.0904 14.1728 66.9272 14.2155C66.7726 14.2581 66.283 14.3263 65.845 14.369C64.9087 14.4372 64.6167 14.5736 64.6167 14.9744C64.6167 15.4264 64.9946 15.5543 66.1542 15.5117C66.6781 15.4861 67.4168 15.4179 67.7775 15.3582C68.1469 15.29 68.7739 15.2217 69.1947 15.1706C69.607 15.1365 70.2083 15.0171 70.5432 14.9233C71.0242 14.7954 71.1617 14.7016 71.2819 14.4798C71.4108 14.224 71.4108 14.1814 71.2733 13.9767C71.1445 13.7721 71.0672 13.755 70.4917 13.7635C70.1396 13.7721 69.4868 13.8317 69.0144 13.9L69.0058 13.9085Z" fill="#0F0B0D"/>
<path fill-rule="evenodd" clip-rule="evenodd" d="M18.0803 18.7777C17.1956 18.9056 15.7354 19.349 15.5207 19.5367C15.3146 19.7072 15.306 20.0483 15.4949 20.2103C15.6667 20.3468 16.7318 20.3468 17.1097 20.2103C17.2471 20.1506 17.8913 20.0312 18.5355 19.9374C19.7208 19.7584 19.9957 19.639 20.1245 19.2552C20.1503 19.1444 20.1159 18.9994 20.0129 18.8886C19.884 18.7351 19.7294 18.7095 19.0938 18.718C18.6729 18.7265 18.2263 18.7436 18.0975 18.7777H18.0803Z" fill="#0F0B0D"/>
<path fill-rule="evenodd" clip-rule="evenodd" d="M13.1417 22.9477C12.6177 23.3485 12.5318 25.2672 12.5147 36.5748C12.5061 43.3542 12.549 44.6163 12.8067 45.0938C13.0558 45.5373 13.2877 45.1876 13.4165 44.1984C13.4509 43.9341 13.5024 40.3013 13.511 36.1058C13.5282 31.9187 13.5711 27.3224 13.6055 25.8897C13.6399 24.4656 13.6399 23.2206 13.6141 23.1183C13.5282 22.871 13.3306 22.8028 13.1417 22.9392V22.9477Z" fill="#0F0B0D"/>
<path fill-rule="evenodd" clip-rule="evenodd" d="M47.3266 26.1541C47.2407 26.2735 47.1548 26.5464 47.129 26.751L47.0861 27.1177L46.4075 27.1774C46.0382 27.203 45.5572 27.2541 45.3425 27.2627C45.1277 27.2797 44.6639 27.4332 44.3375 27.5952C43.1179 28.1836 42.3706 28.9682 42.1301 29.8806C41.8638 30.9039 42.0356 31.4838 42.8087 32.2342C43.4614 32.8738 43.994 33.1296 45.9265 33.7436C48.2542 34.4599 49.4825 35.3639 49.6886 36.5066C49.7831 37.0523 49.3364 38.0074 48.7438 38.4935C47.7732 39.2865 46.2787 39.7897 45.4627 39.5765C44.767 39.3974 44.2345 39.2013 43.9338 39.0137C43.5473 38.7834 42.7657 37.8369 42.7657 37.6066C42.7657 37.5128 42.7228 37.4105 42.6712 37.3849C42.6111 37.3508 42.508 37.1888 42.4479 37.0097C42.1902 36.4213 41.5718 36.336 41.3571 36.8562C41.1853 37.2655 41.4602 38.0245 42.0614 38.8602C42.5853 39.6021 43.2811 40.1308 44.0369 40.4037C44.4664 40.5657 44.5093 40.5998 44.4921 40.8556C44.4062 42.041 44.4234 42.1774 44.6897 42.3394C44.8701 42.4588 44.956 42.4673 45.1621 42.3735C45.4112 42.2627 45.4799 42.0836 45.6603 41.2138L45.7462 40.8471L46.5364 40.7277C47.4898 40.5913 48.8555 39.9517 49.5168 39.3548C50.015 38.8858 50.5303 38.0415 50.7365 37.3678C50.9083 36.7965 50.8224 35.9864 50.5389 35.4406C50.1181 34.6134 49.0444 33.7095 47.8591 33.1893C47.3094 32.942 45.8235 32.4304 45.3768 32.3366C44.9216 32.2342 43.9596 31.7311 43.6418 31.4156C43.1866 30.9892 43.0921 30.6737 43.2381 30.1706C43.4528 29.4031 44.4234 28.6527 45.4799 28.4309C46.3904 28.2348 46.8026 28.2263 47.129 28.3713C47.3008 28.4565 47.5327 28.4992 47.6358 28.4736C47.9192 28.3968 48.6493 28.7976 49.3536 29.4201C49.7573 29.7868 50.4015 30.7504 50.4015 30.9977C50.4015 31.3047 50.6764 31.6373 50.8997 31.5947C51.2261 31.552 51.3807 30.9636 51.2089 30.3838C50.9169 29.4201 49.7659 28.1836 48.6923 27.672L48.2284 27.4503L48.2886 26.9045C48.3315 26.4952 48.3057 26.3161 48.1941 26.137C47.9879 25.8215 47.5327 25.8215 47.3266 26.137V26.1541Z" fill="#0F0B0D"/>
<path fill-rule="evenodd" clip-rule="evenodd" d="M35.9801 26.9983C35.7052 27.1688 35.3187 27.7657 34.6488 29.0449C33.7641 30.7675 33.0512 33.2063 32.9223 34.963C32.8622 35.7646 33.0941 38.2547 33.2487 38.5958C33.4291 38.9624 33.8242 39.0136 34.0389 38.6981C34.1592 38.502 34.1764 38.1523 34.1592 36.2848C34.142 34.8351 34.1678 33.9823 34.2365 33.7692C34.3052 33.5901 34.3997 33.1893 34.4598 32.8823C34.7346 31.5435 35.1555 30.4605 36.1347 28.5418C36.7875 27.2797 36.8476 26.913 36.4353 26.8789C36.3065 26.8618 36.1003 26.913 35.9629 26.9983H35.9801Z" fill="#0F0B0D"/>
<path fill-rule="evenodd" clip-rule="evenodd" d="M78.2646 27.5612C78.2646 27.5612 77.4744 27.655 76.5897 27.6976C75.1038 27.7658 74.9578 27.7829 74.7517 27.979C74.4596 28.2519 74.4596 28.5759 74.7602 28.7721C75.078 28.9767 76.9591 28.9597 78.9002 28.7294C79.888 28.61 80.2745 28.4992 80.3862 28.3201C80.5064 28.124 80.4721 27.8937 80.2745 27.6891C80.1113 27.527 79.9653 27.5015 79.2094 27.5015C78.7199 27.5015 78.299 27.527 78.2646 27.5612Z" fill="#0F0B0D"/>
<path fill-rule="evenodd" clip-rule="evenodd" d="M81.7348 30.0512C81.6318 30.2217 81.5974 30.9466 81.5459 33.539C81.4428 39.2354 81.2367 45.8528 81.0735 49.1103C81.0133 50.0654 81.1078 50.6453 81.3225 50.6794C81.5373 50.7135 81.6403 50.4492 81.8293 49.5282C81.941 48.9568 82.2158 45.9892 82.2502 44.9403C82.2502 44.7357 82.2931 43.7635 82.3447 42.7914C82.6453 36.1143 82.5938 30.4008 82.2244 29.9574C82.0698 29.7783 81.8894 29.8039 81.7348 30.0427V30.0512Z" fill="#0F0B0D"/>
<path fill-rule="evenodd" clip-rule="evenodd" d="M58.458 31.4327C58.4237 31.4924 58.4494 32.0211 58.5182 32.6265C58.647 33.9398 58.5783 36.6771 58.3807 37.3679C58.1145 38.2974 57.7623 39.3036 57.5304 39.7385C56.3107 42.0921 56.1561 42.5526 56.5169 42.7317C56.6028 42.7914 56.766 42.7914 56.8776 42.7488C57.0838 42.6635 57.6678 41.9898 57.6678 41.8363C57.6678 41.7766 57.728 41.6743 57.7881 41.6146C57.9942 41.4099 58.7243 39.8153 59.0679 38.8261C59.8838 36.4895 59.9526 33.4622 59.2311 31.7994C59.0507 31.3815 58.6298 31.1854 58.4666 31.4327H58.458Z" fill="#0F0B0D"/>
<path fill-rule="evenodd" clip-rule="evenodd" d="M19.6864 45.0938C19.5576 45.1365 19.1281 45.2644 18.7416 45.3752C18.3551 45.4776 17.9085 45.6225 17.7539 45.6652C17.4189 45.7846 16.9551 45.921 16.4225 46.0404C15.9501 46.1513 15.6323 46.4327 15.6323 46.7141C15.6323 47.0381 15.8127 47.1575 16.3538 47.1575C16.8176 47.1575 17.144 47.0893 18.5527 46.6885C18.8876 46.5947 19.4717 46.4327 19.8582 46.3218C20.7601 46.066 21.0006 45.9125 21.0006 45.5714C21.0006 45.4179 20.9319 45.2559 20.8631 45.1876C20.6828 45.0341 19.9956 44.983 19.6864 45.0938Z" fill="#0F0B0D"/>
<path fill-rule="evenodd" clip-rule="evenodd" d="M77.0195 54.3632C76.7103 54.4059 76.2465 54.4485 75.9802 54.457C75.0783 54.4826 73.9617 54.6873 73.7642 54.8664C73.5752 55.0369 73.5151 55.3354 73.6525 55.54C73.747 55.6765 74.5458 55.8641 74.8293 55.8129C74.9409 55.7873 75.336 55.7362 75.6968 55.7106C78.4539 55.4548 78.9607 55.3951 79.2956 55.233C79.6907 55.0369 79.7852 54.7811 79.5705 54.4912C79.4502 54.3206 79.3128 54.3035 78.5054 54.295C77.9987 54.2865 77.3287 54.3206 77.0195 54.3632Z" fill="#0F0B0D"/>
</g>
<defs>
<clipPath id="clip0_35_1277">
<rect width="87" height="60" fill="white"/>
</clipPath>
</defs>
</svg>
