<svg width="31" height="48" viewBox="0 0 31 48" fill="none" xmlns="http://www.w3.org/2000/svg">
<g clip-path="url(#clip0_41_548)">
<path d="M28.3589 24.2216C27.8581 24.0009 28.1018 23.5423 28.1932 23.289C28.2618 23.099 28.6978 22.9532 29.0082 23.195C28.7911 23.5365 28.576 23.88 28.3589 24.2216Z" fill="#0F0E0D"/>
<path d="M27.5858 25.3097C27.2716 24.5805 27.7096 24.4212 28.2885 24.3694C28.0542 24.6822 27.82 24.9969 27.5858 25.3097Z" fill="#0F0E0D"/>
<path d="M29.2539 8.59517C28.4732 8.54143 28.6293 7.91584 28.5551 7.43225C28.894 7.75464 29.0425 8.1941 29.2539 8.59517Z" fill="#0F0E0D"/>
<path d="M29.2939 8.76214C29.3148 8.69882 29.2996 8.64317 29.252 8.59519C28.4713 8.54146 28.6274 7.91586 28.5532 7.43228C28.5646 7.36895 28.5436 7.32289 28.4884 7.29027C27.721 7.09453 27.1707 6.35188 27.2107 5.56509C26.2339 4.3542 25.1047 3.31793 23.7775 2.50812C23.4576 2.77294 23.429 2.54266 23.4119 2.29511C23.0482 2.19532 22.4655 2.4966 22.4503 1.7597C22.3989 1.73284 22.3455 1.72132 22.2884 1.72516C21.5991 1.75011 21.0355 1.3452 20.4185 1.13603C18.2992 0.420241 16.1513 0.176528 13.9405 0.535381C13.6282 0.585276 13.3693 0.581438 13.3121 0.184204C13.1865 0.195718 13.0608 0.209151 12.937 0.220665C12.8875 0.63517 12.5466 0.52003 12.2934 0.602547C11.2556 0.938372 10.1588 1.10341 9.20482 1.6887C9.02011 1.80192 8.78018 2.03988 8.55549 1.71173C8.40506 1.729 8.25463 1.75011 8.18037 1.91131C8.07564 2.47357 7.6472 2.47741 7.21876 2.48317C7.21305 2.89192 6.92361 2.8804 6.63799 2.87273C6.51802 2.95332 6.39806 3.032 6.28 3.1126C6.05531 3.88404 5.52785 4.29663 4.75285 4.41177C4.69001 4.47126 4.62717 4.53074 4.56434 4.59023C4.5015 4.65548 4.43676 4.72264 4.37392 4.78789C4.40439 5.12372 4.43485 5.45954 4.46913 5.85102C4.16256 5.81264 3.86931 5.77618 3.57416 5.73972C3.52275 5.7992 3.47134 5.85869 3.41993 5.91818C3.41041 6.18684 3.60844 6.29047 3.93596 6.46702C3.43897 6.47853 3.24284 7.01969 2.7687 6.77982L2.73252 6.82395C3.10383 7.66064 2.81059 8.18452 2.1308 8.78709C1.43958 9.39925 1.13111 10.3549 1.12539 11.3259C1.12158 12.1665 0.862617 12.8726 0.219005 13.4215C0.211388 13.5501 0.205676 13.6786 0.198059 13.8072C0.466548 13.8398 0.754079 13.9319 0.687433 14.2505C0.517961 15.0699 0.552236 15.8797 0.645541 16.7011C0.677912 16.9889 0.424656 17.1309 0.199963 17.2556L0.220909 17.6414C0.851192 17.8563 0.773121 18.5279 0.963538 18.9732C1.23584 19.6122 1.30058 20.3644 1.14634 21.0898C1.14634 21.2433 1.13491 21.4026 1.3101 21.4832C1.84517 21.5984 2.19744 22.318 2.07748 23.0587C2.0851 23.2026 2.10604 23.3408 2.266 23.3984C2.68111 23.4118 2.67349 23.6958 2.64493 23.9933C3.65224 24.3233 4.02926 25.1197 4.17398 26.0907C4.57195 26.0907 4.56814 26.3747 4.56243 26.6588C4.96041 26.6664 4.94708 26.9524 4.94517 27.2325C5.23461 27.269 5.35457 27.3976 5.17939 27.6835C5.18129 27.7238 5.20033 27.7507 5.23842 27.7641C5.38504 27.6854 5.55641 27.6144 5.64591 27.8063C6.19241 28.9712 6.99597 30.0113 7.24923 31.3219C7.4206 32.2104 7.61483 33.1028 7.99186 33.9356C7.47011 33.8301 7.79573 34.8663 7.13878 34.5804L7.10832 34.6188C7.1445 34.7685 7.25494 34.9565 7.20353 35.064C6.75414 36.0235 7.04357 37.0195 7.02834 38.0001C7.04357 38.1632 7.13307 38.2745 7.27588 38.3455C7.56913 38.3416 7.81477 38.3935 7.7862 38.7753C7.80715 38.8886 7.8281 39.0037 7.85095 39.1169C7.8319 40.0745 7.81096 41.0321 7.79001 41.9897C7.82238 42.3428 8.03946 42.5711 8.30033 42.7745C8.57453 42.7553 8.7421 42.8628 8.74591 43.1603C8.81446 43.2102 8.88301 43.2581 8.95156 43.308C9.2448 43.0451 9.2886 43.2658 9.32478 43.5038C9.49806 43.6227 9.66943 43.7475 9.89794 43.7033C9.96839 43.5959 10.0674 43.5172 10.1721 43.6266C10.2769 43.736 10.1931 43.8338 10.0864 43.901C10.0922 44.0296 10.0998 44.1581 10.1055 44.2848C10.6444 44.517 10.631 44.9929 10.6234 45.4669C11.0481 45.4439 11.0347 45.7413 11.029 46.0368C11.1547 46.2844 11.3337 46.4763 11.5869 46.5914C11.8745 46.5857 12.1677 46.5742 12.1582 46.9925C13.0665 47.2554 14.0414 47.3187 14.8393 47.9079C14.9669 47.9155 15.0925 47.9232 15.2201 47.9309C15.4715 47.6584 15.7247 47.6584 15.9818 47.9251C16.1094 47.9194 16.2369 47.9117 16.3645 47.9059C16.5378 47.4396 16.7682 47.2631 17.13 47.7524L17.507 47.7064C17.8231 47.0155 18.4782 47.0693 19.0704 46.9848C19.3998 46.9234 19.6245 46.7142 19.8054 46.4475C19.792 46.0292 19.9939 45.8258 20.409 45.8373C20.4566 45.7739 20.5061 45.7106 20.5537 45.6473C20.6546 45.0639 20.6013 44.4057 21.2792 44.0967C21.4715 43.5345 22.1532 43.6976 22.4522 43.2927C22.4217 42.859 22.6407 42.7112 23.0387 42.7669C23.3586 41.5732 23.5985 40.4084 23.1015 39.163C22.8768 38.6007 23.4271 38.3608 23.9641 38.3397L23.9698 38.334C23.9698 37.4934 24.4649 36.7067 24.2554 35.8373C24.2478 35.8047 24.4401 35.7222 24.5392 35.6646C24.5201 35.4708 24.6382 35.1906 24.2611 35.2252C24.2193 35.254 24.1755 35.2828 24.1336 35.3115C24.1621 35.2674 24.1888 35.2252 24.2173 35.181C24.442 34.8279 24.1031 34.7071 23.947 34.5094C23.4842 34.4173 23.5566 34.0392 23.6118 33.7552C23.9051 32.2066 24.2212 30.6618 24.8914 29.2206C24.9866 29.0172 25.1028 28.8426 25.3351 28.7869C25.3389 28.4684 25.1618 28.0596 25.7178 28.0251C25.6969 27.578 25.7007 27.1462 26.2853 27.0637C26.3119 26.5148 26.3043 25.941 27.0965 25.9622C27.0165 25.6724 27.1288 25.5265 27.424 25.5131C27.4792 25.4459 27.5363 25.3788 27.5915 25.3135C27.2774 24.5843 27.7153 24.425 28.2942 24.3732C28.3132 24.3636 28.3266 24.3521 28.3361 24.3387C28.3399 24.3041 28.3494 24.2734 28.3646 24.2447C28.3646 24.2389 28.3646 24.2331 28.3646 24.2255C27.8638 24.0048 28.1076 23.5461 28.199 23.2928C28.2675 23.1028 28.7036 22.957 29.014 23.1988C29.073 23.1815 29.0978 23.1431 29.0882 23.0817C30.1603 21.1551 30.7753 19.0787 30.9505 16.8853C31.1771 14.026 30.7182 11.2933 29.3015 8.76598L29.2939 8.76214ZM8.27939 34.8318C8.18418 34.8356 8.09087 34.8395 7.99566 34.8452V33.9375C8.70973 34.2062 8.25654 34.5305 8.27939 34.8318ZM16.0256 45.9908C14.5022 46.1328 13.1369 45.7759 12.1887 44.4383C12.0687 44.2694 11.8592 44.0871 11.9678 43.8492C12.0896 43.5824 12.3619 43.7206 12.56 43.7206C14.7993 43.7091 17.0386 43.7129 19.4379 43.7129C18.6419 45.1963 17.4823 45.8565 16.0256 45.9927V45.9908ZM21.8124 40.7116C21.7667 41.4351 21.3287 41.792 20.6146 41.792C17.2861 41.792 13.9576 41.7978 10.631 41.7805C9.89984 41.7767 9.241 41.1568 9.34001 40.5427C9.45236 39.8404 9.8808 39.4681 10.6577 39.4854C12.3048 39.5218 13.9538 39.4969 15.6029 39.4969V39.5007C17.2519 39.5007 18.899 39.495 20.548 39.5026C21.2963 39.5065 21.8562 40.0227 21.8143 40.7097L21.8124 40.7116ZM22.6616 36.8084C22.2618 37.4493 21.6638 37.5817 20.9536 37.5798C17.3928 37.5683 13.8339 37.5875 10.2731 37.5971C10.2159 37.6969 10.155 37.6988 10.0922 37.6028C9.45617 37.5549 8.81636 37.4647 8.58596 36.747C8.40697 36.1885 8.56882 35.7049 9.13817 35.4324C9.23909 34.968 9.61231 35.0909 9.90555 35.0909C13.6358 35.0851 17.3661 35.0851 21.0964 35.0909C21.3877 35.0909 21.761 34.9642 21.8733 35.419C22.2142 35.4248 22.4731 35.5821 22.6673 35.8546C23.2291 36.177 23.2291 36.4936 22.6597 36.8064L22.6616 36.8084ZM14.4432 23.8743C14.4432 23.5269 14.4127 23.1777 14.3975 22.8303C14.169 23.1815 14.2756 23.5768 14.2756 23.9491C14.2661 27.0042 14.2699 30.0592 14.2699 33.2083C13.9843 32.9281 14.089 32.6748 14.089 32.4561C14.0814 29.33 14.0757 26.2059 14.1005 23.0798C14.1005 22.8783 13.7767 22.3986 14.3918 22.4254C14.4756 22.3045 14.5594 22.1836 14.6451 22.0608C14.8469 21.7998 15.0449 21.8133 15.2411 22.0666C15.6143 22.1433 15.9856 22.1453 16.3569 22.0589C17.0557 21.89 17.1205 21.9361 17.1243 22.7901C17.1338 25.7741 17.1281 28.7562 17.1281 31.7403C17.1281 32.1202 17.1243 32.5021 17.1262 32.8821C17.1262 33.1354 17.0386 33.3119 16.772 33.358C16.6368 33.5557 16.4464 33.5326 16.2522 33.4846C15.7742 33.4866 15.2963 33.4885 14.8183 33.4904C14.1709 33.5019 14.4642 32.9991 14.4622 32.7401C14.4413 29.7848 14.4508 26.8276 14.447 23.8724L14.4432 23.8743ZM28.5227 20.0727C28.2866 20.777 28.2009 21.6329 27.4107 22.0493C27.365 22.0743 27.3516 22.1088 27.3707 22.1587C27.3897 22.4561 27.4411 22.7747 27.0051 22.8092C27.0622 23.4156 26.8185 23.8129 26.211 23.9549C26.1006 24.095 25.9901 24.237 25.8797 24.3771C25.9044 24.9547 25.6817 25.3519 25.0933 25.4824C25.099 25.659 25.0609 25.8067 24.8572 25.8355C24.9581 26.3517 24.5944 26.6799 24.324 27.0195C24.2059 27.1673 24.1888 26.9293 24.1545 26.8411C23.966 27.173 23.7756 27.5031 23.5871 27.8351L22.1056 31.8266C22.2122 32.3332 21.8314 32.7573 21.8904 33.2755C21.9342 33.6593 21.542 33.5384 21.323 33.5403C20.449 33.5499 19.5769 33.5403 18.7029 33.5384C18.4153 33.3945 18.4572 33.122 18.4572 32.8744C18.4572 29.5392 18.4572 26.204 18.4572 22.8668C18.4572 22.6461 18.4363 22.4158 18.6381 22.2547C18.7067 22.1875 18.7771 22.1203 18.8457 22.0532C19.276 21.748 19.7159 21.7903 20.1614 22.0186C21.0012 22.1798 21.4258 21.5158 21.9723 21.0956C22.0637 21.0169 22.1551 20.9363 22.2484 20.8576L22.2046 20.8423C22.9511 19.6813 22.9435 18.4857 22.3722 17.2614C21.0393 15.5535 19.893 15.2503 18.1506 16.3115C17.09 16.9582 16.8634 18.1403 16.8215 19.2821C16.7968 19.9864 16.6102 20.186 15.9113 20.1629C14.5156 20.1169 14.5479 20.1533 14.2452 18.6891C14.0433 17.7143 13.7596 16.7471 12.8551 16.1445C12.7485 16.0755 12.6438 16.0064 12.5371 15.9392L12.5466 15.9469C11.7298 15.6283 10.911 15.6725 10.0903 15.9392L10.115 15.9354C9.93031 16.0563 9.7456 16.1791 9.5628 16.3L9.52091 16.3364C9.40666 16.4957 9.31907 16.6953 9.06771 16.6492C8.54026 17.1751 8.61833 17.9753 8.21655 18.574C8.09087 18.7621 8.17275 19.1017 8.27939 19.3877C8.97251 21.2548 10.1455 22.3794 12.2648 22.1146L12.5619 22.2642C12.8132 22.4446 12.7523 22.7152 12.7523 22.9608C12.7561 26.227 12.7561 29.495 12.7523 32.7612C12.7523 33.0567 12.8685 33.4252 12.4305 33.548L12.3658 33.5614C11.4213 33.8608 10.473 33.8435 9.52662 33.5729C9.4733 33.548 9.41808 33.5365 9.35905 33.5403C9.1972 33.5211 9.0163 33.4827 8.99155 33.3023C8.7421 31.4563 8.09658 29.7445 7.30826 28.0769C7.21876 27.8888 7.25875 27.6413 7.2378 27.4206V27.4168C6.77318 27.3016 6.65322 26.9984 6.77318 26.5609L6.76366 26.5666C5.86489 26.1848 5.67257 25.3097 5.35647 24.5229C4.96041 24.5344 4.96421 24.2504 4.9566 23.9741C4.89947 23.8992 4.84235 23.8225 4.78332 23.7476C3.89216 23.1547 3.42564 22.3065 3.29615 21.2548C3.08289 21.1723 3.06956 20.9862 3.06956 20.7924C3.05242 20.6964 3.03719 20.6024 3.02005 20.5064C2.97435 20.4278 2.92865 20.3491 2.88295 20.2704C2.90009 20.2147 2.88866 20.1687 2.84677 20.1284C2.79916 20.0536 2.75346 19.9806 2.70586 19.9058L2.71157 19.8828C1.95561 19.2879 2.09652 18.3552 1.9499 17.5761C1.47005 15.0315 1.90039 12.5656 2.88485 10.188C3.06385 9.75427 3.2276 9.30522 3.69413 9.08454L3.68842 9.06918C3.60844 8.75447 3.60082 8.48005 4.02926 8.44743C4.17398 8.40521 4.22539 8.29966 4.21397 8.15574C4.19302 7.81416 4.19683 7.48985 4.67097 7.49752C4.87281 7.28835 5.07466 7.07726 5.2765 6.86809L5.29173 6.85658C5.35838 6.78749 5.42312 6.72033 5.48977 6.65124H5.46501C5.52404 6.58408 5.58117 6.51499 5.6402 6.44591L5.65353 6.49005C5.66495 6.35763 5.74112 6.28663 5.86679 6.26168L5.83061 6.25209C5.89345 6.19068 5.95629 6.12735 6.01913 6.06403L6.03436 6.09857C6.07054 5.97575 6.12767 5.8798 6.28 5.90475L6.21907 5.88748C6.28762 5.82031 6.35807 5.75123 6.42662 5.68406L6.44757 5.74739C6.43233 5.59195 6.53706 5.54782 6.65703 5.51903L6.62656 5.51327C6.82459 5.33673 7.02453 5.16018 7.22257 4.98555L7.25875 4.94909C7.49296 4.7783 7.72717 4.6075 7.96329 4.43671C12.0268 1.84798 16.3264 1.15522 20.7879 3.16058C23.0939 4.19684 25.1637 5.6879 26.4833 7.98879C26.5671 8.13655 26.6547 8.24785 26.8204 8.28431C27.8334 9.01161 28.1057 10.1937 28.5208 11.2511C29.669 14.1737 29.5129 17.1424 28.5322 20.0727H28.5227ZM18.6438 19.522C18.7162 18.6604 19.2646 17.6913 19.7178 17.8409C20.2243 18.0079 20.8165 18.1749 20.7746 18.9636C20.7346 19.7043 20.2357 20.138 19.2474 20.1265C18.8342 20.1975 18.5962 20.0804 18.6419 19.522H18.6438ZM11.9773 20.1399C11.1471 20.1687 10.3816 19.7081 10.2997 19.0672C10.2293 18.5068 10.77 17.7469 11.2613 17.7181C11.8383 17.6855 12.3277 18.455 12.4324 19.5719C12.5466 19.9595 12.4172 20.1246 11.9773 20.1399Z" fill="#1A1A19"/>
<path d="M23.0425 42.7668C23.0425 42.7668 23.0387 42.7668 23.0368 42.7668C23.0368 42.7707 23.0368 42.7726 23.0349 42.7764L23.0425 42.7688V42.7668Z" fill="#1A1A19"/>
<path d="M10.6234 45.4804C10.6234 45.4804 10.6234 45.4727 10.6234 45.4689C10.6196 45.4689 10.6158 45.4689 10.612 45.4689L10.6234 45.4804Z" fill="#1A1A19"/>
<path d="M12.1601 47.0021C12.1601 47.0021 12.1601 46.9983 12.1601 46.9945C12.1563 46.9945 12.1525 46.9945 12.1506 46.9926L12.162 47.0021H12.1601Z" fill="#1A1A19"/>
<path d="M4.94466 27.2376C4.94466 27.2376 4.94466 27.2342 4.94466 27.2325C4.94466 27.2325 4.943 27.2325 4.94135 27.2325L4.94466 27.2376Z" fill="#1A1A19"/>
<path d="M25.7235 28.0212C25.7235 28.0212 25.7159 28.0212 25.7121 28.0212C25.7121 28.0251 25.7121 28.0289 25.7121 28.0328L25.7235 28.0212Z" fill="#1A1A19"/>
<path d="M25.3446 28.7811C25.3446 28.7811 25.3351 28.785 25.3313 28.785C25.3313 28.7888 25.3313 28.7926 25.3313 28.7984L25.3446 28.7811Z" fill="#1A1A19"/>
<path d="M26.291 27.0598C26.291 27.0598 26.2833 27.0598 26.2795 27.0598C26.2795 27.0636 26.2795 27.0655 26.2795 27.0694L26.291 27.0579V27.0598Z" fill="#1A1A19"/>
<path d="M4.56168 26.6655C4.56168 26.6655 4.56168 26.6605 4.56168 26.6588C4.56168 26.6588 4.55836 26.6588 4.5567 26.6588L4.56002 26.6655H4.56168Z" fill="#1A1A19"/>
<path d="M2.64491 24.0028C2.64491 24.0028 2.64491 23.999 2.64491 23.9952C2.6411 23.9952 2.63729 23.9933 2.63348 23.9913L2.643 24.0028H2.64491Z" fill="#1A1A19"/>
<path d="M26.9993 22.8085C26.9993 22.8085 27.0026 22.8085 27.0043 22.8085C27.0043 22.8068 27.0043 22.8051 27.0043 22.8035L26.9993 22.8102V22.8085Z" fill="#1A1A19"/>
<path d="M24.84 25.8393C24.84 25.8393 24.8515 25.8374 24.8572 25.8355C24.8572 25.8278 24.8553 25.8182 24.8534 25.8105L24.84 25.8393Z" fill="#1A1A19"/>
<path d="M4.17589 26.1003C4.17589 26.1003 4.17589 26.0946 4.17589 26.0927C4.17208 26.0927 4.17018 26.0927 4.16827 26.0927L4.1778 26.1022L4.17589 26.1003Z" fill="#1A1A19"/>
<path d="M5.34888 24.5248V24.5268H5.3509L5.34888 24.5248Z" fill="#1A1A19"/>
<path d="M25.0856 25.4843C25.0856 25.4843 25.0913 25.4824 25.0952 25.4805C25.0952 25.4785 25.0952 25.4747 25.0952 25.4728L25.0856 25.4824V25.4843Z" fill="#1A1A19"/>
<path d="M23.4119 2.28939V2.29323C23.4138 2.29323 23.4176 2.29323 23.4195 2.29323L23.41 2.28748L23.4119 2.28939Z" fill="#1A1A19"/>
<path d="M3.28663 21.2338C3.28663 21.2338 3.29044 21.251 3.29044 21.2587C3.29425 21.2587 3.29806 21.2625 3.30187 21.2645L3.28473 21.2338H3.28663Z" fill="#1A1A19"/>
<path d="M7.21112 2.48509C7.21112 2.48509 7.21683 2.48509 7.22064 2.48509C7.22064 2.48317 7.22064 2.48125 7.22064 2.47742L7.21112 2.48509Z" fill="#1A1A19"/>
<path d="M2.73251 6.82776C3.10382 7.66444 2.81058 8.18833 2.13079 8.7909C1.43957 9.40306 1.13109 10.3587 1.12538 11.3297C1.12157 12.1703 0.862606 12.8765 0.218994 13.4253C0.504621 11.0131 1.36912 8.82544 2.73251 6.82776Z" fill="#0F0E0D"/>
<path d="M22.2884 1.72326C21.5991 1.7482 21.0354 1.34329 20.4185 1.13412C18.2991 0.418334 16.1512 0.174621 13.9405 0.533474C13.6282 0.583368 13.3692 0.57953 13.3121 0.182297C16.4673 -0.268669 19.4892 0.0613997 22.2865 1.72134L22.2884 1.72326Z" fill="#0F0E0D"/>
<path d="M7.99564 33.9357C7.47199 33.8282 7.79951 34.8664 7.14257 34.5804C7.41677 34.3079 7.42819 34.0047 7.35584 33.6267C6.96167 31.5561 6.27426 29.5987 5.2403 27.7661C5.38692 27.6874 5.55829 27.6164 5.64779 27.8083C6.19429 28.9731 6.99785 30.0132 7.25111 31.3239C7.42248 32.2124 7.61671 33.1047 7.99564 33.9376V33.9357Z" fill="#0F0E0D"/>
<path d="M0.198024 13.8091C0.466513 13.8417 0.754044 13.9338 0.687397 14.2524C0.517926 15.0718 0.552201 15.8816 0.645505 16.7029C0.677876 16.9908 0.424621 17.1328 0.199928 17.2575C-0.0438066 16.108 -0.0876027 14.9586 0.199928 13.8091H0.198024Z" fill="#0F0E0D"/>
<path d="M23.9431 34.5094C23.4804 34.4173 23.5528 34.0392 23.608 33.7552C23.9012 32.2066 24.2173 30.6618 24.8876 29.2206C24.9847 29.0114 25.1028 28.833 25.3446 28.7831C24.6877 30.4891 24.0688 32.2047 23.9222 34.0507C23.9108 34.2023 23.9355 34.3578 23.9431 34.5113V34.5094Z" fill="#0F0E0D"/>
<path d="M0.220886 17.6453C0.851169 17.8602 0.773098 18.5318 0.963515 18.9771C1.23581 19.6161 1.30055 20.3683 1.14632 21.0937C0.618859 20.0037 0.331328 18.8485 0.220886 17.6453Z" fill="#0F0E0D"/>
<path d="M23.0349 42.7765C23.3548 41.579 23.5985 40.4123 23.0996 39.1649C22.8749 38.6027 23.4252 38.3628 23.9622 38.3417C23.3909 38.76 23.3376 39.2513 23.5985 39.9133C24.006 40.9554 23.7546 41.9283 23.0368 42.7765H23.0349Z" fill="#0F0E0D"/>
<path d="M12.9389 0.220669C12.8894 0.635173 12.5485 0.520033 12.2953 0.60255C11.2575 0.938376 10.1607 1.10341 9.2067 1.68871C9.02199 1.80193 8.78207 2.03988 8.55737 1.71173C9.90934 0.886563 11.3813 0.426002 12.9389 0.21875V0.220669Z" fill="#0F0E0D"/>
<path d="M7.11021 34.6188C7.14638 34.7685 7.25683 34.9565 7.20541 35.064C6.75603 36.0235 7.04546 37.0194 7.03023 38.0001C6.17335 36.8525 6.34663 35.728 7.11021 34.6188Z" fill="#0F0E0D"/>
<path d="M23.9659 38.334C23.9659 37.4935 24.461 36.7067 24.2516 35.8374C24.244 35.8048 24.4363 35.7222 24.5353 35.6647C24.958 36.6875 24.6495 37.553 23.9659 38.3359V38.334Z" fill="#0F0E0D"/>
<path d="M2.63538 23.9913C3.65411 24.3195 4.03304 25.1235 4.17586 26.1003C3.58366 25.4555 3.03335 24.78 2.63538 23.9913Z" fill="#0F0E0D"/>
<path d="M7.85093 39.1189L7.78999 41.9916C7.25301 41.0225 7.39773 40.0669 7.85093 39.1189Z" fill="#0F0E0D"/>
<path d="M12.1486 46.9906C13.0607 47.2554 14.0395 47.3187 14.8411 47.9079C13.8452 47.8964 12.9465 47.5951 12.1486 46.9906Z" fill="#0F0E0D"/>
<path d="M28.4903 7.29025C27.7229 7.09451 27.1726 6.35185 27.2126 5.56506C27.7058 6.08895 28.1514 6.65122 28.4903 7.29025Z" fill="#0F0E0D"/>
<path d="M1.31006 21.4871C1.84513 21.6022 2.1974 22.3218 2.07744 23.0626C1.70803 22.5943 1.45478 22.0685 1.31006 21.4871Z" fill="#0F0E0D"/>
<path d="M6.27996 3.1145C6.05526 3.88594 5.52781 4.29853 4.75281 4.41367C5.18886 3.89362 5.72394 3.49063 6.27996 3.1145Z" fill="#0F0E0D"/>
<path d="M4.37391 4.78796C4.40438 5.12379 4.43485 5.45961 4.46912 5.85301C4.16255 5.81463 3.86931 5.77817 3.57416 5.74171C3.78743 5.37902 4.03878 5.04703 4.37391 4.78796Z" fill="#0F0E0D"/>
<path d="M17.507 47.7064C17.8231 47.0156 18.4781 47.0693 19.0703 46.9849C18.6362 47.4166 18.0649 47.5491 17.507 47.7064Z" fill="#0F0E0D"/>
<path d="M20.5537 45.6474C20.6546 45.064 20.6013 44.4058 21.2792 44.0968C21.1821 44.6821 20.9631 45.2098 20.5537 45.6474Z" fill="#0F0E0D"/>
<path d="M3.41991 5.922C3.41038 6.19066 3.60842 6.29428 3.93594 6.47083C3.43895 6.48235 3.24282 7.0235 2.76868 6.78363C2.98575 6.49578 3.20473 6.20985 3.42181 5.922H3.41991Z" fill="#0F0E0D"/>
<path d="M26.2795 27.0714C26.3062 26.5187 26.2948 25.9372 27.0945 25.9603C26.8222 26.3306 26.5518 26.701 26.2795 27.0714Z" fill="#0F0E0D"/>
<path d="M10.1055 44.2867C10.6501 44.5209 10.631 45.0025 10.6234 45.4784C10.3206 45.1388 10.1397 44.7454 10.1055 44.2867Z" fill="#0F0E0D"/>
<path d="M8.18225 1.91321C8.07752 2.47931 7.64337 2.47931 7.21112 2.48507C7.48913 2.21641 7.80713 2.01492 8.18225 1.91321Z" fill="#0F0E0D"/>
<path d="M23.4214 2.29513C23.0577 2.18767 22.4674 2.50047 22.4521 1.75781C22.7797 1.92668 23.1757 1.97658 23.4214 2.29513Z" fill="#0F0E0D"/>
<path d="M25.714 28.0327C25.6931 27.5799 25.6912 27.1385 26.291 27.0598C26.0987 27.3841 25.9064 27.7084 25.714 28.0327Z" fill="#0F0E0D"/>
<path d="M16.3645 47.9059C16.5378 47.4396 16.7682 47.2631 17.13 47.7524C16.9034 47.9462 16.6387 47.9481 16.3645 47.9059Z" fill="#0F0E0D"/>
<path d="M15.2201 47.9329C15.4714 47.6604 15.7247 47.6604 15.9818 47.9271C15.7285 48.0212 15.4753 48.0308 15.2201 47.9329Z" fill="#0F0E0D"/>
<path d="M19.8054 46.4495C19.792 46.0311 19.9939 45.8277 20.409 45.8392C20.2738 46.1098 20.07 46.3094 19.8054 46.4495Z" fill="#0F0E0D"/>
<path d="M25.3313 28.7965C25.3408 28.4741 25.1485 28.05 25.7254 28.0212C25.5941 28.2803 25.4627 28.5394 25.3313 28.7965Z" fill="#0F0E0D"/>
<path d="M22.4521 43.2927C22.4217 42.8571 22.6425 42.7093 23.0443 42.7669C22.9053 43.0087 22.7206 43.1968 22.4521 43.2927Z" fill="#0F0E0D"/>
<path d="M11.5869 46.5934C11.8763 46.5876 12.1715 46.5761 12.1601 47.0002C11.9278 46.9234 11.7202 46.8102 11.5869 46.5934Z" fill="#0F0E0D"/>
<path d="M7.22067 2.47937C7.21876 2.89579 6.92742 2.88428 6.63989 2.8766C6.7808 2.66359 6.99597 2.56381 7.22067 2.47937Z" fill="#0F0E0D"/>
<path d="M10.612 45.4688C11.0481 45.4381 11.0347 45.7413 11.029 46.0388C10.81 45.9083 10.6729 45.7164 10.612 45.4688Z" fill="#0F0E0D"/>
<path d="M2.26788 23.4003C2.6868 23.4137 2.67538 23.7016 2.64681 24.0009C2.43164 23.857 2.34024 23.6344 2.26788 23.4003Z" fill="#0F0E0D"/>
<path d="M4.16632 26.0907C4.57762 26.0869 4.5681 26.3767 4.56239 26.6664C4.431 26.4745 4.29771 26.2826 4.16632 26.0907Z" fill="#0F0E0D"/>
<path d="M4.55859 26.6588C4.96418 26.6646 4.94895 26.9563 4.94514 27.2384C4.81566 27.0445 4.68617 26.8526 4.55859 26.6588Z" fill="#0F0E0D"/>
<path d="M7.27777 38.3475C7.57101 38.3436 7.81665 38.3955 7.78809 38.7773C7.56911 38.6929 7.38821 38.5624 7.27777 38.3475Z" fill="#0F0E0D"/>
<path d="M9.89984 43.7053C9.9703 43.5978 10.0693 43.5192 10.174 43.6285C10.2788 43.7379 10.195 43.8358 10.0884 43.903C10.0255 43.8377 9.96268 43.7705 9.89984 43.7053Z" fill="#0F0E0D"/>
<path d="M8.95154 43.3099C9.24478 43.047 9.28858 43.2677 9.32476 43.5056C9.20099 43.4404 9.07531 43.3752 8.95154 43.3099Z" fill="#0F0E0D"/>
<path d="M8.30219 42.7764C8.57639 42.7573 8.74395 42.8647 8.74776 43.1622C8.54021 43.1046 8.39739 42.9664 8.30219 42.7764Z" fill="#0F0E0D"/>
<path d="M4.94135 27.2325C5.23459 27.269 5.35646 27.3957 5.17937 27.6835C5.09939 27.5338 5.01942 27.3822 4.94135 27.2325Z" fill="#0F0E0D"/>
<path d="M27.0907 25.9622C27.0088 25.6724 27.1231 25.5247 27.4182 25.5112C27.3097 25.6609 27.1993 25.8125 27.0907 25.9622Z" fill="#0F0E0D"/>
<path d="M23.7794 2.50819C23.4576 2.77494 23.4309 2.54082 23.4138 2.28943C23.5356 2.36235 23.6575 2.43527 23.7794 2.50819Z" fill="#0F0E0D"/>
<path d="M26.211 23.955C26.1005 24.095 25.9901 24.2371 25.8796 24.3771C25.615 24.7456 25.3484 25.116 25.0837 25.4844L25.0932 25.4748C25.0094 25.5957 24.9237 25.7185 24.84 25.8394L24.8533 25.8106C24.4877 26.062 24.2668 26.4132 24.1545 26.8392C23.9659 27.1712 23.7755 27.5013 23.587 27.8333C22.6425 28.9943 22.2027 30.3452 22.1037 31.8248C22.2103 32.3314 21.8295 32.7555 21.8885 33.2736C21.9323 33.6574 21.54 33.5365 21.321 33.5385C20.447 33.5481 19.5749 33.5385 18.7009 33.5365C18.6838 33.1547 18.6552 32.7747 18.6533 32.3928C18.6438 29.0135 18.64 25.6341 18.6342 22.2547C18.7028 22.1876 18.7733 22.1204 18.8418 22.0532C19.2798 22.0417 19.7177 22.0302 20.1576 22.0187C20.9973 22.1799 21.422 21.5159 21.9685 21.0956C22.0599 21.017 22.1513 20.9364 22.2446 20.8577L22.2008 20.8423C23.5089 19.8329 23.349 18.2709 22.3683 17.2615C21.0354 15.5536 19.8891 15.2504 18.1468 16.3116C17.0862 16.9583 16.8596 18.1404 16.8177 19.2822C16.7929 19.9865 16.6063 20.186 15.9075 20.163C14.5117 20.117 14.5441 20.1534 14.2413 18.6892C14.0395 17.7144 13.7557 16.7472 12.8513 16.1446C12.8551 15.9047 12.6742 15.9527 12.5333 15.9393L12.5428 15.947C11.9811 15.3655 10.8176 15.3617 10.0864 15.9393L10.1111 15.9355C9.84076 15.9259 9.57227 15.9163 9.55894 16.302L9.51705 16.3384C9.27141 16.302 9.11146 16.396 9.06195 16.6512C8.53449 17.177 8.61256 17.9773 8.21078 18.576C8.08511 18.7641 8.16699 19.1037 8.27362 19.3897C8.96674 21.2568 10.1397 22.3814 12.2572 22.1166C12.24 25.2311 12.2134 28.3456 12.2153 31.4602C12.2153 32.1453 12.0001 32.8342 12.2229 33.5174L9.51705 33.5749C9.46373 33.55 9.40851 33.5385 9.34948 33.5423C9.04671 31.3604 8.43738 29.284 7.22823 27.4207V27.4168C7.19395 27.0637 7.07589 26.7586 6.76361 26.561L6.75409 26.5667C6.40562 25.801 5.88197 25.1563 5.345 24.5211L5.3469 24.523C5.21361 24.3407 5.08031 24.1565 4.94512 23.9742C4.88799 23.8993 4.83087 23.8225 4.77184 23.7477C4.34721 22.9763 3.92067 22.2068 3.49604 21.4353C3.21232 20.4182 2.96477 19.3897 2.63535 18.3899C2.11551 16.8144 2.35163 15.1928 2.25452 13.5904C2.35163 13.0205 2.37258 12.4218 2.56299 11.8844C2.89242 10.9556 3.32847 10.0633 3.71883 9.15754C4.30722 8.92534 4.38719 8.36115 4.55476 7.85454C4.96987 7.65496 5.33738 7.42468 5.26502 6.86817L5.28025 6.85665C5.3469 6.78949 5.41164 6.72041 5.47829 6.65132H5.45353C5.60016 6.659 5.65347 6.58416 5.62872 6.44407C5.62872 6.44407 5.64205 6.48629 5.64014 6.48629C5.7106 6.40953 5.78296 6.33469 5.85341 6.25984L5.81723 6.25025C5.96385 6.27328 6.02669 6.20995 6.00384 6.06219C6.00384 6.06219 6.01907 6.09673 6.01907 6.09481C6.10095 6.02956 6.18283 5.96624 6.26471 5.90291L6.20378 5.88564C6.35421 5.90099 6.42276 5.83191 6.41133 5.68223L6.43228 5.74555C6.50273 5.66879 6.57319 5.59395 6.64364 5.51719L6.61318 5.51143C7.03019 5.58628 7.23013 5.40973 7.20918 4.98371L7.24536 4.94725C7.55384 4.88008 7.90421 4.86857 7.94991 4.43296C12.0134 1.84422 16.3131 1.15146 20.7745 3.1549C23.0805 4.19116 25.1503 5.68223 26.4699 7.98311C26.5537 8.13087 26.6413 8.24217 26.807 8.27864C26.8527 8.70273 27.1288 9.01937 27.3097 9.38014C28.3417 11.4392 29.0025 13.5847 28.9625 15.9316C28.9244 18.1039 28.1666 20.069 27.4068 22.0436C27.3611 22.0686 27.3478 22.1031 27.3668 22.153C27.243 22.3699 27.1193 22.5867 26.9955 22.8055L27.0012 22.7978C26.569 23.0645 26.35 23.481 26.2072 23.9511L26.211 23.955ZM4.58332 13.5636C4.56047 13.9762 4.58713 14.3734 5.06508 14.4828C5.60016 14.6056 5.78105 14.2141 5.91244 13.7958C6.21711 12.8248 6.58842 11.8825 7.05685 10.9787C8.04131 9.07502 9.61606 7.78353 11.3946 6.70313C11.8782 6.40953 12.0458 5.98927 11.7659 5.49416C11.4688 4.97028 11.0175 5.16985 10.6196 5.37135C8.6316 6.36923 6.9445 7.69526 5.89149 9.73324C5.26312 10.948 4.82706 12.2222 4.58523 13.5636H4.58332Z" fill="#FBD134"/>
<path d="M22.6616 36.8083C22.2617 37.4493 21.6638 37.5817 20.9536 37.5798C17.3928 37.5683 13.8338 37.5875 10.273 37.597C10.2121 37.5779 10.1531 37.5798 10.0921 37.6028C9.45615 37.5548 8.81634 37.4646 8.58594 36.7469C8.40694 36.1885 8.5688 35.7049 9.13815 35.4324C13.3826 35.4286 17.6289 35.4247 21.8733 35.4209C22.2141 35.4267 22.4731 35.5821 22.6673 35.8565C22.7416 36.1751 22.7454 36.4917 22.6597 36.8083H22.6616Z" fill="#9C9A95"/>
<path d="M15.6028 39.5027C17.2518 39.5027 18.8989 39.497 20.548 39.5046C21.2963 39.5085 21.8561 40.0247 21.8142 40.7117C21.7685 41.4351 21.3306 41.7921 20.6165 41.7921C17.288 41.7921 13.9595 41.7978 10.6329 41.7806C9.9017 41.7767 9.24286 41.1569 9.34187 40.5428C9.45422 39.8405 9.88266 39.4682 10.6596 39.4854C12.3067 39.5219 13.9557 39.497 15.6047 39.497V39.5008L15.6028 39.5027Z" fill="#9C9A95"/>
<path d="M16.2483 33.4866C15.7704 33.4885 15.2924 33.4904 14.8145 33.4923C14.7764 32.3237 14.7193 31.1569 14.7022 29.9882C14.6717 27.8409 14.6698 25.6916 14.645 23.5442C14.6374 22.8572 14.7631 22.4024 15.6295 22.4005C16.5149 22.4005 16.3816 22.9493 16.3816 23.4809C16.3816 26.3441 16.3816 29.2091 16.3759 32.0723C16.3759 32.5463 16.4464 33.0299 16.2464 33.4866H16.2483Z" fill="#F8A50A"/>
<path d="M19.4378 43.7129C18.6419 45.1963 17.4822 45.8565 16.0255 45.9927C14.5022 46.1347 13.1369 45.7778 12.1886 44.4402C12.0687 44.2714 11.8592 44.0891 11.9677 43.8511C12.0896 43.5844 12.3619 43.7225 12.5599 43.7225C14.7993 43.711 17.0386 43.7149 19.4378 43.7149V43.7129Z" fill="#9C9A95"/>
<path d="M16.2483 33.4865C16.4483 33.0298 16.3778 32.5462 16.3778 32.0722C16.3835 29.2091 16.3835 26.344 16.3835 23.4809C16.3835 22.9493 16.5168 22.4005 15.6314 22.4005C14.7631 22.4005 14.6393 22.8572 14.6469 23.5442C14.6698 25.6915 14.6736 27.8408 14.7041 29.9882C14.7212 31.1569 14.7783 32.3236 14.8164 33.4923C14.169 33.5038 14.4622 33.001 14.4603 32.742C14.4394 29.7867 14.4489 26.8295 14.4451 23.8742C14.4451 23.5269 14.4146 23.1777 14.3994 22.8303C14.3975 22.696 14.3956 22.5617 14.3937 22.4273C14.4775 22.3064 14.5612 22.1855 14.6469 22.0627C14.845 22.0646 15.0449 22.0665 15.2429 22.0685C15.6162 22.1452 15.9875 22.1471 16.3588 22.0608C16.9815 22.1395 16.7377 22.6307 16.7396 22.9531C16.7625 26.4227 16.7644 29.8903 16.772 33.3599C16.6368 33.5575 16.4464 33.5345 16.2522 33.4865H16.2483Z" fill="#FBD134"/>
<path d="M27.4106 22.0493C28.1704 20.0747 28.9282 18.1096 28.9663 15.9373C29.0063 13.5923 28.3456 11.4468 27.3135 9.38581C27.1326 9.02504 26.8565 8.7084 26.8108 8.2843C27.8238 9.0116 28.0961 10.1937 28.5112 11.2511C29.6594 14.1737 29.5033 17.1424 28.5226 20.0727C28.2865 20.777 28.2008 21.6329 27.4106 22.0493Z" fill="#0F0E0D"/>
<path d="M21.8752 35.4191C17.6308 35.4229 13.3845 35.4267 9.14008 35.4306C9.241 34.9662 9.61422 35.089 9.90746 35.089C13.6377 35.0832 17.368 35.0832 21.0983 35.089C21.3896 35.089 21.7629 34.9623 21.8752 35.4191Z" fill="#0F0E0D"/>
<path d="M16.7682 33.3599C16.7606 29.8904 16.7606 26.4227 16.7358 22.9532C16.7339 22.6308 16.9776 22.1395 16.355 22.0608C17.0538 21.892 17.1186 21.938 17.1224 22.792C17.1319 25.776 17.1262 28.7582 17.1262 31.7422C17.1262 32.1222 17.1224 32.504 17.1243 32.884C17.1243 33.1373 17.0367 33.3139 16.7701 33.3599H16.7682Z" fill="#0F0E0D"/>
<path d="M12.4305 19.5719C12.5447 19.9596 12.4152 20.1246 11.9754 20.1399C11.1451 20.1687 10.3797 19.7082 10.2978 19.0672C10.2273 18.5069 10.7681 17.7469 11.2594 17.7182C11.8364 17.6855 12.3257 18.4551 12.4305 19.5719Z" fill="#F8A50A"/>
<path d="M19.2494 20.1265C18.8361 20.1975 18.5981 20.0804 18.6438 19.522C18.7162 18.6604 19.2646 17.6913 19.7178 17.841C20.2243 18.0079 20.8165 18.1749 20.7746 18.9636C20.7346 19.7043 20.2357 20.138 19.2474 20.1265H19.2494Z" fill="#F8A50A"/>
<path d="M3.72455 9.16134C3.33419 10.069 2.89814 10.9594 2.56871 11.8882C2.3783 12.4256 2.35735 13.0243 2.26024 13.5942C2.04887 13.907 2.12123 14.2678 2.08886 14.6132C1.9251 16.4152 2.33831 18.148 2.70391 19.8886C1.94795 19.2937 2.08886 18.361 1.94224 17.5819C1.46239 15.0373 1.89273 12.5714 2.87719 10.1938C3.05618 9.76006 3.21994 9.31102 3.68647 9.09033L3.72455 9.16134Z" fill="#0F0E0D"/>
<path d="M12.2267 33.5172C12.0039 32.8322 12.2191 32.1452 12.2191 31.4601C12.2172 28.3455 12.2438 25.231 12.261 22.1165C12.36 22.1663 12.4609 22.2162 12.5599 22.2661C12.5561 22.3218 12.5428 22.3736 12.518 22.4235C12.4723 22.506 12.3886 22.5866 12.3886 22.6691C12.3828 25.7107 12.3847 28.7504 12.3924 31.7921C12.3924 31.8746 12.4742 31.959 12.5161 32.0415C12.5142 32.1509 12.5123 32.2622 12.5085 32.3716C12.2972 32.6479 12.28 32.9243 12.5199 33.1949C12.4895 33.3138 12.4571 33.4328 12.4266 33.5518L12.36 33.5671C12.3143 33.5575 12.2686 33.5422 12.2267 33.5211V33.5172Z" fill="#F0BE9C"/>
<path d="M7.23206 27.4225C8.44121 29.2858 9.05054 31.3603 9.35331 33.5441C9.19145 33.5249 9.01056 33.4865 8.9858 33.3061C8.73636 31.4601 8.09084 29.7483 7.30251 28.0807C7.21301 27.8926 7.253 27.6451 7.23206 27.4244V27.4225Z" fill="#0F0E0D"/>
<path d="M12.5085 32.3697C12.5104 32.2604 12.5123 32.1491 12.5161 32.0378C12.5161 28.8311 12.5161 25.6264 12.5161 22.4216C12.5409 22.3717 12.5542 22.3199 12.558 22.2643C12.8094 22.4447 12.7484 22.7152 12.7484 22.9609C12.7522 26.227 12.7522 29.4951 12.7484 32.7612C12.7484 33.0568 12.8646 33.4252 12.4266 33.548C12.459 33.429 12.4895 33.3101 12.5218 33.1911C12.518 32.9167 12.5142 32.6422 12.5104 32.3678L12.5085 32.3697Z" fill="#0F0E0D"/>
<path d="M14.3898 22.4273C14.3917 22.5616 14.3936 22.696 14.3955 22.8303C14.167 23.1815 14.2737 23.5768 14.2737 23.9491C14.2642 27.0041 14.268 30.0592 14.268 33.2083C13.9823 32.9281 14.0871 32.6748 14.0871 32.456C14.0795 29.33 14.0737 26.2058 14.0985 23.0798C14.0985 22.8783 13.7748 22.3985 14.3898 22.4254V22.4273Z" fill="#0F0E0D"/>
<path d="M18.6343 22.2528C18.64 25.6321 18.6438 29.0115 18.6533 32.3909C18.6533 32.7727 18.6838 33.1527 18.7009 33.5346C18.4134 33.3907 18.4553 33.1182 18.4553 32.8706C18.4553 29.5354 18.4553 26.2002 18.4553 22.863C18.4553 22.6423 18.4343 22.4121 18.6362 22.2509L18.6343 22.2528Z" fill="#0F0E0D"/>
<path d="M2.70394 19.8866C2.33834 18.148 1.92513 16.4132 2.08889 14.6113C2.11936 14.2678 2.0489 13.9051 2.26027 13.5923C2.35738 15.1947 2.12126 16.8162 2.6411 18.3917C2.97052 19.3934 3.21807 20.422 3.50369 21.4391C3.43134 21.37 3.35898 21.3009 3.28662 21.2318C3.28662 21.2318 3.30376 21.2625 3.30185 21.2625C3.25234 21.0917 3.25806 20.8902 3.06383 20.7943C3.04669 20.6983 3.03146 20.6043 3.01432 20.5084C2.96862 20.4297 2.92292 20.351 2.87722 20.2723C2.89436 20.2167 2.88293 20.1706 2.84104 20.1303C2.85247 20.019 2.81629 19.9365 2.70013 19.9077L2.70584 19.8847L2.70394 19.8866Z" fill="#FBD134"/>
<path d="M22.1037 31.8248C22.2027 30.3452 22.6426 28.9942 23.5871 27.8333C23.092 29.1631 22.5988 30.4949 22.1037 31.8248Z" fill="#F0BE9C"/>
<path d="M22.3684 17.2615C23.349 18.2709 23.509 19.8329 22.2008 20.8423C22.9472 19.6813 22.9396 18.4858 22.3684 17.2615Z" fill="#F0BE9C"/>
<path d="M3.28662 21.2338C3.35898 21.3028 3.43134 21.3719 3.5037 21.441C3.92833 22.2105 4.35296 22.982 4.7795 23.7534C3.88072 23.1547 3.4123 22.2988 3.28853 21.2338H3.28662Z" fill="#0F0E0D"/>
<path d="M5.34882 24.5249C5.88579 25.1601 6.40754 25.8049 6.75791 26.5706C5.85914 26.1887 5.66681 25.3117 5.34882 24.5249Z" fill="#0F0E0D"/>
<path d="M10.0864 15.9392C10.8176 15.3616 11.9792 15.3655 12.5428 15.9469C11.7259 15.6284 10.9071 15.6725 10.0864 15.9392Z" fill="#F0BE9C"/>
<path d="M12.2267 33.5173C12.2705 33.5384 12.3143 33.5538 12.36 33.5634C11.4136 33.8628 10.4672 33.8455 9.52087 33.5749C10.4235 33.5557 11.3241 33.5365 12.2267 33.5173Z" fill="#0F0E0D"/>
<path d="M24.1545 26.8411C24.2668 26.4151 24.4877 26.062 24.8533 25.8125C24.9714 26.3441 24.5982 26.6761 24.324 27.0215C24.2059 27.1692 24.1888 26.9313 24.1545 26.843V26.8411Z" fill="#0F0E0D"/>
<path d="M26.211 23.955C26.3519 23.4848 26.5728 23.0684 27.005 22.8016C27.0641 23.4119 26.8222 23.811 26.211 23.955Z" fill="#0F0E0D"/>
<path d="M25.0856 25.4843C25.3503 25.1159 25.6169 24.7455 25.8816 24.3771C25.9063 24.9585 25.6816 25.3577 25.0856 25.4843Z" fill="#0F0E0D"/>
<path d="M3.72458 9.16128L3.6865 9.09028L3.68079 9.07493C3.79504 8.86768 3.90738 8.66042 4.02163 8.45317C4.16635 8.41095 4.21776 8.30541 4.20634 8.16148C4.31678 8.05594 4.42913 7.95039 4.53957 7.84485L4.55861 7.8602C4.39104 8.36682 4.31107 8.931 3.72268 9.1632L3.72458 9.16128Z" fill="#FBD134"/>
<path d="M7.99371 33.9357C8.70778 34.2043 8.25459 34.5286 8.27744 34.8318L7.99371 34.8453C7.99371 34.5421 7.99371 34.2389 7.99371 33.9376V33.9357Z" fill="#0F0E0D"/>
<path d="M5.27074 6.87195C5.3431 7.42654 4.9756 7.65874 4.56048 7.85832L4.54144 7.84296C4.58333 7.72974 4.62332 7.61652 4.66521 7.50138C4.86706 7.29221 5.0689 7.08112 5.27074 6.87195Z" fill="#FBD134"/>
<path d="M22.6616 36.8084C22.7473 36.4918 22.7435 36.1751 22.6692 35.8566C23.231 36.179 23.231 36.4956 22.6616 36.8084Z" fill="#0F0E0D"/>
<path d="M6.76747 26.5647C7.08166 26.7624 7.19972 27.0675 7.23209 27.4206C6.76747 27.3054 6.64751 27.0022 6.76747 26.5647Z" fill="#0F0E0D"/>
<path d="M20.1576 22.0186C19.7197 22.0301 19.2817 22.0416 18.8419 22.0532C19.2722 21.748 19.7121 21.7902 20.1576 22.0186Z" fill="#0F0E0D"/>
<path d="M7.95375 4.43677C7.90805 4.87238 7.55768 4.88389 7.24921 4.95106C7.48532 4.77835 7.71954 4.60756 7.95375 4.43677Z" fill="#FBD134"/>
<path d="M7.21301 4.98743C7.23396 5.41536 7.03402 5.58999 6.617 5.51515C6.81504 5.3386 7.01498 5.16206 7.21301 4.98743Z" fill="#FBD134"/>
<path d="M26.9993 22.8092C27.1231 22.5924 27.2469 22.3755 27.3706 22.1567C27.3897 22.4561 27.4411 22.7747 26.9993 22.8092Z" fill="#0F0E0D"/>
<path d="M4.95087 23.9779C5.08416 24.1602 5.21745 24.3444 5.35265 24.5267C4.95468 24.5402 4.95848 24.2542 4.95087 23.9779Z" fill="#0F0E0D"/>
<path d="M4.66525 7.50135C4.62336 7.61458 4.58338 7.7278 4.54148 7.84294C4.43104 7.94848 4.31869 8.05403 4.20825 8.15957C4.18731 7.81799 4.19111 7.49368 4.66525 7.50135Z" fill="#0F0E0D"/>
<path d="M4.02355 8.45129C3.9093 8.65855 3.79505 8.8658 3.68271 9.07305C3.60464 8.75833 3.59511 8.48392 4.02355 8.45129Z" fill="#0F0E0D"/>
<path d="M9.0639 16.6492C9.11341 16.394 9.27146 16.3019 9.519 16.3364C9.40475 16.4957 9.31716 16.6953 9.0639 16.6492Z" fill="#F0BE9C"/>
<path d="M9.55896 16.3019C9.57229 15.9181 9.84268 15.9277 10.1112 15.9354C9.92647 16.0582 9.74176 16.1791 9.55896 16.3019Z" fill="#F0BE9C"/>
<path d="M15.2391 22.0704C15.0411 22.0685 14.8412 22.0666 14.6431 22.0647C14.845 21.8037 15.043 21.8152 15.2391 22.0704Z" fill="#0F0E0D"/>
<path d="M12.5333 15.9392C12.6742 15.9526 12.8551 15.9066 12.8513 16.1445C12.7446 16.0755 12.6399 16.0064 12.5333 15.9392Z" fill="#F0BE9C"/>
<path d="M3.0638 20.7963C3.25802 20.8922 3.25231 21.0937 3.30182 21.2645C3.07712 21.1839 3.06189 20.9939 3.0638 20.7963Z" fill="#0F0E0D"/>
<path d="M24.84 25.8393C24.9237 25.7184 25.0094 25.5956 25.0932 25.4747C25.0989 25.6609 25.0628 25.8163 24.84 25.8393Z" fill="#0F0E0D"/>
<path d="M10.0922 37.6009C10.1512 37.5778 10.2121 37.5759 10.2731 37.5951C10.2159 37.6949 10.155 37.6987 10.0922 37.6009Z" fill="#0F0E0D"/>
<path d="M5.48404 6.65515C5.4174 6.72424 5.35075 6.7914 5.28601 6.86048C5.35266 6.7914 5.4193 6.72424 5.48404 6.65515Z" fill="#F0BE9C"/>
<path d="M5.63447 6.44971C5.65923 6.58979 5.60782 6.66463 5.45929 6.65696C5.51832 6.58787 5.57544 6.51879 5.63447 6.44971Z" fill="#F0BE9C"/>
<path d="M5.85914 6.26367C5.78869 6.33851 5.71633 6.41527 5.64587 6.49011C5.6573 6.35962 5.73347 6.28862 5.85914 6.26367Z" fill="#F0BE9C"/>
<path d="M6.0115 6.06787C6.03245 6.21563 5.97151 6.27896 5.82489 6.25593C5.88773 6.19261 5.95057 6.1312 6.0115 6.06787Z" fill="#F0BE9C"/>
<path d="M6.27048 5.90859C6.1886 5.97192 6.10672 6.03717 6.02484 6.1005C6.06102 5.97768 6.11815 5.88173 6.27048 5.90859Z" fill="#F0BE9C"/>
<path d="M6.41709 5.68604C6.42851 5.83764 6.35996 5.90672 6.20953 5.88945C6.27808 5.82228 6.34854 5.7532 6.41709 5.68604Z" fill="#F0BE9C"/>
<path d="M6.64751 5.521C6.57706 5.59584 6.5066 5.6726 6.43615 5.74936C6.42091 5.59392 6.52755 5.5517 6.64751 5.521Z" fill="#F0BE9C"/>
<path d="M22.2427 20.8577C22.1513 20.9363 22.0599 21.0169 21.9666 21.0956C22.058 21.0169 22.1494 20.9363 22.2427 20.8577Z" fill="#F0BE9C"/>
<path d="M2.69824 19.9097C2.8144 19.9385 2.85058 20.0191 2.83915 20.1323C2.79155 20.0574 2.74585 19.9845 2.69824 19.9097Z" fill="#0F0E0D"/>
<path d="M24.2592 35.2233C24.2173 35.2521 24.1735 35.2809 24.1317 35.3097C24.1583 35.2656 24.1869 35.2233 24.2154 35.1792L24.2611 35.2233H24.2592Z" fill="#0F0E0D"/>
<path d="M4.58336 13.5635C4.82519 12.2221 5.26125 10.9479 5.88963 9.73319C6.94264 7.69521 8.62783 6.36918 10.6177 5.3713C11.0176 5.17172 11.4689 4.97215 11.764 5.49412C12.0439 5.98922 11.8764 6.40948 11.3927 6.70309C9.61229 7.78349 8.03754 9.07306 7.05498 10.9786C6.58656 11.8844 6.21715 12.8266 5.91057 13.7957C5.77919 14.2141 5.60019 14.6055 5.06322 14.4827C4.58527 14.3733 4.55861 13.9761 4.58146 13.5635H4.58336Z" fill="#F0BE9C"/>
<path d="M12.518 22.4216C12.518 25.6263 12.518 28.833 12.518 32.0377C12.4743 31.9552 12.3943 31.8727 12.3943 31.7882C12.3867 28.7466 12.3848 25.7069 12.3905 22.6653C12.3905 22.5828 12.4762 22.5022 12.52 22.4197L12.518 22.4216Z" fill="#FBD134"/>
<path d="M12.5086 32.3698C12.5124 32.6442 12.5162 32.9186 12.52 33.193C12.2801 32.9224 12.2972 32.648 12.5086 32.3698Z" fill="#FBD134"/>
</g>
<defs>
<clipPath id="clip0_41_548">
<rect width="31" height="48" fill="white"/>
</clipPath>
</defs>
</svg>
