<svg width="38" height="53" viewBox="0 0 38 53" fill="none" xmlns="http://www.w3.org/2000/svg">
<g clip-path="url(#clip0_46_1884)">
<path d="M7.99598 16.7208C7.83472 16.7166 7.6965 16.6743 7.63367 16.5032C7.54153 16.4356 7.44938 16.368 7.35513 16.3025C6.31428 15.6982 5.42212 14.9228 4.71425 13.9382C4.73938 13.2938 4.50482 12.8438 3.82628 12.7234L3.83884 12.7339C3.88282 12.398 3.89748 12.0811 3.42627 12.0726L3.43674 12.0832C3.4535 11.7726 3.44302 11.481 3.3048 11.1747C2.56343 9.52245 1.78645 7.8829 1.95818 5.97503C1.99378 5.58416 1.95399 5.04539 1.39063 4.88059C1.39063 4.45803 1.39063 4.03335 1.38854 3.61079C1.99378 2.70016 2.24929 1.71982 1.97703 0.63383L1.96865 0.642281C2.67652 0.509174 3.40114 0.576784 4.11529 0.52185C5.62945 0.405646 7.14361 0.502835 8.67244 0.862014C9.84733 1.13879 10.884 1.81701 12.0987 1.90152C12.2578 1.90152 12.4044 1.92899 12.4631 2.11069C12.4819 2.56494 12.7877 2.56706 13.1165 2.53114L13.106 2.52058C13.0935 2.99173 13.4181 2.97694 13.7385 2.96849C13.8034 3.02554 13.8704 3.08047 13.9354 3.13752C13.9395 3.70164 13.8474 4.38619 14.7605 3.80517C15.104 4.02067 15.3867 4.29534 15.5982 4.64396C15.5731 5.12779 15.682 5.50176 16.2705 5.49331C16.3249 5.56303 16.3794 5.63064 16.4359 5.70036C16.4213 6.03841 16.4464 6.349 16.8946 6.36168C17.7448 7.46034 18.2182 8.75761 18.7669 10.1732C19.8475 7.05045 21.5146 4.5362 24.1701 2.772C24.5429 3.06991 24.5492 2.7889 24.5638 2.52058L24.5513 2.53114C24.8759 2.56494 25.1837 2.5734 25.2089 2.11914C25.2759 1.94378 25.4246 1.91208 25.5858 1.90786C25.7178 1.88039 25.8497 1.85292 25.9816 1.82757L25.9377 1.87617C26.0466 1.98815 26.0403 2.22478 26.2769 2.19098C26.2979 2.18886 26.3293 2.14872 26.3272 2.12759C26.323 1.8825 26.1031 1.91842 25.9649 1.8487C26.0885 1.36698 26.5073 1.35641 26.8759 1.26767C26.989 1.44093 27.1293 1.4536 27.3199 1.38599C29.4812 0.621153 31.6927 0.399307 33.9881 0.473256C35.2258 0.513399 35.4792 1.14936 35.6865 2.08111C35.7787 2.49733 35.7075 3.02131 36.275 3.18823C36.275 3.32978 36.275 3.47134 36.275 3.6129C35.764 3.7122 35.9064 4.1242 35.8813 4.4538C35.7682 6.00038 35.5692 7.52372 35.2111 9.04495C35.0541 9.71472 34.3483 10.2302 34.654 11.012C34.564 11.219 34.476 11.4261 34.386 11.6332C33.8373 11.7789 33.5315 12.0684 33.7765 12.6832C32.7462 14.2446 31.4959 15.5778 29.854 16.5011C29.2089 16.5243 28.6183 16.6426 28.3524 17.3483C28.2686 17.5342 28.1011 17.5448 27.9314 17.549C27.6215 17.2279 27.5544 17.4603 27.5105 17.7392C27.3262 17.8871 27.1356 18.0202 26.8801 17.9589C26.5827 17.6505 26.5136 17.8723 26.4654 18.1427C26.3335 18.1702 26.2015 18.1977 26.0675 18.2251C25.5042 18.0477 24.9555 17.9378 24.5806 18.5759C24.4444 18.5928 24.3083 18.6097 24.1722 18.6266C23.5795 18.3308 22.9889 18.0646 22.4884 18.785C21.6988 18.9646 20.6475 18.4554 20.147 19.0998C19.6779 19.7062 20.0381 20.714 20.0088 21.5423C19.9815 22.2712 20.0192 23.0043 19.9857 23.7333C19.9648 24.2044 20.1533 24.4474 20.6014 24.5065C20.8381 24.8002 21.169 24.7178 21.4727 24.7178C25.4246 24.722 29.3765 24.722 33.3284 24.7178C33.6299 24.7178 33.9629 24.8002 34.1996 24.5087C34.4781 24.5171 34.7588 24.5256 35.0373 24.534C35.1336 24.9735 35.3389 25.0474 35.6614 24.7242C36.6185 24.8805 37.1253 25.4975 37.3431 26.406C37.1023 27.1814 36.6666 27.9568 37.3431 28.7322C37.3305 28.9435 37.3201 29.1547 37.3075 29.3639C36.5389 29.6745 36.3714 30.0802 37.1127 30.6274C37.1085 30.7689 37.1044 30.9105 37.0981 31.052C36.6666 31.0309 36.4447 31.2063 36.5368 31.669C36.5975 31.9711 36.6604 32.2733 36.7232 32.5754C36.7379 32.6345 36.7295 32.6895 36.6918 32.7402C36.6708 32.8353 36.6478 32.9282 36.6269 33.0233L36.5975 33.0698C36.1221 32.8902 36.0907 33.205 36.0803 33.5431C36.0279 33.5832 35.9693 33.6001 35.9043 33.5938C35.8227 33.6529 35.7431 33.71 35.6614 33.7691C35.6069 33.7987 35.5483 33.8114 35.4855 33.805C35.4038 33.8642 35.3242 33.9234 35.2425 33.9825C35.1064 33.9994 34.9724 34.0184 34.8363 34.0353C34.4593 33.7057 34.1368 33.6086 33.9944 34.2424C33.9964 34.3058 33.9923 34.3671 33.9776 34.4304C33.9148 34.9925 33.1587 35.4721 33.7786 36.1165C33.7682 36.258 33.7577 36.3975 33.7493 36.539C33.2907 36.6404 33.2551 36.8602 33.5797 37.175C33.5671 37.3144 33.5525 37.4539 33.5399 37.5954C33.0079 38.0412 32.9284 38.7047 32.7587 39.3132C32.6959 39.535 32.9074 39.6702 33.1357 39.7019C33.2551 39.9766 32.9954 40.1245 32.9326 40.34C32.1263 40.3611 32.5367 41.0119 32.4592 41.3605C32.2582 42.269 31.8749 43.1902 32.3189 44.1388C32.3085 44.2804 32.2959 44.4198 32.2854 44.5614C31.9734 44.5846 31.7598 44.7304 31.7158 45.0621C31.4749 46.8813 31.2132 48.6898 30.076 50.2216C29.9901 50.3378 30.0445 50.5597 30.0341 50.7329C29.9796 50.7921 29.9231 50.8534 29.8686 50.9125C29.3451 51.0076 28.7545 51.0266 28.8466 51.8253L28.7691 51.8147L28.8466 51.8189C28.7524 51.8717 28.6581 51.9267 28.5639 51.9795L28.5786 51.9668C27.5461 52.1633 26.5094 52.3429 25.6214 52.9683C21.1585 52.9704 16.6935 52.9746 12.2306 52.9767C12.0463 52.3999 11.7364 52.4971 11.3845 52.8162C11.2484 52.7972 11.1123 52.7803 10.9761 52.7612C10.4128 52.1168 9.67978 51.8379 8.85464 51.7555L8.8672 51.7661C8.87558 51.3013 8.55516 51.3118 8.23683 51.3203C7.97295 51.1808 7.76352 50.9844 7.61901 50.7203C7.54362 50.6421 7.46823 50.5618 7.39283 50.4836L7.4033 50.4963C7.34048 50.1688 7.69022 49.8075 7.35932 49.5075C6.00851 48.2821 6.03993 46.4819 5.73416 44.9311C5.34882 42.9747 4.82944 41.0288 4.58231 39.03C4.53414 38.6455 4.72682 37.7581 3.89539 37.5976C3.88282 37.4581 3.87026 37.3187 3.85769 37.1771C4.19487 36.3996 4.15298 35.5988 3.95822 34.8023C3.82837 34.2762 3.54983 33.6445 3.02626 33.6656C1.48697 33.729 1.09324 32.5205 0.936173 31.538C0.622032 29.571 0.175951 27.5617 0.720463 25.5439L0.712086 25.5566C0.785385 25.4806 0.860779 25.4024 0.934079 25.3263C1.24194 24.9059 1.67336 24.7199 2.17599 24.6756C2.47966 25.0432 2.69956 25.0157 2.82312 24.5361C3.4514 24.5277 4.07968 24.5171 4.70797 24.5087C5.05771 24.8214 5.40746 24.8235 5.75511 24.5044C6.17187 24.5044 6.59072 24.5044 7.00749 24.5044C7.63577 24.8509 8.26405 24.8509 8.89233 24.5044C9.03056 24.5044 9.17087 24.5044 9.3091 24.5044C9.51015 24.7664 9.79916 24.7199 10.0714 24.7199C11.9353 24.722 13.7992 24.722 15.6631 24.7199C15.9333 24.7199 16.2244 24.7664 16.4234 24.5044C16.8276 24.3798 17.2883 24.5911 17.6632 24.2931C17.8873 24.2615 18.0757 24.1664 18.0757 23.9128C18.082 22.3789 18.0967 20.8429 18.0569 19.3111C18.0506 19.0851 18.0464 18.5167 17.4705 18.8062C16.4925 18.7998 15.5144 18.7914 14.5385 18.785C14.1846 18.1301 13.7364 18.2949 13.2694 18.6371C13.0641 18.616 12.861 18.5949 12.6558 18.5738C12.5887 18.242 12.4756 18.0751 12.2139 18.4491L11.8201 18.3688C11.7573 18.0498 11.6547 17.8596 11.3803 18.2315C11.2484 18.2019 11.1144 18.1702 10.9824 18.1406C10.151 17.3145 9.10595 16.9469 7.99389 16.725L7.99598 16.7208ZM28.3419 49.5984L28.3272 49.6131C28.4026 49.5371 28.4759 49.4631 28.5513 49.3871L28.5346 49.4019C28.61 49.3258 28.6833 49.2519 28.7587 49.1758L28.7377 49.18C29.3765 49.0976 29.3576 48.599 29.3869 48.1299L29.3807 48.1384C29.7849 48.0011 29.8372 47.6165 29.9084 47.289C30.2184 45.8587 30.5053 44.4241 30.7817 42.9852C31.2948 40.3189 31.8037 37.6504 32.2854 34.9777C32.3629 34.553 32.4739 34.0332 31.8728 33.8241C31.7891 33.7945 31.6467 33.7924 31.6886 33.9424C31.7137 34.0311 31.8226 34.0966 31.8959 34.1727C31.5126 34.1854 31.1315 34.2086 30.7482 34.2086C22.6664 34.2107 14.5846 34.2086 6.50276 34.2107C6.1593 34.2107 5.81584 34.2107 5.37395 34.2107C5.57919 35.1425 5.76558 35.9855 5.95197 36.8285C6.0504 37.4433 6.15093 38.0603 6.24936 38.6751C6.58863 40.5492 6.93 42.4232 7.26927 44.2973C7.28393 44.3966 7.29859 44.498 7.31325 44.5973C7.45357 45.0727 7.34885 45.6009 7.62739 46.0467L7.61483 46.0298C7.65043 46.4925 7.64205 46.9721 8.03996 47.3123L8.03159 47.2996C7.98551 47.7348 8.15515 48.0813 8.46091 48.3729L8.44835 48.356C8.50071 48.6349 8.66615 48.8335 8.88186 48.9983L8.87558 48.9877L9.09548 49.2159L9.07663 49.199C9.15203 49.2751 9.22742 49.3512 9.30491 49.4272L9.28815 49.4082C9.36355 49.4843 9.44104 49.5582 9.51643 49.6343L9.49968 49.6237L10.1384 50.1308C10.773 50.5998 11.4913 50.8132 12.2683 50.8491C16.7061 50.8449 21.1439 50.8407 25.5816 50.8365C26.5199 50.7625 27.3052 50.3083 28.078 49.8202C28.1639 49.7462 28.2497 49.6723 28.3356 49.6005L28.3419 49.5984ZM5.77605 12.0494L5.76558 12.0367C5.83888 12.1106 5.91218 12.1867 5.98757 12.2607L5.97291 12.248C6.04621 12.3219 6.11951 12.398 6.19072 12.4719C8.7604 15.1658 11.8536 16.6363 15.6317 16.6849C15.6233 16.3299 15.416 16.2328 15.2799 16.0891C13.2275 13.8896 11.1625 11.7008 9.12271 9.48653C8.19913 8.48294 8.07766 7.70543 8.67872 7.20891C9.24836 6.73776 10.0505 7.01876 10.9007 7.96953C12.44 9.68936 13.9668 11.424 15.5417 13.11C16.1092 13.7164 16.5804 14.4601 17.4621 14.889C17.3909 13.6023 17.1187 12.4783 16.8317 11.3606C15.7197 7.0082 12.7102 4.44112 8.74783 2.90088C7.86195 2.55649 6.84832 2.38958 5.88495 2.18252C5.93731 2.10224 6.34569 2.04519 6.0127 1.96279C5.48704 1.8318 4.90692 1.95645 4.35194 1.9142C3.76554 1.86771 3.48282 2.06421 3.36344 2.67904C3.13726 3.83263 3.15192 5.00525 3.29433 6.13138C3.42208 7.1413 3.31108 8.3118 4.24094 9.09355L4.34356 9.47597C4.03571 9.7781 4.32053 9.83937 4.52577 9.93445L4.5132 9.92388C4.50273 10.1098 4.53205 10.2767 4.72472 10.3633L4.71844 10.3528C4.71425 10.5387 4.75404 10.6993 4.94253 10.7838L4.93206 10.7669C4.97813 11.2233 5.11216 11.6268 5.56872 11.8339L5.55196 11.8275C5.62526 11.9015 5.69856 11.9754 5.77186 12.0494H5.77605ZM26.0298 16.0489C26.834 15.9264 27.6696 15.8693 28.1388 15.0369C28.8424 14.5235 29.611 14.1009 30.2351 13.4755C33.0456 10.6655 34.2059 7.24483 34.0488 3.28964C34.0132 2.41282 33.7493 2.09801 32.8928 2.15083C28.5513 2.41705 24.9345 4.0904 22.3837 7.73501C20.9344 9.80557 20.3187 12.1698 20.2182 14.8045C20.4465 14.6735 20.5512 14.6439 20.614 14.5742C22.6538 12.3621 24.6874 10.1457 26.7314 7.93572C27.0602 7.58077 27.3555 7.17933 27.8267 6.97862C28.2833 6.78424 28.7 6.75677 29.0749 7.13919C29.477 7.55119 29.4812 8.02446 29.2257 8.49139C29.077 8.76395 28.8508 8.99636 28.6393 9.22665C26.6288 11.4176 24.6099 13.6002 22.6057 15.7996C22.3753 16.0532 21.9229 16.2074 22.0821 16.7039C23.5188 17.1941 24.7858 16.6553 26.0424 16.0384L26.0298 16.0468V16.0489ZM34.8216 31.8739L34.8153 31.8824C34.9326 31.8274 35.1357 31.7915 35.1567 31.7112C35.5001 30.3252 35.9295 28.9413 35.5148 27.4877C35.4541 27.2173 35.408 26.9384 35.1127 26.8074C34.763 26.482 34.3294 26.575 33.9211 26.575C23.9732 26.575 14.0254 26.5792 4.0755 26.5877C3.58962 26.5877 3.10585 26.6299 2.61997 26.6532C2.63254 26.6194 2.6451 26.5856 2.65558 26.5496C3.03673 26.2813 3.46816 26.4081 3.87445 26.4081C13.772 26.3996 23.6675 26.4017 33.565 26.3996C33.8959 26.3996 34.2268 26.3996 34.5577 26.3996C34.5514 26.3299 34.5472 26.2602 34.541 26.1926C34.1975 26.1926 33.854 26.1926 33.5085 26.1926C27.3743 26.1926 21.2423 26.1926 15.1082 26.1926C11.2044 26.1926 7.30278 26.1883 3.39904 26.1968C2.90689 26.1968 2.28698 26.0278 2.20531 26.837L2.21159 26.8306C1.49116 27.3673 1.58331 27.9293 2.15923 28.5061C2.23253 28.9202 2.28698 29.3407 2.38332 29.7506C2.55505 30.4731 2.34353 31.3056 2.98019 31.8951C3.29852 32.2099 3.70062 32.0916 4.07131 32.0937C6.64308 32.1042 9.21695 32.0979 11.7887 32.1C19.192 32.1085 26.5974 32.1169 34.0006 32.1254C33.9985 32.1866 33.9964 32.2479 33.9944 32.3092H3.82628C4.06293 32.6007 4.28074 32.5183 4.47131 32.5183C14.0212 32.5226 23.5711 32.5226 33.1189 32.5183C33.4247 32.5183 33.7556 32.5965 33.9985 32.3134C34.3294 32.2733 34.7755 32.4465 34.8216 31.8697V31.8739ZM30.9912 33.9445C31.0016 33.9086 31.0121 33.8748 31.0226 33.8389H5.58547C5.58547 33.8748 5.58547 33.9086 5.58547 33.9445H30.9933H30.9912Z" fill="#1A1A19"/>
<path d="M3.90163 37.5933C4.73515 37.7539 4.54248 38.6413 4.58855 39.0258C4.83568 41.0224 5.35506 42.9683 5.74041 44.9269C6.04617 46.4777 6.01476 48.2778 7.36557 49.5032C7.69646 49.8033 7.34672 50.1624 7.40955 50.492C6.15507 49.3089 5.73831 47.7665 5.46396 46.1206C4.98856 43.2704 4.42729 40.435 3.89954 37.5912L3.90163 37.5933Z" fill="#0F0E0D"/>
<path d="M0.724613 25.5419C0.182195 27.5596 0.626181 29.5689 0.940323 31.5359C1.09739 32.5184 1.49112 33.7269 3.03041 33.6635C3.55398 33.6424 3.83462 34.2741 3.96237 34.8002C4.15713 35.5968 4.19902 36.3975 3.86184 37.175C3.66079 36.9025 3.68592 36.5792 3.64613 36.2665C3.50163 35.1362 3.29429 34.16 1.91207 33.7882C0.473299 33.3994 0.544505 31.9416 0.347642 30.7774C0.167535 29.7083 0.0628207 28.6224 0.0041809 27.5385C-0.0356104 26.799 0.113083 26.0722 0.722518 25.544L0.724613 25.5419Z" fill="#0F0E0D"/>
<path d="M36.2729 3.19036C35.7053 3.02344 35.7766 2.49946 35.6844 2.08324C35.4792 1.15149 35.2237 0.51553 33.9859 0.475386C31.6906 0.401438 29.4791 0.623284 27.3178 1.38812C27.1272 1.45573 26.9869 1.44094 26.8738 1.26981C29.2927 0.0570489 31.8812 -0.150007 34.5074 0.0845154C35.9294 0.211284 36.319 1.01204 36.2729 3.19036Z" fill="#0F0E0D"/>
<path d="M12.0965 1.90356C10.8818 1.81904 9.84517 1.14083 8.67028 0.86405C7.14145 0.504872 5.62938 0.407682 4.11313 0.523887C3.39898 0.57882 2.67436 0.509097 1.96649 0.644317C2.20733 0.219641 2.65341 0.175272 3.04714 0.135129C6.23463 -0.186019 9.30065 0.15837 12.0965 1.90356Z" fill="#0F0E0D"/>
<path d="M34.6561 11.0141C34.3483 10.2323 35.0541 9.71469 35.2132 9.04704C35.5713 7.52581 35.7682 6.00247 35.8834 4.45589C35.9085 4.1284 35.7661 3.71429 36.2771 3.61499C36.3358 6.21375 36.0049 8.72589 34.6582 11.0141H34.6561Z" fill="#0F0E0D"/>
<path d="M1.39056 4.88281C1.95392 5.0455 1.99372 5.58427 1.95811 5.97725C1.78638 7.88512 2.56336 9.52467 3.30473 11.1769C3.44296 11.4833 3.45133 11.7748 3.43667 12.0854C2.02094 9.89653 1.46386 7.46045 1.39056 4.88281Z" fill="#0F0E0D"/>
<path d="M30.0424 50.7287C30.0529 50.5554 29.9984 50.3336 30.0843 50.2174C31.2215 48.6856 31.4833 46.877 31.7241 45.0579C31.7681 44.7262 31.9817 44.5825 32.2938 44.5571C32.0152 46.3594 31.8561 48.1975 30.8173 49.7779C30.5932 50.1181 30.4152 50.5068 30.0424 50.7287Z" fill="#0F0E0D"/>
<path d="M34.2058 24.5066C33.9692 24.7982 33.6362 24.7158 33.3346 24.7158C29.3827 24.72 25.4308 24.72 21.4789 24.7158C21.1773 24.7158 20.8443 24.7982 20.6077 24.5045C25.1397 24.5045 29.6717 24.5045 34.2058 24.5045V24.5066Z" fill="#0F0E0D"/>
<path d="M17.4725 18.802C18.0485 18.5125 18.0526 19.083 18.0589 19.3069C18.1008 20.8409 18.0841 22.3748 18.0778 23.9087C18.0778 24.1622 17.8893 24.2594 17.6652 24.289C17.6715 22.7149 17.6778 21.1409 17.6799 19.5689C17.6799 19.2964 17.7469 19.0006 17.4725 18.802Z" fill="#0F0E0D"/>
<path d="M32.3294 44.1347C31.8854 43.186 32.2686 42.2669 32.4697 41.3563C32.5472 41.0077 32.1367 40.3569 32.943 40.3358C33.0163 41.6479 32.6163 42.8796 32.3315 44.1325L32.3294 44.1347Z" fill="#0F0E0D"/>
<path d="M16.4254 24.5024C16.2244 24.7644 15.9354 24.7179 15.6652 24.7179C13.8013 24.7201 11.9374 24.7201 10.0735 24.7179C9.80122 24.7179 9.51221 24.7644 9.31116 24.5024C11.6819 24.5024 14.0547 24.5024 16.4254 24.5024Z" fill="#0F0E0D"/>
<path d="M1.97492 0.635864C2.24927 1.72185 1.99167 2.7022 1.38643 3.61282C1.32569 2.56909 1.32779 1.53804 1.97492 0.635864Z" fill="#0F0E0D"/>
<path d="M37.3515 28.7301C36.675 27.9547 37.1085 27.1793 37.3515 26.4039C37.7201 27.1793 37.5965 27.9547 37.3515 28.7301Z" fill="#0F0E0D"/>
<path d="M7.99591 16.7208C9.10797 16.9448 10.153 17.3103 10.9844 18.1364C9.92265 17.8026 8.88388 17.4265 7.99591 16.7208Z" fill="#0F0E0D"/>
<path d="M25.6319 52.9641C26.5199 52.3387 27.5565 52.157 28.589 51.9626C27.7241 52.6578 26.6979 52.8712 25.6319 52.9641Z" fill="#0F0E0D"/>
<path d="M33.144 39.6999C32.9178 39.6661 32.7042 39.533 32.7671 39.3111C32.9388 38.7026 33.0184 38.0392 33.5482 37.5934C33.4121 38.2948 33.2781 38.9984 33.1419 39.6999H33.144Z" fill="#0F0E0D"/>
<path d="M8.86298 51.7513C9.68812 51.8337 10.4211 52.1126 10.9845 52.757C10.2138 52.5584 9.4766 52.288 8.86298 51.7513Z" fill="#0F0E0D"/>
<path d="M22.4926 18.7829C22.9931 18.0646 23.5837 18.3287 24.1764 18.6245C23.6339 18.878 23.0601 18.8104 22.4926 18.7829Z" fill="#0F0E0D"/>
<path d="M37.1211 30.6253C36.3777 30.0781 36.5473 29.6724 37.3159 29.3618C37.385 29.8034 37.2279 30.2112 37.1211 30.6253Z" fill="#0F0E0D"/>
<path d="M36.7336 32.5753C36.6708 32.2732 36.608 31.9711 36.5472 31.6689C36.4551 31.2062 36.6771 31.0309 37.1085 31.052C37.1273 31.5971 37.0876 32.1253 36.7336 32.5774V32.5753Z" fill="#0F0E0D"/>
<path d="M33.7912 36.1144C33.1713 35.47 33.9273 34.9904 33.9901 34.4283C34.0613 35.0073 34.0802 35.5798 33.7912 36.1144Z" fill="#0F0E0D"/>
<path d="M28.3544 17.3504C28.6204 16.6447 29.211 16.5264 29.856 16.5032C29.4309 16.9236 28.9136 17.175 28.3544 17.3504Z" fill="#0F0E0D"/>
<path d="M14.7584 3.8073C13.8453 4.38832 13.9374 3.70377 13.9332 3.13965C14.2641 3.29177 14.5531 3.49671 14.7584 3.8073Z" fill="#0F0E0D"/>
<path d="M24.5847 18.5759C24.9596 17.9378 25.5083 18.0498 26.0717 18.2252C25.6025 18.4512 25.1104 18.5886 24.5847 18.5759Z" fill="#0F0E0D"/>
<path d="M3.82831 12.7234C4.50685 12.8438 4.74351 13.2938 4.71628 13.9383C4.36235 13.577 4.03145 13.1988 3.82831 12.7234Z" fill="#0F0E0D"/>
<path d="M13.2715 18.6351C13.7385 18.2907 14.1867 18.1259 14.5406 18.783C14.1092 18.8063 13.6715 18.8908 13.2715 18.6351Z" fill="#0F0E0D"/>
<path d="M33.7807 12.6853C33.5336 12.0705 33.8393 11.781 34.3901 11.6353C34.3084 12.0557 34.032 12.3642 33.7807 12.6853Z" fill="#0F0E0D"/>
<path d="M28.8549 51.8211C28.7628 51.0245 29.3513 51.0034 29.8769 50.9083C29.611 51.2971 29.2717 51.6013 28.8549 51.8211Z" fill="#0F0E0D"/>
<path d="M8.89651 24.5024C8.26822 24.8489 7.63994 24.8489 7.01166 24.5024C7.63994 24.5024 8.26822 24.5024 8.89651 24.5024Z" fill="#0F0E0D"/>
<path d="M11.395 52.8119C11.7468 52.4928 12.0568 52.3956 12.241 52.9724C11.9416 53.0168 11.6463 53.0316 11.395 52.8119Z" fill="#0F0E0D"/>
<path d="M34.0069 34.2424C34.1514 33.6064 34.4718 33.7057 34.8488 34.0353C34.6373 34.3945 34.275 34.1198 34.0069 34.2424Z" fill="#0F0E0D"/>
<path d="M16.2683 5.49547C15.682 5.50603 15.571 5.13207 15.5961 4.64612C15.9018 4.86374 16.0945 5.1701 16.2683 5.49547Z" fill="#0F0E0D"/>
<path d="M33.5901 37.1728C33.2676 36.858 33.3011 36.6383 33.7597 36.5369C33.8037 36.7756 33.7325 36.9848 33.5901 37.1728Z" fill="#0F0E0D"/>
<path d="M2.82725 24.534C2.70159 25.0136 2.48169 25.039 2.18011 24.6735C2.36651 24.4918 2.59688 24.5066 2.82725 24.534Z" fill="#0F0E0D"/>
<path d="M35.6698 24.7221C35.3472 25.0454 35.142 24.9714 35.0457 24.532C35.2886 24.477 35.4834 24.5848 35.6698 24.7221Z" fill="#0F0E0D"/>
<path d="M8.24518 51.3183C8.56351 51.3098 8.88393 51.2993 8.87556 51.7641C8.61377 51.688 8.38759 51.5655 8.24518 51.3183Z" fill="#0F0E0D"/>
<path d="M25.2067 2.12122C25.1837 2.57547 24.8737 2.56702 24.5491 2.53321C24.702 2.28813 24.945 2.18883 25.2067 2.12122Z" fill="#0F0E0D"/>
<path d="M13.7364 2.97062C13.416 2.97907 13.0893 2.99386 13.1039 2.52271C13.3552 2.61567 13.5919 2.72765 13.7364 2.97062Z" fill="#0F0E0D"/>
<path d="M5.75716 24.5024C5.40951 24.8215 5.05977 24.8194 4.71002 24.5067C5.05977 24.5067 5.40742 24.5046 5.75716 24.5024Z" fill="#0F0E0D"/>
<path d="M36.0907 33.5431C36.1012 33.2071 36.1326 32.8902 36.608 33.0698C36.4823 33.279 36.365 33.4987 36.0907 33.5431Z" fill="#0F0E0D"/>
<path d="M16.8904 6.36383C16.4422 6.35115 16.4171 6.04057 16.4317 5.70251C16.5846 5.92225 16.7375 6.14409 16.8904 6.36383Z" fill="#0F0E0D"/>
<path d="M13.1123 2.53324C12.7835 2.56916 12.4777 2.56705 12.4589 2.11279C12.7081 2.20153 12.9657 2.28182 13.1123 2.53324Z" fill="#0F0E0D"/>
<path d="M3.42628 12.0726C3.89749 12.0811 3.88283 12.398 3.83885 12.7339C3.60011 12.5776 3.42209 12.3832 3.42628 12.0726Z" fill="#0F0E0D"/>
<path d="M12.2159 18.445C12.4798 18.0731 12.5929 18.2379 12.6578 18.5696C12.4902 18.5992 12.329 18.6055 12.2159 18.445Z" fill="#0F0E0D"/>
<path d="M11.3824 18.2273C11.6568 17.8554 11.7594 18.0456 11.8222 18.3646C11.6547 18.3857 11.4934 18.3921 11.3824 18.2273Z" fill="#0F0E0D"/>
<path d="M26.4675 18.1427C26.5156 17.8723 26.5827 17.6526 26.8821 17.9589C26.7439 18.0202 26.6057 18.0815 26.4675 18.1427Z" fill="#0F0E0D"/>
<path d="M27.5125 17.7392C27.5565 17.4603 27.6235 17.23 27.9335 17.549C27.8329 17.699 27.6905 17.7603 27.5125 17.7392Z" fill="#0F0E0D"/>
<path d="M24.5596 2.52271C24.545 2.79103 24.5387 3.07415 24.1659 2.77413C24.2978 2.68962 24.4277 2.6051 24.5596 2.52271Z" fill="#0F0E0D"/>
<path d="M25.9628 1.85083C26.101 1.92055 26.3209 1.88464 26.3251 2.12972C26.3251 2.15085 26.2937 2.19099 26.2748 2.19311C26.0382 2.22691 26.0444 1.98816 25.9355 1.8783L25.9628 1.85083Z" fill="#0F0E0D"/>
<path d="M35.674 33.767C35.7556 33.7079 35.8352 33.6508 35.9169 33.5917C35.875 33.7037 35.8205 33.8008 35.674 33.767Z" fill="#0F0E0D"/>
<path d="M7.3551 16.3025C7.44725 16.3701 7.5394 16.4377 7.63364 16.5032C7.54149 16.4356 7.44935 16.368 7.3551 16.3025Z" fill="#0F0E0D"/>
<path d="M25.9796 1.82969C25.8476 1.85716 25.7157 1.88463 25.5837 1.90998C25.6947 1.77265 25.7911 1.57616 25.9796 1.82969Z" fill="#0F0E0D"/>
<path d="M35.2551 33.9825C35.3367 33.9234 35.4163 33.8642 35.498 33.8051C35.454 33.9149 35.3975 34.01 35.2551 33.9825Z" fill="#0F0E0D"/>
<path d="M28.0843 49.818C27.3115 50.3061 26.5261 50.7625 25.5879 50.8343C25.4203 50.6716 25.2088 50.6885 25.0015 50.6885C20.9868 50.6885 16.972 50.6885 12.9573 50.6885C12.7185 50.6885 12.4672 50.6505 12.2725 50.8491C11.4955 50.8132 10.7772 50.5998 10.1426 50.1307C10.1384 49.6934 9.86614 49.6025 9.50383 49.6258L9.52059 49.6363C9.44519 49.5603 9.3677 49.4863 9.29231 49.4103L9.30906 49.4293C9.23367 49.3532 9.15828 49.2772 9.08079 49.2011L9.09964 49.218C9.02634 49.1419 8.95304 49.0659 8.87974 48.9898L8.88602 49.0004C8.89021 48.6835 8.74152 48.4722 8.4525 48.3581L8.46507 48.375C8.47554 47.9545 8.50905 47.5256 8.03574 47.3017L8.04412 47.3144C8.05669 46.8347 8.04622 46.3636 7.61898 46.0319L7.63155 46.0488C7.48914 45.5734 7.96035 44.9628 7.31741 44.5994C7.30275 44.5001 7.28809 44.3987 7.27343 44.2994C7.32159 44.1747 7.4284 44.0374 7.40955 43.9233C7.1352 42.252 6.84829 40.585 6.54671 38.9201C6.52996 38.8251 6.35404 38.7575 6.25351 38.6772C6.15508 38.0623 6.05456 37.4454 5.95613 36.8284C5.95613 36.4418 5.98545 36.0509 5.94565 35.6685C5.81162 34.4135 5.80115 34.4177 7.09751 34.4177C14.9406 34.4177 22.7836 34.4177 30.6246 34.422C31.0749 34.422 31.5252 34.4769 31.9754 34.5065C31.8875 34.9438 31.7849 35.3769 31.7157 35.8164C31.0644 39.947 30.4403 44.0839 29.3827 48.1362L29.389 48.1278C29.1733 48.4785 28.9555 48.8271 28.7398 49.1779L28.7607 49.1736C28.6853 49.2497 28.612 49.3236 28.5366 49.3997L28.5534 49.3849C28.478 49.461 28.4047 49.5349 28.3293 49.6089L28.344 49.5941C28.2581 49.668 28.1722 49.742 28.0864 49.8138L28.0843 49.818Z" fill="#AF6535"/>
<path d="M2.98019 31.8993C2.34353 31.3098 2.55505 30.4774 2.38332 29.7548C2.28489 29.3449 2.23253 28.9266 2.15923 28.5103C2.14248 28.3667 2.12572 28.2209 2.10897 28.0772C2.07546 27.9293 2.03986 27.7835 2.00635 27.6356C2.07546 27.3673 2.14248 27.1011 2.21159 26.8328L2.2053 26.8391C2.354 26.744 2.50479 26.6468 2.65348 26.5518C2.64301 26.5877 2.63044 26.6215 2.61788 26.6553C2.81055 26.856 3.06186 26.8285 3.30271 26.8285C13.906 26.8222 24.5073 26.8159 35.1106 26.8095C35.4038 26.9405 35.452 27.2194 35.5127 27.4898C35.3305 28.9625 35.2656 30.4541 34.8132 31.8845L34.8195 31.8761C34.719 31.8908 34.6205 31.9035 34.5221 31.9183C24.0088 31.912 13.4935 31.9077 2.98019 31.9014V31.8993Z" fill="#AF6535"/>
<path d="M5.88702 2.18469C6.85039 2.39175 7.86402 2.55866 8.7499 2.90305C12.7123 4.44329 15.7218 7.01036 16.8338 11.3628C17.1186 12.4804 17.393 13.6045 17.4642 14.8912C16.5825 14.4623 16.1092 13.7186 15.5437 13.1122C13.9688 11.424 12.4421 9.69153 10.9028 7.9717C10.0525 7.02093 9.25043 6.73992 8.68079 7.21108C8.07973 7.70759 8.2012 8.48511 9.12478 9.4887C11.1625 11.7029 13.2275 13.8918 15.282 16.0913C15.4181 16.237 15.6254 16.3321 15.6338 16.6871C11.8578 16.6385 8.76247 15.1701 6.19279 12.4741C6.11949 12.4002 6.04619 12.3241 5.97498 12.2501L5.98964 12.2628C5.91634 12.1889 5.84304 12.1128 5.76765 12.0389C5.76765 12.0389 5.77812 12.0515 5.77812 12.0494C5.70482 11.9755 5.63152 11.9015 5.55822 11.8276L5.57498 11.8339C5.49958 11.3945 5.26293 11.0543 4.93831 10.767L4.94879 10.7839C4.93413 10.6085 4.89224 10.4479 4.7247 10.3528L4.73098 10.3634C4.71213 10.1902 4.69747 10.0169 4.51946 9.92394L4.53202 9.9345C4.47129 9.78238 4.41056 9.63026 4.34982 9.47602C4.31631 9.34925 4.28071 9.22037 4.2472 9.0936C3.78227 7.58928 3.4807 6.05537 3.47651 4.47287C3.47372 2.91925 4.24371 2.15723 5.7865 2.18681C5.8221 2.18681 5.85561 2.18681 5.89121 2.18681L5.88702 2.18469Z" fill="#1CA858"/>
<path d="M22.0842 16.704C21.925 16.2096 22.3753 16.0532 22.6078 15.7997C24.6099 13.6024 26.6309 11.4177 28.6414 9.22671C28.8529 8.99641 29.0812 8.76189 29.2278 8.49145C29.4833 8.02451 29.4791 7.54913 29.077 7.13925C28.7021 6.75471 28.2832 6.78218 27.8288 6.97867C27.3555 7.17939 27.0623 7.58082 26.7335 7.93578C24.6895 10.1437 22.6559 12.3621 20.6161 14.5742C20.5533 14.644 20.4486 14.6735 20.2203 14.8045C20.3208 12.1699 20.9365 9.80562 22.3858 7.73506C24.9366 4.09045 28.5534 2.4171 32.8948 2.15089C33.7514 2.09807 34.0153 2.41287 34.0509 3.28969C34.208 7.24489 33.0477 10.6655 30.2372 13.4756C29.6131 14.101 28.8445 14.5235 28.1408 15.037C27.4372 15.375 26.7356 15.7131 26.0319 16.049L26.0445 16.0405C24.7293 16.2877 23.4287 16.6321 22.0863 16.7061L22.0842 16.704Z" fill="#1CA858"/>
<path d="M2.65551 26.5517C2.50682 26.6468 2.35603 26.744 2.20734 26.8391C2.28901 26.0278 2.90892 26.1989 3.40108 26.1989C7.30481 26.1905 11.2065 26.1947 15.1102 26.1947C21.2443 26.1947 27.3764 26.1947 33.5105 26.1947C33.854 26.1947 34.1974 26.1947 34.543 26.1947C34.5493 26.2644 34.5535 26.3341 34.5597 26.4017C34.2289 26.4017 33.898 26.4017 33.5671 26.4017C23.6695 26.4017 13.774 26.4017 3.87648 26.4102C3.47019 26.4102 3.03876 26.2834 2.65761 26.5517H2.65551Z" fill="#0F0E0D"/>
<path d="M35.1127 26.8095C24.5093 26.8159 13.9081 26.8222 3.30476 26.8285C3.06392 26.8285 2.81261 26.856 2.61993 26.6553C3.10581 26.632 3.58958 26.5898 4.07546 26.5898C14.0233 26.5813 23.9711 26.5771 33.921 26.5771C34.3294 26.5771 34.7629 26.4841 35.1127 26.8095Z" fill="#C18A65"/>
<path d="M2.98018 31.8993C13.4935 31.9056 24.0088 31.9099 34.5221 31.9162C34.3483 31.988 34.1724 32.0578 33.9985 32.1296C26.5953 32.1211 19.1899 32.1106 11.7866 32.1042C9.21485 32.1021 6.64098 32.1063 4.06921 32.0979C3.70061 32.0979 3.29642 32.2141 2.97809 31.8993H2.98018Z" fill="#C18A65"/>
<path d="M34.0006 32.3177C33.7576 32.6008 33.4246 32.5226 33.121 32.5226C23.5711 32.5248 14.0212 32.5248 4.47335 32.5226C4.28486 32.5226 4.06706 32.605 3.82831 32.3135C13.9395 32.3135 23.9669 32.3135 33.9964 32.3135L34.0027 32.3198L34.0006 32.3177Z" fill="#0F0E0D"/>
<path d="M31.9776 34.5107C31.5273 34.4811 31.077 34.4283 30.6268 34.4262C22.7837 34.4198 14.9406 34.4219 7.09965 34.4219C5.80329 34.4219 5.81376 34.4177 5.9478 35.6727C5.98759 36.0551 5.95618 36.446 5.95827 36.8327C5.77188 35.9918 5.58549 35.1487 5.38025 34.217C5.82214 34.217 6.1656 34.217 6.50906 34.217C14.5909 34.217 22.6727 34.217 30.7545 34.2149C31.1378 34.2149 31.5189 34.1916 31.9022 34.179C32.0195 34.2677 32.099 34.367 31.9797 34.5128L31.9776 34.5107Z" fill="#C18A65"/>
<path d="M30.9911 33.9445H5.58545C5.58545 33.9086 5.58545 33.8748 5.58545 33.8389H31.0246C31.0142 33.8748 31.0037 33.9086 30.9932 33.9445H30.9911Z" fill="#0F0E0D"/>
<path d="M31.9775 34.5108C32.0969 34.365 32.0173 34.2678 31.9 34.1769C31.8288 34.1009 31.7178 34.0354 31.6927 33.9466C31.6508 33.7945 31.7932 33.7987 31.877 33.8283C32.478 34.0375 32.367 34.5573 32.2895 34.9819C31.8058 37.6546 31.2968 40.3231 30.7858 42.9895C30.5094 44.4262 30.2225 45.8629 29.9125 47.2933C29.8413 47.6208 29.789 48.0053 29.3848 48.1427C30.4445 44.0903 31.0686 39.9534 31.7178 35.8228C31.7869 35.3834 31.8895 34.9502 31.9775 34.5129V34.5108Z" fill="#0F0E0D"/>
<path d="M12.2745 50.8492C12.4693 50.6506 12.7206 50.6886 12.9594 50.6886C16.9741 50.6886 20.9888 50.6886 25.0036 50.6886C25.2109 50.6886 25.4224 50.6738 25.59 50.8344C21.1522 50.8386 16.7144 50.8428 12.2766 50.847L12.2745 50.8492Z" fill="#C18A65"/>
<path d="M5.88707 2.18465C5.85146 2.18465 5.81795 2.18676 5.78235 2.18465C4.24096 2.15507 3.47097 2.91709 3.47236 4.47071C3.47655 6.05321 3.77603 7.58712 4.24306 9.09144C3.3132 8.3097 3.42419 7.1392 3.29644 6.12927C3.15403 5.00314 3.13937 3.83053 3.36555 2.67693C3.48702 2.0621 3.76766 1.86561 4.35405 1.91209C4.90694 1.95646 5.48915 1.82969 6.01482 1.96069C6.34571 2.04309 5.93942 2.10013 5.88707 2.18042V2.18465Z" fill="#0F0E0D"/>
<path d="M6.25354 38.6793C6.35407 38.7596 6.52998 38.8251 6.54674 38.9223C6.84831 40.5872 7.13523 42.2563 7.40958 43.9254C7.42843 44.0395 7.32162 44.1748 7.27345 44.3015C6.93418 42.4275 6.59281 40.5534 6.25354 38.6793Z" fill="#C18A65"/>
<path d="M34.8153 31.8824C35.2677 30.4542 35.3326 28.9625 35.5148 27.4878C35.9295 28.9414 35.5001 30.3232 35.1567 31.7113C35.1357 31.7916 34.9326 31.8254 34.8153 31.8824Z" fill="#0F0E0D"/>
<path d="M22.0842 16.7039C23.4287 16.6299 24.7271 16.2876 26.0424 16.0383C24.7879 16.6532 23.5208 17.1919 22.0842 16.7039Z" fill="#0F0E0D"/>
<path d="M26.0298 16.049C26.7335 15.711 27.435 15.3729 28.1387 15.037C27.6696 15.8694 26.8361 15.9286 26.0298 16.049Z" fill="#0F0E0D"/>
<path d="M2.21152 26.8348C2.14241 27.1032 2.0754 27.3694 2.00628 27.6377C2.03979 27.7856 2.0754 27.9314 2.1089 28.0793C2.12566 28.223 2.14241 28.3687 2.15917 28.5124C1.58324 27.9335 1.49109 27.3715 2.21152 26.837V26.8348Z" fill="#0F0E0D"/>
<path d="M7.62109 46.032C8.04833 46.3637 8.0588 46.8349 8.04623 47.3145C7.64832 46.9743 7.6567 46.4968 7.62109 46.032Z" fill="#C18A65"/>
<path d="M7.31952 44.6016C7.96246 44.965 7.49125 45.5756 7.63366 46.051C7.35512 45.6073 7.45984 45.0769 7.31952 44.6016Z" fill="#C18A65"/>
<path d="M28.7397 49.1822C28.9555 48.8314 29.1733 48.4828 29.389 48.1321C29.3597 48.599 29.3785 49.0976 28.7397 49.1822Z" fill="#0F0E0D"/>
<path d="M8.03782 47.3018C8.51112 47.5257 8.47761 47.9546 8.46714 48.3751C8.16138 48.0835 7.99174 47.737 8.03782 47.3018Z" fill="#C18A65"/>
<path d="M4.93622 10.767C5.26083 11.0543 5.49748 11.3945 5.57288 11.8339C5.11633 11.6269 4.98229 11.2254 4.93622 10.767Z" fill="#0F0E0D"/>
<path d="M34.0006 32.1297C34.1744 32.0578 34.3483 31.9881 34.5242 31.9163C34.6247 31.9015 34.7231 31.8888 34.8237 31.874C34.7776 32.4529 34.3336 32.2776 34.0006 32.3177L33.9943 32.3114C33.9943 32.2501 33.9985 32.1888 34.0006 32.1276V32.1297Z" fill="#0F0E0D"/>
<path d="M9.50592 49.6237C9.86823 49.6005 10.1405 49.6913 10.1447 50.1287C9.93106 49.9596 9.71954 49.7906 9.50592 49.6237Z" fill="#C18A65"/>
<path d="M8.45673 48.3561C8.74783 48.4702 8.89652 48.6815 8.89024 48.9984C8.67453 48.8336 8.50699 48.635 8.45673 48.3561Z" fill="#C18A65"/>
<path d="M4.34775 9.47815C4.40849 9.63027 4.46922 9.78239 4.52995 9.93663C4.32262 9.84367 4.0378 9.7824 4.34775 9.47815Z" fill="#0F0E0D"/>
<path d="M4.72257 10.3529C4.89011 10.448 4.9299 10.6086 4.94666 10.7839C4.76026 10.6994 4.71838 10.5367 4.72257 10.3529Z" fill="#0F0E0D"/>
<path d="M4.51735 9.92383C4.69746 10.0168 4.71212 10.19 4.72887 10.3633C4.5362 10.2767 4.50688 10.1098 4.51735 9.92383Z" fill="#0F0E0D"/>
<path d="M5.97284 12.248C6.04614 12.322 6.11944 12.3981 6.19064 12.472C6.11734 12.3981 6.04404 12.322 5.97284 12.248Z" fill="#0F0E0D"/>
<path d="M5.7655 12.0367C5.8388 12.1107 5.9121 12.1868 5.9875 12.2607C5.9142 12.1868 5.8409 12.1107 5.7655 12.0367Z" fill="#0F0E0D"/>
<path d="M9.08496 49.1991C9.16035 49.2752 9.23575 49.3512 9.31324 49.4273C9.23784 49.3512 9.16245 49.2752 9.08496 49.1991Z" fill="#C18A65"/>
<path d="M28.0842 49.8181C28.1701 49.7442 28.256 49.6702 28.3418 49.5984C28.256 49.6723 28.1701 49.7463 28.0842 49.8181Z" fill="#0F0E0D"/>
<path d="M2.10897 28.0772C2.07546 27.9293 2.03986 27.7835 2.00635 27.6356C2.03986 27.7814 2.07546 27.9293 2.10897 28.0772Z" fill="#1A1A19"/>
</g>
<defs>
<clipPath id="clip0_46_1884">
<rect width="37.5818" height="53" fill="white"/>
</clipPath>
</defs>
</svg>
