<svg width="21" height="19" viewBox="0 0 21 19" fill="none" xmlns="http://www.w3.org/2000/svg">
<g clip-path="url(#clip0_198_657)">
<path d="M5.68478 0.0207879C7.28401 0.0124586 8.62087 0.627995 9.75032 1.73579C10.1768 2.15448 10.5985 2.1567 11.0155 1.74246C12.9013 -0.129973 15.4767 -0.522284 17.8289 0.704625C20.8575 2.28386 21.742 6.56263 19.5223 9.15305C18.0688 10.8497 16.3955 12.3423 14.8212 13.9274C13.4644 15.2943 12.0792 16.6336 10.7215 18.0005C10.4666 18.257 10.32 18.2703 10.056 18.0071C7.3015 15.2501 4.52784 12.5123 1.7725 9.75609C-0.905375 7.07905 -0.496406 2.98186 2.64291 0.878708C3.47002 0.325641 4.54366 0.0232867 5.68478 0.0207879ZM5.67229 1.62418C3.91563 1.655 2.63375 2.47544 1.94658 4.07383C1.27274 5.64224 1.51096 7.17234 2.70122 8.40092C5.13505 10.9122 7.63967 13.3544 10.1101 15.8298C10.3134 16.0339 10.4583 16.0322 10.6615 15.829C13.1129 13.3735 15.5867 10.9397 18.018 8.46505C19.1316 7.33143 19.439 5.92794 18.9592 4.41867C18.0463 1.54755 14.4272 0.662978 12.2683 2.75447C11.7302 3.27589 11.188 3.79314 10.6574 4.32205C10.48 4.49946 10.3434 4.55194 10.1401 4.34787C9.61289 3.81646 9.06898 3.30087 8.52924 2.78029C7.73379 2.01233 6.79425 1.60169 5.67229 1.62418Z" fill="black"/>
</g>
<defs>
<clipPath id="clip0_198_657">
<rect width="20.76" height="18.2004" fill="white"/>
</clipPath>
</defs>
</svg>
