<svg width="53" height="47" viewBox="0 0 53 47" fill="none" xmlns="http://www.w3.org/2000/svg">
<g clip-path="url(#clip0_46_1827)">
<path d="M24.6728 2.67326C24.1366 3.00244 23.5508 2.78151 23.2106 2.49209C21.7867 1.27921 19.9573 1.02072 18.2743 0.614216C17.4474 0.415382 16.2781 0.293872 15.2958 0.841771C14.951 1.03398 14.3991 1.15107 13.9349 0.890375C15.4309 -0.119262 17.0914 -0.163447 18.7609 0.232012C20.8585 0.729098 22.8591 1.49571 24.6751 2.67326H24.6728Z" fill="#0F0E0D"/>
<path d="M48.5908 1.28585C47.1286 0.762248 45.6101 0.631901 44.0668 0.680505C45.6799 0.130397 47.2097 0.167955 48.5908 1.28585Z" fill="#0F0E0D"/>
<path d="M12.5516 1.74084V3.20117C11.8982 2.66432 11.3147 3.08629 10.7266 3.04873L12.5516 1.74084Z" fill="#0F0E0D"/>
<path d="M13.8448 0.903564C13.847 1.51774 13.7411 1.97064 12.9796 1.47577C13.268 1.28577 13.5564 1.09356 13.8448 0.903564Z" fill="#0F0E0D"/>
<path d="M49.5258 2.15623C49.1766 2.17169 49.0167 2.00379 49.0324 1.66577C49.1969 1.82926 49.3614 1.99274 49.5258 2.15623Z" fill="#0F0E0D"/>
<path d="M40.0113 21.8342C39.7815 21.9756 39.6351 22.3711 39.2611 22.0706C39.1912 22.0507 39.1237 22.0308 39.0538 22.0132C39.1169 22.0353 39.1822 22.0551 39.2453 22.0772C39.2115 22.2164 39.1214 22.2694 38.9795 22.2363C38.0873 21.8872 37.1973 22.402 36.2961 22.2451C36.0776 22.2076 35.9649 22.4904 35.9739 22.7312L35.9852 22.7201C35.1268 22.9256 34.3067 23.1708 34.3968 24.2953C34.3135 24.4257 34.2301 24.5582 34.1467 24.6886C33.8223 25.1459 34.2121 25.073 34.4667 25.0995C35.1381 25.7513 35.8613 26.3588 36.3975 27.1343C36.3975 27.6247 36.5304 28.0047 37.141 27.9738C39.6802 30.7089 42.2441 33.424 44.7427 36.1945C45.502 37.0362 46.4865 37.6946 47.0025 38.7462C46.9935 39.2433 46.9889 39.7381 47.6175 39.9105C47.6423 40.0519 47.6694 40.1933 47.6941 40.3346C47.3269 40.6196 47.5094 40.7301 47.8451 40.792C47.8609 41.0107 47.8766 41.2316 47.8924 41.4503C47.595 41.6646 47.5882 41.8856 47.8721 42.1153C47.8654 42.2633 47.8586 42.4136 47.8519 42.5616C47.2233 43.1073 47.0813 43.8452 47.0025 44.6096C46.4753 45.6281 45.5853 46.2047 44.5196 46.5648C44.1164 46.1318 43.659 46.5073 43.2805 46.5648C41.9264 46.7614 40.7661 46.1075 39.5089 45.9042L39.5224 45.9175C39.5134 45.4226 39.3219 45.1575 38.7722 45.3408L38.7452 45.3165C38.8939 44.8968 38.664 44.7952 38.3013 44.8018C35.3318 41.0328 32.3646 37.2615 29.3906 33.497C28.5705 32.4586 27.7256 31.4401 26.8222 30.3267C23.9969 33.1302 21.2347 35.8719 18.4702 38.6136C17.6389 38.892 17.8777 39.3957 18.1841 39.9149C18.1683 40.0629 18.1548 40.2087 18.139 40.3567C17.6884 40.5025 17.3865 40.7191 17.7065 41.2316C16.9472 42.2103 15.8229 42.7516 14.8609 43.4806C13.651 44.3975 12.3848 45.2436 11.1502 46.1273C10.3121 46.7261 9.50774 46.7393 8.72369 46.0346C8.00723 45.3895 7.26148 44.7775 6.58107 44.0992C5.95473 43.4762 5.88263 42.7825 6.4549 42.0314C8.05904 39.9171 9.63841 37.7874 11.22 35.6576C11.7382 34.9617 12.3781 34.5 13.2973 34.6193C13.8403 34.69 14.1895 34.4624 14.559 34.1067C17.1702 31.5771 19.7838 29.0519 22.4423 26.5709C23.0867 25.97 23.2669 25.6386 22.5978 24.8477C19.9527 21.7149 17.4091 18.5004 14.8541 15.297C14.3427 14.6541 13.7975 14.3404 13.045 14.8021C12.4119 15.1887 11.6706 15.4428 12.0401 16.5519C12.4051 17.6454 12.1348 18.7037 10.9452 19.3775C10.1408 19.8326 9.42663 20.438 8.66736 20.9704C7.73912 21.6199 6.77482 21.5647 6.01781 20.8025C3.92476 18.7015 2.13811 16.342 0.344711 13.9979C-0.292893 13.165 0.00901129 12.1885 0.748001 11.5059C1.72581 10.6023 2.77346 9.76277 3.85041 8.97185C4.70205 8.34663 5.63254 8.34442 6.50897 9.00499C6.12145 9.33417 6.37604 9.54847 6.68696 9.62359C7.13756 9.73184 7.13305 9.36731 7.14657 9.06906C7.37187 8.90778 7.59718 8.7443 7.82023 8.58302C8.44431 8.435 8.45558 7.90257 8.44206 7.46513C8.4015 6.24119 8.41277 5.06807 9.60236 4.27936C9.79612 4.15123 9.84569 3.92146 9.82316 3.6917L9.80964 3.70274C10.3166 3.75135 10.8122 3.7867 10.7356 3.04438L10.7244 3.05322C11.3124 3.09078 11.8959 2.6688 12.5493 3.20566V1.74533C12.6913 1.65696 12.8354 1.5708 12.9774 1.48243C13.7367 1.9773 13.8448 1.5244 13.8425 0.910226C13.8425 0.910226 13.9304 0.894761 13.9327 0.896971C14.3968 1.15766 14.9488 1.03836 15.2935 0.848367C16.2758 0.300468 17.4474 0.421978 18.272 0.620812C19.9572 1.02732 21.7844 1.2858 23.2083 2.49869C23.5485 2.79031 24.1343 3.00903 24.6705 2.67985L24.7291 2.69311C24.7111 3.04217 24.639 3.41996 25.0378 3.61879C25.3802 3.79111 25.565 3.58344 25.6776 3.28519C25.7407 3.2631 25.788 3.28077 25.8241 3.3338C26.2972 4.13134 26.7726 4.92447 27.9374 4.65494C27.987 4.65715 28.0185 4.68366 28.0343 4.73005C27.8315 5.55632 28.2574 5.54086 28.8431 5.31109C28.8972 5.31551 28.931 5.34423 28.94 5.39725C28.8048 6.21247 29.4605 6.66316 29.8502 7.2199C30.6816 8.40407 30.1138 10.0323 28.7057 10.3769C28.4669 10.4366 28.3114 10.5603 28.2303 10.7835C27.0272 10.4697 26.1102 9.61254 24.9792 9.15522C24.0645 8.78406 23.1588 8.47918 22.1674 8.81499C20.9103 9.24138 20.7188 9.99695 21.5884 10.958C23.7513 13.3484 25.9142 15.7388 28.0456 18.158C28.5322 18.7103 28.8995 18.8981 29.3906 18.2176C29.519 18.0409 29.6948 17.8929 29.857 17.7426C30.5352 17.1218 31.0939 16.5894 30.8145 15.4428C30.4698 14.0222 31.1142 12.7475 32.1979 11.6937C35.5549 8.435 38.8848 5.14981 42.2238 1.87347C42.7533 1.35429 43.3075 0.874878 44.06 0.689299C45.6033 0.640695 47.1219 0.771042 48.5841 1.29464C48.7305 1.42057 48.8792 1.54871 49.0257 1.67463C49.0077 2.01265 49.1676 2.18056 49.5191 2.16509C50.6321 3.22996 51.9073 4.17774 52.5584 5.60492C53.3785 7.40548 53.0068 9.1022 51.7406 10.589C51.1976 11.2275 50.5284 11.7644 49.9179 12.3454C49.4154 12.3565 48.9198 12.3763 49.1541 13.1032L49.109 13.1474C48.5525 12.9309 48.5796 13.3241 48.5525 13.6621C48.2551 14.1084 47.8654 14.4619 47.4215 14.7646C46.9326 14.7226 46.7073 14.9391 46.7501 15.4207C46.3581 15.9244 45.9165 16.3795 45.3848 16.7485C44.9094 16.7153 44.6841 16.9274 44.7202 17.3958C44.4115 17.694 44.1051 17.9923 43.7964 18.2906C43.1791 18.264 42.8862 18.5535 42.9177 19.1588C42.8299 19.3753 42.6744 19.5299 42.4536 19.6161C42.19 19.636 42.0413 19.773 42.0165 20.0315C41.8588 20.1861 41.7011 20.3407 41.5457 20.4954C41.0297 20.5064 40.5003 20.502 40.7954 21.2686L40.7751 21.2863C40.2479 21.1118 40.0474 21.3747 40.0046 21.8431L40.0113 21.8342ZM49.9134 9.04034C50.0846 9.04697 50.1342 8.94092 50.1499 8.80174L50.1432 8.8172C50.8461 7.90477 50.7785 6.99455 50.1432 6.08213C49.7174 5.19179 48.8927 4.64168 48.2326 3.95681C46.5857 2.24683 45.1415 2.20928 43.4269 3.87065C40.2862 6.91281 37.1861 9.99253 34.0611 13.0502C33.3514 13.7439 32.8986 14.6055 33.1419 15.5334C33.5474 17.0666 32.8918 18.063 31.7811 18.9688C31.3936 19.2847 31.1119 19.7266 30.7267 20.0491C30.5104 20.2303 30.4698 20.4689 30.5284 20.6235C30.8731 21.5117 31.5648 22.1855 32.3939 22.5412C32.9504 22.7798 33.4618 22.1634 33.7795 21.6884C34.4486 20.6876 35.3431 20.2745 36.5665 20.2546C37.6524 20.2391 38.7857 20.0911 39.6148 19.2781C42.6091 16.3464 45.5808 13.3926 48.5593 10.4454C48.6427 10.3394 48.726 10.2333 48.8116 10.1273L48.8004 10.1759C48.886 10.092 48.9693 10.0058 49.055 9.92184L49.0144 9.94393C49.1699 9.92405 49.2622 9.85114 49.2487 9.68765L49.242 9.71196C49.3974 9.70312 49.4808 9.628 49.4763 9.46894L49.4605 9.47998C49.6272 9.48882 49.7061 9.40929 49.7016 9.2458L49.6948 9.27673C49.8503 9.26568 49.9336 9.18615 49.9404 9.03371L49.9111 9.04255L49.9134 9.04034ZM28.5322 8.13675C28.8589 7.73245 28.5322 7.73908 28.2551 7.71036C25.7678 5.47237 22.8366 3.98995 19.7071 2.82124C17.515 2.00161 15.503 2.05242 13.651 3.64751C12.8107 4.37215 11.8847 5.00621 10.9587 5.62702C10.4292 5.98271 10.249 6.39142 10.3121 7.01002C10.4157 8.04175 10.3639 9.04476 9.62715 9.92405C9.27567 10.3438 8.40826 10.4896 8.59076 11.1436C8.73495 11.6672 9.27568 12.0869 9.64517 12.5464C9.82992 12.7762 10.0597 12.9795 10.2129 13.2269C10.4765 13.6555 10.7244 13.5936 11.0939 13.3352C11.8599 12.7961 12.7543 12.1952 13.6578 12.4051C14.9015 12.6945 15.6112 12.0759 16.4155 11.4352C17.533 10.5471 18.8014 9.84009 19.3241 8.3643C19.5494 7.73024 20.1465 7.23757 20.872 7.02107C21.9444 7.03211 22.9875 6.83328 24.0239 6.59689C24.3529 6.56375 24.6593 6.6234 24.9296 6.82002C25.0491 7.01444 25.2451 7.01886 25.4433 7.01223C25.6461 7.09839 25.8511 7.18455 26.0539 7.27071C26.1215 7.76559 26.4977 7.68164 26.8357 7.67059C27.2683 7.90919 27.7144 8.13012 28.1289 8.39523C28.5187 8.64488 28.53 8.41953 28.53 8.13454L28.5322 8.13675ZM42.4536 44.8305C44.0983 44.8305 45.0108 44.1545 45.5358 43.0631C46.1283 41.8347 45.9661 40.5998 45.0018 39.5835C40.3921 34.7143 36.01 29.6462 31.3057 24.8543C27.8293 21.3128 24.6052 17.5328 21.3045 13.8278C19.4165 11.7091 19.4706 11.7069 17.2829 13.45C16.7061 13.9096 16.7962 14.1658 17.1973 14.6585C19.4841 17.4709 21.7664 20.2899 23.9946 23.1487C29.2036 29.8274 34.6379 36.3337 39.6599 43.1515C40.4101 44.1699 41.406 44.8681 42.4514 44.8327L42.4536 44.8305ZM13.7321 36.9412C13.3919 36.8506 13.1238 36.7998 12.894 37.1091C11.5512 38.9185 10.1859 40.7102 8.8431 42.5218C8.34067 43.2001 9.09543 43.3989 9.40635 43.7192C9.67221 43.9954 9.89976 44.4638 10.4946 44.0131C12.0919 42.8024 13.7479 41.6668 15.3768 40.4959C15.8207 40.1778 16.1429 39.7669 16.0911 39.2013C15.9874 38.048 16.6205 37.2748 17.4046 36.5391C19.9437 34.1531 22.4581 31.7406 25.0017 29.3568C25.4659 28.9216 25.7024 28.6277 25.1347 28.0445C24.4971 27.3905 24.2335 27.9517 23.8933 28.2742C21.2324 30.7994 18.5806 33.3335 15.9311 35.8697C15.3002 36.4728 14.6401 36.9876 13.7321 36.939V36.9412ZM5.13463 10.7569C4.43169 11.2982 3.77831 11.8373 3.08438 12.3211C2.59097 12.6657 2.48958 12.9861 2.86133 13.4942C4.17259 15.2771 5.61452 16.9539 7.11278 18.5844C7.25246 18.7368 7.42369 19.0505 7.62872 18.9202C8.37672 18.4452 9.18781 18.0011 9.76233 17.3604C10.1273 16.9539 9.69924 16.2956 9.4086 15.8449C8.30688 14.1415 6.91451 12.6569 5.58748 11.1237C5.47258 10.9911 5.31262 10.8983 5.13237 10.7569H5.13463Z" fill="#1A1A19"/>
<path d="M28.2348 10.779C28.3159 10.5559 28.4691 10.4322 28.7102 10.3725C30.1183 10.0279 30.6861 8.39964 29.8547 7.21547C29.4649 6.65873 28.8093 6.20804 28.9445 5.39282C30.0057 6.13514 30.5734 7.1514 30.7244 8.4151C30.9069 9.93066 29.8254 10.9712 28.2371 10.779H28.2348Z" fill="#0F0E0D"/>
<path d="M9.82544 3.68726C9.84797 3.91923 9.79841 4.14678 9.60465 4.27492C8.41505 5.06142 8.40379 6.23675 8.44434 7.46069C8.45786 7.89812 8.4466 8.43277 7.82251 8.57858C8.03655 8.14335 8.16046 7.66836 8.02303 7.21104C7.50483 5.47235 8.41055 4.4605 9.82544 3.68726Z" fill="#0F0E0D"/>
<path d="M39.5112 45.9064C40.7683 46.1118 41.9309 46.7636 43.2827 46.567C43.6612 46.5117 44.1208 46.1361 44.5219 46.567C42.7172 47.3203 41.05 47.0751 39.5089 45.9042L39.5112 45.9064Z" fill="#0F0E0D"/>
<path d="M35.974 22.7334C35.9649 22.4926 36.0776 22.2076 36.2961 22.2473C37.1973 22.4064 38.0873 21.8894 38.9795 22.2385C38.3982 22.7135 37.7043 22.6605 37.0261 22.6119C36.6589 22.5854 36.3051 22.5213 35.9762 22.7334H35.974Z" fill="#0F0E0D"/>
<path d="M27.9397 4.64829C26.7726 4.91782 26.2995 4.12249 25.8264 3.32715C26.5315 3.76679 27.2345 4.20865 27.9397 4.64829Z" fill="#0F0E0D"/>
<path d="M34.3991 24.2975C34.309 23.173 35.1291 22.9278 35.9875 22.7223C35.458 23.2481 34.9285 23.7717 34.3991 24.2975Z" fill="#0F0E0D"/>
<path d="M47.0047 44.6118C47.0836 43.8474 47.2277 43.1095 47.8541 42.5638C47.7887 43.3327 47.5387 44.0308 47.0047 44.6118Z" fill="#0F0E0D"/>
<path d="M25.6799 3.27629C25.5672 3.57454 25.3825 3.78 25.04 3.60989C24.6435 3.41105 24.7133 3.03327 24.7314 2.6842C25.058 2.86315 25.4478 2.94932 25.6799 3.27629Z" fill="#0F0E0D"/>
<path d="M7.14655 9.06468C7.13303 9.36514 7.13754 9.72746 6.68693 9.61921C6.37602 9.54409 6.12143 9.32979 6.50894 9.00061C6.72073 9.02049 6.93477 9.04259 7.14655 9.06247V9.06468Z" fill="#0F0E0D"/>
<path d="M18.1864 39.9171C17.88 39.3979 17.6411 38.8942 18.4725 38.6158C18.1593 39.0047 18.3351 39.4951 18.1864 39.9171Z" fill="#0F0E0D"/>
<path d="M28.8454 5.30662C28.2596 5.53639 27.8338 5.55185 28.0366 4.72559C28.3069 4.92 28.575 5.11221 28.8454 5.30662Z" fill="#0F0E0D"/>
<path d="M42.9267 19.1499C42.8952 18.5446 43.1881 18.2552 43.8054 18.2817C43.5125 18.5711 43.2196 18.8605 42.9267 19.1499Z" fill="#0F0E0D"/>
<path d="M47.6198 39.9127C46.9912 39.7404 46.9935 39.2455 47.0047 38.7484C47.3697 39.0555 47.4869 39.4863 47.6198 39.9127Z" fill="#0F0E0D"/>
<path d="M40.8022 21.2598C40.507 20.4932 41.0365 20.4976 41.5524 20.4866C41.3024 20.7451 41.0523 21.0013 40.8022 21.2598Z" fill="#0F0E0D"/>
<path d="M10.7379 3.03992C10.8167 3.78223 10.3188 3.74688 9.81189 3.69828C10.1206 3.47956 10.4292 3.25863 10.7379 3.03992Z" fill="#0F0E0D"/>
<path d="M49.1586 13.0943C48.9243 12.3675 49.4199 12.3476 49.9224 12.3365C49.6678 12.5884 49.4132 12.8425 49.1586 13.0943Z" fill="#0F0E0D"/>
<path d="M37.1433 27.976C36.5327 28.0047 36.3998 27.6269 36.3998 27.1365C36.6476 27.4171 36.8954 27.6954 37.1433 27.976Z" fill="#0F0E0D"/>
<path d="M17.7087 41.2316C17.3865 40.719 17.6884 40.5025 18.1413 40.3567C18.085 40.6903 17.9475 40.9841 17.7087 41.2316Z" fill="#0F0E0D"/>
<path d="M40.0114 21.8342C40.0542 21.3637 40.2547 21.103 40.7819 21.2775C40.525 21.4631 40.2682 21.6486 40.0114 21.8342Z" fill="#0F0E0D"/>
<path d="M38.7744 45.343C39.3242 45.1597 39.5157 45.4248 39.5247 45.9197C39.1349 45.902 38.9389 45.6413 38.7744 45.343Z" fill="#0F0E0D"/>
<path d="M46.7546 15.4119C46.7118 14.9303 46.9371 14.7137 47.426 14.7557C47.203 14.9744 46.9777 15.1932 46.7546 15.4119Z" fill="#0F0E0D"/>
<path d="M47.8744 42.1175C47.5905 41.8877 47.5973 41.6668 47.8947 41.4525C48.0006 41.6779 47.9758 41.8988 47.8744 42.1175Z" fill="#0F0E0D"/>
<path d="M44.7269 17.387C44.6909 16.9186 44.9162 16.7065 45.3916 16.7397C45.1708 16.9562 44.9477 17.1705 44.7269 17.387Z" fill="#0F0E0D"/>
<path d="M48.5571 13.6533C48.5841 13.3175 48.5571 12.922 49.1136 13.1385C48.9288 13.3108 48.7418 13.4809 48.5571 13.6533Z" fill="#0F0E0D"/>
<path d="M34.4667 25.1017C34.2144 25.0752 33.8246 25.1481 34.1468 24.6908L34.4667 25.1017Z" fill="#0F0E0D"/>
<path d="M47.8473 40.7941C47.5116 40.7322 47.3291 40.6218 47.6964 40.3368C47.8789 40.4473 47.8744 40.6174 47.8473 40.7941Z" fill="#0F0E0D"/>
<path d="M38.3036 44.8018C38.6663 44.7952 38.8984 44.899 38.7474 45.3166C38.5987 45.1442 38.45 44.9719 38.3036 44.8018Z" fill="#0F0E0D"/>
<path d="M42.0233 20.0248C42.0504 19.7641 42.1968 19.6272 42.4604 19.6095C42.314 19.7487 42.1675 19.8879 42.0233 20.0248Z" fill="#0F0E0D"/>
<path d="M39.2453 22.0773C39.1823 22.0552 39.1169 22.0353 39.0538 22.0132C39.1237 22.0331 39.1913 22.053 39.2611 22.0706L39.2453 22.0773Z" fill="#0F0E0D"/>
<path d="M42.4536 44.8305C41.4082 44.868 40.4146 44.1677 39.6621 43.1492C34.6379 36.3314 29.2059 29.8229 23.9969 23.1465C21.7687 20.2877 19.4864 17.4709 17.1995 14.6563C16.7985 14.1636 16.7084 13.9073 17.2852 13.4478C19.4728 11.7069 19.4188 11.7091 21.3068 13.8256C24.6075 17.5305 27.8315 21.3106 31.3079 24.852C36.01 29.6417 40.3944 34.712 45.004 39.5812C45.9683 40.5997 46.1305 41.8325 45.538 43.0608C45.0131 44.15 44.1006 44.8305 42.4559 44.8283L42.4536 44.8305Z" fill="#696966"/>
<path d="M48.5616 10.4432C45.5808 13.3881 42.6113 16.3441 39.6171 19.2758C38.7857 20.0888 37.6547 20.2369 36.5687 20.2523C35.3454 20.27 34.4509 20.6853 33.7818 21.6861C33.4641 22.1611 32.9504 22.7775 32.3962 22.5389C31.567 22.181 30.8754 21.5072 30.5307 20.6213C30.4698 20.4666 30.5104 20.2302 30.7289 20.0469C31.1142 19.7265 31.3936 19.2847 31.7833 18.9665C32.8941 18.0607 33.5475 17.0643 33.1442 15.5311C32.8986 14.6032 33.3537 13.7416 34.0634 13.0479C37.1883 9.99027 40.2885 6.91054 43.4292 3.86838C45.1415 2.20922 46.5879 2.24678 48.2349 3.95454C48.895 4.63942 49.7196 5.18952 50.1454 6.07986C50.3572 6.99229 50.0801 7.90251 50.1454 8.81493L50.1522 8.79947C50.0733 8.879 49.9945 8.95854 49.9156 9.03807L49.9449 9.02923C49.8638 9.11098 49.7804 9.19272 49.6993 9.27225L49.7061 9.24132C49.625 9.31865 49.5461 9.39597 49.465 9.47551L49.4808 9.46446C49.4019 9.5462 49.3253 9.62574 49.2465 9.70748L49.2532 9.68318C49.1744 9.76934 49.0978 9.8555 49.0189 9.93945L49.0595 9.91736C48.9739 10.0013 48.8905 10.0875 48.8049 10.1714L48.8162 10.1228C48.7328 10.2289 48.6472 10.3349 48.5638 10.441L48.5616 10.4432Z" fill="#F8A50A"/>
<path d="M24.9319 6.82446C24.6615 6.63004 24.3551 6.56818 24.0262 6.60132C22.9087 6.26772 21.8723 6.50632 20.8742 7.0255C20.1465 7.24201 19.5494 7.73468 19.3264 8.36874C18.8037 9.84453 17.533 10.5515 16.4177 11.4396C15.6111 12.0803 14.9037 12.6989 13.66 12.4095C12.7566 12.1996 11.8644 12.8005 11.0961 13.3396C10.7266 13.5981 10.4788 13.6599 10.2152 13.2313C10.062 12.9839 9.83215 12.7806 9.6474 12.5509C9.27791 12.0891 8.73943 11.6694 8.59299 11.148C8.41049 10.4941 9.27791 10.3482 9.62938 9.92848C10.3661 9.04919 10.4179 8.04618 10.3143 7.01445C10.2512 6.39365 10.4315 5.98714 10.9609 5.63145C11.8869 5.01065 12.8129 4.37659 13.6533 3.65195C15.5052 2.05464 17.5172 2.00604 19.7094 2.82568C22.8388 3.99438 25.77 5.47459 28.2573 7.71479C28.3497 7.85618 28.4421 7.99758 28.5345 8.14118C28.5345 8.42618 28.5254 8.64931 28.1334 8.40187C27.7166 8.13676 27.2728 7.91805 26.8379 7.67723C26.5766 7.54468 26.3175 7.41212 26.0561 7.27736C25.8534 7.1912 25.6483 7.10503 25.4456 7.01887C25.2743 6.9548 25.1031 6.89073 24.9319 6.82667V6.82446Z" fill="#9C9A95"/>
<path d="M13.7321 36.9412C14.6401 36.9876 15.3025 36.475 15.9311 35.8719C18.5806 33.3357 21.2324 30.8016 23.8932 28.2764C24.2334 27.9539 24.497 27.3927 25.1346 28.0467C25.7002 28.6277 25.4658 28.9238 25.0017 29.359C22.4581 31.7406 19.9437 34.1531 17.4045 36.5413C16.6227 37.277 15.9874 38.0503 16.091 39.2035C16.1428 39.7713 15.8207 40.18 15.3768 40.4981C13.7479 41.669 12.0919 42.8046 10.4945 44.0153C9.89974 44.466 9.67218 43.9976 9.40633 43.7214C9.09766 43.4011 8.3429 43.2001 8.84307 42.524C10.1836 40.7146 11.5512 38.9207 12.894 37.1113C13.1238 36.802 13.3919 36.8506 13.7321 36.9434V36.9412Z" fill="#696966"/>
<path d="M5.13464 10.757C5.31488 10.9006 5.47484 10.9933 5.58975 11.1237C6.91677 12.6569 8.30914 14.1416 9.41086 15.8449C9.7015 16.2934 10.1296 16.954 9.76459 17.3605C9.19007 18.0012 8.37673 18.4474 7.63098 18.9202C7.42595 19.0506 7.25473 18.7368 7.11504 18.5844C5.61678 16.954 4.1726 15.2771 2.86359 13.4942C2.49185 12.9861 2.59323 12.6658 3.08664 12.3211C3.78057 11.8351 4.43395 11.296 5.13689 10.757H5.13464Z" fill="#9C9A95"/>
<path d="M20.8719 7.02332C21.87 6.50635 22.9087 6.26775 24.0239 6.59914C22.9853 6.83553 21.9444 7.03437 20.8719 7.02332Z" fill="#0F0E0D"/>
<path d="M50.1409 8.81723C50.0756 7.9048 50.3527 6.99458 50.1409 6.08215C50.7785 6.99458 50.8439 7.9048 50.1409 8.81723Z" fill="#FBD134"/>
<path d="M26.0562 7.27295C26.3152 7.40551 26.5766 7.53806 26.8379 7.67283C26.5 7.68608 26.126 7.76783 26.0562 7.27295Z" fill="#0F0E0D"/>
<path d="M28.5322 8.13672C28.4399 7.99532 28.3475 7.85393 28.2551 7.71033C28.53 7.73684 28.8589 7.73242 28.5322 8.13672Z" fill="#0F0E0D"/>
<path d="M24.9319 6.82446C25.1031 6.88853 25.2743 6.9526 25.4456 7.01667C25.2473 7.0233 25.0513 7.01888 24.9319 6.82446Z" fill="#0F0E0D"/>
<path d="M49.0167 9.9439C49.0955 9.85774 49.1744 9.77157 49.251 9.68762C49.2622 9.85332 49.1699 9.92622 49.0167 9.9439Z" fill="#FBD134"/>
<path d="M49.2442 9.71189C49.3231 9.63015 49.3997 9.55062 49.4785 9.46887C49.483 9.62573 49.3997 9.70305 49.2442 9.71189Z" fill="#FBD134"/>
<path d="M49.4628 9.48003C49.5439 9.40271 49.6227 9.32538 49.7038 9.24585C49.7106 9.40934 49.6317 9.48666 49.4628 9.48003Z" fill="#FBD134"/>
<path d="M49.6971 9.27671C49.7782 9.19497 49.8616 9.11323 49.9427 9.03369C49.9359 9.18613 49.8525 9.26787 49.6971 9.27671Z" fill="#FBD134"/>
<path d="M49.9133 9.04036C49.9922 8.96082 50.071 8.88129 50.1499 8.80176C50.1341 8.94094 50.0823 9.04699 49.9133 9.04036Z" fill="#FBD134"/>
</g>
<defs>
<clipPath id="clip0_46_1827">
<rect width="53" height="47" fill="white"/>
</clipPath>
</defs>
</svg>
