<svg width="16" height="23" viewBox="0 0 16 23" fill="none" xmlns="http://www.w3.org/2000/svg">
<path d="M14.6718 12.6887V13.4674C14.6718 15.0003 14.9872 16.4537 15.618 17.8276C15.7123 18.0331 15.8083 18.2376 15.8924 18.4476C16.1778 19.1575 15.883 19.6574 15.156 19.6711C14.3643 19.6858 13.5719 19.6748 12.7794 19.6757C12.6664 19.6757 12.5535 19.6757 12.4396 19.6757C11.8411 19.6757 11.4399 19.9827 11.2361 20.5966C10.7188 22.1512 9.32156 23.0839 7.64658 22.994C6.3122 22.9225 5.00839 21.7513 4.67968 20.2664C4.57691 19.8041 4.39854 19.6509 3.9628 19.6656C2.94524 19.6986 1.92598 19.6821 0.907572 19.6739C0.0981095 19.6675 -0.197476 19.1713 0.132934 18.3862C0.355473 17.8579 0.556776 17.314 0.82773 16.816C1.23713 16.063 1.36369 15.2733 1.33991 14.4084C1.29999 12.9739 1.30848 11.5367 1.33311 10.1014C1.38323 7.1664 2.63267 5.00187 5.03218 3.64263C5.48235 3.38765 5.66242 3.12717 5.65477 2.56862C5.63524 1.13416 6.64516 0.0271331 7.91583 0.000535062C9.26805 -0.0269801 10.3298 1.00942 10.3374 2.48332C10.3408 3.11892 10.5506 3.40141 11.0501 3.68757C13.1786 4.90649 14.3728 6.83347 14.6183 9.43732C14.7202 10.5205 14.637 11.6046 14.6727 12.6878L14.6718 12.6887ZM7.99228 18.1725C9.78957 18.1725 11.586 18.1725 13.3833 18.1725C14.2658 18.1725 14.2854 18.1605 13.8709 17.3278C13.4394 16.461 13.227 15.5704 13.2678 14.5698C13.3256 13.1519 13.2916 11.7284 13.2797 10.3077C13.2695 9.03285 13.024 7.83319 12.3369 6.75367C11.1299 4.8588 8.86884 3.94438 6.67743 4.5066C4.65675 5.0248 3.01829 6.96462 2.78471 9.19519C2.62078 10.7617 2.69298 12.3411 2.73714 13.9113C2.77621 15.2742 2.62502 16.5454 1.95146 17.7249C1.72468 18.122 1.77224 18.1706 2.22072 18.1715C4.14457 18.1743 6.06927 18.1725 7.99313 18.1725H7.99228ZM8.0288 19.6748C7.46311 19.6748 6.89657 19.6849 6.33088 19.6711C6.0268 19.6638 5.9597 19.783 6.04974 20.0848C6.29861 20.9157 7.10297 21.5385 7.97019 21.5522C8.84506 21.5669 9.67745 20.9451 9.94586 20.0985C10.0537 19.7601 9.95265 19.6601 9.64178 19.6693C9.10412 19.6849 8.56646 19.6739 8.0288 19.6739V19.6748ZM8.96482 2.54018C8.95633 1.92935 8.52569 1.45517 8.00332 1.45242C7.44612 1.44967 7.03162 1.92018 7.03078 2.53743C7.03078 2.82451 7.10637 2.96942 7.40366 2.90522C7.79352 2.82084 8.19018 2.81901 8.58005 2.90247C8.90282 2.97217 8.992 2.81717 8.96482 2.53835V2.54018Z" fill="black"/>
</svg>
