<svg width="39" height="54" viewBox="0 0 39 54" fill="none" xmlns="http://www.w3.org/2000/svg">
<g clip-path="url(#clip0_41_1213)">
<path d="M20.8175 53.4803C18.9362 54.4949 16.7361 53.9959 15.5411 52.2719C15.3287 51.9646 15.0795 51.6491 14.9855 51.3006C14.3911 49.09 12.7548 47.931 10.9041 46.8649C7.88496 45.1285 4.9332 43.2726 1.97735 41.429C0.288004 40.3773 -0.357502 38.6781 0.191995 37.0696C0.44938 36.3148 0.943723 35.7457 1.57902 35.36C4.02622 33.8691 5.49699 31.4378 6.52857 29.0065C7.47845 26.7649 8.79193 24.8203 9.95834 22.7519C10.2586 22.4921 10.9532 23.3005 10.9266 22.5251C10.9103 22.0198 11.0961 21.5476 11.0144 21.0568C11.0246 20.898 11.0553 20.7537 11.2207 20.6836C11.852 20.566 12.0562 20.1845 11.8928 19.5782L11.95 19.504C12.5179 19.7143 12.426 19.2998 12.4362 18.9802C12.571 18.8606 12.7038 18.7389 12.8386 18.6193C14.0132 18.4152 15.2327 17.9368 16.3419 18.6626C17.1896 19.2174 18.0701 19.1637 18.8463 18.8709C19.4305 18.6503 20.3293 18.6214 20.503 17.7058L20.5295 17.6852C20.8523 17.8213 20.9993 17.6914 21.0177 17.3593C21.3527 16.9552 21.6877 16.553 22.0228 16.1488C22.846 15.856 22.7561 14.9672 23.0135 14.3774C23.3628 13.5753 24.0818 12.8329 23.8633 11.8224C25.6772 7.8548 27.7526 4.06865 31.1824 1.23936C31.5664 0.921782 31.977 0.620705 32.4918 0.538218C33.0004 0.723814 33.4274 0.672259 33.6786 0.115473C33.8155 0.107225 33.9524 0.101038 34.0892 0.0927894C34.365 0.375307 34.6367 0.377369 34.9063 0.0845407C35.2618 0.0804164 35.6315 -0.00413264 35.9257 0.294882C36.0625 0.890849 36.514 0.909409 36.9879 0.880539L36.9756 0.868166C36.9409 1.41877 37.2779 1.53837 37.7253 1.53012C37.8091 1.65385 37.8928 1.77964 37.9766 1.90338C38.0317 1.9838 38.0848 2.06629 38.14 2.14671C38.1686 2.20239 38.1808 2.26219 38.1788 2.32406C38.2339 2.40242 38.2911 2.48078 38.3463 2.55915C38.3749 2.61276 38.3872 2.67256 38.3831 2.73443C38.4423 2.81485 38.4995 2.89322 38.5587 2.97364C38.571 3.09325 38.5833 3.21079 38.5955 3.3304C38.6731 5.25646 38.4913 7.1351 37.613 8.89207C37.5435 9.0323 37.5803 9.22614 37.568 9.39524C37.5721 9.45917 37.5598 9.51897 37.5312 9.57465C37.378 9.6757 37.3678 9.83655 37.3617 9.9974L37.3678 9.98708C37.1881 10.0716 37.1656 10.2387 37.1554 10.4119C37.1554 10.5789 37.1084 10.7212 36.9531 10.8078C36.2954 11.0738 36.1687 11.643 36.1401 12.2658L36.1463 12.2575C35.8848 12.2823 35.6335 12.3112 35.9154 12.6576C34.5019 15.091 32.643 17.1923 30.9557 19.4215C30.735 19.7123 30.496 19.9907 30.2652 20.2753C29.8219 20.3 29.7872 20.6011 29.8199 20.9475C29.8097 21.1042 29.7729 21.2465 29.6115 21.3167C29.5441 21.395 29.4747 21.4734 29.4073 21.5538C29.4114 21.6157 29.3991 21.6755 29.3705 21.7311C29.3194 21.8116 29.2684 21.892 29.2173 21.9724L29.2398 21.9497C28.4901 22.9025 28.3777 23.9769 28.9619 24.6079L29.0048 25.0141C28.6596 25.5503 28.9599 25.7379 29.4379 25.8307C29.5646 25.9607 29.6912 26.0906 29.8179 26.2205C29.8097 26.6659 30.1161 26.668 30.4286 26.6639L30.4225 26.6597C30.445 27.099 30.7555 27.0804 31.0619 27.0701C31.5767 27.4248 31.975 27.862 32.0669 28.5157C31.9934 29.4127 31.9198 30.3077 31.8463 31.2027C31.595 31.2357 31.3438 31.2707 31.6216 31.6048C29.9241 34.3413 28.3573 37.1706 26.48 39.7751C25.4341 41.229 24.6845 42.7529 24.0532 44.3841C23.4486 44.8233 23.3036 45.3657 23.6856 46.0297C23.6753 47.0608 23.6672 48.0898 23.657 49.1209C23.1156 49.2962 23.1973 49.5993 23.4874 49.9478C23.5262 50.2551 23.4568 50.5314 23.2566 50.7686C22.6846 50.9026 22.6826 51.3625 22.6744 51.8162L22.6826 51.8058C22.6152 51.8945 22.5477 51.9832 22.4803 52.0719C22.4926 52.1461 22.462 52.1977 22.3925 52.2245C22.3435 52.2801 22.2944 52.3358 22.2454 52.3894L22.2291 52.4101C22.1678 52.476 22.1065 52.542 22.0473 52.6101C21.937 52.8472 21.7449 52.9833 21.5019 53.0576C21.1628 53.0225 20.8502 53.0308 20.8196 53.4906L20.8175 53.4803ZM27.2399 34.7661C27.2889 34.6754 27.338 34.5847 27.387 34.4939V34.5207C27.6907 34.0918 27.4782 33.7227 26.7497 33.4133L26.7926 33.4072C26.5719 33.2484 26.3493 33.0916 26.1287 32.9329C25.0358 32.0606 23.7264 31.5512 22.5988 30.7078C20.7501 29.3282 18.6114 28.3878 16.7525 27.0021C16.1397 26.5463 15.3144 26.4783 14.7649 25.8988C13.9846 25.078 12.9836 24.6244 11.9745 24.1728C11.7416 24.0676 11.5884 24.0738 11.4822 24.2614C11.2228 24.7234 10.7264 25.0182 10.5957 25.5668C10.3669 25.7297 10.277 25.9792 10.1851 26.2287C10.0298 26.4906 9.87458 26.7546 9.71934 27.0165L9.71117 27.0103C9.50893 27.3073 9.3067 27.6042 9.10243 27.897C8.89407 28.1961 9.0391 28.3074 9.33121 28.3425C10.2668 29.2354 11.472 29.7117 12.5342 30.4067C14.9426 31.9822 17.4409 33.4298 19.8636 34.9785C21.3916 35.956 23.0523 36.7355 24.474 37.8903C24.664 38.045 25.0542 38.5213 25.2789 37.9501C25.6834 36.9128 26.4718 36.1333 26.9764 35.1703C27.0704 35.0445 27.1623 34.9208 27.2563 34.795L27.2399 34.7661ZM36.9613 5.06262C36.9674 2.5179 35.0657 1.36721 32.9902 2.47047C31.8197 3.09325 30.9822 4.08515 30.1651 5.08737C27.4626 8.4054 25.6343 12.2163 24.1145 16.1922C23.0441 18.9926 20.8257 20.2319 18.068 20.7269C17.0712 20.9063 16.2255 20.401 15.3471 20.0402C14.4932 19.6896 13.6128 20.2299 13.0367 21.3538C12.5669 22.2694 13.335 22.4447 13.8395 22.7643C18.2621 25.5585 22.6907 28.3466 27.1174 31.1346C27.6893 31.4955 28.392 32.242 28.8067 32.1059C29.3419 31.9306 29.6606 31.0542 30.0487 30.4624C30.6329 29.5715 30.5369 28.9611 29.5707 28.427C26.9458 26.9773 26.5822 24.0428 27.2542 21.8384C27.7383 20.2505 28.7597 19.0173 29.7382 17.7532C31.8892 14.9755 34.1117 12.2493 35.6826 9.06942C36.3362 7.74757 36.8837 6.38653 36.9593 5.06262H36.9613ZM7.20472 42.258C9.35573 43.5902 11.4169 44.8646 13.4759 46.1411C13.9253 46.4195 14.1235 46.1369 14.3645 45.7967C15.3307 44.4336 16.3174 43.087 17.3122 41.7445C17.7085 41.2104 18.1681 40.6392 18.8974 41.1877C19.6185 41.7301 19.3611 42.3652 18.9076 42.9694C17.8862 44.3325 16.873 45.7018 15.8537 47.0649C15.6739 47.3062 15.3818 47.5289 15.5575 47.8733C16.109 48.9683 16.44 50.185 17.2141 51.1542C18.0619 52.2142 19.2998 52.3152 20.3661 51.4635C21.4181 50.6242 21.7674 49.4921 21.6714 48.1805C21.4753 45.4977 22.1249 43.0107 23.4547 40.7093C23.8265 40.0659 23.6774 39.771 23.1054 39.4163C18.3254 36.4592 13.5556 33.4855 8.79806 30.4954C8.38543 30.2355 8.19341 30.2376 7.94828 30.6645C6.53062 33.1329 4.99856 35.5023 2.5677 37.117C2.02433 37.4779 1.9079 38.0656 2.08357 38.676C2.34709 39.5916 4.40004 40.6268 5.35604 40.5381C6.58577 40.4247 7.59489 39.7958 8.6755 39.338C9.321 39.0637 10.0217 39.0637 10.3179 39.606C10.6345 40.1855 10.2055 40.7877 9.59064 41.0991C8.843 41.4785 8.08514 41.8332 7.20677 42.2601L7.20472 42.258Z" fill="#1A1A19"/>
<path d="M20.501 17.7017C20.3273 18.6173 19.4285 18.6461 18.8443 18.8668C18.0681 19.1596 17.1876 19.2132 16.3399 18.6585C15.2327 17.9326 14.0112 18.4131 12.8366 18.6152C13.7783 17.8089 14.8936 17.6109 15.9395 18.1656C17.6166 19.0565 19.0568 18.6028 20.501 17.7017Z" fill="#0F0E0D"/>
<path d="M37.566 9.39114C37.5782 9.22204 37.5415 9.0282 37.6109 8.88797C38.4893 7.131 38.6731 5.25442 38.5935 3.32629C39.1695 4.3017 39.0429 5.32866 38.7773 6.34944C38.4995 7.41145 38.2891 8.50647 37.566 9.39114Z" fill="#0F0E0D"/>
<path d="M23.8592 11.8203C24.0778 12.8308 23.3587 13.5732 23.0094 14.3753C22.752 14.9651 22.8419 15.8539 22.0187 16.1467C22.5375 14.664 23.0727 13.1875 23.8592 11.8203Z" fill="#0F0E0D"/>
<path d="M11.0124 21.0548C11.0941 21.5456 10.9082 22.0178 10.9246 22.5231C10.9511 23.3005 10.2566 22.4901 9.9563 22.7499C10.2525 22.1498 10.565 21.558 11.0124 21.0548Z" fill="#0F0E0D"/>
<path d="M28.9558 24.5976C28.3716 23.9666 28.486 22.8922 29.2336 21.9395C29.062 22.8179 28.8986 23.6964 28.9558 24.5976Z" fill="#0F0E0D"/>
<path d="M31.8402 31.1924C31.9137 30.2953 31.9873 29.4004 32.0608 28.5054C32.3938 29.4354 32.404 30.3386 31.8402 31.1924Z" fill="#0F0E0D"/>
<path d="M23.6815 46.0215C23.2995 45.3574 23.4466 44.8151 24.0492 44.3759C23.9266 44.9244 23.8041 45.4729 23.6815 46.0215Z" fill="#0F0E0D"/>
<path d="M36.1361 12.2596C36.1647 11.6368 36.2914 11.0677 36.9491 10.8016C36.7755 11.344 36.514 11.8327 36.1361 12.2596Z" fill="#0F0E0D"/>
<path d="M11.8928 19.5762C12.0542 20.1845 11.852 20.566 11.2208 20.6815C11.4455 20.3124 11.6681 19.9432 11.8928 19.5762Z" fill="#0F0E0D"/>
<path d="M33.6746 0.115479C33.4254 0.672265 32.9984 0.723819 32.4877 0.538223C32.8452 0.288701 33.2415 0.152598 33.6746 0.115479Z" fill="#0F0E0D"/>
<path d="M36.9838 0.878503C36.5078 0.907374 36.0584 0.888814 35.9216 0.292847C36.3465 0.356774 36.6978 0.556805 36.9838 0.878503Z" fill="#0F0E0D"/>
<path d="M22.6703 51.808C22.6806 51.3543 22.6806 50.8944 23.2525 50.7604C23.1484 51.1604 22.9911 51.5316 22.6703 51.808Z" fill="#0F0E0D"/>
<path d="M29.4318 25.8204C28.9559 25.7276 28.6535 25.5399 28.9988 25.0038L29.4318 25.8204Z" fill="#0F0E0D"/>
<path d="M34.9022 0.0825197C34.6326 0.375348 34.3609 0.375348 34.0851 0.0907684C34.3548 -0.0597701 34.6285 0.00209505 34.9022 0.0825197Z" fill="#0F0E0D"/>
<path d="M37.7233 1.52805C37.2739 1.53836 36.9369 1.41669 36.9736 0.866089C37.3066 0.991881 37.5579 1.21047 37.7233 1.52805Z" fill="#0F0E0D"/>
<path d="M23.4833 49.9396C23.1912 49.5911 23.1115 49.288 23.6529 49.1127C23.706 49.4117 23.6733 49.6921 23.4833 49.9396Z" fill="#0F0E0D"/>
<path d="M20.8176 53.4803C20.8482 53.0204 21.1607 53.0122 21.4998 53.0473C21.3323 53.2865 21.0893 53.4061 20.8176 53.4803Z" fill="#0F0E0D"/>
<path d="M30.4225 26.6536C30.112 26.6577 29.8036 26.6556 29.8117 26.2102C30.016 26.3587 30.2182 26.5051 30.4225 26.6536Z" fill="#0F0E0D"/>
<path d="M31.0558 27.0598C30.7493 27.0722 30.4389 27.0887 30.4164 26.6494C30.6819 26.701 30.9046 26.8247 31.0558 27.0598Z" fill="#0F0E0D"/>
<path d="M12.4362 18.9781C12.426 19.2978 12.5179 19.7123 11.95 19.5019C12.1114 19.3267 12.2748 19.1534 12.4362 18.9781Z" fill="#0F0E0D"/>
<path d="M29.8158 20.9392C29.7831 20.5928 29.8158 20.2917 30.2611 20.267C30.1141 20.4917 29.9649 20.7145 29.8158 20.9392Z" fill="#0F0E0D"/>
<path d="M31.6175 31.5966C31.3397 31.2625 31.591 31.2274 31.8422 31.1924C31.7666 31.3264 31.6931 31.4625 31.6175 31.5966Z" fill="#0F0E0D"/>
<path d="M35.9114 12.6493C35.6274 12.3049 35.8807 12.274 36.1422 12.2493C36.0646 12.3833 35.989 12.5153 35.9114 12.6493Z" fill="#0F0E0D"/>
<path d="M21.0137 17.3573C20.9973 17.6893 20.8482 17.8172 20.5255 17.6831C20.6868 17.5738 20.8502 17.4666 21.0137 17.3573Z" fill="#0F0E0D"/>
<path d="M37.3597 9.99123C37.3658 9.83038 37.374 9.66953 37.5292 9.56848C37.568 9.74789 37.519 9.89224 37.3597 9.99123Z" fill="#0F0E0D"/>
<path d="M37.1513 10.4058C37.1636 10.2346 37.184 10.0676 37.3638 9.98096C37.3515 10.1521 37.3106 10.3088 37.1513 10.4058Z" fill="#0F0E0D"/>
<path d="M22.0452 52.5998C22.1065 52.5338 22.1678 52.4678 22.227 52.3998C22.1657 52.4658 22.1045 52.5318 22.0452 52.5998Z" fill="#0F0E0D"/>
<path d="M38.3443 2.55711C38.2891 2.47875 38.2319 2.40038 38.1768 2.32202C38.283 2.36326 38.379 2.41276 38.3443 2.55711Z" fill="#0F0E0D"/>
<path d="M38.138 2.1447C38.0828 2.06428 38.0297 1.98179 37.9745 1.90137C38.0849 1.94467 38.1707 2.00241 38.138 2.1447Z" fill="#0F0E0D"/>
<path d="M29.2133 21.9621C29.2643 21.8817 29.3154 21.8012 29.3665 21.7208C29.4012 21.8569 29.3297 21.9229 29.2133 21.9621Z" fill="#0F0E0D"/>
<path d="M29.4032 21.5435C29.4706 21.4652 29.5401 21.3868 29.6075 21.3064C29.5401 21.3848 29.4706 21.4631 29.4032 21.5435Z" fill="#0F0E0D"/>
<path d="M38.5547 2.96956C38.4955 2.88913 38.4383 2.81077 38.379 2.73035C38.4873 2.77159 38.5772 2.82933 38.5547 2.96956Z" fill="#0F0E0D"/>
<path d="M22.2434 52.3791C22.2924 52.3234 22.3415 52.2677 22.3905 52.2141C22.3415 52.2698 22.2924 52.3255 22.2434 52.3791Z" fill="#0F0E0D"/>
<path d="M36.9613 5.06263C36.8837 6.38654 36.3383 7.74551 35.6846 9.06942C34.1117 12.2493 31.8892 14.9734 29.7402 17.7532C28.7618 19.0173 27.7404 20.2505 27.2563 21.8384C26.5842 24.0449 26.9478 26.9773 29.5727 28.427C30.541 28.9611 30.635 29.5715 30.0507 30.4624C29.6626 31.0542 29.3439 31.9307 28.8087 32.1059C28.3941 32.242 27.6893 31.4955 27.1194 31.1347C22.6928 28.3466 18.2662 25.5585 13.8416 22.7643C13.337 22.4447 12.569 22.2694 13.0388 21.3538C13.6148 20.2299 14.4953 19.6875 15.3491 20.0402C16.2275 20.4031 17.0752 20.9063 18.0701 20.7269C20.8257 20.232 23.0462 18.9926 24.1166 16.1922C25.6364 12.2142 27.4626 8.40541 30.1672 5.08737C30.9843 4.08516 31.8218 3.09325 32.9923 2.47048C35.0677 1.36722 36.9675 2.51791 36.9634 5.06263H36.9613Z" fill="#F65941"/>
<path d="M7.20472 42.258C8.0831 41.8312 8.84095 41.4765 9.58859 41.097C10.2014 40.7856 10.6324 40.1855 10.3158 39.604C10.0196 39.0617 9.31895 39.0617 8.67345 39.3359C7.59284 39.7958 6.58372 40.4227 5.35399 40.5361C4.39595 40.6248 2.34504 39.5896 2.08152 38.674C1.90585 38.0656 2.02228 37.4759 2.56565 37.115C4.99856 35.5024 6.52857 33.1309 7.94623 30.6624C8.19136 30.2335 8.38338 30.2335 8.79601 30.4933C13.5536 33.4856 18.3234 36.4571 23.1034 39.4143C23.6753 39.769 23.8245 40.0639 23.4527 40.7073C22.1249 43.0087 21.4733 45.4977 21.6694 48.1785C21.7654 49.4901 21.414 50.6222 20.3641 51.4615C19.2977 52.3132 18.0598 52.2101 17.2121 51.1522C16.4359 50.183 16.107 48.9663 15.5554 47.8713C15.3818 47.5248 15.6719 47.3042 15.8516 47.0629C16.871 45.6977 17.8842 44.3284 18.9055 42.9674C19.359 42.3632 19.6185 41.7281 18.8953 41.1857C18.1661 40.6372 17.7064 41.2063 17.3102 41.7425C16.3153 43.085 15.3287 44.4316 14.3625 45.7947C14.1214 46.1349 13.9253 46.4174 13.4739 46.139C11.4148 44.8626 9.35368 43.5881 7.20267 42.256L7.20472 42.258Z" fill="#5494E8"/>
<path d="M10.5957 25.5689C10.7264 25.0203 11.2249 24.7254 11.4822 24.2635C11.5885 24.0759 11.7396 24.0697 11.9745 24.1748C12.9816 24.6285 13.9826 25.0801 14.7649 25.9009C15.3144 26.4803 16.1417 26.5463 16.7525 27.0041C18.6114 28.3899 20.7502 29.3303 22.5988 30.7099C23.7264 31.5512 25.0338 32.0626 26.1287 32.9349C26.1798 33.335 26.4024 33.4917 26.7926 33.4092C26.7926 33.4092 26.7497 33.4154 26.7517 33.4134C26.9335 33.8011 27.5157 33.9516 27.3891 34.5207V34.4939C27.34 34.5847 27.291 34.6754 27.242 34.7661L27.2583 34.795C26.9519 34.7579 26.9866 34.9806 26.9805 35.1703C26.476 36.1334 25.6875 36.9129 25.283 37.9501C25.0603 38.5214 24.6681 38.0429 24.4782 37.8903C23.0544 36.7355 21.3957 35.956 19.8677 34.9785C17.445 33.4299 14.9467 31.9822 12.5383 30.4067C11.4761 29.7118 10.2709 29.2354 9.33532 28.3425C9.24749 27.8352 9.95223 27.5589 9.71527 27.0083L9.72344 27.0144C10.1463 26.9113 10.2382 26.6123 10.1892 26.2267C10.4915 26.1112 10.6365 25.8947 10.5998 25.5647L10.5957 25.5689Z" fill="#FBD134"/>
<path d="M9.71121 27.0103C9.94817 27.5609 9.24342 27.8372 9.33126 28.3445C9.03915 28.3094 8.89615 28.1981 9.10247 27.899C9.30675 27.6042 9.50898 27.3072 9.71121 27.0123V27.0103Z" fill="#F0BE9C"/>
<path d="M27.387 34.5207C27.5137 33.9516 26.9315 33.801 26.7497 33.4133C27.4783 33.7213 27.6907 34.0904 27.387 34.5207Z" fill="#F0BE9C"/>
<path d="M10.1851 26.2288C10.2341 26.6144 10.1422 26.9134 9.71936 27.0165C9.87461 26.7546 10.0299 26.4907 10.1851 26.2288Z" fill="#F0BE9C"/>
<path d="M26.7926 33.4092C26.4025 33.4938 26.1798 33.3371 26.1287 32.9349C26.3493 33.0937 26.572 33.2504 26.7926 33.4092Z" fill="#F0BE9C"/>
<path d="M10.5957 25.5688C10.6325 25.8988 10.4874 26.1153 10.1851 26.2308C10.277 25.9813 10.3669 25.7318 10.5957 25.5688Z" fill="#F0BE9C"/>
<path d="M26.9764 35.1724C26.9826 34.9827 26.9478 34.7599 27.2543 34.7971C27.1623 34.9229 27.0684 35.0486 26.9764 35.1724Z" fill="#F0BE9C"/>
</g>
<defs>
<clipPath id="clip0_41_1213">
<rect width="39" height="54" fill="white"/>
</clipPath>
</defs>
</svg>
