<svg width="46" height="54" viewBox="0 0 46 54" fill="none" xmlns="http://www.w3.org/2000/svg">
<g clip-path="url(#clip0_46_1750)">
<path d="M0.860596 51.6384C1.25075 51.5827 1.54497 51.7906 1.80294 52.0328C3.59169 53.7088 5.5851 54.0046 7.79812 52.9844C7.94736 52.9158 8.14137 52.9479 8.3162 52.9329C6.77902 54.3968 3.66417 54.3475 1.87543 52.8215C1.47888 52.4829 1.09512 52.1249 0.862728 51.6405L0.860596 51.6384Z" fill="#0F0E0D"/>
<path d="M8.70849 52.6671C8.67011 52.2449 8.8492 52.0349 9.27986 52.0692C9.14768 52.3242 9.03681 52.6007 8.70849 52.6671Z" fill="#0F0E0D"/>
<path d="M25.0438 1.21974C25.0332 0.855379 25.3125 0.923963 25.5257 0.891814C26.3444 1.11043 27.082 0.64105 27.8624 0.615331C28.3932 0.598185 28.89 0.66034 29.1479 0.0666505C29.9304 -0.0383703 30.7128 -0.00622109 31.4931 0.0730804C31.5635 0.186674 31.6189 0.381713 31.7085 0.398859C32.7127 0.598185 33.6763 0.821086 34.64 1.26475C35.1218 1.48765 35.8296 2.04919 36.5609 1.67411C39.3453 3.16369 41.7267 5.19338 44.0485 7.30023C44.0442 7.75889 44.0037 8.24327 44.6987 8.17683C44.8736 8.26256 44.9056 8.4276 44.9247 8.59691C44.5858 8.9677 44.8778 8.99128 45.155 9.02128C45.3618 9.10702 45.3256 9.29348 45.3362 9.46066C45.1529 9.55925 45.0249 9.60426 45.123 9.91932C45.4876 11.1046 45.6112 12.3005 45.3511 13.5565C45.1827 14.3623 44.5879 15.0846 44.8437 15.9762L44.7968 16.0362C43.6157 15.9184 43.8459 16.7864 43.8076 17.468C43.8076 17.5215 43.7777 17.5558 43.7266 17.5666C43.1147 17.4165 43.1872 17.7359 43.3535 18.1195L43.3023 18.1795C43.0827 18.0574 42.8631 17.9352 42.5859 17.7809V19.1333L42.5987 19.1204C42.2597 19.1376 42.1105 19.2683 42.3088 19.6091C42.3045 19.6541 42.2811 19.682 42.2384 19.6948C41.6351 19.5577 41.6926 19.8706 41.8611 20.2585L41.8142 20.3142C40.8889 20.1128 41.1191 20.7943 41.085 21.2766C41.0914 21.3516 41.0637 21.4116 41.0019 21.4545C40.1128 21.6195 39.7802 22.1682 39.9145 23.0426L39.8954 23.0684C39.292 23.0126 38.4605 22.2518 38.3049 23.587L38.2964 23.5977C37.87 23.527 37.4798 23.407 37.4222 22.8797C39.243 20.0463 41.2193 17.3244 43.1936 14.6003C44.1508 14.073 44.4365 11.8204 43.6541 10.9652C43.1936 9.53353 42.2917 8.4576 41.085 7.57671C39.3538 6.31217 37.7612 4.86546 35.9597 3.69523C35.9043 3.19584 35.5397 3.26443 35.2028 3.27729C35.1623 3.30301 35.1282 3.29443 35.1048 3.25157C35.0621 2.97508 35.0067 2.72646 34.6784 3.04367C34.4651 2.96008 34.2498 2.87864 34.0366 2.79505C33.7957 2.30638 33.4546 2.12634 32.9536 2.44141C32.8171 2.41569 32.6807 2.38997 32.5442 2.36639C32.2628 1.73841 31.8726 1.90344 31.4654 2.22065C31.329 2.19707 31.1904 2.1735 31.054 2.15206C30.489 1.54123 29.924 1.54337 29.3569 2.15206L28.922 2.16921C28.5126 1.90344 28.1203 1.7427 27.8666 2.35782C27.6619 2.39211 27.4594 2.4264 27.2547 2.45855C26.7452 2.1092 26.4062 2.30852 26.161 2.80577C25.0993 3.30944 24.0866 3.87955 23.2913 4.77973C22.8713 5.25554 22.7349 5.60918 23.4171 6.0164C24.2358 6.50507 25.0375 7.04946 25.7559 7.6753C26.4915 8.31614 26.888 8.22827 27.4424 7.41811C28.632 5.68205 29.8451 5.51916 31.5891 6.71297C33.0516 7.71388 34.495 8.7448 35.9597 9.74143C37.6887 10.9181 37.9211 12.2662 36.6718 13.9723C35.3073 15.8348 33.9663 17.7144 32.5762 19.5555C32.2372 20.0035 32.2457 20.2006 32.7254 20.5179C33.7552 21.2016 34.7359 21.9624 35.7358 22.6911C35.9746 23.467 35.0045 23.2398 34.753 23.9535C36.4799 23.1155 37.5288 23.9428 38.4626 25.083C38.4797 25.1023 38.5309 25.0938 38.565 25.098C40.1149 27.042 40.309 29.4339 38.9722 31.485C37.58 33.6176 36.1473 35.7287 34.64 37.7777C33.5271 39.2909 31.9195 39.8738 30.0647 39.6402C29.5061 39.5695 29.2055 39.6874 28.8836 40.1868C27.9668 41.6077 26.9605 42.9687 25.9883 44.3533C25.5363 44.3619 25.5129 44.6791 25.5214 45.0156C25.4148 45.1635 25.3082 45.3092 25.2016 45.4571C24.7539 45.4056 24.6558 45.68 24.658 46.0465C24.5876 46.2115 24.4576 46.2865 24.287 46.2994C23.14 46.5502 21.9652 46.4023 20.8118 46.5437C20.153 46.413 19.7032 45.9886 19.3301 45.4614C19.2256 44.7391 19.1105 44.0211 18.5178 43.5024C18.5178 43.3588 18.5178 43.2152 18.5178 43.0716C19.4026 42.7223 19.0444 41.9014 19.1915 41.2734L19.2405 41.2112C19.3685 41.2198 19.5476 41.2841 19.6115 41.2241C19.7352 41.1084 19.6222 40.9862 19.5007 40.9069C19.5731 40.6433 19.6947 40.4139 19.9462 40.2789C20.5539 40.2618 20.6498 39.8717 20.6008 39.3745C20.6541 39.1215 20.7735 38.9115 21.0016 38.7765C21.4664 38.7829 21.477 38.4657 21.46 38.1292L21.4536 38.1399C21.9119 38.1356 21.897 37.8077 21.8928 37.4884C21.9482 37.4176 22.0036 37.3469 22.0591 37.2762C22.3192 37.2526 22.6347 37.2697 22.3298 36.869C22.3511 36.4146 23.2892 36.2303 22.7669 35.673C22.2808 35.1565 21.5921 35.2872 20.9824 35.5037C20.4942 35.6773 20.2405 36.1209 19.9548 36.5367C17.7076 39.8031 15.4435 43.0588 13.1857 46.3165C12.4459 46.1258 12.8573 46.7109 12.7614 46.9552L12.7699 46.9445C12.3073 46.9445 12.3222 47.2746 12.3286 47.5961C12.2753 47.6668 12.222 47.7375 12.1687 47.8083C11.4907 47.8683 11.5078 48.387 11.4737 48.8713C11.4182 48.9442 11.3607 49.0149 11.3053 49.0878C10.8341 49.0814 10.8234 49.3986 10.8511 49.7415L10.8618 49.7308C10.397 49.7244 10.4055 50.048 10.4183 50.3759L10.4247 50.3652C10.0879 50.3952 9.95783 50.5431 10.1327 50.871L10.0815 50.9353C9.22229 50.8003 9.40777 51.4433 9.36087 51.9127C9.37366 51.9877 9.34594 52.0391 9.27559 52.0713C8.84492 52.037 8.6637 52.247 8.70421 52.6692C8.57203 52.7593 8.44198 52.8471 8.30979 52.9371C8.1371 52.9521 7.94096 52.92 7.79172 52.9886C5.58084 54.0088 3.58528 53.713 1.79654 52.037C1.53857 51.7948 1.24648 51.5869 0.854195 51.6426C0.798763 51.6062 0.779575 51.5569 0.798763 51.4926C0.965058 50.8753 0.694295 50.2623 0.604751 49.6965C0.391551 48.3334 0.948002 47.1267 1.02262 45.8407L1.01623 45.8493C1.95644 45.8557 1.76029 45.0992 1.87969 44.5526C1.93085 44.4819 1.98415 44.409 2.03532 44.3383C2.52568 44.349 2.53421 44.0189 2.50649 43.6632C2.49583 43.5839 2.52781 43.526 2.6003 43.4896C2.64721 43.4295 2.69411 43.3695 2.74101 43.3095C6.82805 37.3105 10.9151 31.3093 15.0064 25.3124C16.0852 23.7328 16.0063 22.8283 14.337 21.9281C11.2967 20.2885 10.7765 16.6835 13.1388 14.2123C13.7976 13.5243 14.3583 12.7334 14.9211 11.9576C16.1278 10.2901 17.4987 9.98576 19.2022 11.1431C22.7711 13.5672 26.3273 16.0105 29.8558 18.4967C30.3994 18.8804 30.5743 18.8782 30.9537 18.321C32.2287 16.4435 33.5591 14.6045 34.915 12.7827C35.3457 12.2019 35.384 11.8783 34.721 11.4475C33.2393 10.4851 31.8023 9.44994 30.3653 8.41688C29.8281 8.02894 29.44 8.00322 29.101 8.64835C28.9369 8.95913 28.681 9.21847 28.4678 9.50352C27.5809 10.6866 26.6642 10.8559 25.4681 10.0436C24.1505 9.14774 22.8394 8.24542 21.5261 7.34738C20.3556 6.54579 20.3129 5.17409 21.4173 3.87312C21.8672 3.90741 21.9119 3.60521 21.9141 3.26871C21.9994 3.05867 22.1401 2.90864 22.3554 2.83148C22.7754 2.73289 23.4001 2.88078 23.238 2.08562C23.2508 2.04704 23.2764 2.02561 23.3169 2.01918C23.835 2.22494 24.1441 2.05562 24.238 1.50051C24.4746 1.36977 24.626 0.966829 24.9948 1.26689C25.0439 1.29904 25.0929 1.32904 25.1419 1.36119C25.1099 1.3119 25.0758 1.26475 25.0438 1.21545V1.21974ZM30.5337 37.5227C31.9153 37.7198 32.7425 36.8475 33.461 35.8252C34.5334 34.297 35.4757 32.6638 36.6568 31.23C38.2921 29.2474 38.1066 26.8212 36.0045 25.3102C35.2284 24.753 34.4246 24.2322 33.6379 23.6878C28.5126 20.1449 23.3788 16.6128 18.2705 13.0421C17.5499 12.5384 17.1 12.6049 16.599 13.295C15.9956 14.1266 15.3262 14.911 14.6845 15.7148C13.3093 17.438 13.5524 18.9018 15.3838 20.0742C16.3709 20.7065 17.309 21.3816 17.6394 22.6311C18.0594 24.2172 17.6501 25.4881 16.648 26.7998C14.8849 29.1103 13.3328 31.5836 11.6847 33.9862C8.83426 38.1421 5.97526 42.2936 3.1269 46.4516C2.58325 47.2446 2.04385 48.0526 2.20375 49.0985C2.39776 50.3566 3.27401 51.3854 4.34854 51.6276C6.04774 52.0091 7.01993 51.6383 8.00492 50.2023C11.4204 45.2278 14.8742 40.2768 18.2172 35.2551C19.5646 33.2297 22.1081 32.4795 24.174 34.0505C25.3573 34.9507 26.6066 35.7609 27.841 36.5903C28.6405 37.1283 29.4741 37.6062 30.5295 37.5269L30.5337 37.5227ZM22.3725 44.7927C22.946 44.812 23.3937 44.4155 23.754 43.9075C24.8413 42.3686 25.9073 40.8147 26.9904 39.2716C27.1972 38.9779 27.3272 38.7443 26.9179 38.4957C26.3145 38.1249 25.7325 37.7156 25.1462 37.3148C24.8498 37.1133 24.643 37.1819 24.4426 37.4626C23.253 39.1473 22.0079 40.7933 20.8801 42.5165C20.1957 43.5624 20.9931 44.7884 22.3725 44.7927Z" fill="#1A1A19"/>
<path d="M38.5778 25.096C38.5436 25.0917 38.4925 25.1024 38.4754 25.081C37.5416 23.9408 36.4927 23.1135 34.7657 23.9515C35.0152 23.2378 35.9874 23.4628 35.7486 22.6891C36.3008 22.8177 36.7485 23.9 37.4286 22.8777C37.4862 23.4028 37.8763 23.5228 38.3027 23.5957C38.3432 23.8122 38.2217 24.1615 38.6076 24.1315C38.8272 24.1144 38.9743 23.8808 38.9018 23.6536C38.7718 23.2421 38.5181 23.5443 38.3113 23.5871C38.4648 22.2519 39.2962 23.0127 39.9017 23.0684C39.4604 23.7436 39.0191 24.4209 38.5799 25.096H38.5778Z" fill="#0F0E0D"/>
<path d="M44.848 15.9763C44.5921 15.0847 45.187 14.3624 45.3554 13.5565C45.6155 12.3027 45.4919 11.1046 45.1273 9.91936C45.0292 9.60429 45.155 9.55928 45.3405 9.46069C46.3638 11.724 46.1933 13.8951 44.848 15.9763Z" fill="#0F0E0D"/>
<path d="M1.02689 45.8364C0.952274 47.1224 0.395823 48.3291 0.609023 49.6922C0.696434 50.2559 0.96933 50.871 0.803034 51.4883C-0.339717 49.6408 -0.260833 47.6518 1.02689 45.8364Z" fill="#0F0E0D"/>
<path d="M36.5631 1.67415C35.8318 2.04923 35.124 1.48554 34.6421 1.26479C33.6785 0.821126 32.7127 0.600368 31.7106 0.398899C31.6211 0.381753 31.5657 0.184571 31.4953 0.0731201C33.316 0.191001 34.9918 0.7654 36.5652 1.67415H36.5631Z" fill="#0F0E0D"/>
<path d="M29.148 0.0666504C28.89 0.66034 28.3932 0.598184 27.8624 0.615331C27.0821 0.64105 26.3444 1.11043 25.5257 0.891814C26.6684 0.330274 27.8837 0.0902265 29.148 0.0687937V0.0666504Z" fill="#0F0E0D"/>
<path d="M20.8246 46.5458C21.9781 46.4044 23.1528 46.5544 24.2998 46.3015C23.1933 47.1181 22.0314 47.1545 20.8246 46.5458Z" fill="#0F0E0D"/>
<path d="M19.2022 41.2734C19.0551 41.9014 19.4111 42.7223 18.5285 43.0717C18.4283 42.3494 18.8483 41.8243 19.2022 41.2734Z" fill="#0F0E0D"/>
<path d="M39.9188 23.0426C39.7823 22.1682 40.1171 21.6195 41.0061 21.4545C40.6437 21.9839 40.2812 22.5133 39.9188 23.0426Z" fill="#0F0E0D"/>
<path d="M43.8118 17.4659C43.8502 16.7843 43.6178 15.9163 44.8011 16.0342C44.4706 16.5121 44.1423 16.9879 43.8118 17.4659Z" fill="#0F0E0D"/>
<path d="M18.5285 43.5046C19.1212 44.0233 19.2363 44.7413 19.3408 45.4636C18.8141 44.9171 18.4901 44.2869 18.5285 43.5046Z" fill="#0F0E0D"/>
<path d="M42.5902 19.1333V17.7809C42.8674 17.9352 43.087 18.0574 43.3066 18.1795C43.0678 18.4989 42.829 18.8161 42.5902 19.1354V19.1333Z" fill="#0F0E0D"/>
<path d="M1.88397 44.5505C1.76671 45.0971 1.96072 45.8537 1.02051 45.8472C1.30833 45.4143 1.59615 44.9835 1.88397 44.5505Z" fill="#0F0E0D"/>
<path d="M41.0893 21.2766C41.1213 20.7943 40.891 20.1128 41.8184 20.3142C41.5754 20.6357 41.3323 20.9551 41.0893 21.2766Z" fill="#0F0E0D"/>
<path d="M9.36511 51.9105C9.41202 51.4411 9.22653 50.7981 10.0857 50.9332C9.84481 51.2589 9.6039 51.5847 9.36511 51.9105Z" fill="#0F0E0D"/>
<path d="M23.2359 2.08569C23.4001 2.88085 22.7733 2.73296 22.3533 2.83156C22.6475 2.58293 22.9417 2.33431 23.2359 2.08569Z" fill="#0F0E0D"/>
<path d="M11.478 48.8692C11.5121 48.3848 11.495 47.864 12.173 47.8062C11.9406 48.1598 11.7082 48.5156 11.478 48.8692Z" fill="#0F0E0D"/>
<path d="M24.238 1.50269C24.142 2.05565 23.8329 2.22497 23.317 2.02136C23.624 1.84775 23.931 1.67629 24.238 1.50269Z" fill="#0F0E0D"/>
<path d="M44.703 8.1769C44.0101 8.24119 44.0485 7.75896 44.0527 7.30029C44.3491 7.53177 44.5431 7.84254 44.703 8.1769Z" fill="#0F0E0D"/>
<path d="M20.6114 39.3745C20.6605 39.8718 20.5645 40.2618 19.9569 40.279C20.104 39.9253 20.3002 39.6081 20.6114 39.3745Z" fill="#0F0E0D"/>
<path d="M12.7678 46.9531C12.8637 46.7088 12.4544 46.1258 13.1921 46.3144C13.0514 46.5266 12.9085 46.7388 12.7678 46.9531Z" fill="#0F0E0D"/>
<path d="M43.3556 18.1174C43.1893 17.7337 43.1189 17.4165 43.7287 17.5644C43.605 17.7487 43.4792 17.933 43.3556 18.1174Z" fill="#0F0E0D"/>
<path d="M41.8632 20.2585C41.6948 19.8706 41.6372 19.5598 42.2405 19.6948C42.1148 19.8834 41.989 20.0699 41.8632 20.2585Z" fill="#0F0E0D"/>
<path d="M21.9013 37.4862C21.9056 37.8056 21.9205 38.1335 21.4621 38.1378C21.6092 37.9213 21.7542 37.7027 21.9013 37.4862Z" fill="#0F0E0D"/>
<path d="M21.912 3.2688C21.9098 3.60529 21.8651 3.9075 21.4152 3.8732C21.5261 3.62458 21.6668 3.40383 21.912 3.2688Z" fill="#0F0E0D"/>
<path d="M10.4226 50.3738C10.4098 50.0459 10.4013 49.7244 10.8661 49.7287C10.7189 49.943 10.5697 50.1595 10.4226 50.3738Z" fill="#0F0E0D"/>
<path d="M10.8554 49.7394C10.8277 49.3943 10.8383 49.0792 11.3095 49.0857C11.2008 49.3343 11.1091 49.5936 10.8554 49.7394Z" fill="#0F0E0D"/>
<path d="M2.51078 43.6589C2.5385 44.0147 2.52997 44.3448 2.03961 44.3341C2.13342 44.064 2.26134 43.8175 2.51078 43.6589Z" fill="#0F0E0D"/>
<path d="M12.335 47.5939C12.3286 47.2724 12.3137 46.9424 12.7763 46.9424C12.6292 47.1589 12.4821 47.3775 12.335 47.5939Z" fill="#0F0E0D"/>
<path d="M21.4706 38.1293C21.4877 38.4658 21.477 38.783 21.0123 38.7765C21.1658 38.5601 21.3171 38.3457 21.4706 38.1293Z" fill="#0F0E0D"/>
<path d="M24.6707 46.0486C24.6686 45.6821 24.7667 45.4078 25.2144 45.4592C25.0822 45.7014 24.9372 45.9307 24.6707 46.0486Z" fill="#0F0E0D"/>
<path d="M25.5342 45.0155C25.5257 44.6769 25.547 44.3618 26.0011 44.3533C25.8455 44.574 25.6899 44.7948 25.5342 45.0155Z" fill="#0F0E0D"/>
<path d="M10.1391 50.8689C9.96425 50.5409 10.0943 50.393 10.4312 50.363L10.1391 50.8689Z" fill="#0F0E0D"/>
<path d="M19.5113 40.907C19.6328 40.9863 19.7458 41.1085 19.6222 41.2242C19.5582 41.2842 19.3791 41.2199 19.2512 41.2113C19.3386 41.1106 19.4239 41.0077 19.5113 40.907Z" fill="#0F0E0D"/>
<path d="M22.3383 36.8668C22.6432 37.2676 22.3277 37.2526 22.0676 37.274C22.1571 37.139 22.2488 37.0018 22.3383 36.8668Z" fill="#0F0E0D"/>
<path d="M42.3109 19.6092C42.1126 19.2684 42.264 19.1376 42.6009 19.1205C42.5049 19.2834 42.4069 19.4463 42.3109 19.6092Z" fill="#0F0E0D"/>
<path d="M45.1614 9.02129C44.8842 8.99129 44.5921 8.96771 44.9311 8.59692C45.123 8.67623 45.123 8.8584 45.1614 9.02129Z" fill="#0F0E0D"/>
<path d="M30.5337 37.5227C29.4784 37.602 28.6448 37.1241 27.8453 36.5861C26.6109 35.7567 25.3615 34.9444 24.1782 34.0463C22.1123 32.4753 19.5689 33.2254 18.2214 35.2508C14.8763 40.2747 11.4246 45.2235 8.00917 50.1981C7.02206 51.6362 6.04987 52.0049 4.35279 51.6234C3.27827 51.3833 2.40202 50.3524 2.208 49.0943C2.0481 48.0484 2.5875 47.2404 3.13116 46.4474C5.97951 42.2894 8.83639 38.1378 11.689 33.982C13.3349 31.5815 14.8891 29.1082 16.6523 26.7956C17.6543 25.4818 18.0658 24.2129 17.6437 22.6269C17.3132 21.3795 16.3751 20.7022 15.388 20.07C13.5566 18.8976 13.3115 17.4337 14.6887 15.7105C15.3305 14.9068 15.9999 14.1224 16.6033 13.2908C17.1043 12.6006 17.552 12.5342 18.2747 13.0379C23.383 16.6086 28.5147 20.1407 33.6422 23.6836C34.4289 24.2279 35.2327 24.7488 36.0087 25.306C38.113 26.817 38.2963 29.2432 36.6611 31.2258C35.4778 32.6596 34.5376 34.2928 33.4652 35.821C32.7468 36.8433 31.9195 37.7156 30.538 37.5184L30.5337 37.5227ZM30.781 34.4857C31.2373 34.5307 31.6552 34.3635 31.9536 34.0656C32.8619 33.159 33.6422 32.1324 34.107 30.93C34.4246 30.1113 34.0857 29.3868 33.3885 28.881C31.265 27.3421 29.1437 25.799 26.9882 24.3051C25.9755 23.6021 25.0566 23.7629 24.2571 24.7059C23.7774 25.2739 23.3617 25.8997 22.9289 26.5084C21.961 27.8737 22.0121 28.5274 23.3191 29.5133C25.3551 31.05 27.4317 32.5353 29.504 34.0227C29.8728 34.2885 30.2864 34.5221 30.7789 34.4857H30.781Z" fill="#F65941"/>
<path d="M37.4286 22.8798C36.7464 23.9021 36.3008 22.8198 35.7486 22.6912C34.7487 21.9625 33.768 21.2016 32.7382 20.5179C32.2585 20.1985 32.25 20.0035 32.589 19.5556C33.979 17.7123 35.3201 15.8348 36.6846 13.9723C37.9339 12.2662 37.7015 10.9203 35.9725 9.74146C34.5078 8.74484 33.0644 7.71392 31.6019 6.713C29.8579 5.51705 28.6448 5.68209 27.4551 7.41814C26.9008 8.22831 26.5021 8.31404 25.7687 7.67534C25.0502 7.0495 24.2486 6.50296 23.4299 6.01644C22.7477 5.60921 22.8841 5.25557 23.3041 4.77976C24.0994 3.87959 25.1121 3.30947 26.1738 2.8058C26.5384 2.69006 26.9029 2.57433 27.2675 2.45859C27.4722 2.4243 27.6747 2.39 27.8794 2.35785C28.2312 2.2957 28.583 2.2314 28.9347 2.16925C29.0797 2.16282 29.2247 2.15853 29.3697 2.1521C29.9346 2.1521 30.4996 2.1521 31.0667 2.1521C31.2032 2.17568 31.3418 2.19925 31.4782 2.22068C31.8108 2.46502 32.2052 2.26355 32.557 2.36643C32.6935 2.39215 32.8299 2.41787 32.9663 2.44144C33.3267 2.55932 33.687 2.6772 34.0494 2.79508L34.6911 3.04371C34.834 3.11229 34.9747 3.18302 35.1175 3.2516C35.141 3.29447 35.1751 3.30304 35.2156 3.27732C35.4672 3.41664 35.7188 3.55595 35.9703 3.69526C37.7719 4.8655 39.3666 6.31435 41.0957 7.57675C42.3024 8.45764 43.2021 9.53356 43.6647 10.9653C43.9952 12.2384 43.8225 13.4472 43.2042 14.6003C41.2321 17.3244 39.2536 20.0464 37.4329 22.8798H37.4286Z" fill="#9C9A95"/>
<path d="M22.3725 44.7928C20.9952 44.7885 20.1957 43.5625 20.8801 42.5166C22.0079 40.7912 23.253 39.1452 24.4426 37.4627C24.643 37.1798 24.8499 37.1112 25.1462 37.3148C25.7325 37.7156 26.3124 38.125 26.9179 38.4958C27.3251 38.7466 27.195 38.978 26.9904 39.2717C25.9073 40.8148 24.8413 42.3687 23.754 43.9076C23.3958 44.4155 22.946 44.812 22.3725 44.7928Z" fill="#9C9A95"/>
<path d="M43.2 14.6003C43.8182 13.4494 43.9909 12.2384 43.6605 10.9653C44.4429 11.8205 44.1572 14.0731 43.2 14.6003Z" fill="#0F0E0D"/>
<path d="M31.0625 2.14993C30.4975 2.14993 29.9325 2.14993 29.3654 2.14993C29.9304 1.54338 30.4975 1.54124 31.0625 2.14993Z" fill="#0F0E0D"/>
<path d="M32.5527 2.36432C32.2009 2.26145 31.8065 2.46291 31.4739 2.21858C31.8833 1.90137 32.2713 1.7342 32.5527 2.36432Z" fill="#0F0E0D"/>
<path d="M34.043 2.79503C33.6827 2.67715 33.3224 2.55927 32.96 2.44139C33.461 2.12419 33.8 2.30637 34.043 2.79503Z" fill="#0F0E0D"/>
<path d="M27.2633 2.45858C26.8987 2.57432 26.5341 2.69005 26.1696 2.80579C26.4147 2.30855 26.7537 2.11137 27.2633 2.45858Z" fill="#0F0E0D"/>
<path d="M28.9305 2.16714C28.5787 2.2293 28.227 2.2936 27.8752 2.35575C28.1289 1.74063 28.5212 1.90138 28.9305 2.16714Z" fill="#0F0E0D"/>
<path d="M35.9661 3.69527C35.7145 3.55596 35.4629 3.41665 35.2114 3.27733C35.5461 3.26662 35.9128 3.19803 35.9661 3.69527Z" fill="#0F0E0D"/>
<path d="M35.1112 3.24949C34.9683 3.1809 34.8276 3.11017 34.6848 3.04159C35.0131 2.72438 35.0685 2.973 35.1112 3.24949Z" fill="#0F0E0D"/>
<path d="M25.0438 1.21973C25.0758 1.26902 25.1099 1.31617 25.1419 1.36547C25.0929 1.33332 25.0438 1.30331 24.9948 1.27117L25.0438 1.21973Z" fill="#0F0E0D"/>
<path d="M38.3113 23.587C38.5181 23.5442 38.7718 23.242 38.9018 23.6535C38.9743 23.8807 38.8251 24.1164 38.6076 24.1314C38.2217 24.1593 38.3454 23.8121 38.3027 23.5956L38.3113 23.5849V23.587Z" fill="#1A1A19"/>
<path d="M30.7832 34.4856C30.2907 34.5221 29.8771 34.2885 29.5083 34.0227C27.436 32.5353 25.3615 31.05 23.3233 29.5132C22.0164 28.5273 21.9653 27.8736 22.9332 26.5083C23.366 25.8997 23.7796 25.2738 24.2614 24.7058C25.0609 23.7607 25.9798 23.6021 26.9925 24.3051C29.148 25.7989 31.2693 27.3421 33.3928 28.881C34.0899 29.3846 34.4289 30.1112 34.1113 30.9299C33.6444 32.1323 32.8662 33.159 31.9579 34.0656C31.6595 34.3635 31.2437 34.5307 30.7875 34.4856H30.7832ZM31.9302 30.6192C31.8386 30.3041 31.5827 30.2227 31.3887 30.0812C29.9539 29.0417 28.5062 28.0194 27.0778 26.9713C25.8455 26.069 25.8924 26.0904 24.9884 27.2585C24.5642 27.805 24.7752 27.9958 25.2123 28.3066C26.8006 29.4382 28.3591 30.6063 29.9432 31.7465C30.2076 31.9373 30.5082 32.4217 30.8237 32.128C31.28 31.7058 31.5827 31.1143 31.9324 30.6192H31.9302Z" fill="#1A1A19"/>
<path d="M31.9302 30.6192C31.5784 31.1143 31.2757 31.7037 30.8215 32.1281C30.506 32.4217 30.2054 31.9373 29.941 31.7466C28.3591 30.6085 26.7985 29.4383 25.2101 28.3066C24.7731 27.9958 24.562 27.8051 24.9863 27.2586C25.8924 26.0905 25.8455 26.069 27.0756 26.9714C28.5062 28.0173 29.9517 29.0418 31.3865 30.0813C31.5805 30.2227 31.8364 30.3042 31.9281 30.6192H31.9302Z" fill="#9C9A95"/>
</g>
<defs>
<clipPath id="clip0_46_1750">
<rect width="46" height="54" fill="white"/>
</clipPath>
</defs>
</svg>
